<svg width="36" height="36" viewBox="0 0 36 36" fill="none" xmlns="http://www.w3.org/2000/svg">
<circle r="17.6454" transform="matrix(-1 0 0 1 17.7901 17.9618)" fill="#3F306B"/>
<path fill-rule="evenodd" clip-rule="evenodd" d="M16.9363 9.17654C16.5134 8.75365 15.8278 8.75365 15.4049 9.17654L7.82485 16.7566C7.40196 17.1795 7.40196 17.8651 7.82485 18.288L15.4049 25.8681C15.8278 26.291 16.5134 26.291 16.9363 25.8681C17.3592 25.4452 17.3592 24.7596 16.9363 24.3367L11.2048 18.6052H28.0822C28.6802 18.6052 29.165 18.1204 29.165 17.5223C29.165 16.9243 28.6802 16.4394 28.0822 16.4394H11.2048L16.9363 10.7079C17.3592 10.2851 17.3592 9.59943 16.9363 9.17654Z" fill="white"/>
</svg>
