<svg width="25" height="26" viewBox="0 0 25 26" fill="none" xmlns="http://www.w3.org/2000/svg">
<path d="M12 23C6.4875 23 2 18.5125 2 13C2 7.4875 6.4875 3 12 3C17.5125 3 22 7.4875 22 13C22 18.5125 17.5125 23 12 23ZM20.4333 14.3683C20.1417 14.2767 17.7917 13.5742 15.1133 14.0033C16.23 17.0733 16.6858 19.5733 16.7733 20.0933C18.69 18.7975 20.0533 16.7433 20.4358 14.3683H20.4333ZM15.3375 20.875C15.21 20.125 14.7125 17.515 13.5125 14.4L13.4575 14.4167C8.6325 16.0958 6.9075 19.4375 6.7575 19.75C8.19917 20.8817 10.0242 21.555 11.9992 21.555C13.1825 21.555 14.3075 21.3133 15.3325 20.8767L15.3375 20.875ZM5.65417 18.725C5.8475 18.3917 8.19167 14.5125 12.5975 13.0875C12.71 13.05 12.8225 13.0175 12.935 12.9875C12.7183 12.5 12.485 12.015 12.2417 11.5375C7.975 12.8125 3.83833 12.7583 3.46333 12.75L3.46 13.01C3.46 15.2042 4.29167 17.2075 5.655 18.7225L5.65417 18.725ZM3.6375 11.2625C4.02083 11.2692 7.54 11.2842 11.535 10.2225C10.12 7.7075 8.59333 5.59083 8.36833 5.2825C5.97833 6.4075 4.19333 8.6075 3.63833 11.2575L3.6375 11.2625ZM10 4.71C10.235 5.02667 11.7875 7.13833 13.185 9.71C16.2225 8.5725 17.51 6.84333 17.6625 6.625C16.1542 5.28333 14.1708 4.47 12 4.47C11.3125 4.47 10.6417 4.55333 10 4.7075V4.71ZM18.6125 7.6125C18.4308 7.85417 17 9.69 13.8425 10.9792C14.0425 11.3875 14.2342 11.8 14.4092 12.2175C14.4758 12.3675 14.5342 12.5175 14.5925 12.6592C17.4342 12.3008 20.2592 12.8758 20.5425 12.9342C20.5258 10.9175 19.8092 9.0675 18.6175 7.6175L18.6125 7.6125Z" fill="white"/>
</svg>
