<svg width="25" height="26" viewBox="0 0 25 26" fill="none" xmlns="http://www.w3.org/2000/svg">
<path fill-rule="evenodd" clip-rule="evenodd" d="M3.64551 11.6302C3.64551 6.83862 7.64955 2.96582 12.4928 2.96582C17.3498 2.96582 21.3538 6.83862 21.3538 11.6302C21.3538 14.0447 20.4757 16.2863 19.0304 18.1862C17.4359 20.282 15.4707 22.108 13.2586 23.5413C12.7523 23.8725 12.2954 23.8975 11.7397 23.5413C9.51502 22.108 7.54977 20.282 5.96895 18.1862C4.52257 16.2863 3.64551 14.0447 3.64551 11.6302ZM9.577 11.8999C9.577 13.5051 10.8868 14.7676 12.4928 14.7676C14.0999 14.7676 15.4224 13.5051 15.4224 11.8999C15.4224 10.3073 14.0999 8.98335 12.4928 8.98335C10.8868 8.98335 9.577 10.3073 9.577 11.8999Z" fill="white"/>
</svg>
