<svg width="25" height="26" viewBox="0 0 25 26" fill="none" xmlns="http://www.w3.org/2000/svg">
<path fill-rule="evenodd" clip-rule="evenodd" d="M17.6454 4.00781C19.0423 4.00781 20.3861 4.5599 21.3746 5.55052C22.3642 6.53906 22.9173 7.8724 22.9173 9.26823V17.4974C22.9173 20.4036 20.5527 22.7578 17.6454 22.7578H7.35482C4.44753 22.7578 2.08398 20.4036 2.08398 17.4974V9.26823C2.08398 6.36198 4.43711 4.00781 7.35482 4.00781H17.6454ZM19.3027 10.8203L19.3861 10.737C19.635 10.4349 19.635 9.9974 19.3746 9.69531C19.2298 9.5401 19.0309 9.44531 18.8236 9.42448C18.6048 9.41302 18.3965 9.48698 18.2392 9.63281L13.5423 13.3828C12.9382 13.8839 12.0725 13.8839 11.459 13.3828L6.77148 9.63281C6.44753 9.39323 5.99961 9.42448 5.72982 9.70573C5.44857 9.98698 5.41732 10.4349 5.65586 10.7474L5.79232 10.8828L10.5319 14.5807C11.1152 15.0391 11.8225 15.2891 12.5632 15.2891C13.3017 15.2891 14.0215 15.0391 14.6038 14.5807L19.3027 10.8203Z" fill="white"/>
</svg>
