<svg width="25" height="26" viewBox="0 0 25 26" fill="none" xmlns="http://www.w3.org/2000/svg">
<path d="M23.3952 7.13314C22.5931 7.49772 21.7285 7.73731 20.8327 7.85189C21.7494 7.29981 22.4577 6.4248 22.791 5.37272C21.9264 5.89355 20.9681 6.25814 19.9577 6.46647C19.1348 5.57064 17.9785 5.0498 16.666 5.0498C14.2181 5.0498 12.2181 7.04981 12.2181 9.51856C12.2181 9.87272 12.2598 10.2165 12.3327 10.5394C8.62435 10.3519 5.32227 8.57064 3.12435 5.87272C2.73893 6.52897 2.52018 7.29981 2.52018 8.11231C2.52018 9.66439 3.30143 11.0394 4.50977 11.8206C3.77018 11.8206 3.08268 11.6123 2.47852 11.2998V11.3311C2.47852 13.4977 4.02018 15.3102 6.06185 15.7165C5.40636 15.8959 4.7182 15.9208 4.05143 15.7894C4.33436 16.6774 4.88845 17.4544 5.63583 18.0112C6.3832 18.568 7.28627 18.8766 8.2181 18.8936C6.63855 20.144 4.6806 20.8199 2.66602 20.8102C2.31185 20.8102 1.95768 20.7894 1.60352 20.7477C3.58268 22.0186 5.93685 22.7581 8.45768 22.7581C16.666 22.7581 21.1764 15.9456 21.1764 10.0394C21.1764 9.84147 21.1764 9.65397 21.166 9.45606C22.041 8.83105 22.791 8.03939 23.3952 7.13314V7.13314Z" fill="white"/>
</svg>
