<svg width="30" height="30" viewBox="0 0 30 30" fill="none" xmlns="http://www.w3.org/2000/svg">
<path d="M15 28C8.10938 28 2.5 22.3906 2.5 15.5C2.5 8.60938 8.10938 3 15 3C21.8906 3 27.5 8.60938 27.5 15.5C27.5 22.3906 21.8906 28 15 28ZM25.5417 17.2104C25.1771 17.0958 22.2396 16.2177 18.8917 16.7542C20.2875 20.5917 20.8573 23.7167 20.9667 24.3667C23.3625 22.7469 25.0667 20.1792 25.5448 17.2104H25.5417ZM19.1719 25.3438C19.0125 24.4062 18.3906 21.1437 16.8906 17.25L16.8219 17.2708C10.7906 19.3698 8.63438 23.5469 8.44688 23.9375C10.249 25.3521 12.5302 26.1938 14.999 26.1938C16.4781 26.1938 17.8844 25.8917 19.1656 25.3458L19.1719 25.3438ZM7.06771 22.6562C7.30937 22.2396 10.2396 17.3906 15.7469 15.6094C15.8875 15.5625 16.0281 15.5219 16.1687 15.4844C15.8979 14.875 15.6062 14.2687 15.3021 13.6719C9.96875 15.2656 4.79792 15.1979 4.32917 15.1875L4.325 15.5125C4.325 18.2552 5.36458 20.7594 7.06875 22.6531L7.06771 22.6562ZM4.54688 13.3281C5.02604 13.3365 9.425 13.3552 14.4187 12.0281C12.65 8.88438 10.7417 6.23854 10.4604 5.85313C7.47292 7.25938 5.24167 10.0094 4.54792 13.3219L4.54688 13.3281ZM12.5 5.1375C12.7937 5.53333 14.7344 8.17292 16.4812 11.3875C20.2781 9.96563 21.8875 7.80417 22.0781 7.53125C20.1927 5.85417 17.7135 4.8375 15 4.8375C14.1406 4.8375 13.3021 4.94167 12.5 5.13438V5.1375ZM23.2656 8.76562C23.0385 9.06771 21.25 11.3625 17.3031 12.974C17.5531 13.4844 17.7927 14 18.0115 14.5219C18.0948 14.7094 18.1677 14.8969 18.2406 15.074C21.7927 14.626 25.324 15.3448 25.6781 15.4177C25.6573 12.8969 24.7615 10.5844 23.2719 8.77187L23.2656 8.76562Z" fill="url(#paint0_linear_914_1248)"/>
<defs>
<linearGradient id="paint0_linear_914_1248" x1="23.8326" y1="6.6582" x2="38.0931" y2="21.7741" gradientUnits="userSpaceOnUse">
<stop stop-color="#D4088C"/>
<stop offset="0.04" stop-color="#CB078B"/>
<stop offset="0.46" stop-color="#85068A"/>
<stop offset="0.76" stop-color="#580689"/>
<stop offset="0.91" stop-color="#480689"/>
</linearGradient>
</defs>
</svg>
