<svg width="20" height="20" viewBox="0 0 20 20" fill="none" xmlns="http://www.w3.org/2000/svg">
<path d="M14.939 1C16.28 1 17.57 1.53 18.519 2.481C19.469 3.43 20 4.71 20 6.05V13.95C20 16.74 17.73 19 14.939 19H5.06C2.269 19 0 16.74 0 13.95V6.05C0 3.26 2.259 1 5.06 1H14.939ZM16.07 6.2C15.86 6.189 15.66 6.26 15.509 6.4L11 10C10.42 10.481 9.589 10.481 9 10L4.5 6.4C4.189 6.17 3.759 6.2 3.5 6.47C3.23 6.74 3.2 7.17 3.429 7.47L3.56 7.6L8.11 11.15C8.67 11.59 9.349 11.83 10.06 11.83C10.769 11.83 11.46 11.59 12.019 11.15L16.53 7.54L16.61 7.46C16.849 7.17 16.849 6.75 16.599 6.46C16.46 6.311 16.269 6.22 16.07 6.2Z" fill="url(#paint0_linear_940_1064)"/>
<defs>
<linearGradient id="paint0_linear_940_1064" x1="17.0661" y1="3.63391" x2="4.40847" y2="17.6979" gradientUnits="userSpaceOnUse">
<stop stop-color="#D4088C"/>
<stop offset="0.04" stop-color="#CB078B"/>
<stop offset="0.46" stop-color="#85068A"/>
<stop offset="0.76" stop-color="#580689"/>
<stop offset="0.91" stop-color="#480689"/>
</linearGradient>
</defs>
</svg>
