<svg width="300" height="300" viewBox="0 0 300 300" fill="none" xmlns="http://www.w3.org/2000/svg">
<circle cx="150" cy="150" r="147" fill="#1C0B4E" stroke="url(#paint0_linear_831_1288)" stroke-width="6"/>
<g filter="url(#filter0_i_831_1288)">
<path d="M175.724 90.75C175.724 89.9216 176.396 89.25 177.224 89.25H201C201.828 89.25 202.5 89.9216 202.5 90.75V173.296C202.5 182.732 200.294 190.989 195.883 198.067C191.514 205.144 185.392 210.663 177.518 214.623C169.644 218.541 160.471 220.5 150 220.5C139.488 220.5 130.294 218.541 122.42 214.623C114.547 210.663 108.425 205.144 104.055 198.067C99.6849 190.989 97.5 182.732 97.5 173.296V125.618C97.5 124.789 98.1716 124.118 99 124.118H110.188H122.776C123.604 124.118 124.276 124.789 124.276 125.618V170.957C124.276 175.886 125.327 180.268 127.429 184.101C129.573 187.935 132.582 190.947 136.458 193.138C140.333 195.328 144.847 196.424 150 196.424C155.194 196.424 159.708 195.328 163.542 193.138C167.418 190.947 170.406 187.935 172.509 184.101C174.653 180.268 175.724 175.886 175.724 170.957V90.75Z" fill="white"/>
<rect x="97.5" y="89.3589" width="27.1891" height="24.6968" rx="1.5" fill="white"/>
</g>
<defs>
<filter id="filter0_i_831_1288" x="97.5" y="89.25" width="107.25" height="133.5" filterUnits="userSpaceOnUse" color-interpolation-filters="sRGB">
<feFlood flood-opacity="0" result="BackgroundImageFix"/>
<feBlend mode="normal" in="SourceGraphic" in2="BackgroundImageFix" result="shape"/>
<feColorMatrix in="SourceAlpha" type="matrix" values="0 0 0 0 0 0 0 0 0 0 0 0 0 0 0 0 0 0 127 0" result="hardAlpha"/>
<feOffset dx="2.25" dy="3"/>
<feGaussianBlur stdDeviation="1.125"/>
<feComposite in2="hardAlpha" operator="arithmetic" k2="-1" k3="1"/>
<feColorMatrix type="matrix" values="0 0 0 0 0 0 0 0 0 0 0 0 0 0 0 0 0 0 0.25 0"/>
<feBlend mode="normal" in2="shape" result="effect1_innerShadow_831_1288"/>
</filter>
<linearGradient id="paint0_linear_831_1288" x1="255.991" y1="43.8984" x2="43.8591" y2="256.03" gradientUnits="userSpaceOnUse">
<stop stop-color="#D4088C"/>
<stop offset="0.04" stop-color="#CB078B"/>
<stop offset="0.46" stop-color="#85068A"/>
<stop offset="0.76" stop-color="#580689"/>
<stop offset="0.91" stop-color="#480689"/>
</linearGradient>
</defs>
</svg>
