<svg width="17" height="16" viewBox="0 0 17 16" fill="none" xmlns="http://www.w3.org/2000/svg">
<g clip-path="url(#clip0_430_4441)">
<path d="M8.63416 15.7987C4.41183 15.7987 0.974609 12.3616 0.974609 8.13956C0.974609 3.91749 4.41183 0.480469 8.63416 0.480469C12.8565 0.480469 16.2937 3.91749 16.2937 8.13956C16.2937 12.3616 12.8565 15.7987 8.63416 15.7987ZM15.0937 9.18758C14.8703 9.11737 13.0703 8.57932 11.0188 8.90803C11.8742 11.2594 12.2233 13.1741 12.2903 13.5724C13.7584 12.5799 14.8027 11.0066 15.0956 9.18758H15.0937ZM11.1905 14.1711C11.0929 13.5967 10.7118 11.5976 9.79267 9.21184L9.75054 9.2246C6.05481 10.5107 4.73354 13.0701 4.61864 13.3095C5.72289 14.1762 7.12076 14.6919 8.63353 14.6919C9.53991 14.6919 10.4016 14.5068 11.1867 14.1724L11.1905 14.1711ZM3.77354 12.5244C3.92162 12.2691 5.71715 9.298 9.09182 8.20658C9.17799 8.17786 9.26416 8.15297 9.35033 8.12999C9.18437 7.75661 9.00565 7.38514 8.81927 7.01942C5.55119 7.99595 2.38269 7.95447 2.09546 7.94808L2.0929 8.14722C2.0929 9.82775 2.72992 11.3621 3.77418 12.5225L3.77354 12.5244ZM2.22886 6.80879C2.52248 6.8139 5.218 6.82539 8.27799 6.01225C7.19417 4.08599 6.02481 2.46481 5.85247 2.22866C4.02184 3.0903 2.6546 4.77531 2.2295 6.80497L2.22886 6.80879ZM7.10225 1.79017C7.28225 2.03271 8.4714 3.65006 9.54182 5.61972C11.8684 4.7485 12.8546 3.42411 12.9714 3.25689C11.8161 2.2293 10.2969 1.60636 8.63416 1.60636C8.10757 1.60636 7.59374 1.67018 7.10225 1.78826V1.79017ZM13.699 4.01323C13.5599 4.19832 12.4639 5.6044 10.0454 6.59179C10.1986 6.90453 10.3454 7.22047 10.4795 7.54024C10.5305 7.65512 10.5752 7.77001 10.6199 7.87851C12.7965 7.60406 14.9603 8.04446 15.1773 8.08914C15.1646 6.54456 14.6156 5.12762 13.7029 4.01706L13.699 4.01323Z" fill="white"/>
</g>
<defs>
<clipPath id="clip0_430_4441">
<rect width="15.3191" height="15.3182" fill="white" transform="translate(0.974609 0.480469)"/>
</clipPath>
</defs>
</svg>
