<svg width="20" height="21" viewBox="0 0 20 21" fill="none" xmlns="http://www.w3.org/2000/svg">
<path d="M10 20.3828C4.4875 20.3828 0 15.8953 0 10.3828C0 4.87031 4.4875 0.382812 10 0.382812C15.5125 0.382812 20 4.87031 20 10.3828C20 15.8953 15.5125 20.3828 10 20.3828ZM18.4333 11.7511C18.1417 11.6595 15.7917 10.957 13.1133 11.3861C14.23 14.4561 14.6858 16.9561 14.7733 17.4761C16.69 16.1803 18.0533 14.1261 18.4358 11.7511H18.4333ZM13.3375 18.2578C13.21 17.5078 12.7125 14.8978 11.5125 11.7828L11.4575 11.7995C6.6325 13.4786 4.9075 16.8203 4.7575 17.1328C6.19917 18.2645 8.02417 18.9378 9.99917 18.9378C11.1825 18.9378 12.3075 18.6961 13.3325 18.2595L13.3375 18.2578ZM3.65417 16.1078C3.8475 15.7745 6.19167 11.8953 10.5975 10.4703C10.71 10.4328 10.8225 10.4003 10.935 10.3703C10.7183 9.88281 10.485 9.39781 10.2417 8.92031C5.975 10.1953 1.83833 10.1411 1.46333 10.1328L1.46 10.3928C1.46 12.587 2.29167 14.5903 3.655 16.1053L3.65417 16.1078ZM1.6375 8.64531C2.02083 8.65198 5.54 8.66698 9.535 7.60531C8.12 5.09031 6.59333 2.97365 6.36833 2.66531C3.97833 3.79031 2.19333 5.99031 1.63833 8.64031L1.6375 8.64531ZM8 2.09281C8.235 2.40948 9.7875 4.52115 11.185 7.09281C14.2225 5.95531 15.51 4.22615 15.6625 4.00781C14.1542 2.66615 12.1708 1.85281 10 1.85281C9.3125 1.85281 8.64167 1.93615 8 2.09031V2.09281ZM16.6125 4.99531C16.4308 5.23698 15 7.07281 11.8425 8.36198C12.0425 8.77031 12.2342 9.18281 12.4092 9.60031C12.4758 9.75031 12.5342 9.90031 12.5925 10.042C15.4342 9.68365 18.2592 10.2586 18.5425 10.317C18.5258 8.30031 17.8092 6.45031 16.6175 5.00031L16.6125 4.99531Z" fill="white"/>
</svg>
