<svg width="26" height="26" viewBox="0 0 26 26" fill="none" xmlns="http://www.w3.org/2000/svg">
<path d="M12.8271 25.5C5.93652 25.5 0.327148 19.8906 0.327148 13C0.327148 6.10938 5.93652 0.5 12.8271 0.5C19.7178 0.5 25.3271 6.10938 25.3271 13C25.3271 19.8906 19.7178 25.5 12.8271 25.5ZM23.3688 14.7104C23.0042 14.5958 20.0667 13.7177 16.7188 14.2542C18.1146 18.0917 18.6844 21.2167 18.7938 21.8667C21.1896 20.2469 22.8938 17.6792 23.3719 14.7104H23.3688ZM16.999 22.8437C16.8396 21.9063 16.2178 18.6437 14.7178 14.75L14.649 14.7708C8.61777 16.8698 6.46152 21.0469 6.27402 21.4375C8.07611 22.8521 10.3574 23.6937 12.8261 23.6937C14.3053 23.6937 15.7115 23.3917 16.9928 22.8458L16.999 22.8437ZM4.89486 20.1563C5.13652 19.7396 8.06673 14.8906 13.574 13.1094C13.7146 13.0625 13.8553 13.0219 13.9959 12.9844C13.7251 12.375 13.4334 11.7687 13.1292 11.1719C7.7959 12.7656 2.62507 12.6979 2.15632 12.6875L2.15215 13.0125C2.15215 15.7552 3.19173 18.2594 4.8959 20.1531L4.89486 20.1563ZM2.37402 10.8281C2.85319 10.8365 7.25215 10.8552 12.2459 9.52812C10.4771 6.38437 8.56882 3.73854 8.28757 3.35312C5.30007 4.75937 3.06881 7.50938 2.37506 10.8219L2.37402 10.8281ZM10.3271 2.6375C10.6209 3.03333 12.5615 5.67292 14.3084 8.8875C18.1053 7.46562 19.7146 5.30417 19.9053 5.03125C18.0199 3.35417 15.5407 2.3375 12.8271 2.3375C11.9678 2.3375 11.1292 2.44167 10.3271 2.63437V2.6375ZM21.0928 6.26562C20.8657 6.56771 19.0771 8.8625 15.1303 10.474C15.3803 10.9844 15.6199 11.5 15.8386 12.0219C15.9219 12.2094 15.9949 12.3969 16.0678 12.574C19.6199 12.126 23.1511 12.8448 23.5053 12.9177C23.4844 10.3969 22.5886 8.08437 21.099 6.27187L21.0928 6.26562Z" fill="#FFF4F4"/>
</svg>
