<svg width="30" height="31" viewBox="0 0 30 31" fill="none" xmlns="http://www.w3.org/2000/svg">
<circle r="15" transform="matrix(1 0 0 -1 15 15.8828)" fill="#3F306B"/>
<g clip-path="url(#clip0_408_2205)">
<path d="M15 24.6572C10.0388 24.6572 6 20.6185 6 15.6572C6 10.696 10.0388 6.65723 15 6.65723C19.9613 6.65723 24 10.696 24 15.6572C24 20.6185 19.9613 24.6572 15 24.6572ZM22.59 16.8887C22.3275 16.8062 20.2125 16.174 17.802 16.5602C18.807 19.3232 19.2173 21.5732 19.296 22.0412C21.021 20.875 22.248 19.0262 22.5922 16.8887H22.59ZM18.0037 22.7447C17.889 22.0697 17.4412 19.7207 16.3612 16.9172L16.3117 16.9322C11.9692 18.4435 10.4167 21.451 10.2818 21.7322C11.5793 22.7507 13.2217 23.3567 14.9992 23.3567C16.0642 23.3567 17.0767 23.1392 17.9992 22.7462L18.0037 22.7447ZM9.28875 20.8097C9.46275 20.5097 11.5725 17.0185 15.5378 15.736C15.639 15.7022 15.7402 15.673 15.8415 15.646C15.6465 15.2072 15.4365 14.7707 15.2175 14.341C11.3775 15.4885 7.6545 15.4397 7.317 15.4322L7.314 15.6662C7.314 17.641 8.0625 19.444 9.2895 20.8075L9.28875 20.8097ZM7.47375 14.0935C7.81875 14.0995 10.986 14.113 14.5815 13.1575C13.308 10.894 11.934 8.98898 11.7315 8.71148C9.5805 9.72398 7.974 11.704 7.4745 14.089L7.47375 14.0935ZM13.2 8.19623C13.4115 8.48123 14.8088 10.3817 16.0665 12.6962C18.8003 11.6725 19.959 10.1162 20.0963 9.91973C18.7388 8.71223 16.9537 7.98023 15 7.98023C14.3813 7.98023 13.7775 8.05523 13.2 8.19398V8.19623ZM20.9513 10.8085C20.7877 11.026 19.5 12.6782 16.6583 13.8385C16.8383 14.206 17.0107 14.5772 17.1683 14.953C17.2282 15.088 17.2808 15.223 17.3333 15.3505C19.8907 15.028 22.4333 15.5455 22.6882 15.598C22.6733 13.783 22.0282 12.118 20.9557 10.813L20.9513 10.8085Z" fill="#FFF4F4"/>
</g>
<defs>
<clipPath id="clip0_408_2205">
<rect width="18" height="18" fill="white" transform="translate(6 6.65723)"/>
</clipPath>
</defs>
</svg>
