<svg width="406" height="335" viewBox="0 0 406 335" fill="none" xmlns="http://www.w3.org/2000/svg">
<path d="M73.4977 28.7462H2.14648L8.77906 106.003C8.77906 110.289 11.6107 114.587 17.2866 117.852C28.6258 124.396 47.0184 124.396 58.3576 117.852C64.0335 114.574 66.8651 110.289 66.8651 105.99L73.4977 28.7334V28.7462Z" fill="url(#paint0_linear_728_1448)"/>
<path opacity="0.4" d="M73.4977 28.7462H2.14648L3.24341 41.4501C4.87605 43.5419 7.08264 45.5572 9.85047 47.3939C23.4855 56.4372 45.9853 58.1846 61.3295 51.6668L58.9571 108.171C58.855 110.633 58.0004 113.031 56.4061 114.906C54.0974 117.623 49.6459 120.824 41.0874 122.635C47.4011 122.227 53.5234 120.633 58.3576 117.84C64.0335 114.562 66.8651 110.276 66.8651 105.977L72.184 44.0266L73.4977 28.7334V28.7462Z" fill="#06033E"/>
<path opacity="0.4" d="M37.8221 49.345C57.5252 49.345 73.4977 40.1224 73.4977 28.7457C73.4977 17.3691 57.5252 8.14648 37.8221 8.14648C18.119 8.14648 2.14648 17.3691 2.14648 28.7457C2.14648 40.1224 18.119 49.345 37.8221 49.345Z" fill="#06033E"/>
<path opacity="0.4" d="M37.8214 39.2294C54.7913 39.2294 68.5481 31.286 68.5481 21.4873C68.5481 11.6885 54.7913 3.74512 37.8214 3.74512C20.8515 3.74512 7.09473 11.6885 7.09473 21.4873C7.09473 31.286 20.8515 39.2294 37.8214 39.2294Z" fill="#06033E"/>
<path d="M75.6019 27.7769V27.7132C75.6019 27.7132 75.5891 27.6366 75.5891 27.6111L74.9003 20.698L74.8748 20.7745C74.5687 15.5449 70.9591 10.3537 64.0459 6.36138C49.5562 -2.00588 26.0744 -2.00588 11.5847 6.36138C4.49296 10.4557 0.883316 15.8 0.730257 21.1699L0.0797607 27.305C0.0670057 27.4708 0.0414849 27.6239 0.02873 27.7897V27.8917C-0.366674 33.759 3.31951 39.7028 11.0745 44.1798C25.8448 52.7129 49.7986 52.7129 64.5688 44.1798C72.3749 39.6773 76.061 33.6825 75.6146 27.7769H75.6019Z" fill="url(#paint1_linear_728_1448)"/>
<path d="M37.8214 39.2294C54.7913 39.2294 68.5481 31.286 68.5481 21.4873C68.5481 11.6885 54.7913 3.74512 37.8214 3.74512C20.8515 3.74512 7.09473 11.6885 7.09473 21.4873C7.09473 31.286 20.8515 39.2294 37.8214 39.2294Z" fill="url(#paint2_linear_728_1448)"/>
<path d="M36.3546 39.2294C53.3245 39.2294 67.0813 31.286 67.0813 21.4873C67.0813 11.6885 53.3245 3.74512 36.3546 3.74512C19.3847 3.74512 5.62793 11.6885 5.62793 21.4873C5.62793 31.286 19.3847 39.2294 36.3546 39.2294Z" fill="url(#paint3_linear_728_1448)"/>
<path opacity="0.4" d="M19.7349 11.5906C31.7373 4.66466 51.1886 4.66466 63.191 11.5906C63.3441 11.6799 63.4716 11.7692 63.6247 11.8712C62.464 10.8381 61.1119 9.85592 59.5558 8.95032C47.5534 2.02437 28.1021 2.02437 16.0997 8.95032C4.25035 15.787 4.12278 26.82 15.666 33.7715C7.96202 26.8966 9.3013 17.6237 19.7349 11.6033V11.5906Z" fill="#06033E"/>
<path d="M16.087 12.0243C28.0894 5.09832 47.5407 5.09832 59.5431 12.0243C64.8619 15.0982 67.8211 19.014 68.4205 23.0318C69.1731 17.9936 66.2139 12.8023 59.5431 8.95032C47.5407 2.02437 28.0894 2.02437 16.087 8.95032C9.40336 12.8023 6.45697 17.9936 7.20951 23.0318C7.809 19.014 10.7681 15.0982 16.087 12.0243Z" fill="url(#paint4_linear_728_1448)"/>
<path d="M64.2753 6.52662C49.8112 -1.99369 26.2401 -2.19777 11.6229 6.06744C-2.99429 14.3327 -3.10907 27.9422 11.355 36.4625C25.8192 44.9828 49.3903 45.1869 64.0075 36.9217C78.6247 28.6565 78.7395 15.0469 64.2753 6.52662ZM59.5433 34.0391C55.5382 36.3477 50.6913 37.8783 45.5766 38.6436L45.0154 36.8069C44.7858 36.0671 44.1098 35.5569 43.3317 35.5569H32.2987C31.5206 35.5569 30.8446 36.0671 30.615 36.8069L30.0538 38.6436C24.9391 37.8783 20.0922 36.3477 16.0871 34.0391C4.08471 27.1131 4.08471 15.876 16.0871 8.95005C28.0895 2.02411 47.5409 2.02411 59.5433 8.95005C71.5457 15.876 71.5457 27.1131 59.5433 34.0391V34.0391Z" fill="url(#paint5_linear_728_1448)"/>
<path d="M59.5438 7.63586C47.5414 0.709921 28.0901 0.709921 16.0877 7.63586C9.7995 11.271 6.81485 16.0797 7.12097 20.8373C7.40157 16.5133 10.3862 12.2404 16.0877 8.94962C28.0901 2.02368 47.5414 2.02368 59.5438 8.94962C65.2581 12.2532 68.2427 16.5133 68.5233 20.8373C68.8294 16.0797 65.8448 11.271 59.5438 7.63586Z" fill="white" fill-opacity="0.5"/>
<path d="M64.0081 35.6071C49.3909 43.8723 25.8197 43.6682 11.3556 35.1479C4.46791 31.0918 0.896525 25.8878 0.615916 20.6455C0.335307 26.3215 3.90669 32.0612 11.3556 36.4617C25.8197 44.982 49.3909 45.186 64.0081 36.9208C71.661 32.5841 75.3345 26.7934 75.0156 21.0282C74.7477 26.347 71.0871 31.6148 64.0081 35.6071V35.6071Z" fill="white" fill-opacity="0.5"/>
<path d="M41.1256 37.8135H34.5185C34.0607 37.8135 33.6895 38.1847 33.6895 38.6426V38.7701C33.6895 39.228 34.0607 39.5992 34.5185 39.5992H41.1256C41.5835 39.5992 41.9547 39.228 41.9547 38.7701V38.6426C41.9547 38.1847 41.5835 37.8135 41.1256 37.8135Z" fill="#0C0A78"/>
<path d="M41.1128 37.8135H34.5185C34.0594 37.8135 33.6895 38.1834 33.6895 38.6426V38.7573C33.6895 38.8339 33.715 38.9104 33.7405 38.9742C33.8425 38.6298 34.1486 38.3619 34.5313 38.3619H41.1256C41.5082 38.3619 41.8144 38.617 41.9164 38.9742C41.9419 38.8976 41.9674 38.8339 41.9674 38.7573V38.6426C41.9674 38.1834 41.5975 37.8135 41.1383 37.8135H41.1128Z" fill="url(#paint6_linear_728_1448)"/>
<path d="M401.797 106.654L218.304 0.711467C217.041 -0.0155652 215.727 -0.168622 214.554 0.175762H214.541L211.148 1.36197L212.347 1.64258C211.863 2.21656 211.48 2.91807 211.225 3.74714L169.733 138.478C168.7 141.82 170.205 145.876 173.1 147.547L356.593 253.489C357.04 253.744 357.486 253.923 357.945 254.038L357.486 255.033L360.726 253.897C362.052 253.362 363.149 252.175 363.672 250.466L405.164 115.736C406.197 112.394 404.692 108.338 401.797 106.667V106.654Z" fill="url(#paint7_linear_728_1448)"/>
<path d="M350.012 258.515L350.075 258.591L168.827 153.95C166.162 152.406 161.506 152.598 158.419 154.383L41.3161 221.997L37.4131 220.505L38.51 225.99C38.6503 226.806 39.2371 227.584 40.2702 228.184L223.189 333.795C225.855 335.338 230.51 335.147 233.597 333.361L350.994 265.581C352.448 264.739 353.277 263.706 353.481 262.686L354.603 257.367L349.999 258.54L350.012 258.515Z" fill="url(#paint8_linear_728_1448)"/>
<path d="M223.393 328.961L39.1731 222.597C36.4818 221.041 36.8262 218.337 39.9256 216.552L158.164 148.287C161.264 146.501 165.957 146.297 168.636 147.853L352.856 254.217C355.547 255.773 355.203 258.477 352.103 260.263L233.865 328.527C230.765 330.313 226.071 330.517 223.393 328.961V328.961Z" fill="url(#paint9_linear_728_1448)"/>
<path d="M352.103 258.834L233.865 327.098C230.765 328.884 226.072 329.088 223.393 327.532L39.1733 221.168C38.2549 220.645 37.7192 219.969 37.5024 219.255C37.1452 220.492 37.6682 221.729 39.1733 222.597L223.393 328.96C226.084 330.516 230.765 330.312 233.865 328.527L352.103 260.262C354.144 259.076 354.961 257.507 354.527 256.129C354.246 257.086 353.455 258.055 352.103 258.834Z" fill="white" fill-opacity="0.5"/>
<g opacity="0.4">
<path d="M127.042 205.34L120.818 201.743C120.32 201.45 120.384 200.952 120.958 200.621L128.305 196.386C128.879 196.054 129.759 196.016 130.256 196.309L136.481 199.906C136.978 200.2 136.914 200.697 136.34 201.029L128.994 205.263C128.42 205.595 127.54 205.633 127.042 205.34Z" fill="#06033E"/>
<path d="M136.647 210.888L130.422 207.291C129.925 206.998 129.989 206.5 130.562 206.168L137.909 201.934C138.483 201.602 139.363 201.564 139.861 201.857L146.085 205.454C146.583 205.748 146.519 206.245 145.945 206.577L138.598 210.811C138.024 211.143 137.144 211.181 136.647 210.888Z" fill="#06033E"/>
<path d="M146.251 216.437L140.027 212.84C139.529 212.546 139.593 212.049 140.167 211.717L147.514 207.483C148.088 207.151 148.968 207.113 149.465 207.406L155.69 211.003C156.187 211.296 156.123 211.794 155.549 212.125L148.203 216.36C147.629 216.692 146.749 216.73 146.251 216.437Z" fill="#06033E"/>
<path d="M159.542 211.857L153.318 208.26C152.82 207.967 152.884 207.47 153.458 207.138L159.619 203.579C160.193 203.248 161.073 203.209 161.57 203.503L167.795 207.1C168.292 207.393 168.228 207.89 167.654 208.222L161.494 211.781C160.92 212.112 160.04 212.151 159.542 211.857Z" fill="#06033E"/>
<path d="M169.147 217.392L162.922 213.796C162.425 213.502 162.489 213.005 163.062 212.673L169.223 209.114C169.797 208.783 170.677 208.745 171.175 209.038L177.399 212.635C177.897 212.928 177.833 213.426 177.259 213.757L171.098 217.316C170.524 217.648 169.644 217.686 169.147 217.392Z" fill="#06033E"/>
<path d="M178.751 222.941L172.527 219.344C172.029 219.051 172.093 218.554 172.667 218.222L178.828 214.663C179.402 214.332 180.282 214.293 180.779 214.587L187.004 218.184C187.501 218.477 187.437 218.974 186.863 219.306L180.703 222.865C180.129 223.196 179.249 223.235 178.751 222.941Z" fill="#06033E"/>
<path d="M188.356 228.49L182.131 224.893C181.634 224.6 181.698 224.102 182.271 223.771L188.432 220.212C189.006 219.88 189.886 219.842 190.384 220.136L196.608 223.732C197.105 224.026 197.042 224.523 196.468 224.855L190.307 228.414C189.733 228.745 188.853 228.783 188.356 228.49Z" fill="#06033E"/>
<path d="M197.96 234.038L191.736 230.441C191.238 230.148 191.302 229.65 191.876 229.319L198.037 225.76C198.611 225.428 199.491 225.39 199.988 225.683L206.213 229.28C206.71 229.574 206.646 230.071 206.072 230.403L199.912 233.961C199.338 234.293 198.458 234.331 197.96 234.038Z" fill="#06033E"/>
<path d="M207.565 239.574L201.34 235.977C200.843 235.684 200.906 235.186 201.48 234.855L207.641 231.296C208.215 230.964 209.095 230.926 209.593 231.22L215.817 234.816C216.314 235.11 216.251 235.607 215.677 235.939L209.516 239.498C208.942 239.829 208.062 239.867 207.565 239.574Z" fill="#06033E"/>
<path d="M217.169 245.122L210.945 241.525C210.447 241.232 210.511 240.734 211.085 240.403L217.246 236.844C217.82 236.512 218.7 236.474 219.197 236.767L225.422 240.364C225.919 240.658 225.855 241.155 225.281 241.487L219.121 245.045C218.547 245.377 217.667 245.415 217.169 245.122Z" fill="#06033E"/>
<path d="M226.774 250.67L220.549 247.073C220.052 246.779 220.115 246.282 220.689 245.95L226.85 242.392C227.424 242.06 228.304 242.022 228.802 242.315L235.026 245.912C235.523 246.206 235.46 246.703 234.886 247.035L228.725 250.593C228.151 250.925 227.271 250.963 226.774 250.67V250.67Z" fill="#06033E"/>
<path d="M236.378 256.22L230.154 252.623C229.656 252.329 229.72 251.832 230.294 251.5L236.455 247.942C237.029 247.61 237.909 247.572 238.406 247.865L244.63 251.462C245.128 251.755 245.064 252.253 244.49 252.584L238.33 256.143C237.756 256.475 236.875 256.513 236.378 256.22Z" fill="#06033E"/>
<path d="M245.983 261.755L239.758 258.158C239.261 257.864 239.324 257.367 239.898 257.035L246.059 253.477C246.633 253.145 247.513 253.107 248.011 253.4L254.235 256.997C254.732 257.291 254.669 257.788 254.095 258.12L247.934 261.678C247.36 262.01 246.48 262.048 245.983 261.755Z" fill="#06033E"/>
<path d="M173.687 209.23L167.462 205.633C166.965 205.34 167.029 204.843 167.603 204.511L173.763 200.952C174.337 200.621 175.217 200.582 175.715 200.876L181.939 204.473C182.437 204.766 182.373 205.264 181.799 205.595L175.638 209.154C175.064 209.485 174.184 209.524 173.687 209.23Z" fill="#06033E"/>
<path d="M163.943 203.605L157.718 200.008C157.221 199.715 157.284 199.218 157.858 198.886L164.019 195.327C164.593 194.996 165.473 194.957 165.971 195.251L172.195 198.848C172.692 199.141 172.629 199.639 172.055 199.97L165.894 203.529C165.32 203.86 164.44 203.899 163.943 203.605Z" fill="#06033E"/>
<path d="M154.172 197.967L140.78 190.238C140.282 189.945 140.346 189.447 140.92 189.115L147.081 185.557C147.655 185.225 148.535 185.187 149.032 185.48L162.425 193.21C162.922 193.503 162.858 194.001 162.284 194.332L156.124 197.891C155.55 198.223 154.67 198.261 154.172 197.967V197.967Z" fill="#06033E"/>
<path d="M160.995 191.105L150.128 184.83C149.631 184.536 149.695 184.039 150.269 183.707L156.429 180.149C157.003 179.817 157.883 179.779 158.381 180.072L169.248 186.348C169.745 186.641 169.682 187.138 169.108 187.47L162.947 191.029C162.373 191.36 161.493 191.399 160.995 191.105Z" fill="#06033E"/>
<path d="M183.291 214.778L177.067 211.181C176.569 210.888 176.633 210.39 177.207 210.059L183.368 206.5C183.942 206.169 184.822 206.13 185.319 206.424L191.544 210.021C192.041 210.314 191.977 210.811 191.403 211.143L185.243 214.702C184.669 215.033 183.789 215.072 183.291 214.778Z" fill="#06033E"/>
<path d="M192.896 220.313L186.671 216.716C186.174 216.423 186.238 215.926 186.812 215.594L192.972 212.035C193.546 211.704 194.426 211.665 194.924 211.959L201.148 215.556C201.646 215.849 201.582 216.347 201.008 216.678L194.847 220.237C194.273 220.568 193.393 220.607 192.896 220.313Z" fill="#06033E"/>
<path d="M202.5 225.863L196.276 222.266C195.778 221.973 195.842 221.475 196.416 221.144L202.577 217.585C203.151 217.254 204.031 217.215 204.528 217.509L210.753 221.106C211.25 221.399 211.186 221.896 210.612 222.228L204.452 225.787C203.878 226.118 202.998 226.156 202.5 225.863Z" fill="#06033E"/>
<path d="M212.105 231.411L205.88 227.814C205.383 227.521 205.447 227.023 206.02 226.692L212.181 223.133C212.755 222.801 213.635 222.763 214.133 223.056L220.357 226.653C220.854 226.947 220.791 227.444 220.217 227.776L214.056 231.334C213.482 231.666 212.602 231.704 212.105 231.411Z" fill="#06033E"/>
<path d="M221.709 236.959L215.485 233.362C214.987 233.069 215.051 232.571 215.625 232.239L221.786 228.681C222.36 228.349 223.24 228.311 223.737 228.604L229.962 232.201C230.459 232.495 230.395 232.992 229.821 233.324L223.661 236.882C223.087 237.214 222.207 237.252 221.709 236.959Z" fill="#06033E"/>
<path d="M231.314 242.495L225.089 238.898C224.592 238.605 224.655 238.107 225.229 237.776L231.39 234.217C231.964 233.885 232.844 233.847 233.342 234.14L239.566 237.737C240.063 238.031 240 238.528 239.426 238.86L233.265 242.418C232.691 242.75 231.811 242.788 231.314 242.495Z" fill="#06033E"/>
<path d="M240.918 248.043L234.694 244.446C234.196 244.153 234.26 243.655 234.834 243.323L240.995 239.765C241.569 239.433 242.449 239.395 242.946 239.688L249.171 243.285C249.668 243.579 249.604 244.076 249.03 244.408L242.87 247.966C242.296 248.298 241.416 248.336 240.918 248.043V248.043Z" fill="#06033E"/>
<path d="M250.523 253.591L244.298 249.994C243.801 249.7 243.864 249.203 244.438 248.871L250.599 245.313C251.173 244.981 252.053 244.943 252.551 245.236L258.775 248.833C259.272 249.126 259.209 249.624 258.635 249.956L252.474 253.514C251.9 253.846 251.02 253.884 250.523 253.591Z" fill="#06033E"/>
<path d="M260.127 259.14L253.903 255.544C253.405 255.25 253.469 254.753 254.043 254.421L260.204 250.862C260.778 250.531 261.658 250.493 262.155 250.786L268.38 254.383C268.877 254.676 268.813 255.174 268.239 255.505L262.079 259.064C261.505 259.396 260.625 259.434 260.127 259.14Z" fill="#06033E"/>
<path d="M277.206 269L263.635 261.169C263.138 260.875 263.201 260.378 263.775 260.046L269.936 256.487C270.51 256.156 271.39 256.118 271.888 256.411L285.459 264.242C285.956 264.536 285.892 265.033 285.319 265.365L279.158 268.924C278.584 269.255 277.704 269.293 277.206 269Z" fill="#06033E"/>
<path d="M295.905 258.196L284.451 251.589C283.954 251.295 284.018 250.798 284.592 250.466L290.752 246.907C291.326 246.576 292.206 246.538 292.704 246.831L304.158 253.438C304.655 253.731 304.592 254.229 304.018 254.56L297.857 258.119C297.283 258.451 296.403 258.489 295.905 258.196Z" fill="#06033E"/>
<path d="M200.115 213.68L193.891 210.084C193.393 209.79 193.457 209.293 194.031 208.961L200.192 205.403C200.766 205.071 201.646 205.033 202.143 205.326L208.368 208.923C208.865 209.216 208.801 209.714 208.228 210.045L202.067 213.604C201.493 213.936 200.613 213.974 200.115 213.68Z" fill="#06033E"/>
<path d="M190.269 208.006L184.044 204.409C183.547 204.115 183.611 203.618 184.185 203.286L190.345 199.728C190.919 199.396 191.799 199.358 192.297 199.651L198.521 203.248C199.019 203.541 198.955 204.039 198.381 204.371L192.22 207.929C191.646 208.261 190.766 208.299 190.269 208.006Z" fill="#06033E"/>
<path d="M180.422 202.317L174.198 198.72C173.7 198.427 173.764 197.93 174.338 197.598L180.499 194.039C181.072 193.708 181.953 193.669 182.45 193.963L188.674 197.56C189.172 197.853 189.108 198.35 188.534 198.682L182.373 202.241C181.8 202.572 180.919 202.611 180.422 202.317Z" fill="#06033E"/>
<path d="M170.587 196.64L164.363 193.044C163.865 192.75 163.929 192.253 164.503 191.921L170.664 188.362C171.238 188.031 172.118 187.993 172.615 188.286L178.839 191.883C179.337 192.176 179.273 192.674 178.699 193.005L172.539 196.564C171.965 196.896 171.084 196.934 170.587 196.64Z" fill="#06033E"/>
<path d="M209.72 219.23L203.495 215.633C202.998 215.34 203.062 214.843 203.636 214.511L209.796 210.952C210.37 210.621 211.25 210.582 211.748 210.876L217.972 214.473C218.47 214.766 218.406 215.264 217.832 215.595L211.671 219.154C211.097 219.485 210.217 219.524 209.72 219.23Z" fill="#06033E"/>
<path d="M219.324 224.778L213.1 221.181C212.602 220.888 212.666 220.39 213.24 220.059L219.401 216.5C219.975 216.169 220.855 216.13 221.352 216.424L227.577 220.021C228.074 220.314 228.01 220.811 227.437 221.143L221.276 224.702C220.702 225.033 219.822 225.072 219.324 224.778Z" fill="#06033E"/>
<path d="M228.929 230.327L222.704 226.73C222.207 226.437 222.271 225.939 222.845 225.608L229.005 222.049C229.579 221.717 230.459 221.679 230.957 221.972L237.181 225.569C237.679 225.863 237.615 226.36 237.041 226.692L230.88 230.25C230.306 230.582 229.426 230.62 228.929 230.327Z" fill="#06033E"/>
<path d="M238.533 235.875L232.309 232.278C231.811 231.985 231.875 231.487 232.449 231.156L238.61 227.597C239.184 227.265 240.064 227.227 240.561 227.52L246.786 231.117C247.283 231.411 247.219 231.908 246.645 232.24L240.485 235.798C239.911 236.13 239.031 236.168 238.533 235.875Z" fill="#06033E"/>
<path d="M248.138 241.41L241.913 237.813C241.416 237.52 241.48 237.022 242.054 236.691L248.214 233.132C248.788 232.8 249.668 232.762 250.166 233.056L256.39 236.652C256.888 236.946 256.824 237.443 256.25 237.775L250.089 241.333C249.515 241.665 248.635 241.703 248.138 241.41Z" fill="#06033E"/>
<path d="M257.742 246.96L251.518 243.363C251.02 243.07 251.084 242.572 251.658 242.24L257.819 238.682C258.393 238.35 259.273 238.312 259.77 238.605L265.995 242.202C266.492 242.496 266.428 242.993 265.854 243.325L259.694 246.883C259.12 247.215 258.24 247.253 257.742 246.96V246.96Z" fill="#06033E"/>
<path d="M267.347 252.508L261.122 248.911C260.625 248.617 260.689 248.12 261.263 247.788L267.423 244.23C267.997 243.898 268.877 243.86 269.375 244.153L275.599 247.75C276.097 248.043 276.033 248.541 275.459 248.873L269.298 252.431C268.724 252.763 267.844 252.801 267.347 252.508Z" fill="#06033E"/>
<path d="M276.951 258.055L270.727 254.459C270.229 254.165 270.293 253.668 270.867 253.336L277.028 249.778C277.602 249.446 278.482 249.408 278.979 249.701L285.204 253.298C285.701 253.591 285.637 254.089 285.063 254.42L278.903 257.979C278.329 258.311 277.449 258.349 276.951 258.055Z" fill="#06033E"/>
<path d="M286.556 263.592L280.331 259.995C279.834 259.701 279.898 259.204 280.472 258.872L286.632 255.314C287.206 254.982 288.086 254.944 288.584 255.237L294.808 258.834C295.306 259.127 295.242 259.625 294.668 259.956L288.507 263.515C287.933 263.847 287.053 263.885 286.556 263.592Z" fill="#06033E"/>
<path d="M195.052 199.97L188.827 196.373C188.33 196.079 188.394 195.582 188.968 195.25L195.128 191.692C195.702 191.36 196.582 191.322 197.08 191.615L203.304 195.212C203.802 195.505 203.738 196.003 203.164 196.334L197.003 199.893C196.429 200.225 195.549 200.263 195.052 199.97Z" fill="#06033E"/>
<path d="M185.498 194.46L179.274 190.863C178.776 190.57 178.84 190.072 179.414 189.74L185.575 186.182C186.149 185.85 187.029 185.812 187.526 186.105L193.751 189.702C194.248 189.996 194.184 190.493 193.61 190.825L187.45 194.383C186.876 194.715 185.996 194.753 185.498 194.46Z" fill="#06033E"/>
<path d="M175.944 188.936L169.72 185.339C169.223 185.046 169.286 184.549 169.86 184.217L176.021 180.658C176.595 180.327 177.475 180.289 177.973 180.582L184.197 184.179C184.694 184.472 184.631 184.97 184.057 185.301L177.896 188.86C177.322 189.191 176.442 189.23 175.944 188.936Z" fill="#06033E"/>
<path d="M166.391 183.414L160.166 179.817C159.669 179.524 159.733 179.026 160.307 178.695L166.467 175.136C167.041 174.804 167.921 174.766 168.419 175.059L174.643 178.656C175.141 178.95 175.077 179.447 174.503 179.779L168.342 183.337C167.768 183.669 166.888 183.707 166.391 183.414Z" fill="#06033E"/>
<path d="M176.212 177.738L169.988 174.141C169.49 173.847 169.554 173.35 170.128 173.018L172.169 171.845C172.743 171.513 173.623 171.475 174.12 171.768L180.345 175.365C180.842 175.659 180.778 176.156 180.204 176.488L178.164 177.661C177.59 177.993 176.709 178.031 176.212 177.738Z" fill="#06033E"/>
<path d="M188.687 184.945L182.462 181.348C181.965 181.054 182.029 180.557 182.603 180.225L184.643 179.052C185.217 178.72 186.097 178.682 186.595 178.975L192.819 182.572C193.317 182.866 193.253 183.363 192.679 183.695L190.638 184.868C190.064 185.2 189.184 185.238 188.687 184.945Z" fill="#06033E"/>
<path d="M198.202 190.442L191.978 186.845C191.48 186.552 191.544 186.054 192.118 185.722L194.159 184.549C194.733 184.217 195.613 184.179 196.11 184.472L202.335 188.069C202.832 188.363 202.769 188.86 202.195 189.192L200.154 190.365C199.58 190.697 198.7 190.735 198.202 190.442Z" fill="#06033E"/>
<path d="M207.717 195.939L201.493 192.342C200.995 192.049 201.059 191.551 201.633 191.22L203.674 190.046C204.248 189.714 205.128 189.676 205.625 189.97L211.85 193.566C212.347 193.86 212.283 194.357 211.709 194.689L209.668 195.862C209.094 196.194 208.214 196.232 207.717 195.939Z" fill="#06033E"/>
<path d="M217.233 201.424L211.008 197.827C210.511 197.534 210.574 197.037 211.148 196.705L213.189 195.531C213.763 195.2 214.643 195.162 215.141 195.455L221.365 199.052C221.863 199.345 221.799 199.843 221.225 200.174L219.184 201.348C218.61 201.679 217.73 201.718 217.233 201.424Z" fill="#06033E"/>
<path d="M270.369 232.1L264.145 228.503C263.647 228.21 263.711 227.712 264.285 227.381L266.326 226.207C266.9 225.876 267.78 225.837 268.277 226.131L274.502 229.728C274.999 230.021 274.936 230.518 274.362 230.85L272.321 232.023C271.747 232.355 270.867 232.393 270.369 232.1Z" fill="#06033E"/>
<path d="M279.885 237.596L273.66 233.999C273.163 233.706 273.227 233.208 273.801 232.877L275.842 231.703C276.416 231.372 277.296 231.333 277.793 231.627L284.017 235.224C284.515 235.517 284.451 236.014 283.877 236.346L281.836 237.52C281.262 237.851 280.382 237.889 279.885 237.596Z" fill="#06033E"/>
<path d="M289.4 243.094L283.175 239.497C282.678 239.204 282.741 238.706 283.315 238.375L285.356 237.201C285.93 236.87 286.81 236.831 287.308 237.125L293.532 240.722C294.03 241.015 293.966 241.513 293.392 241.844L291.351 243.018C290.777 243.349 289.897 243.388 289.4 243.094Z" fill="#06033E"/>
<path d="M298.928 248.591L292.703 244.994C292.206 244.701 292.27 244.204 292.844 243.872L294.885 242.698C295.459 242.367 296.339 242.329 296.836 242.622L303.06 246.219C303.558 246.512 303.494 247.01 302.92 247.341L300.879 248.515C300.305 248.846 299.425 248.885 298.928 248.591V248.591Z" fill="#06033E"/>
<path d="M204.656 205.518L198.432 201.922C197.934 201.628 197.998 201.131 198.572 200.799L204.733 197.24C205.307 196.909 206.187 196.871 206.684 197.164L212.909 200.761C213.406 201.054 213.343 201.552 212.769 201.883L206.608 205.442C206.034 205.774 205.154 205.812 204.656 205.518Z" fill="#06033E"/>
<path d="M214.261 211.066L208.036 207.469C207.539 207.176 207.603 206.679 208.177 206.347L214.337 202.788C214.911 202.457 215.791 202.418 216.289 202.712L222.513 206.309C223.011 206.602 222.947 207.099 222.373 207.431L216.212 210.99C215.638 211.321 214.758 211.36 214.261 211.066Z" fill="#06033E"/>
<path d="M223.865 216.601L217.641 213.005C217.143 212.711 217.207 212.214 217.781 211.882L223.942 208.323C224.516 207.992 225.396 207.954 225.893 208.247L232.118 211.844C232.615 212.137 232.551 212.635 231.978 212.966L225.817 216.525C225.243 216.857 224.363 216.895 223.865 216.601Z" fill="#06033E"/>
<path d="M233.483 222.151L227.258 218.554C226.761 218.261 226.824 217.763 227.398 217.432L233.559 213.873C234.133 213.542 235.013 213.503 235.511 213.797L241.735 217.394C242.232 217.687 242.169 218.184 241.595 218.516L235.434 222.075C234.86 222.406 233.98 222.445 233.483 222.151Z" fill="#06033E"/>
<path d="M243.087 227.699L236.863 224.102C236.365 223.809 236.429 223.311 237.003 222.98L243.164 219.421C243.738 219.089 244.618 219.051 245.115 219.345L251.339 222.941C251.837 223.235 251.773 223.732 251.199 224.064L245.039 227.623C244.465 227.954 243.584 227.992 243.087 227.699Z" fill="#06033E"/>
<path d="M252.692 233.248L246.467 229.651C245.97 229.358 246.033 228.86 246.607 228.529L252.768 224.97C253.342 224.638 254.222 224.6 254.72 224.893L260.944 228.49C261.441 228.784 261.378 229.281 260.804 229.613L254.643 233.171C254.069 233.503 253.189 233.541 252.692 233.248Z" fill="#06033E"/>
<path d="M262.296 238.783L256.072 235.186C255.574 234.893 255.638 234.395 256.212 234.064L262.373 230.505C262.947 230.173 263.827 230.135 264.324 230.429L270.548 234.025C271.046 234.319 270.982 234.816 270.408 235.148L264.248 238.707C263.674 239.038 262.793 239.076 262.296 238.783Z" fill="#06033E"/>
<path d="M271.901 244.331L265.676 240.734C265.179 240.441 265.242 239.943 265.816 239.612L271.977 236.053C272.551 235.721 273.431 235.683 273.929 235.976L280.153 239.573C280.65 239.867 280.587 240.364 280.013 240.696L273.852 244.254C273.278 244.586 272.398 244.624 271.901 244.331Z" fill="#06033E"/>
<path d="M281.505 249.881L275.281 246.284C274.783 245.99 274.847 245.493 275.421 245.161L281.582 241.603C282.155 241.271 283.036 241.233 283.533 241.526L289.757 245.123C290.255 245.416 290.191 245.914 289.617 246.246L283.457 249.804C282.883 250.136 282.002 250.174 281.505 249.881V249.881Z" fill="#06033E"/>
<path d="M149.746 206.207L131.43 195.633C130.933 195.34 130.996 194.843 131.57 194.511L137.731 190.952C138.305 190.621 139.185 190.582 139.682 190.876L157.999 201.45C158.496 201.743 158.432 202.24 157.858 202.572L151.698 206.131C151.124 206.462 150.244 206.501 149.746 206.207Z" fill="#06033E"/>
<path d="M267.742 274.33L249.426 263.756C248.929 263.463 248.992 262.966 249.566 262.634L255.727 259.075C256.301 258.744 257.181 258.705 257.679 258.999L275.995 269.573C276.492 269.866 276.428 270.364 275.854 270.695L269.694 274.254C269.12 274.585 268.24 274.624 267.742 274.33Z" fill="#06033E"/>
<path d="M229.337 264.395L223.113 260.798C222.615 260.504 222.679 260.007 223.253 259.675L230.6 255.441C231.174 255.109 232.054 255.071 232.551 255.364L238.776 258.961C239.273 259.254 239.209 259.752 238.635 260.083L231.289 264.318C230.715 264.65 229.834 264.688 229.337 264.395Z" fill="#06033E"/>
<path d="M159.58 224.127L149.631 218.388C149.134 218.094 149.197 217.597 149.771 217.265L157.118 213.03C157.692 212.699 158.572 212.661 159.07 212.954L169.019 218.694C169.516 218.987 169.452 219.484 168.878 219.816L161.532 224.051C160.958 224.382 160.077 224.421 159.58 224.127Z" fill="#06033E"/>
<path d="M220.077 259.05L210.128 253.31C209.631 253.017 209.695 252.52 210.269 252.188L217.615 247.953C218.189 247.622 219.069 247.583 219.567 247.877L229.516 253.617C230.013 253.91 229.949 254.407 229.375 254.739L222.029 258.974C221.455 259.305 220.575 259.343 220.077 259.05Z" fill="#06033E"/>
<path d="M173.444 232.124L163.495 226.385C162.998 226.091 163.062 225.594 163.636 225.262L170.983 221.028C171.557 220.696 172.437 220.658 172.934 220.951L182.883 226.691C183.38 226.984 183.317 227.482 182.743 227.813L175.396 232.048C174.822 232.379 173.942 232.418 173.444 232.124Z" fill="#06033E"/>
<path d="M172.998 220.978L216.237 245.952C216.773 246.258 216.773 246.768 216.237 247.074L208.75 251.398C208.215 251.704 207.347 251.704 206.812 251.398L163.572 226.437L172.998 220.99V220.978Z" fill="#06033E"/>
<path d="M256.186 274.459L263.112 278.464C263.52 278.707 263.469 279.115 262.997 279.383L260 281.117C259.528 281.385 258.814 281.423 258.406 281.181L251.48 277.176C251.072 276.934 251.123 276.526 251.594 276.258L254.592 274.523C255.064 274.255 255.778 274.217 256.186 274.459Z" fill="#06033E"/>
<path d="M246.492 268.859L253.418 272.864C253.826 273.106 253.775 273.514 253.303 273.782L250.306 275.517C249.834 275.785 249.119 275.823 248.711 275.58L241.785 271.575C241.377 271.333 241.428 270.925 241.9 270.657L244.898 268.922C245.369 268.655 246.084 268.616 246.492 268.859Z" fill="#06033E"/>
<path d="M236.887 263.311L243.813 267.316C244.222 267.558 244.17 267.966 243.699 268.234L240.701 269.969C240.229 270.237 239.515 270.275 239.107 270.033L232.181 266.028C231.773 265.785 231.824 265.377 232.296 265.109L235.293 263.375C235.765 263.107 236.479 263.068 236.887 263.311Z" fill="#06033E"/>
<path d="M251.799 265.798L258.724 269.803C259.133 270.045 259.082 270.454 258.61 270.721L255.612 272.456C255.14 272.724 254.426 272.762 254.018 272.52L247.092 268.515C246.684 268.273 246.735 267.864 247.207 267.597L250.204 265.862C250.676 265.594 251.39 265.556 251.799 265.798Z" fill="#06033E"/>
</g>
<g opacity="0.4">
<path d="M127.042 205.34L120.818 201.743C120.32 201.45 120.384 200.952 120.958 200.621L128.305 196.386C128.879 196.054 129.759 196.016 130.256 196.309L136.481 199.906C136.978 200.2 136.914 200.697 136.34 201.029L128.994 205.263C128.42 205.595 127.54 205.633 127.042 205.34Z" fill="#06033E"/>
<path d="M136.647 210.888L130.422 207.291C129.925 206.998 129.989 206.5 130.562 206.168L137.909 201.934C138.483 201.602 139.363 201.564 139.861 201.857L146.085 205.454C146.583 205.748 146.519 206.245 145.945 206.577L138.598 210.811C138.024 211.143 137.144 211.181 136.647 210.888Z" fill="#06033E"/>
<path d="M146.251 216.437L140.027 212.84C139.529 212.546 139.593 212.049 140.167 211.717L147.514 207.483C148.088 207.151 148.968 207.113 149.465 207.406L155.69 211.003C156.187 211.296 156.123 211.794 155.549 212.125L148.203 216.36C147.629 216.692 146.749 216.73 146.251 216.437Z" fill="#06033E"/>
<path d="M159.542 211.857L153.318 208.26C152.82 207.967 152.884 207.47 153.458 207.138L159.619 203.579C160.193 203.248 161.073 203.209 161.57 203.503L167.795 207.1C168.292 207.393 168.228 207.89 167.654 208.222L161.494 211.781C160.92 212.112 160.04 212.151 159.542 211.857Z" fill="#06033E"/>
<path d="M169.147 217.392L162.922 213.796C162.425 213.502 162.489 213.005 163.062 212.673L169.223 209.114C169.797 208.783 170.677 208.745 171.175 209.038L177.399 212.635C177.897 212.928 177.833 213.426 177.259 213.757L171.098 217.316C170.524 217.648 169.644 217.686 169.147 217.392Z" fill="#06033E"/>
<path d="M178.751 222.941L172.527 219.344C172.029 219.051 172.093 218.554 172.667 218.222L178.828 214.663C179.402 214.332 180.282 214.293 180.779 214.587L187.004 218.184C187.501 218.477 187.437 218.974 186.863 219.306L180.703 222.865C180.129 223.196 179.249 223.235 178.751 222.941Z" fill="#06033E"/>
<path d="M188.356 228.49L182.131 224.893C181.634 224.6 181.698 224.102 182.271 223.771L188.432 220.212C189.006 219.88 189.886 219.842 190.384 220.136L196.608 223.732C197.105 224.026 197.042 224.523 196.468 224.855L190.307 228.414C189.733 228.745 188.853 228.783 188.356 228.49Z" fill="#06033E"/>
<path d="M197.96 234.038L191.736 230.441C191.238 230.148 191.302 229.65 191.876 229.319L198.037 225.76C198.611 225.428 199.491 225.39 199.988 225.683L206.213 229.28C206.71 229.574 206.646 230.071 206.072 230.403L199.912 233.961C199.338 234.293 198.458 234.331 197.96 234.038Z" fill="#06033E"/>
<path d="M207.565 239.574L201.34 235.977C200.843 235.684 200.906 235.186 201.48 234.855L207.641 231.296C208.215 230.964 209.095 230.926 209.593 231.22L215.817 234.816C216.314 235.11 216.251 235.607 215.677 235.939L209.516 239.498C208.942 239.829 208.062 239.867 207.565 239.574Z" fill="#06033E"/>
<path d="M217.169 245.122L210.945 241.525C210.447 241.232 210.511 240.734 211.085 240.403L217.246 236.844C217.82 236.512 218.7 236.474 219.197 236.767L225.422 240.364C225.919 240.658 225.855 241.155 225.281 241.487L219.121 245.045C218.547 245.377 217.667 245.415 217.169 245.122Z" fill="#06033E"/>
<path d="M226.774 250.67L220.549 247.073C220.052 246.779 220.115 246.282 220.689 245.95L226.85 242.392C227.424 242.06 228.304 242.022 228.802 242.315L235.026 245.912C235.523 246.206 235.46 246.703 234.886 247.035L228.725 250.593C228.151 250.925 227.271 250.963 226.774 250.67V250.67Z" fill="#06033E"/>
<path d="M236.378 256.22L230.154 252.623C229.656 252.329 229.72 251.832 230.294 251.5L236.455 247.942C237.029 247.61 237.909 247.572 238.406 247.865L244.63 251.462C245.128 251.755 245.064 252.253 244.49 252.584L238.33 256.143C237.756 256.475 236.875 256.513 236.378 256.22Z" fill="#06033E"/>
<path d="M245.983 261.755L239.758 258.158C239.261 257.864 239.324 257.367 239.898 257.035L246.059 253.477C246.633 253.145 247.513 253.107 248.011 253.4L254.235 256.997C254.732 257.291 254.669 257.788 254.095 258.12L247.934 261.678C247.36 262.01 246.48 262.048 245.983 261.755Z" fill="#06033E"/>
<path d="M173.687 209.23L167.462 205.633C166.965 205.34 167.029 204.843 167.603 204.511L173.763 200.952C174.337 200.621 175.217 200.582 175.715 200.876L181.939 204.473C182.437 204.766 182.373 205.264 181.799 205.595L175.638 209.154C175.064 209.485 174.184 209.524 173.687 209.23Z" fill="#06033E"/>
<path d="M163.943 203.605L157.718 200.008C157.221 199.715 157.284 199.218 157.858 198.886L164.019 195.327C164.593 194.996 165.473 194.957 165.971 195.251L172.195 198.848C172.692 199.141 172.629 199.639 172.055 199.97L165.894 203.529C165.32 203.86 164.44 203.899 163.943 203.605Z" fill="#06033E"/>
<path d="M154.172 197.967L140.78 190.238C140.282 189.945 140.346 189.447 140.92 189.115L147.081 185.557C147.655 185.225 148.535 185.187 149.032 185.48L162.425 193.21C162.922 193.503 162.858 194.001 162.284 194.332L156.124 197.891C155.55 198.223 154.67 198.261 154.172 197.967V197.967Z" fill="#06033E"/>
<path d="M160.995 191.105L150.128 184.83C149.631 184.536 149.695 184.039 150.269 183.707L156.429 180.149C157.003 179.817 157.883 179.779 158.381 180.072L169.248 186.348C169.745 186.641 169.682 187.138 169.108 187.47L162.947 191.029C162.373 191.36 161.493 191.399 160.995 191.105Z" fill="#06033E"/>
<path d="M183.291 214.778L177.067 211.181C176.569 210.888 176.633 210.39 177.207 210.059L183.368 206.5C183.942 206.169 184.822 206.13 185.319 206.424L191.544 210.021C192.041 210.314 191.977 210.811 191.403 211.143L185.243 214.702C184.669 215.033 183.789 215.072 183.291 214.778Z" fill="#06033E"/>
<path d="M192.896 220.313L186.671 216.716C186.174 216.423 186.238 215.926 186.812 215.594L192.972 212.035C193.546 211.704 194.426 211.665 194.924 211.959L201.148 215.556C201.646 215.849 201.582 216.347 201.008 216.678L194.847 220.237C194.273 220.568 193.393 220.607 192.896 220.313Z" fill="#06033E"/>
<path d="M202.5 225.863L196.276 222.266C195.778 221.973 195.842 221.475 196.416 221.144L202.577 217.585C203.151 217.254 204.031 217.215 204.528 217.509L210.753 221.106C211.25 221.399 211.186 221.896 210.612 222.228L204.452 225.787C203.878 226.118 202.998 226.156 202.5 225.863Z" fill="#06033E"/>
<path d="M212.105 231.411L205.88 227.814C205.383 227.521 205.447 227.023 206.02 226.692L212.181 223.133C212.755 222.801 213.635 222.763 214.133 223.056L220.357 226.653C220.854 226.947 220.791 227.444 220.217 227.776L214.056 231.334C213.482 231.666 212.602 231.704 212.105 231.411Z" fill="#06033E"/>
<path d="M221.709 236.959L215.485 233.362C214.987 233.069 215.051 232.571 215.625 232.239L221.786 228.681C222.36 228.349 223.24 228.311 223.737 228.604L229.962 232.201C230.459 232.495 230.395 232.992 229.821 233.324L223.661 236.882C223.087 237.214 222.207 237.252 221.709 236.959Z" fill="#06033E"/>
<path d="M231.314 242.495L225.089 238.898C224.592 238.605 224.655 238.107 225.229 237.776L231.39 234.217C231.964 233.885 232.844 233.847 233.342 234.14L239.566 237.737C240.063 238.031 240 238.528 239.426 238.86L233.265 242.418C232.691 242.75 231.811 242.788 231.314 242.495Z" fill="#06033E"/>
<path d="M240.918 248.043L234.694 244.446C234.196 244.153 234.26 243.655 234.834 243.323L240.995 239.765C241.569 239.433 242.449 239.395 242.946 239.688L249.171 243.285C249.668 243.579 249.604 244.076 249.03 244.408L242.87 247.966C242.296 248.298 241.416 248.336 240.918 248.043V248.043Z" fill="#06033E"/>
<path d="M250.523 253.591L244.298 249.994C243.801 249.7 243.864 249.203 244.438 248.871L250.599 245.313C251.173 244.981 252.053 244.943 252.551 245.236L258.775 248.833C259.272 249.126 259.209 249.624 258.635 249.956L252.474 253.514C251.9 253.846 251.02 253.884 250.523 253.591Z" fill="#06033E"/>
<path d="M260.127 259.14L253.903 255.544C253.405 255.25 253.469 254.753 254.043 254.421L260.204 250.862C260.778 250.531 261.658 250.493 262.155 250.786L268.38 254.383C268.877 254.676 268.813 255.174 268.239 255.505L262.079 259.064C261.505 259.396 260.625 259.434 260.127 259.14Z" fill="#06033E"/>
<path d="M277.206 269L263.635 261.169C263.138 260.875 263.201 260.378 263.775 260.046L269.936 256.487C270.51 256.156 271.39 256.118 271.888 256.411L285.459 264.242C285.956 264.536 285.892 265.033 285.319 265.365L279.158 268.924C278.584 269.255 277.704 269.293 277.206 269Z" fill="#06033E"/>
<path d="M295.905 258.196L284.451 251.589C283.954 251.295 284.018 250.798 284.592 250.466L290.752 246.907C291.326 246.576 292.206 246.538 292.704 246.831L304.158 253.438C304.655 253.731 304.592 254.229 304.018 254.56L297.857 258.119C297.283 258.451 296.403 258.489 295.905 258.196Z" fill="#06033E"/>
<path d="M200.115 213.68L193.891 210.084C193.393 209.79 193.457 209.293 194.031 208.961L200.192 205.403C200.766 205.071 201.646 205.033 202.143 205.326L208.368 208.923C208.865 209.216 208.801 209.714 208.228 210.045L202.067 213.604C201.493 213.936 200.613 213.974 200.115 213.68Z" fill="#06033E"/>
<path d="M190.269 208.006L184.044 204.409C183.547 204.115 183.611 203.618 184.185 203.286L190.345 199.728C190.919 199.396 191.799 199.358 192.297 199.651L198.521 203.248C199.019 203.541 198.955 204.039 198.381 204.371L192.22 207.929C191.646 208.261 190.766 208.299 190.269 208.006Z" fill="#06033E"/>
<path d="M180.422 202.317L174.198 198.72C173.7 198.427 173.764 197.93 174.338 197.598L180.499 194.039C181.072 193.708 181.953 193.669 182.45 193.963L188.674 197.56C189.172 197.853 189.108 198.35 188.534 198.682L182.373 202.241C181.8 202.572 180.919 202.611 180.422 202.317Z" fill="#06033E"/>
<path d="M170.587 196.64L164.363 193.044C163.865 192.75 163.929 192.253 164.503 191.921L170.664 188.362C171.238 188.031 172.118 187.993 172.615 188.286L178.839 191.883C179.337 192.176 179.273 192.674 178.699 193.005L172.539 196.564C171.965 196.896 171.084 196.934 170.587 196.64Z" fill="#06033E"/>
<path d="M209.72 219.23L203.495 215.633C202.998 215.34 203.062 214.843 203.636 214.511L209.796 210.952C210.37 210.621 211.25 210.582 211.748 210.876L217.972 214.473C218.47 214.766 218.406 215.264 217.832 215.595L211.671 219.154C211.097 219.485 210.217 219.524 209.72 219.23Z" fill="#06033E"/>
<path d="M219.324 224.778L213.1 221.181C212.602 220.888 212.666 220.39 213.24 220.059L219.401 216.5C219.975 216.169 220.855 216.13 221.352 216.424L227.577 220.021C228.074 220.314 228.01 220.811 227.437 221.143L221.276 224.702C220.702 225.033 219.822 225.072 219.324 224.778Z" fill="#06033E"/>
<path d="M228.929 230.327L222.704 226.73C222.207 226.437 222.271 225.939 222.845 225.608L229.005 222.049C229.579 221.717 230.459 221.679 230.957 221.972L237.181 225.569C237.679 225.863 237.615 226.36 237.041 226.692L230.88 230.25C230.306 230.582 229.426 230.62 228.929 230.327Z" fill="#06033E"/>
<path d="M238.533 235.875L232.309 232.278C231.811 231.985 231.875 231.487 232.449 231.156L238.61 227.597C239.184 227.265 240.064 227.227 240.561 227.52L246.786 231.117C247.283 231.411 247.219 231.908 246.645 232.24L240.485 235.798C239.911 236.13 239.031 236.168 238.533 235.875Z" fill="#06033E"/>
<path d="M248.138 241.41L241.913 237.813C241.416 237.52 241.48 237.022 242.054 236.691L248.214 233.132C248.788 232.8 249.668 232.762 250.166 233.056L256.39 236.652C256.888 236.946 256.824 237.443 256.25 237.775L250.089 241.333C249.515 241.665 248.635 241.703 248.138 241.41Z" fill="#06033E"/>
<path d="M257.742 246.96L251.518 243.363C251.02 243.07 251.084 242.572 251.658 242.24L257.819 238.682C258.393 238.35 259.273 238.312 259.77 238.605L265.995 242.202C266.492 242.496 266.428 242.993 265.854 243.325L259.694 246.883C259.12 247.215 258.24 247.253 257.742 246.96V246.96Z" fill="#06033E"/>
<path d="M267.347 252.508L261.122 248.911C260.625 248.617 260.689 248.12 261.263 247.788L267.423 244.23C267.997 243.898 268.877 243.86 269.375 244.153L275.599 247.75C276.097 248.043 276.033 248.541 275.459 248.873L269.298 252.431C268.724 252.763 267.844 252.801 267.347 252.508Z" fill="#06033E"/>
<path d="M276.951 258.055L270.727 254.459C270.229 254.165 270.293 253.668 270.867 253.336L277.028 249.778C277.602 249.446 278.482 249.408 278.979 249.701L285.204 253.298C285.701 253.591 285.637 254.089 285.063 254.42L278.903 257.979C278.329 258.311 277.449 258.349 276.951 258.055Z" fill="#06033E"/>
<path d="M286.556 263.592L280.331 259.995C279.834 259.701 279.898 259.204 280.472 258.872L286.632 255.314C287.206 254.982 288.086 254.944 288.584 255.237L294.808 258.834C295.306 259.127 295.242 259.625 294.668 259.956L288.507 263.515C287.933 263.847 287.053 263.885 286.556 263.592Z" fill="#06033E"/>
<path d="M195.052 199.97L188.827 196.373C188.33 196.079 188.394 195.582 188.968 195.25L195.128 191.692C195.702 191.36 196.582 191.322 197.08 191.615L203.304 195.212C203.802 195.505 203.738 196.003 203.164 196.334L197.003 199.893C196.429 200.225 195.549 200.263 195.052 199.97Z" fill="#06033E"/>
<path d="M185.498 194.46L179.274 190.863C178.776 190.57 178.84 190.072 179.414 189.74L185.575 186.182C186.149 185.85 187.029 185.812 187.526 186.105L193.751 189.702C194.248 189.996 194.184 190.493 193.61 190.825L187.45 194.383C186.876 194.715 185.996 194.753 185.498 194.46Z" fill="#06033E"/>
<path d="M175.944 188.936L169.72 185.339C169.223 185.046 169.286 184.549 169.86 184.217L176.021 180.658C176.595 180.327 177.475 180.289 177.973 180.582L184.197 184.179C184.694 184.472 184.631 184.97 184.057 185.301L177.896 188.86C177.322 189.191 176.442 189.23 175.944 188.936Z" fill="#06033E"/>
<path d="M166.391 183.414L160.166 179.817C159.669 179.524 159.733 179.026 160.307 178.695L166.467 175.136C167.041 174.804 167.921 174.766 168.419 175.059L174.643 178.656C175.141 178.95 175.077 179.447 174.503 179.779L168.342 183.337C167.768 183.669 166.888 183.707 166.391 183.414Z" fill="#06033E"/>
<path d="M176.212 177.738L169.988 174.141C169.49 173.847 169.554 173.35 170.128 173.018L172.169 171.845C172.743 171.513 173.623 171.475 174.12 171.768L180.345 175.365C180.842 175.659 180.778 176.156 180.204 176.488L178.164 177.661C177.59 177.993 176.709 178.031 176.212 177.738Z" fill="#06033E"/>
<path d="M188.687 184.945L182.462 181.348C181.965 181.054 182.029 180.557 182.603 180.225L184.643 179.052C185.217 178.72 186.097 178.682 186.595 178.975L192.819 182.572C193.317 182.866 193.253 183.363 192.679 183.695L190.638 184.868C190.064 185.2 189.184 185.238 188.687 184.945Z" fill="#06033E"/>
<path d="M198.202 190.442L191.978 186.845C191.48 186.552 191.544 186.054 192.118 185.722L194.159 184.549C194.733 184.217 195.613 184.179 196.11 184.472L202.335 188.069C202.832 188.363 202.769 188.86 202.195 189.192L200.154 190.365C199.58 190.697 198.7 190.735 198.202 190.442Z" fill="#06033E"/>
<path d="M207.717 195.939L201.493 192.342C200.995 192.049 201.059 191.551 201.633 191.22L203.674 190.046C204.248 189.714 205.128 189.676 205.625 189.97L211.85 193.566C212.347 193.86 212.283 194.357 211.709 194.689L209.668 195.862C209.094 196.194 208.214 196.232 207.717 195.939Z" fill="#06033E"/>
<path d="M217.233 201.424L211.008 197.827C210.511 197.534 210.574 197.037 211.148 196.705L213.189 195.531C213.763 195.2 214.643 195.162 215.141 195.455L221.365 199.052C221.863 199.345 221.799 199.843 221.225 200.174L219.184 201.348C218.61 201.679 217.73 201.718 217.233 201.424Z" fill="#06033E"/>
<path d="M270.369 232.1L264.145 228.503C263.647 228.21 263.711 227.712 264.285 227.381L266.326 226.207C266.9 225.876 267.78 225.837 268.277 226.131L274.502 229.728C274.999 230.021 274.936 230.518 274.362 230.85L272.321 232.023C271.747 232.355 270.867 232.393 270.369 232.1Z" fill="#06033E"/>
<path d="M279.885 237.596L273.66 233.999C273.163 233.706 273.227 233.208 273.801 232.877L275.842 231.703C276.416 231.372 277.296 231.333 277.793 231.627L284.017 235.224C284.515 235.517 284.451 236.014 283.877 236.346L281.836 237.52C281.262 237.851 280.382 237.889 279.885 237.596Z" fill="#06033E"/>
<path d="M289.4 243.094L283.175 239.497C282.678 239.204 282.741 238.706 283.315 238.375L285.356 237.201C285.93 236.87 286.81 236.831 287.308 237.125L293.532 240.722C294.03 241.015 293.966 241.513 293.392 241.844L291.351 243.018C290.777 243.349 289.897 243.388 289.4 243.094Z" fill="#06033E"/>
<path d="M298.928 248.591L292.703 244.994C292.206 244.701 292.27 244.204 292.844 243.872L294.885 242.698C295.459 242.367 296.339 242.329 296.836 242.622L303.06 246.219C303.558 246.512 303.494 247.01 302.92 247.341L300.879 248.515C300.305 248.846 299.425 248.885 298.928 248.591V248.591Z" fill="#06033E"/>
<path d="M204.656 205.518L198.432 201.922C197.934 201.628 197.998 201.131 198.572 200.799L204.733 197.24C205.307 196.909 206.187 196.871 206.684 197.164L212.909 200.761C213.406 201.054 213.343 201.552 212.769 201.883L206.608 205.442C206.034 205.774 205.154 205.812 204.656 205.518Z" fill="#06033E"/>
<path d="M214.261 211.066L208.036 207.469C207.539 207.176 207.603 206.679 208.177 206.347L214.337 202.788C214.911 202.457 215.791 202.418 216.289 202.712L222.513 206.309C223.011 206.602 222.947 207.099 222.373 207.431L216.212 210.99C215.638 211.321 214.758 211.36 214.261 211.066Z" fill="#06033E"/>
<path d="M223.865 216.601L217.641 213.005C217.143 212.711 217.207 212.214 217.781 211.882L223.942 208.323C224.516 207.992 225.396 207.954 225.893 208.247L232.118 211.844C232.615 212.137 232.551 212.635 231.978 212.966L225.817 216.525C225.243 216.857 224.363 216.895 223.865 216.601Z" fill="#06033E"/>
<path d="M233.483 222.151L227.258 218.554C226.761 218.261 226.824 217.763 227.398 217.432L233.559 213.873C234.133 213.542 235.013 213.503 235.511 213.797L241.735 217.394C242.232 217.687 242.169 218.184 241.595 218.516L235.434 222.075C234.86 222.406 233.98 222.445 233.483 222.151Z" fill="#06033E"/>
<path d="M243.087 227.699L236.863 224.102C236.365 223.809 236.429 223.311 237.003 222.98L243.164 219.421C243.738 219.089 244.618 219.051 245.115 219.345L251.339 222.941C251.837 223.235 251.773 223.732 251.199 224.064L245.039 227.623C244.465 227.954 243.584 227.992 243.087 227.699Z" fill="#06033E"/>
<path d="M252.692 233.248L246.467 229.651C245.97 229.358 246.033 228.86 246.607 228.529L252.768 224.97C253.342 224.638 254.222 224.6 254.72 224.893L260.944 228.49C261.441 228.784 261.378 229.281 260.804 229.613L254.643 233.171C254.069 233.503 253.189 233.541 252.692 233.248Z" fill="#06033E"/>
<path d="M262.296 238.783L256.072 235.186C255.574 234.893 255.638 234.395 256.212 234.064L262.373 230.505C262.947 230.173 263.827 230.135 264.324 230.429L270.548 234.025C271.046 234.319 270.982 234.816 270.408 235.148L264.248 238.707C263.674 239.038 262.793 239.076 262.296 238.783Z" fill="#06033E"/>
<path d="M271.901 244.331L265.676 240.734C265.179 240.441 265.242 239.943 265.816 239.612L271.977 236.053C272.551 235.721 273.431 235.683 273.929 235.976L280.153 239.573C280.65 239.867 280.587 240.364 280.013 240.696L273.852 244.254C273.278 244.586 272.398 244.624 271.901 244.331Z" fill="#06033E"/>
<path d="M281.505 249.881L275.281 246.284C274.783 245.99 274.847 245.493 275.421 245.161L281.582 241.603C282.155 241.271 283.036 241.233 283.533 241.526L289.757 245.123C290.255 245.416 290.191 245.914 289.617 246.246L283.457 249.804C282.883 250.136 282.002 250.174 281.505 249.881V249.881Z" fill="#06033E"/>
<path d="M149.746 206.207L131.43 195.633C130.933 195.34 130.996 194.843 131.57 194.511L137.731 190.952C138.305 190.621 139.185 190.582 139.682 190.876L157.999 201.45C158.496 201.743 158.432 202.24 157.858 202.572L151.698 206.131C151.124 206.462 150.244 206.501 149.746 206.207Z" fill="#06033E"/>
<path d="M267.742 274.33L249.426 263.756C248.929 263.463 248.992 262.966 249.566 262.634L255.727 259.075C256.301 258.744 257.181 258.705 257.679 258.999L275.995 269.573C276.492 269.866 276.428 270.364 275.854 270.695L269.694 274.254C269.12 274.585 268.24 274.624 267.742 274.33Z" fill="#06033E"/>
<path d="M229.337 264.395L223.113 260.798C222.615 260.504 222.679 260.007 223.253 259.675L230.6 255.441C231.174 255.109 232.054 255.071 232.551 255.364L238.776 258.961C239.273 259.254 239.209 259.752 238.635 260.083L231.289 264.318C230.715 264.65 229.834 264.688 229.337 264.395Z" fill="#06033E"/>
<path d="M159.58 224.127L149.631 218.388C149.134 218.094 149.197 217.597 149.771 217.265L157.118 213.03C157.692 212.699 158.572 212.661 159.07 212.954L169.019 218.694C169.516 218.987 169.452 219.484 168.878 219.816L161.532 224.051C160.958 224.382 160.077 224.421 159.58 224.127Z" fill="#06033E"/>
<path d="M220.077 259.05L210.128 253.31C209.631 253.017 209.695 252.52 210.269 252.188L217.615 247.953C218.189 247.622 219.069 247.583 219.567 247.877L229.516 253.617C230.013 253.91 229.949 254.407 229.375 254.739L222.029 258.974C221.455 259.305 220.575 259.343 220.077 259.05Z" fill="#06033E"/>
<path d="M173.444 232.124L163.495 226.385C162.998 226.091 163.062 225.594 163.636 225.262L170.983 221.028C171.557 220.696 172.437 220.658 172.934 220.951L182.883 226.691C183.38 226.984 183.317 227.482 182.743 227.813L175.396 232.048C174.822 232.379 173.942 232.418 173.444 232.124Z" fill="#06033E"/>
<path d="M172.998 220.978L216.237 245.952C216.773 246.258 216.773 246.768 216.237 247.074L208.75 251.398C208.215 251.704 207.347 251.704 206.812 251.398L163.572 226.437L172.998 220.99V220.978Z" fill="#06033E"/>
<path d="M256.186 274.459L263.112 278.464C263.52 278.707 263.469 279.115 262.997 279.383L260 281.117C259.528 281.385 258.814 281.423 258.406 281.181L251.48 277.176C251.072 276.934 251.123 276.526 251.594 276.258L254.592 274.523C255.064 274.255 255.778 274.217 256.186 274.459Z" fill="#06033E"/>
<path d="M246.492 268.859L253.418 272.864C253.826 273.106 253.775 273.514 253.303 273.782L250.306 275.517C249.834 275.785 249.119 275.823 248.711 275.58L241.785 271.575C241.377 271.333 241.428 270.925 241.9 270.657L244.898 268.922C245.369 268.655 246.084 268.616 246.492 268.859Z" fill="#06033E"/>
<path d="M236.887 263.311L243.813 267.316C244.222 267.558 244.17 267.966 243.699 268.234L240.701 269.969C240.229 270.237 239.515 270.275 239.107 270.033L232.181 266.028C231.773 265.785 231.824 265.377 232.296 265.109L235.293 263.375C235.765 263.107 236.479 263.068 236.887 263.311Z" fill="#06033E"/>
<path d="M251.799 265.798L258.724 269.803C259.133 270.045 259.082 270.454 258.61 270.721L255.612 272.456C255.14 272.724 254.426 272.762 254.018 272.52L247.092 268.515C246.684 268.273 246.735 267.864 247.207 267.597L250.204 265.862C250.676 265.594 251.39 265.556 251.799 265.798Z" fill="#06033E"/>
</g>
<path d="M353.455 254.585L169.962 148.643C167.079 146.972 165.574 142.916 166.595 139.574L208.087 4.84329C209.12 1.50149 212.283 0.149473 215.178 1.80762L398.671 107.75C401.554 109.421 403.059 113.477 402.039 116.819L360.547 251.55C359.514 254.891 356.35 256.243 353.455 254.585Z" fill="url(#paint10_radial_728_1448)"/>
<path d="M351.72 249.867L173.738 147.024C170.982 145.429 169.541 141.539 170.523 138.35L210.191 9.55091C211.173 6.34941 214.209 5.04841 216.977 6.64278L394.96 109.486C397.715 111.08 399.156 114.971 398.174 118.159L358.506 246.959C357.524 250.16 354.488 251.461 351.72 249.867V249.867Z" fill="url(#paint11_linear_728_1448)"/>
<path opacity="0.4" d="M351.72 249.867L173.738 147.024C170.982 145.429 169.541 141.539 170.523 138.35L210.191 9.55091C211.173 6.34941 214.209 5.04841 216.977 6.64278L394.96 109.486C397.715 111.08 399.156 114.971 398.174 118.159L358.506 246.959C357.524 250.16 354.488 251.461 351.72 249.867V249.867Z" fill="#06033E"/>
<path opacity="0.4" d="M351.72 249.867L173.738 147.024C170.982 145.429 169.541 141.539 170.523 138.35L210.191 9.55091C211.173 6.34941 214.209 5.04841 216.977 6.64278L394.96 109.486C397.715 111.08 399.156 114.971 398.174 118.159L358.506 246.959C357.524 250.16 354.488 251.461 351.72 249.867Z" fill="#06033E"/>
<path opacity="0.5" d="M342.154 210.505L221.671 140.939C219.771 139.843 218.788 137.177 219.464 134.983L246.709 46.5145C247.385 44.3207 249.464 43.4278 251.365 44.5248L371.848 114.09C373.748 115.187 374.73 117.853 374.054 120.047L346.81 208.515C346.134 210.709 344.055 211.602 342.154 210.505Z" fill="#06033E"/>
<path d="M325.879 212.635L205.396 143.069C203.495 141.972 202.513 139.307 203.189 137.113L230.434 48.6444C231.11 46.4506 233.189 45.5577 235.089 46.6547L355.573 116.22C357.473 117.317 358.455 119.983 357.779 122.177L330.535 210.645C329.859 212.839 327.779 213.732 325.879 212.635V212.635Z" fill="url(#paint12_radial_728_1448)"/>
<g opacity="0.5">
<path d="M325.879 212.635L205.396 143.069C203.495 141.972 202.513 139.307 203.189 137.113L230.434 48.6444C231.11 46.4506 233.189 45.5577 235.089 46.6547L355.573 116.22C357.473 117.317 358.455 119.983 357.779 122.177L330.535 210.645C329.859 212.839 327.779 213.732 325.879 212.635Z" fill="#06033E"/>
</g>
<path d="M355.572 116.221L235.089 46.6556C233.903 45.9668 232.64 46.0689 231.696 46.7704C232.27 46.7576 232.857 46.8852 233.431 47.2168L353.914 116.782C355.815 117.879 356.797 120.545 356.121 122.739L328.876 211.207C328.621 212.024 328.175 212.661 327.614 213.082C328.902 213.044 330.062 212.164 330.522 210.646L357.766 122.178C358.442 119.984 357.447 117.318 355.56 116.221H355.572Z" fill="white"/>
<path opacity="0.4" d="M173.916 284.88C172.258 284.88 170.664 284.535 169.452 283.834L121.174 255.964C119.899 255.225 119.197 254.166 119.197 252.992C119.197 251.628 120.167 250.276 121.863 249.306L146.71 234.957C149.745 233.209 154.197 233.031 156.863 234.561L205.127 262.431C206.403 263.171 207.104 264.229 207.117 265.403C207.117 266.768 206.148 268.12 204.451 269.089L179.605 283.438C177.959 284.395 175.893 284.88 173.916 284.88ZM152.411 234.931C150.664 234.931 148.814 235.352 147.398 236.169L122.552 250.518C121.302 251.245 120.588 252.151 120.588 253.005C120.588 253.86 121.289 254.434 121.876 254.765L170.153 282.635C172.347 283.898 176.352 283.719 178.903 282.24L203.75 267.89C205 267.163 205.714 266.27 205.714 265.403C205.714 264.536 205.013 263.974 204.426 263.643L156.161 235.773C155.179 235.212 153.84 234.931 152.411 234.931V234.931Z" fill="#06033E"/>
<path d="M264.439 93.0814L256.99 88.7829C256.301 88.3875 255.931 87.4309 256.161 86.6401C256.39 85.862 257.143 85.5432 257.832 85.9386L265.281 90.237C265.969 90.6324 266.339 91.589 266.11 92.3798C265.88 93.1579 265.128 93.4768 264.439 93.0814Z" fill="white"/>
<path d="M282.181 103.323L271.199 96.9841C270.51 96.5887 270.14 95.6321 270.37 94.8413C270.599 94.0632 271.352 93.7443 272.041 94.1397L283.023 100.479C283.711 100.874 284.081 101.831 283.852 102.622C283.622 103.4 282.87 103.719 282.181 103.323Z" fill="white"/>
<path d="M249.413 126.244L241.965 121.946C241.276 121.551 240.906 120.594 241.135 119.803C241.365 119.025 242.118 118.706 242.806 119.102L250.255 123.4C250.944 123.795 251.314 124.752 251.084 125.543C250.855 126.321 250.102 126.64 249.413 126.244Z" fill="white"/>
<path d="M265.23 135.364L254.248 129.025C253.559 128.63 253.189 127.673 253.419 126.882C253.648 126.104 254.401 125.785 255.09 126.181L266.072 132.52C266.76 132.915 267.13 133.872 266.901 134.663C266.671 135.441 265.919 135.76 265.23 135.364Z" fill="white"/>
<path d="M242.117 87.1637L237.462 84.4724C236.773 84.077 236.403 83.1204 236.633 82.3296C236.862 81.5515 237.615 81.2326 238.303 81.628L242.959 84.3193C243.648 84.7147 244.018 85.6714 243.788 86.4622C243.558 87.2402 242.806 87.5591 242.117 87.1637Z" fill="white"/>
<path d="M256.122 102.228L241.9 94.0134C241.211 93.618 240.841 92.6614 241.071 91.8706C241.301 91.0925 242.053 90.7736 242.742 91.169L256.964 99.3832C257.652 99.7786 258.022 100.735 257.793 101.526C257.563 102.304 256.811 102.623 256.122 102.228Z" fill="white"/>
<path d="M243.01 108.591L238.354 105.9C237.665 105.505 237.296 104.548 237.525 103.757C237.755 102.979 238.507 102.66 239.196 103.056L243.852 105.747C244.54 106.142 244.91 107.099 244.681 107.89C244.451 108.668 243.698 108.987 243.01 108.591Z" fill="white"/>
<path d="M266.939 150.301L254.515 143.12C253.827 142.724 253.457 141.768 253.686 140.977C253.916 140.199 254.668 139.88 255.357 140.275L267.78 147.457C268.469 147.852 268.839 148.809 268.61 149.599C268.38 150.377 267.627 150.696 266.939 150.301Z" fill="white"/>
<path d="M237.793 119.535L234.808 117.813C234.119 117.418 233.75 116.461 233.979 115.67C234.209 114.892 234.961 114.573 235.65 114.969L238.635 116.691C239.324 117.086 239.693 118.043 239.464 118.834C239.234 119.612 238.482 119.931 237.793 119.535Z" fill="white"/>
<path d="M234.961 131.845L231.25 129.702C230.561 129.306 230.191 128.35 230.421 127.559C230.65 126.781 231.403 126.462 232.091 126.858L235.803 129C236.492 129.396 236.862 130.352 236.632 131.143C236.403 131.921 235.65 132.24 234.961 131.845Z" fill="white"/>
<path d="M249.4 140.174L239.617 134.523C238.928 134.128 238.558 133.171 238.788 132.38C239.017 131.602 239.77 131.283 240.459 131.679L250.242 137.329C250.931 137.725 251.3 138.681 251.071 139.472C250.841 140.25 250.089 140.569 249.4 140.174Z" fill="white"/>
<path d="M236.518 139.714L229.49 135.658C228.801 135.263 228.431 134.306 228.661 133.515C228.89 132.737 229.643 132.418 230.332 132.814L237.36 136.87C238.048 137.265 238.418 138.222 238.189 139.012C237.959 139.791 237.207 140.109 236.518 139.714Z" fill="white"/>
<path d="M277.602 156.487L273.087 153.885C272.398 153.489 272.028 152.532 272.258 151.742C272.487 150.964 273.24 150.645 273.928 151.04L278.444 153.642C279.132 154.038 279.502 154.994 279.273 155.785C279.043 156.563 278.291 156.882 277.602 156.487Z" fill="white"/>
<path d="M260.319 118.592L247.895 111.411C247.206 111.015 246.837 110.059 247.066 109.268C247.296 108.49 248.048 108.171 248.737 108.567L261.16 115.748C261.849 116.143 262.219 117.1 261.989 117.89C261.76 118.668 261.007 118.987 260.319 118.592Z" fill="white"/>
<path d="M261.786 112.469L240.128 99.9694C239.439 99.574 239.069 98.6174 239.299 97.8266C239.528 97.0486 240.281 96.7297 240.969 97.1251L262.627 109.625C263.316 110.02 263.686 110.977 263.456 111.768C263.227 112.546 262.474 112.865 261.786 112.469Z" fill="#1C0B4E"/>
<path d="M249.005 119.038L236.582 111.857C235.893 111.462 235.523 110.505 235.753 109.714C235.982 108.936 236.735 108.617 237.424 109.013L249.847 116.194C250.536 116.589 250.906 117.546 250.676 118.337C250.446 119.115 249.694 119.434 249.005 119.038Z" fill="#1C0B4E"/>
<path d="M269.744 124.038L265.229 121.436C264.54 121.041 264.171 120.084 264.4 119.293C264.63 118.515 265.382 118.196 266.071 118.592L270.586 121.194C271.275 121.589 271.645 122.546 271.415 123.337C271.186 124.115 270.433 124.434 269.744 124.038Z" fill="#1C0B4E"/>
<path d="M315.675 122.661L288.941 107.227C288.252 106.832 287.882 105.875 288.112 105.084C288.342 104.306 289.094 103.988 289.783 104.383L316.517 119.816C317.206 120.212 317.576 121.168 317.346 121.959C317.117 122.737 316.364 123.056 315.675 122.661Z" fill="#1C0B4E"/>
<path d="M247.972 132.38L233.036 123.758C232.347 123.362 231.977 122.406 232.207 121.615C232.436 120.837 233.189 120.518 233.878 120.913L248.814 129.536C249.502 129.931 249.872 130.888 249.643 131.678C249.413 132.456 248.661 132.775 247.972 132.38Z" fill="#F8359E"/>
<path d="M250.23 84.8682L239.248 78.529C238.559 78.1336 238.189 77.177 238.419 76.3862C238.648 75.6081 239.401 75.2893 240.09 75.6847L251.072 82.0239C251.76 82.4193 252.13 83.3759 251.901 84.1667C251.671 84.9448 250.919 85.2636 250.23 84.8682V84.8682Z" fill="#F8359E"/>
<path d="M234.222 145.352L221.506 138.006C220.817 137.61 220.447 136.654 220.676 135.863C220.906 135.085 221.659 134.766 222.347 135.161L235.064 142.508C235.753 142.903 236.123 143.86 235.893 144.651C235.664 145.429 234.911 145.748 234.222 145.352Z" fill="#1C0B4E"/>
<path d="M318.672 108.912L313.226 105.774C312.716 105.481 312.448 104.779 312.627 104.205C312.792 103.631 313.341 103.402 313.851 103.695L319.297 106.833C319.808 107.126 320.076 107.828 319.897 108.402C319.731 108.976 319.183 109.205 318.672 108.912Z" fill="white"/>
<path d="M329.068 114.907L323.622 111.769C323.111 111.476 322.844 110.774 323.022 110.2C323.188 109.626 323.736 109.397 324.247 109.69L329.693 112.828C330.203 113.121 330.471 113.823 330.292 114.397C330.127 114.971 329.578 115.2 329.068 114.907Z" fill="white"/>
<path d="M339.451 120.902L334.004 117.764C333.494 117.471 333.226 116.769 333.405 116.195C333.571 115.622 334.119 115.392 334.629 115.685L340.076 118.823C340.586 119.116 340.854 119.818 340.675 120.392C340.509 120.966 339.961 121.195 339.451 120.902Z" fill="white"/>
<path d="M344.552 123.848L344.386 123.746C343.876 123.452 343.608 122.751 343.787 122.177C343.953 121.603 344.501 121.373 345.011 121.667L345.177 121.769C345.687 122.062 345.955 122.764 345.777 123.338C345.611 123.912 345.062 124.141 344.552 123.848Z" fill="#F8359E"/>
<defs>
<linearGradient id="paint0_linear_728_1448" x1="63.0308" y1="42.4921" x2="-1.00221" y2="91.0831" gradientUnits="userSpaceOnUse">
<stop stop-color="#D4088C"/>
<stop offset="0.04" stop-color="#CB078B"/>
<stop offset="0.46" stop-color="#85068A"/>
<stop offset="0.76" stop-color="#580689"/>
<stop offset="0.91" stop-color="#480689"/>
</linearGradient>
<linearGradient id="paint1_linear_728_1448" x1="64.5531" y1="7.47458" x2="31.5801" y2="56.8754" gradientUnits="userSpaceOnUse">
<stop stop-color="#D4088C"/>
<stop offset="0.04" stop-color="#CB078B"/>
<stop offset="0.46" stop-color="#85068A"/>
<stop offset="0.76" stop-color="#580689"/>
<stop offset="0.91" stop-color="#480689"/>
</linearGradient>
<linearGradient id="paint2_linear_728_1448" x1="7.08197" y1="21.4873" x2="68.5481" y2="21.4873" gradientUnits="userSpaceOnUse">
<stop stop-color="#4F1FEC"/>
<stop offset="1" stop-color="#A92FFB"/>
</linearGradient>
<linearGradient id="paint3_linear_728_1448" x1="58.0663" y1="8.93747" x2="36.3355" y2="46.572" gradientUnits="userSpaceOnUse">
<stop stop-color="#D4088C"/>
<stop offset="0.04" stop-color="#CB078B"/>
<stop offset="0.46" stop-color="#85068A"/>
<stop offset="0.76" stop-color="#580689"/>
<stop offset="0.91" stop-color="#480689"/>
</linearGradient>
<linearGradient id="paint4_linear_728_1448" x1="7.09472" y1="13.389" x2="84.5811" y2="13.389" gradientUnits="userSpaceOnUse">
<stop stop-color="#131060"/>
<stop offset="0.19" stop-color="#140F62"/>
<stop offset="0.28" stop-color="#190F6A"/>
<stop offset="0.36" stop-color="#220F77"/>
<stop offset="0.42" stop-color="#2E0F8A"/>
<stop offset="0.48" stop-color="#3D0EA3"/>
<stop offset="0.54" stop-color="#510EC1"/>
<stop offset="0.58" stop-color="#670DE5"/>
<stop offset="0.61" stop-color="#740DF8"/>
<stop offset="0.62" stop-color="#7A14EF"/>
<stop offset="0.68" stop-color="#9B3BC2"/>
<stop offset="0.75" stop-color="#B75C9D"/>
<stop offset="0.81" stop-color="#CC7680"/>
<stop offset="0.88" stop-color="#DB886B"/>
<stop offset="0.94" stop-color="#E4935F"/>
<stop offset="1" stop-color="#E8975B"/>
</linearGradient>
<linearGradient id="paint5_linear_728_1448" x1="64.1237" y1="6.29052" x2="37.7993" y2="51.8889" gradientUnits="userSpaceOnUse">
<stop stop-color="#D4088C"/>
<stop offset="0.04" stop-color="#CB078B"/>
<stop offset="0.46" stop-color="#85068A"/>
<stop offset="0.76" stop-color="#580689"/>
<stop offset="0.91" stop-color="#480689"/>
</linearGradient>
<linearGradient id="paint6_linear_728_1448" x1="32.9497" y1="38.4002" x2="43.6766" y2="38.4002" gradientUnits="userSpaceOnUse">
<stop stop-color="#131060"/>
<stop offset="0.19" stop-color="#140F62"/>
<stop offset="0.28" stop-color="#190F6A"/>
<stop offset="0.36" stop-color="#220F77"/>
<stop offset="0.42" stop-color="#2E0F8A"/>
<stop offset="0.48" stop-color="#3D0EA3"/>
<stop offset="0.54" stop-color="#510EC1"/>
<stop offset="0.58" stop-color="#670DE5"/>
<stop offset="0.61" stop-color="#740DF8"/>
<stop offset="0.62" stop-color="#7A14EF"/>
<stop offset="0.68" stop-color="#9B3BC2"/>
<stop offset="0.75" stop-color="#B75C9D"/>
<stop offset="0.81" stop-color="#CC7680"/>
<stop offset="0.88" stop-color="#DB886B"/>
<stop offset="0.94" stop-color="#E4935F"/>
<stop offset="1" stop-color="#E8975B"/>
</linearGradient>
<linearGradient id="paint7_linear_728_1448" x1="370.857" y1="37.3184" x2="191.058" y2="203.758" gradientUnits="userSpaceOnUse">
<stop stop-color="#D4088C"/>
<stop offset="0.04" stop-color="#CB078B"/>
<stop offset="0.46" stop-color="#85068A"/>
<stop offset="0.76" stop-color="#580689"/>
<stop offset="0.91" stop-color="#480689"/>
</linearGradient>
<linearGradient id="paint8_linear_728_1448" x1="308.073" y1="179.529" x2="197.031" y2="373.127" gradientUnits="userSpaceOnUse">
<stop stop-color="#D4088C"/>
<stop offset="0.04" stop-color="#CB078B"/>
<stop offset="0.46" stop-color="#85068A"/>
<stop offset="0.76" stop-color="#580689"/>
<stop offset="0.91" stop-color="#480689"/>
</linearGradient>
<linearGradient id="paint9_linear_728_1448" x1="308.122" y1="173.613" x2="195.933" y2="367.928" gradientUnits="userSpaceOnUse">
<stop stop-color="#D4088C"/>
<stop offset="0.04" stop-color="#CB078B"/>
<stop offset="0.46" stop-color="#85068A"/>
<stop offset="0.76" stop-color="#580689"/>
<stop offset="0.91" stop-color="#480689"/>
</linearGradient>
<radialGradient id="paint10_radial_728_1448" cx="0" cy="0" r="1" gradientUnits="userSpaceOnUse" gradientTransform="translate(138.904 53.4652) scale(284.869 284.869)">
<stop stop-color="#E39A65"/>
<stop offset="0.47" stop-color="#A92FFB"/>
<stop offset="0.59" stop-color="#881BFA"/>
<stop offset="0.73" stop-color="#6507FA"/>
<stop offset="1" stop-color="#3919BB"/>
</radialGradient>
<linearGradient id="paint11_linear_728_1448" x1="170.217" y1="128.249" x2="398.48" y2="128.249" gradientUnits="userSpaceOnUse">
<stop stop-color="#3919BB"/>
<stop offset="1" stop-color="#6507FA"/>
</linearGradient>
<radialGradient id="paint12_radial_728_1448" cx="0" cy="0" r="1" gradientUnits="userSpaceOnUse" gradientTransform="translate(34.9129 -7.3626) scale(443.681 443.681)">
<stop stop-color="#E39A65"/>
<stop offset="0.47" stop-color="#A92FFB"/>
<stop offset="0.59" stop-color="#881BFA"/>
<stop offset="0.73" stop-color="#6507FA"/>
<stop offset="1" stop-color="#3919BB"/>
</radialGradient>
</defs>
</svg>
