<svg width="395" height="263" viewBox="0 0 395 263" fill="none" xmlns="http://www.w3.org/2000/svg">
<path d="M49.5473 56.5718C46.1034 56.5718 42.6596 55.679 39.5857 53.906L3.11923 32.8476C1.53761 31.9293 0.59375 30.2966 0.59375 28.4727C0.59375 26.6487 1.53761 25.0161 3.11923 24.0977L39.5857 3.03929C45.7336 -0.506587 53.3738 -0.506587 59.5217 3.03929L95.9881 24.0977C97.5697 25.0161 98.5136 26.6487 98.5136 28.4727C98.5136 30.2966 97.5697 31.9293 95.9881 32.8476L59.5217 53.906C56.4477 55.679 53.0039 56.5718 49.56 56.5718H49.5473ZM40.7719 51.8525C46.1927 54.9775 52.9146 54.9775 58.3354 51.8525L94.8019 30.7941C95.6437 30.3094 96.1411 29.442 96.1411 28.4727C96.1411 27.5033 95.6437 26.636 94.8019 26.1513L58.3354 5.09284C52.9146 1.96788 46.1927 1.96788 40.7719 5.09284L4.30545 26.1513C3.46362 26.636 2.96617 27.5033 2.96617 28.4727C2.96617 29.442 3.46362 30.3094 4.30545 30.7941L40.7719 51.8525Z" fill="url(#paint0_linear_443_892)"/>
<path opacity="0.6" d="M67.0723 39.1997C57.2893 44.8502 41.4221 44.8502 31.639 39.1997C21.856 33.5493 21.856 24.3912 31.639 18.7408C41.4221 13.0903 57.2893 13.0903 67.0723 18.7408C76.8554 24.3912 76.8554 33.5493 67.0723 39.1997Z" fill="#020230"/>
<path d="M240.615 262.922C238.46 262.922 236.394 262.475 234.825 261.557L24.572 140.168C22.8501 139.173 21.9062 137.745 21.9062 136.137C21.9062 134.288 23.1945 132.49 25.4266 131.201L168.741 47.2354C172.67 44.965 178.448 44.7482 181.892 46.738L392.144 168.127C393.866 169.122 394.81 170.55 394.81 172.157C394.81 174.007 393.522 175.793 391.29 177.094L247.975 261.06C245.845 262.284 243.166 262.922 240.628 262.922H240.615ZM176.126 47.7711C173.971 47.7711 171.688 48.2941 169.94 49.3017L26.6256 133.268C25.1588 134.122 24.2914 135.194 24.2914 136.15C24.2914 137.107 25.095 137.732 25.771 138.114L236.024 259.503C238.702 261.06 243.638 260.83 246.789 259.006L390.104 175.04C391.57 174.186 392.438 173.114 392.438 172.157C392.438 171.201 391.634 170.576 390.958 170.193L180.705 48.8043C179.506 48.1155 177.861 47.7711 176.126 47.7711Z" fill="url(#paint1_linear_443_892)"/>
<path opacity="0.6" d="M236.394 243.712L52.1741 137.348C49.4828 135.792 49.8272 133.088 52.9266 131.303L171.165 63.038C174.265 61.2524 178.958 61.0483 181.637 62.6044L365.857 168.968C368.548 170.524 368.204 173.228 365.104 175.014L246.866 243.278C243.766 245.064 239.072 245.268 236.394 243.712Z" fill="#020230"/>
<defs>
<linearGradient id="paint0_linear_443_892" x1="84.1491" y1="8.60235" x2="49.8434" y2="68.3832" gradientUnits="userSpaceOnUse">
<stop stop-color="#D4088C"/>
<stop offset="0.04" stop-color="#CB078B"/>
<stop offset="0.46" stop-color="#85068A"/>
<stop offset="0.76" stop-color="#580689"/>
<stop offset="0.91" stop-color="#480689"/>
</linearGradient>
<linearGradient id="paint1_linear_443_892" x1="340.107" y1="77.2107" x2="206.201" y2="306.746" gradientUnits="userSpaceOnUse">
<stop stop-color="#D4088C"/>
<stop offset="0.04" stop-color="#CB078B"/>
<stop offset="0.46" stop-color="#85068A"/>
<stop offset="0.76" stop-color="#580689"/>
<stop offset="0.91" stop-color="#480689"/>
</linearGradient>
</defs>
</svg>
