<svg width="24" height="25" viewBox="0 0 24 25" fill="none" xmlns="http://www.w3.org/2000/svg">
<path d="M10.29 4.74302L1.82002 18.883C1.64539 19.1854 1.55299 19.5283 1.55201 19.8775C1.55103 20.2268 1.64151 20.5701 1.81445 20.8735C1.98738 21.1769 2.23675 21.4298 2.53773 21.6069C2.83871 21.784 3.18082 21.8792 3.53002 21.883H20.47C20.8192 21.8792 21.1613 21.784 21.4623 21.6069C21.7633 21.4298 22.0127 21.1769 22.1856 20.8735C22.3585 20.5701 22.449 20.2268 22.448 19.8775C22.4471 19.5283 22.3547 19.1854 22.18 18.883L13.71 4.74302C13.5318 4.44912 13.2807 4.20614 12.9812 4.0375C12.6817 3.86887 12.3438 3.78027 12 3.78027C11.6563 3.78027 11.3184 3.86887 11.0188 4.0375C10.7193 4.20614 10.4683 4.44912 10.29 4.74302V4.74302Z" stroke="#F03D3E" stroke-width="2" stroke-linecap="round" stroke-linejoin="round"/>
<path d="M12 9.88281V13.8828" stroke="#F03D3E" stroke-width="2" stroke-linecap="round" stroke-linejoin="round"/>
<path d="M12 16.8828V17.3828" stroke="#F03D3E" stroke-width="2" stroke-linecap="round" stroke-linejoin="round"/>
</svg>
