<svg width="31" height="31" viewBox="0 0 31 31" fill="none" xmlns="http://www.w3.org/2000/svg">
<circle r="15" transform="matrix(1 0 0 -1 15.5 15.8828)" fill="#3F306B"/>
<g clip-path="url(#clip0_408_2220)">
<path d="M15.5 6.87988C10.5275 6.87988 6.5 10.9096 6.5 15.8799C6.5 19.8571 9.0785 23.2299 12.6537 24.4186C13.1037 24.5034 13.2687 24.2251 13.2687 23.9859C13.2687 23.7721 13.2613 23.2059 13.2575 22.4559C10.754 22.9989 10.226 21.2484 10.226 21.2484C9.8165 20.2096 9.22475 19.9321 9.22475 19.9321C8.4095 19.3741 9.28775 19.3854 9.28775 19.3854C10.1915 19.4484 10.6662 20.3124 10.6662 20.3124C11.4688 21.6886 12.773 21.2911 13.2875 21.0609C13.3685 20.4789 13.6003 20.0821 13.8575 19.8571C11.8588 19.6321 9.758 18.8581 9.758 15.4096C9.758 14.4271 10.1068 13.6246 10.6842 12.9946C10.583 12.7674 10.2793 11.8524 10.763 10.6126C10.763 10.6126 11.5168 10.3711 13.238 11.5351C13.958 11.3349 14.723 11.2359 15.488 11.2314C16.253 11.2359 17.018 11.3349 17.738 11.5351C19.448 10.3711 20.2017 10.6126 20.2017 10.6126C20.6855 11.8524 20.3818 12.7674 20.2917 12.9946C20.8655 13.6246 21.2142 14.4271 21.2142 15.4096C21.2142 18.8671 19.1105 19.6284 17.108 19.8496C17.423 20.1196 17.7155 20.6716 17.7155 21.5146C17.7155 22.7191 17.7043 23.6866 17.7043 23.9791C17.7043 24.2154 17.8617 24.4966 18.323 24.4066C21.9237 23.2261 24.5 19.8511 24.5 15.8799C24.5 10.9096 20.4703 6.87988 15.5 6.87988Z" fill="#FFF4F4"/>
</g>
<defs>
<clipPath id="clip0_408_2220">
<rect width="18" height="18" fill="white" transform="translate(6.5 6.65723)"/>
</clipPath>
</defs>
</svg>
