<svg width="30" height="30" viewBox="0 0 30 30" fill="none" xmlns="http://www.w3.org/2000/svg">
<path d="M9.95872 2.65234H20.331C24.2824 2.65234 27.4929 5.86283 27.4929 9.81419V20.1865C27.4929 22.086 26.7383 23.9076 25.3952 25.2507C24.0521 26.5938 22.2305 27.3484 20.331 27.3484H9.95872C6.00736 27.3484 2.79688 24.1379 2.79688 20.1865V9.81419C2.79688 7.91475 3.55142 6.09311 4.89453 4.75C6.23764 3.40689 8.05928 2.65234 9.95872 2.65234M9.71176 5.12195C8.5328 5.12195 7.40212 5.59029 6.56847 6.42394C5.73482 7.25759 5.26648 8.38827 5.26648 9.56723V20.4335C5.26648 22.8907 7.25451 24.8788 9.71176 24.8788H20.578C21.757 24.8788 22.8876 24.4104 23.7213 23.5768C24.555 22.7431 25.0233 21.6124 25.0233 20.4335V9.56723C25.0233 7.10997 23.0353 5.12195 20.578 5.12195H9.71176ZM21.6276 6.97415C22.037 6.97415 22.4295 7.13677 22.719 7.42623C23.0085 7.71569 23.1711 8.10829 23.1711 8.51765C23.1711 8.92701 23.0085 9.31961 22.719 9.60907C22.4295 9.89853 22.037 10.0611 21.6276 10.0611C21.2182 10.0611 20.8256 9.89853 20.5362 9.60907C20.2467 9.31961 20.0841 8.92701 20.0841 8.51765C20.0841 8.10829 20.2467 7.71569 20.5362 7.42623C20.8256 7.13677 21.2182 6.97415 21.6276 6.97415ZM15.1449 8.82635C16.7823 8.82635 18.3527 9.47682 19.5106 10.6347C20.6684 11.7925 21.3189 13.3629 21.3189 15.0004C21.3189 16.6378 20.6684 18.2082 19.5106 19.366C18.3527 20.5239 16.7823 21.1744 15.1449 21.1744C13.5074 21.1744 11.9371 20.5239 10.7792 19.366C9.62135 18.2082 8.97088 16.6378 8.97088 15.0004C8.97088 13.3629 9.62135 11.7925 10.7792 10.6347C11.9371 9.47682 13.5074 8.82635 15.1449 8.82635M15.1449 11.296C14.1624 11.296 13.2202 11.6862 12.5255 12.3809C11.8308 13.0757 11.4405 14.0179 11.4405 15.0004C11.4405 15.9828 11.8308 16.9251 12.5255 17.6198C13.2202 18.3145 14.1624 18.7048 15.1449 18.7048C16.1274 18.7048 17.0696 18.3145 17.7643 17.6198C18.459 16.9251 18.8493 15.9828 18.8493 15.0004C18.8493 14.0179 18.459 13.0757 17.7643 12.3809C17.0696 11.6862 16.1274 11.296 15.1449 11.296Z" fill="#FFF4F4"/>
</svg>
