<svg width="25" height="26" viewBox="0 0 25 26" fill="none" xmlns="http://www.w3.org/2000/svg">
<path d="M8.12468 2.96582H16.8747C20.208 2.96582 22.9163 5.67415 22.9163 9.00749V17.7575C22.9163 19.3598 22.2798 20.8966 21.1468 22.0296C20.0137 23.1626 18.477 23.7992 16.8747 23.7992H8.12468C4.79134 23.7992 2.08301 21.0908 2.08301 17.7575V9.00749C2.08301 7.40514 2.71954 5.86842 3.85257 4.73538C4.9856 3.60235 6.52233 2.96582 8.12468 2.96582ZM7.91634 5.04915C6.92178 5.04915 5.96795 5.44424 5.26469 6.1475C4.56143 6.85076 4.16634 7.80459 4.16634 8.79915V17.9658C4.16634 20.0387 5.84342 21.7158 7.91634 21.7158H17.083C18.0776 21.7158 19.0314 21.3207 19.7347 20.6175C20.4379 19.9142 20.833 18.9604 20.833 17.9658V8.79915C20.833 6.72624 19.1559 5.04915 17.083 5.04915H7.91634ZM17.9684 6.61165C18.3138 6.61165 18.645 6.74884 18.8891 6.99303C19.1333 7.23721 19.2705 7.5684 19.2705 7.91374C19.2705 8.25907 19.1333 8.59026 18.8891 8.83445C18.645 9.07864 18.3138 9.21582 17.9684 9.21582C17.6231 9.21582 17.2919 9.07864 17.0477 8.83445C16.8035 8.59026 16.6663 8.25907 16.6663 7.91374C16.6663 7.5684 16.8035 7.23721 17.0477 6.99303C17.2919 6.74884 17.6231 6.61165 17.9684 6.61165ZM12.4997 8.17415C13.881 8.17415 15.2058 8.72289 16.1825 9.69964C17.1593 10.6764 17.708 12.0012 17.708 13.3825C17.708 14.7638 17.1593 16.0886 16.1825 17.0653C15.2058 18.0421 13.881 18.5908 12.4997 18.5908C11.1183 18.5908 9.79358 18.0421 8.81683 17.0653C7.84008 16.0886 7.29134 14.7638 7.29134 13.3825C7.29134 12.0012 7.84008 10.6764 8.81683 9.69964C9.79358 8.72289 11.1183 8.17415 12.4997 8.17415ZM12.4997 10.2575C11.6709 10.2575 10.876 10.5867 10.29 11.1728C9.70391 11.7588 9.37467 12.5537 9.37467 13.3825C9.37467 14.2113 9.70391 15.0061 10.29 15.5922C10.876 16.1782 11.6709 16.5075 12.4997 16.5075C13.3285 16.5075 14.1233 16.1782 14.7094 15.5922C15.2954 15.0061 15.6247 14.2113 15.6247 13.3825C15.6247 12.5537 15.2954 11.7588 14.7094 11.1728C14.1233 10.5867 13.3285 10.2575 12.4997 10.2575Z" fill="white"/>
</svg>
