<svg width="359" height="296" viewBox="0 0 359 296" fill="none" xmlns="http://www.w3.org/2000/svg">
<g style="mix-blend-mode:lighten">
<path d="M4.36993 126.66C4.36993 127.47 3.70993 128.13 2.89993 128.13C2.08993 128.13 1.42993 127.47 1.42993 126.66C1.42993 125.85 2.08993 125.19 2.89993 125.19C3.70993 125.19 4.36993 125.85 4.36993 126.66Z" fill="#D4088C"/>
</g>
<path d="M24.27 239.9C37.2542 239.9 47.78 229.374 47.78 216.39C47.78 203.406 37.2542 192.88 24.27 192.88C11.2858 192.88 0.76001 203.406 0.76001 216.39C0.76001 229.374 11.2858 239.9 24.27 239.9Z" fill="url(#paint0_linear_2_7492)"/>
<path d="M54.7 60.01C60.0792 60.01 64.44 55.6493 64.44 50.27C64.44 44.8908 60.0792 40.53 54.7 40.53C49.3207 40.53 44.96 44.8908 44.96 50.27C44.96 55.6493 49.3207 60.01 54.7 60.01Z" fill="url(#paint1_linear_2_7492)"/>
<path d="M346.005 157.483C352.839 150.649 352.839 139.568 346.005 132.734C339.171 125.9 328.091 125.9 321.256 132.734C314.422 139.568 314.422 150.649 321.256 157.483C328.091 164.317 339.171 164.317 346.005 157.483Z" fill="url(#paint2_linear_2_7492)"/>
<path opacity="0.8" d="M338.11 215.98C331.07 217.35 323.45 215.16 321.09 211.1C318.72 207.04 322.51 202.64 329.55 201.27C336.59 199.9 344.21 202.09 346.57 206.15C348.94 210.21 345.15 214.61 338.11 215.98Z" fill="#0C0F38"/>
<path opacity="0.8" d="M30.5 295.22C20.71 297.12 10.11 294.08 6.81 288.42C3.52 282.77 8.79001 276.65 18.58 274.75C28.37 272.85 38.97 275.89 42.27 281.55C45.56 287.2 40.29 293.32 30.5 295.22Z" fill="#0C0F38"/>
<path opacity="0.8" d="M56.84 89.62C53.33 90.3 49.52 89.21 48.34 87.18C47.16 85.15 49.05 82.95 52.56 82.27C56.07 81.59 59.88 82.68 61.06 84.71C62.24 86.74 60.35 88.94 56.84 89.62Z" fill="#0C0F38"/>
<g style="mix-blend-mode:lighten" opacity="0.8">
<path d="M119.02 12.25C120.395 12.25 121.51 11.1352 121.51 9.76003C121.51 8.38484 120.395 7.27002 119.02 7.27002C117.645 7.27002 116.53 8.38484 116.53 9.76003C116.53 11.1352 117.645 12.25 119.02 12.25Z" fill="#D4088C"/>
</g>
<g style="mix-blend-mode:lighten" opacity="0.8">
<path d="M75.3 266.4C76.9624 266.4 78.31 265.052 78.31 263.39C78.31 261.728 76.9624 260.38 75.3 260.38C73.6377 260.38 72.29 261.728 72.29 263.39C72.29 265.052 73.6377 266.4 75.3 266.4Z" fill="#D4088C"/>
</g>
<g style="mix-blend-mode:lighten">
<path d="M57.7899 250.09C57.7899 250.94 57.0999 251.64 56.2399 251.64C55.3799 251.64 54.6899 250.95 54.6899 250.09C54.6899 249.23 55.3799 248.54 56.2399 248.54C57.0999 248.54 57.7899 249.23 57.7899 250.09Z" fill="#6EE8FC"/>
</g>
<g style="mix-blend-mode:lighten">
<path d="M320.38 192.99C320.38 193.87 319.66 194.59 318.78 194.59C317.9 194.59 317.18 193.87 317.18 192.99C317.18 192.11 317.9 191.39 318.78 191.39C319.66 191.39 320.38 192.11 320.38 192.99Z" fill="#6EE8FC"/>
</g>
<g style="mix-blend-mode:lighten">
<path d="M22.29 87.3C23.5327 87.3 24.54 86.2927 24.54 85.05C24.54 83.8074 23.5327 82.8 22.29 82.8C21.0474 82.8 20.04 83.8074 20.04 85.05C20.04 86.2927 21.0474 87.3 22.29 87.3Z" fill="#6EE8FC"/>
</g>
<g style="mix-blend-mode:lighten">
<path d="M192.75 2.98999C192.75 4.22999 191.74 5.23999 190.5 5.23999C189.26 5.23999 188.25 4.22999 188.25 2.98999C188.25 1.74999 189.26 0.73999 190.5 0.73999C191.74 0.73999 192.75 1.74999 192.75 2.98999Z" fill="#6EE8FC"/>
</g>
<g style="mix-blend-mode:lighten">
<path d="M33.71 80.0699C33.71 80.7599 33.15 81.3199 32.46 81.3199C31.77 81.3199 31.21 80.7599 31.21 80.0699C31.21 79.3799 31.77 78.8199 32.46 78.8199C33.15 78.8199 33.71 79.3799 33.71 80.0699Z" fill="#6EE8FC"/>
</g>
<g style="mix-blend-mode:lighten">
<path d="M248.24 11.02C248.24 11.83 247.58 12.49 246.77 12.49C245.96 12.49 245.3 11.83 245.3 11.02C245.3 10.21 245.96 9.55005 246.77 9.55005C247.58 9.55005 248.24 10.21 248.24 11.02Z" fill="#D4088C"/>
</g>
<path d="M32 158.85L31.46 156.93L35.74 155.73L34.5399 151.45L36.47 150.91L38.2 157.12L32 158.85Z" fill="#6EE1F8"/>
<path d="M28.2199 165.56L27.6799 163.64L31.9599 162.44L30.7599 158.16L32.6899 157.62L34.4299 163.83L28.2199 165.56Z" fill="#6EE1F8"/>
<path d="M32.23 163.4L30.49 157.2L36.7 155.46L37.24 157.39L32.96 158.58L34.16 162.86L32.23 163.4Z" fill="#6EE1F8"/>
<path d="M179.92 15.78C177.3 15.78 175.16 13.65 175.16 11.02C175.16 8.39 177.3 6.26001 179.92 6.26001C182.54 6.26001 184.68 8.4 184.68 11.02C184.68 13.64 182.55 15.78 179.92 15.78ZM179.92 8.26001C178.4 8.26001 177.16 9.5 177.16 11.02C177.16 12.54 178.4 13.78 179.92 13.78C181.44 13.78 182.68 12.54 182.68 11.02C182.68 9.5 181.44 8.26001 179.92 8.26001Z" fill="#6EE1F8"/>
<path d="M284.33 253.94L278.93 248.54L284.33 243.14L289.73 248.54L284.33 253.94ZM281.76 248.54L284.33 251.11L286.9 248.54L284.33 245.97L281.76 248.54Z" fill="#6EE1F8"/>
<path d="M297.176 56.7479L295.762 58.1624L301.548 63.9455L302.962 62.531L297.176 56.7479Z" fill="#D4088C"/>
<path d="M301.564 56.7845L295.78 62.5686L297.194 63.9828L302.978 58.1987L301.564 56.7845Z" fill="#D4088C"/>
<path opacity="0.8" d="M68.2 205.72L185.57 273.48C186.85 274.22 188.8 274.3 189.91 273.66L259.95 233.22C261.06 232.58 260.92 231.46 259.64 230.71L142.27 162.95C140.99 162.21 139.04 162.13 137.93 162.77L67.8901 203.21C66.7801 203.85 66.92 204.97 68.2 205.72Z" fill="#0C0F38"/>
<path d="M142.06 137.88L156.9 49.8599L155.71 49.3599L157.5 48.3299C157.85 48.1099 158.34 48.1199 158.88 48.4399L277.45 116.9C278.42 117.46 279.16 118.9 278.99 119.91L264.04 208.63C263.96 209.09 263.73 209.4 263.42 209.53L261.67 210.54L261.37 208.9L261.47 208.93L143.61 140.89C142.64 140.33 141.9 138.89 142.07 137.88H142.06Z" fill="url(#paint3_linear_2_7492)"/>
<path d="M276.79 119.29L278.74 118.43C278.96 118.93 279.07 119.45 278.99 119.9L264.04 208.62C263.96 209.08 263.73 209.39 263.42 209.52L261.67 210.53L261.37 208.89L261.47 208.92L255.51 205.48L276.81 119.29H276.79Z" fill="#3A9BD5"/>
<path d="M141.74 141.96L260.31 210.42C261.23 210.95 262.01 210.64 262.17 209.7L277.12 120.98C277.29 119.97 276.55 118.53 275.58 117.97L157.01 49.5099C156.09 48.9799 155.31 49.2899 155.15 50.2299L140.2 138.95C140.03 139.96 140.77 141.4 141.74 141.96Z" fill="url(#paint4_linear_2_7492)"/>
<path d="M141.74 141.96L260.31 210.42C261.23 210.95 262.01 210.64 262.17 209.7L277.12 120.98C277.29 119.97 276.55 118.53 275.58 117.97L157.01 49.5099C156.09 48.9799 155.31 49.2899 155.15 50.2299L140.2 138.95C140.03 139.96 140.77 141.4 141.74 141.96Z" fill="url(#paint5_linear_2_7492)"/>
<path d="M157.22 54.3799L274.34 122L260.17 205.56L143.12 137.98L157.22 54.3799Z" fill="url(#paint6_linear_2_7492)"/>
<path d="M67.2 183.96L73.67 187.34L138.56 149.88C139.65 149.25 141.54 149.33 142.8 150.06L254.71 214.67C255.78 214.07 260.66 211.72 260.66 211.72L258.29 217.89C258.19 218.16 257.98 218.41 257.63 218.62L189.29 258.08C188.2 258.71 186.31 258.63 185.05 257.9L70.53 191.78C70.02 191.48 69.7 191.12 69.57 190.76L67.22 183.96H67.2Z" fill="url(#paint7_linear_2_7492)"/>
<path d="M68.2 185.02L185.57 252.78C186.85 253.52 188.8 253.6 189.91 252.96L259.95 212.52C261.06 211.88 260.92 210.76 259.64 210.01L142.27 142.25C140.99 141.51 139.04 141.43 137.93 142.07L67.8901 182.51C66.7801 183.15 66.92 184.27 68.2 185.02Z" fill="url(#paint8_radial_2_7492)"/>
<path d="M68.2001 183.88L185.57 251.64C186.85 252.38 188.8 252.46 189.91 251.82L259.95 211.38C260.21 211.23 260.41 211.05 260.53 210.85C260.87 211.45 260.69 212.1 259.95 212.53L189.91 252.97C188.8 253.61 186.85 253.53 185.57 252.79L68.2001 185.03C67.2201 184.46 66.9101 183.68 67.3101 183.05C67.4801 183.35 67.7801 183.63 68.2001 183.88Z" fill="#6EE8FC"/>
<g opacity="0.11">
<path d="M142.44 142.19L273.1 217.63C274.53 218.46 276.69 218.55 277.93 217.83L355.9 172.81C357.14 172.09 356.98 170.85 355.55 170.02L224.89 94.58C223.46 93.75 221.3 93.66 220.06 94.38L142.09 139.4C140.85 140.12 141.01 141.36 142.44 142.19Z" fill="url(#paint9_linear_2_7492)"/>
<path d="M171.06 140.29L265.65 194.9L261.9 197.07L167.31 142.45L171.06 140.29Z" fill="url(#paint10_radial_2_7492)"/>
<path d="M181.03 134.54L270.93 186.45L267.19 188.61L177.28 136.7L181.03 134.54Z" fill="url(#paint11_radial_2_7492)"/>
<path d="M277.65 190.32L286.05 195.17L282.3 197.33L273.9 192.49L277.65 190.32Z" fill="#6EE1F8"/>
<path d="M270.23 197.55L276.08 200.92L272.33 203.09L266.48 199.71L270.23 197.55Z" fill="#6EE1F8"/>
<path d="M187.27 130.93L292.29 191.56L288.54 193.73L183.52 133.09L187.27 130.93Z" fill="url(#paint12_radial_2_7492)"/>
<path d="M193.52 127.33L298.54 187.96L294.79 190.12L189.77 129.49L193.52 127.33Z" fill="url(#paint13_radial_2_7492)"/>
<path d="M199.76 123.72L304.78 184.35L301.03 186.52L196.01 125.88L199.76 123.72Z" fill="url(#paint14_radial_2_7492)"/>
</g>
<path d="M139.44 157.52L224.16 206.44L227.93 204.26L143.2 155.35L139.44 157.52Z" fill="#6EE1F8"/>
<path d="M130.2 162.85L209.67 208.73L213.43 206.56L133.97 160.68L130.2 162.85Z" fill="#6EE1F8"/>
<path d="M124.19 166.33L217.75 220.35L221.52 218.17L127.95 164.15L124.19 166.33Z" fill="#6EE1F8"/>
<path d="M118.17 169.8L211.73 223.82L215.5 221.64L121.94 167.63L118.17 169.8Z" fill="#6EE1F8"/>
<path d="M112.16 173.27L205.72 227.29L209.49 225.12L115.92 171.1L112.16 173.27Z" fill="#6EE1F8"/>
<path d="M229.28 209.39L233.04 211.57L236.81 209.39L233.04 207.22L229.28 209.39Z" fill="#6EE1F8"/>
<path d="M215.99 212.38L223.81 216.9L227.58 214.72L219.76 210.21L215.99 212.38Z" fill="#6EE1F8"/>
<g opacity="0.5">
<path d="M166.9 79.35L174.64 83.82L174.87 82.48L167.13 78L166.9 79.35Z" fill="white"/>
<path d="M175.89 84.5399L180.11 86.9699L180.33 85.6299L176.11 83.1899L175.89 84.5399Z" fill="white"/>
<path d="M186.67 90.76L189.72 92.5201L189.95 91.18L186.9 89.42L186.67 90.76Z" fill="white"/>
<path d="M184.44 89.47L185.49 90.08L185.71 88.73L184.67 88.13L184.44 89.47Z" fill="white"/>
<path d="M181.37 87.7L183.26 88.79L183.49 87.45L181.59 86.35L181.37 87.7Z" fill="white"/>
<path d="M173.03 89.6301L176.08 91.39L176.31 90.05L173.25 88.29L173.03 89.6301Z" fill="white"/>
<path d="M165.86 85.49L171.84 88.95L172.07 87.6L166.09 84.15L165.86 85.49Z" fill="white"/>
<path d="M174.44 107.28L180.42 110.73L180.65 109.39L174.67 105.93L174.44 107.28Z" fill="white"/>
<path d="M171.36 105.5L173.26 106.59L173.48 105.25L171.59 104.15L171.36 105.5Z" fill="white"/>
<path d="M175.44 101.13L181.42 104.58L181.64 103.24L175.66 99.78L175.44 101.13Z" fill="white"/>
<path d="M172.36 99.35L174.25 100.44L174.48 99.1L172.59 98L172.36 99.35Z" fill="white"/>
<path d="M170.03 133.82L158.76 127.31L158.54 128.65L169.8 135.16L170.03 133.82Z" fill="white"/>
<path d="M174 136.11L171.21 134.5L170.99 135.85L173.77 137.46L174 136.11Z" fill="white"/>
<path d="M193.8 137.41L182.53 130.91L182.3 132.25L193.57 138.76L193.8 137.41Z" fill="white"/>
<path d="M197.77 139.71L194.98 138.1L194.75 139.44L197.54 141.05L197.77 139.71Z" fill="white"/>
<path d="M162.33 126L159.28 124.24L159.05 125.58L162.11 127.35L162.33 126Z" fill="white"/>
<path d="M180.9 129.98L177.85 128.22L177.62 129.56L180.68 131.33L180.9 129.98Z" fill="white"/>
<path d="M169.5 130.14L163.52 126.68L163.29 128.03L169.27 131.48L169.5 130.14Z" fill="white"/>
<path d="M172.57 131.92L170.68 130.82L170.45 132.17L172.35 133.26L172.57 131.92Z" fill="white"/>
<path d="M179.79 136.08L173.81 132.63L173.58 133.97L179.57 137.43L179.79 136.08Z" fill="white"/>
<path d="M182.87 137.86L180.97 136.76L180.75 138.11L182.64 139.2L182.87 137.86Z" fill="white"/>
<path d="M180.38 133.05L177.33 131.29L177.11 132.63L180.16 134.4L180.38 133.05Z" fill="white"/>
<path d="M187.55 137.19L181.57 133.74L181.34 135.08L187.32 138.54L187.55 137.19Z" fill="white"/>
<path d="M190.62 138.97L188.73 137.88L188.5 139.22L190.4 140.31L190.62 138.97Z" fill="white"/>
<path d="M166.04 124.78L159.8 121.17L159.57 122.51L165.82 126.12L166.04 124.78Z" fill="white"/>
<path d="M171.74 128.07L167.23 125.46L167 126.8L171.52 129.41L171.74 128.07Z" fill="white"/>
<path d="M175.98 130.51L172.93 128.75L172.7 130.1L175.75 131.86L175.98 130.51Z" fill="white"/>
<path d="M205.58 144.21L199.34 140.6L199.11 141.95L205.35 145.55L205.58 144.21Z" fill="white"/>
<path d="M211.28 147.5L206.76 144.89L206.54 146.24L211.05 148.85L211.28 147.5Z" fill="white"/>
<path d="M215.51 149.95L212.46 148.19L212.24 149.53L215.29 151.29L215.51 149.95Z" fill="white"/>
<path d="M203.14 103.63L209.38 107.24L209.61 105.9L203.36 102.29L203.14 103.63Z" fill="white"/>
<path d="M197.44 100.34L201.95 102.95L202.18 101.61L197.66 99L197.44 100.34Z" fill="white"/>
<path d="M193.2 97.89L196.25 99.66L196.48 98.31L193.43 96.55L193.2 97.89Z" fill="white"/>
<path d="M201.06 99.05L207.31 102.66L207.53 101.32L201.29 97.71L201.06 99.05Z" fill="white"/>
<path d="M195.36 95.76L199.88 98.37L200.11 97.03L195.59 94.42L195.36 95.76Z" fill="white"/>
<path d="M191.13 93.31L194.18 95.08L194.41 93.73L191.35 91.97L191.13 93.31Z" fill="white"/>
<path d="M175.85 104.74L177.96 105.96L178.18 104.61L176.08 103.39L175.85 104.74Z" fill="white"/>
<path d="M171.88 102.44L174.67 104.05L174.89 102.71L172.1 101.1L171.88 102.44Z" fill="white"/>
<path d="M166.6 121.72L160.36 118.11L160.13 119.46L166.38 123.07L166.6 121.72Z" fill="white"/>
<path d="M172.3 125.02L167.79 122.41L167.56 123.75L172.08 126.36L172.3 125.02Z" fill="white"/>
<path d="M176.54 127.46L173.49 125.7L173.26 127.04L176.31 128.81L176.54 127.46Z" fill="white"/>
<path d="M162.99 116.26L160.88 115.04L160.65 116.39L162.76 117.61L162.99 116.26Z" fill="white"/>
<path d="M166.96 118.56L164.17 116.95L163.94 118.29L166.73 119.9L166.96 118.56Z" fill="white"/>
<path d="M172.63 121.83L168.14 119.24L167.91 120.58L172.4 123.18L172.63 121.83Z" fill="white"/>
<path d="M178.72 96.2699L180.83 97.4899L181.05 96.1399L178.94 94.9299L178.72 96.2699Z" fill="white"/>
<path d="M174.75 93.98L177.53 95.59L177.76 94.24L174.97 92.63L174.75 93.98Z" fill="white"/>
<path d="M169.07 90.7L173.56 93.29L173.79 91.95L169.3 89.35L169.07 90.7Z" fill="white"/>
<path d="M181.93 101.25L186.42 103.85L186.65 102.5L182.16 99.91L181.93 101.25Z" fill="white"/>
<path d="M174.58 97.25L180.64 100.75L180.86 99.4L174.81 95.91L174.58 97.25Z" fill="white"/>
<path d="M171.51 95.47L173.4 96.57L173.63 95.22L171.73 94.13L171.51 95.47Z" fill="white"/>
<path d="M168.55 93.7701L170.45 94.86L170.67 93.5201L168.78 92.42L168.55 93.7701Z" fill="white"/>
<path d="M168.96 111.12L174.94 114.57L175.17 113.23L169.19 109.77L168.96 111.12Z" fill="white"/>
<path d="M165.88 109.34L167.78 110.44L168.01 109.09L166.11 108L165.88 109.34Z" fill="white"/>
<path d="M169.37 114.73L171.48 115.95L171.71 114.6L169.6 113.39L169.37 114.73Z" fill="white"/>
<path d="M176.82 112.27L178.93 113.49L179.16 112.14L177.05 110.92L176.82 112.27Z" fill="white"/>
<path d="M179.83 114L184.89 116.93L185.12 115.58L180.05 112.66L179.83 114Z" fill="white"/>
<path d="M185.79 117.44L188.8 119.18L189.02 117.84L186.01 116.1L185.79 117.44Z" fill="white"/>
<path d="M165.4 112.44L168.19 114.05L168.42 112.7L165.63 111.09L165.4 112.44Z" fill="white"/>
<path d="M165.14 115.59L167.25 116.81L167.48 115.47L165.37 114.25L165.14 115.59Z" fill="white"/>
<path d="M161.17 113.3L163.96 114.91L164.19 113.56L161.4 111.95L161.17 113.3Z" fill="white"/>
<path d="M173.76 110.5L175.65 111.6L175.88 110.25L173.99 109.16L173.76 110.5Z" fill="white"/>
<path d="M170.81 108.8L172.7 109.89L172.93 108.55L171.03 107.45L170.81 108.8Z" fill="white"/>
<path d="M185.35 93.36L191.81 97.09L192.04 95.75L185.58 92.02L185.35 93.36Z" fill="white"/>
<path d="M178.12 89.18L184.17 92.68L184.4 91.33L178.34 87.84L178.12 89.18Z" fill="white"/>
<path d="M175.04 87.4001L176.93 88.5001L177.16 87.1501L175.27 86.0601L175.04 87.4001Z" fill="white"/>
<path d="M172.09 85.7L173.98 86.79L174.21 85.45L172.31 84.35L172.09 85.7Z" fill="white"/>
<path d="M170.47 84.7601L166.38 82.4001L166.61 81.0601L170.7 83.4201L170.47 84.7601Z" fill="white"/>
</g>
<defs>
<linearGradient id="paint0_linear_2_7492" x1="40.8824" y1="199.76" x2="7.6342" y2="233.008" gradientUnits="userSpaceOnUse">
<stop stop-color="#D4088C"/>
<stop offset="0.04" stop-color="#CB078B"/>
<stop offset="0.46" stop-color="#85068A"/>
<stop offset="0.76" stop-color="#580689"/>
<stop offset="0.91" stop-color="#480689"/>
</linearGradient>
<linearGradient id="paint1_linear_2_7492" x1="64.43" y1="50.26" x2="44.96" y2="50.26" gradientUnits="userSpaceOnUse">
<stop stop-color="#6EE8FC"/>
<stop offset="0.16" stop-color="#69E1FA"/>
<stop offset="0.37" stop-color="#5ED0F6"/>
<stop offset="0.61" stop-color="#4AB4F0"/>
<stop offset="0.87" stop-color="#308EE8"/>
<stop offset="0.96" stop-color="#267FE5"/>
</linearGradient>
<linearGradient id="paint2_linear_2_7492" x1="315.936" y1="136.343" x2="355.143" y2="155.823" gradientUnits="userSpaceOnUse">
<stop stop-color="#6EE8FC"/>
<stop offset="0.16" stop-color="#69E1FA"/>
<stop offset="0.37" stop-color="#5ED0F6"/>
<stop offset="0.61" stop-color="#4AB4F0"/>
<stop offset="0.87" stop-color="#308EE8"/>
<stop offset="0.96" stop-color="#267FE5"/>
</linearGradient>
<linearGradient id="paint3_linear_2_7492" x1="279.02" y1="129.36" x2="142.04" y2="129.36" gradientUnits="userSpaceOnUse">
<stop stop-color="#7BDAFF"/>
<stop offset="1" stop-color="#59BDEF"/>
</linearGradient>
<linearGradient id="paint4_linear_2_7492" x1="277.16" y1="129.96" x2="140.18" y2="129.96" gradientUnits="userSpaceOnUse">
<stop stop-color="#2573BA"/>
<stop offset="1" stop-color="#0063AD"/>
</linearGradient>
<linearGradient id="paint5_linear_2_7492" x1="277.16" y1="129.96" x2="140.18" y2="129.96" gradientUnits="userSpaceOnUse">
<stop stop-color="#2C75E4"/>
<stop offset="0.04" stop-color="#3361D4"/>
<stop offset="0.13" stop-color="#4040BB"/>
<stop offset="0.22" stop-color="#4B26A7"/>
<stop offset="0.32" stop-color="#521499"/>
<stop offset="0.41" stop-color="#560990"/>
<stop offset="0.52" stop-color="#58068E"/>
<stop offset="0.66" stop-color="#5A068F"/>
<stop offset="0.76" stop-color="#640A92"/>
<stop offset="0.85" stop-color="#740F98"/>
<stop offset="0.93" stop-color="#8A16A0"/>
<stop offset="1" stop-color="#A31FA9"/>
</linearGradient>
<linearGradient id="paint6_linear_2_7492" x1="274.34" y1="129.97" x2="143.13" y2="129.97" gradientUnits="userSpaceOnUse">
<stop stop-color="#7BDAFF"/>
<stop offset="1" stop-color="#59BDEF"/>
</linearGradient>
<linearGradient id="paint7_linear_2_7492" x1="260.66" y1="203.98" x2="67.21" y2="203.98" gradientUnits="userSpaceOnUse">
<stop stop-color="#2C75E4"/>
<stop offset="0.04" stop-color="#3361D4"/>
<stop offset="0.13" stop-color="#4040BB"/>
<stop offset="0.22" stop-color="#4B26A7"/>
<stop offset="0.32" stop-color="#521499"/>
<stop offset="0.41" stop-color="#560990"/>
<stop offset="0.52" stop-color="#58068E"/>
<stop offset="0.66" stop-color="#5A068F"/>
<stop offset="0.76" stop-color="#640A92"/>
<stop offset="0.85" stop-color="#740F98"/>
<stop offset="0.93" stop-color="#8A16A0"/>
<stop offset="1" stop-color="#A31FA9"/>
</linearGradient>
<radialGradient id="paint8_radial_2_7492" cx="0" cy="0" r="1" gradientUnits="userSpaceOnUse" gradientTransform="translate(266.59 213.19) rotate(-180) scale(205.39 205.39)">
<stop stop-color="#2979E4"/>
<stop offset="0.24" stop-color="#4958CC"/>
<stop offset="0.57" stop-color="#6D32B1"/>
<stop offset="0.83" stop-color="#841BA1"/>
<stop offset="1" stop-color="#8D139B"/>
</radialGradient>
<linearGradient id="paint9_linear_2_7492" x1="284.33" y1="156.11" x2="68.85" y2="156.11" gradientUnits="userSpaceOnUse">
<stop stop-color="#C0BFF6"/>
<stop offset="0.29" stop-color="#C4C3F6"/>
<stop offset="0.64" stop-color="#D2D2F9"/>
<stop offset="1" stop-color="#E9E9FD"/>
</linearGradient>
<radialGradient id="paint10_radial_2_7492" cx="0" cy="0" r="1" gradientUnits="userSpaceOnUse" gradientTransform="translate(216.48 168.68) scale(40.15 40.15)">
<stop stop-color="#22215B"/>
<stop offset="0.33" stop-color="#1E1E55"/>
<stop offset="0.75" stop-color="#141544"/>
<stop offset="1" stop-color="#0C0F38"/>
</radialGradient>
<radialGradient id="paint11_radial_2_7492" cx="0" cy="0" r="1" gradientUnits="userSpaceOnUse" gradientTransform="translate(224.11 161.57) scale(38.24 38.24)">
<stop stop-color="#22215B"/>
<stop offset="0.33" stop-color="#1E1E55"/>
<stop offset="0.75" stop-color="#141544"/>
<stop offset="1" stop-color="#0C0F38"/>
</radialGradient>
<radialGradient id="paint12_radial_2_7492" cx="0" cy="0" r="1" gradientUnits="userSpaceOnUse" gradientTransform="translate(237.91 162.33) scale(44.4 44.4)">
<stop stop-color="#22215B"/>
<stop offset="0.33" stop-color="#1E1E55"/>
<stop offset="0.75" stop-color="#141544"/>
<stop offset="1" stop-color="#0C0F38"/>
</radialGradient>
<radialGradient id="paint13_radial_2_7492" cx="0" cy="0" r="1" gradientUnits="userSpaceOnUse" gradientTransform="translate(244.15 158.72) scale(44.4 44.4)">
<stop stop-color="#22215B"/>
<stop offset="0.33" stop-color="#1E1E55"/>
<stop offset="0.75" stop-color="#141544"/>
<stop offset="1" stop-color="#0C0F38"/>
</radialGradient>
<radialGradient id="paint14_radial_2_7492" cx="0" cy="0" r="1" gradientUnits="userSpaceOnUse" gradientTransform="translate(250.4 155.12) scale(44.4 44.4)">
<stop stop-color="#22215B"/>
<stop offset="0.33" stop-color="#1E1E55"/>
<stop offset="0.75" stop-color="#141544"/>
<stop offset="1" stop-color="#0C0F38"/>
</radialGradient>
</defs>
</svg>
