<svg width="660" height="545" viewBox="0 0 660 545" fill="none" xmlns="http://www.w3.org/2000/svg">
<g style="mix-blend-mode:lighten">
<path d="M5.66607 232.524C5.66607 234.02 4.44731 235.239 2.95157 235.239C1.45582 235.239 0.237061 234.02 0.237061 232.524C0.237061 231.028 1.45582 229.81 2.95157 229.81C4.44731 229.81 5.66607 231.028 5.66607 232.524Z" fill="#D4088C"/>
</g>
<path d="M43.4136 455.827C67.3902 455.827 86.8271 436.39 86.8271 412.414C86.8271 388.437 67.3902 369 43.4136 369C19.4369 369 0 388.437 0 412.414C0 436.39 19.4369 455.827 43.4136 455.827Z" fill="url(#paint0_linear_154_268)"/>
<path d="M168.986 132.972C178.919 132.972 186.972 124.919 186.972 114.986C186.972 105.053 178.919 97 168.986 97C159.053 97 151 105.053 151 114.986C151 124.919 159.053 132.972 168.986 132.972Z" fill="url(#paint1_linear_154_268)"/>
<path d="M636.53 289.441C649.15 276.821 649.15 256.36 636.53 243.74C623.91 231.12 603.449 231.12 590.829 243.74C578.209 256.36 578.209 276.821 590.829 289.441C603.449 302.061 623.91 302.061 636.53 289.441Z" fill="url(#paint2_linear_154_268)"/>
<path opacity="0.8" d="M621.951 397.463C608.951 399.992 594.88 395.948 590.522 388.451C586.145 380.954 593.144 372.829 606.144 370.299C619.144 367.769 633.215 371.813 637.573 379.31C641.95 386.808 634.951 394.933 621.951 397.463Z" fill="#0C0F38"/>
<path opacity="0.8" d="M53.9179 543.787C35.8397 547.296 16.2657 541.682 10.1719 531.23C4.09663 520.797 13.8282 509.496 31.9064 505.987C49.9847 502.479 69.5586 508.092 75.6524 518.544C81.7277 528.977 71.9961 540.279 53.9179 543.787Z" fill="#0C0F38"/>
<path opacity="0.8" d="M172.937 187.649C166.456 188.905 159.42 186.892 157.241 183.143C155.062 179.395 158.552 175.332 165.034 174.077C171.516 172.821 178.551 174.834 180.73 178.582C182.909 182.331 179.419 186.393 172.937 187.649Z" fill="#0C0F38"/>
<g style="mix-blend-mode:lighten" opacity="0.8">
<path d="M217.379 21.2547C219.918 21.2547 221.977 19.1961 221.977 16.6566C221.977 14.1172 219.918 12.0586 217.379 12.0586C214.84 12.0586 212.781 14.1172 212.781 16.6566C212.781 19.1961 214.84 21.2547 217.379 21.2547Z" fill="#D4088C"/>
</g>
<g style="mix-blend-mode:lighten" opacity="0.8">
<path d="M136.645 490.568C139.715 490.568 142.203 488.079 142.203 485.009C142.203 481.94 139.715 479.451 136.645 479.451C133.575 479.451 131.087 481.94 131.087 485.009C131.087 488.079 133.575 490.568 136.645 490.568Z" fill="#D4088C"/>
</g>
<g style="mix-blend-mode:lighten">
<path d="M104.311 460.45C104.311 462.02 103.037 463.312 101.449 463.312C99.8608 463.312 98.5867 462.038 98.5867 460.45C98.5867 458.862 99.8608 457.588 101.449 457.588C103.037 457.588 104.311 458.862 104.311 460.45Z" fill="#6EE8FC"/>
</g>
<g style="mix-blend-mode:lighten">
<path d="M589.21 355.009C589.21 356.634 587.881 357.964 586.256 357.964C584.631 357.964 583.301 356.634 583.301 355.009C583.301 353.384 584.631 352.055 586.256 352.055C587.881 352.055 589.21 353.384 589.21 355.009Z" fill="#6EE8FC"/>
</g>
<g style="mix-blend-mode:lighten">
<path d="M38.7569 159.842C41.0516 159.842 42.9118 157.982 42.9118 155.687C42.9118 153.392 41.0516 151.532 38.7569 151.532C36.4622 151.532 34.6021 153.392 34.6021 155.687C34.6021 157.982 36.4622 159.842 38.7569 159.842Z" fill="#6EE8FC"/>
</g>
<g style="mix-blend-mode:lighten">
<path d="M353.528 4.15485C353.528 6.44463 351.663 8.30969 349.374 8.30969C347.084 8.30969 345.219 6.44463 345.219 4.15485C345.219 1.86507 347.084 0 349.374 0C351.663 0 353.528 1.86507 353.528 4.15485Z" fill="#6EE8FC"/>
</g>
<g style="mix-blend-mode:lighten">
<path d="M68.6165 130.308C68.6165 131.582 67.5824 132.617 66.3083 132.617C65.0341 132.617 64 131.582 64 130.308C64 129.034 65.0341 128 66.3083 128C67.5824 128 68.6165 129.034 68.6165 130.308Z" fill="#6EE8FC"/>
</g>
<g style="mix-blend-mode:lighten">
<path d="M455.996 18.983C455.996 20.4788 454.777 21.6976 453.281 21.6976C451.786 21.6976 450.567 20.4788 450.567 18.983C450.567 17.4873 451.786 16.2686 453.281 16.2686C454.777 16.2686 455.996 17.4873 455.996 18.983Z" fill="#D4088C"/>
</g>
<path d="M56.6871 291.966L55.6899 288.42L63.5934 286.204L61.3774 278.301L64.9414 277.304L68.136 288.771L56.6871 291.966Z" fill="#6EE1F8"/>
<path d="M49.7074 304.356L48.7102 300.811L56.6137 298.595L54.3977 290.692L57.9617 289.694L61.1748 301.162L49.7074 304.356Z" fill="#6EE1F8"/>
<path d="M57.1122 300.368L53.8992 288.919L65.3665 285.706L66.3637 289.27L58.4603 291.467L60.6762 299.371L57.1122 300.368Z" fill="#6EE1F8"/>
<path d="M329.837 27.773C324.999 27.773 321.047 23.8397 321.047 18.9832C321.047 14.1266 324.999 10.1934 329.837 10.1934C334.675 10.1934 338.626 14.1451 338.626 18.9832C338.626 23.8213 334.693 27.773 329.837 27.773ZM329.837 13.8866C327.03 13.8866 324.74 16.1763 324.74 18.9832C324.74 21.79 327.03 24.0798 329.837 24.0798C332.644 24.0798 334.933 21.79 334.933 18.9832C334.933 16.1763 332.644 13.8866 329.837 13.8866Z" fill="#6EE1F8"/>
<path d="M522.64 467.559L512.669 457.588L522.64 447.616L532.612 457.588L522.64 467.559ZM517.895 457.588L522.64 462.334L527.386 457.588L522.64 452.842L517.895 457.588Z" fill="#6EE1F8"/>
<path d="M546.363 103.424L543.752 106.036L554.435 116.715L557.046 114.103L546.363 103.424Z" fill="#D4088C"/>
<path d="M554.465 103.492L543.784 114.173L546.396 116.784L557.077 106.103L554.465 103.492Z" fill="#D4088C"/>
<path opacity="0.8" d="M123.535 378.516L340.27 503.641C342.634 505.008 346.235 505.155 348.284 503.974L477.62 429.297C479.67 428.115 479.412 426.047 477.048 424.662L260.312 299.537C257.949 298.17 254.348 298.022 252.298 299.204L122.962 373.881C120.913 375.062 121.171 377.131 123.535 378.516Z" fill="#0C0F38"/>
<path d="M259.925 253.243L287.328 90.7049L285.131 89.7816L288.436 87.8796C289.082 87.4733 289.987 87.4918 290.984 88.0827L509.936 214.501C511.727 215.535 513.093 218.194 512.779 220.059L485.173 383.89C485.025 384.739 484.6 385.311 484.028 385.552L480.796 387.417L480.242 384.388L480.427 384.444L262.787 258.801C260.996 257.767 259.629 255.108 259.943 253.243H259.925Z" fill="url(#paint3_linear_154_268)"/>
<path d="M508.717 218.914L512.318 217.326C512.724 218.249 512.927 219.21 512.78 220.041L485.173 383.871C485.025 384.72 484.6 385.293 484.028 385.533L480.796 387.398L480.242 384.37L480.427 384.425L469.421 378.073L508.754 218.914H508.717Z" fill="#3A9BD5"/>
<path d="M259.333 260.776L478.285 387.195C479.984 388.173 481.424 387.601 481.719 385.865L509.326 222.035C509.64 220.17 508.274 217.51 506.482 216.476L287.531 90.0581C285.832 89.0794 284.392 89.6519 284.096 91.3877L256.49 255.218C256.176 257.083 257.542 259.742 259.333 260.776Z" fill="url(#paint4_linear_154_268)"/>
<path d="M259.333 260.776L478.285 387.195C479.984 388.173 481.424 387.601 481.719 385.865L509.326 222.035C509.64 220.17 508.274 217.51 506.482 216.476L287.531 90.0581C285.832 89.0794 284.392 89.6519 284.096 91.3877L256.49 255.218C256.176 257.083 257.542 259.742 259.333 260.776Z" fill="url(#paint5_linear_154_268)"/>
<path d="M287.919 99.0518L504.192 223.919L478.026 378.221L261.882 253.428L287.919 99.0518Z" fill="url(#paint6_linear_154_268)"/>
<path d="M121.688 338.334L133.635 344.575L253.461 275.401C255.474 274.238 258.964 274.386 261.291 275.734L467.944 395.043C469.92 393.935 478.931 389.595 478.931 389.595L474.555 400.989C474.37 401.487 473.982 401.949 473.336 402.337L347.139 475.203C345.126 476.367 341.636 476.219 339.31 474.871L127.837 352.774C126.895 352.22 126.304 351.555 126.064 350.89L121.725 338.334H121.688Z" fill="url(#paint7_linear_154_268)"/>
<path d="M123.535 340.291L340.27 465.417C342.634 466.783 346.235 466.931 348.284 465.749L477.62 391.072C479.67 389.891 479.412 387.823 477.048 386.438L260.312 261.312C257.949 259.945 254.348 259.798 252.298 260.98L122.962 335.656C120.913 336.838 121.171 338.906 123.535 340.291Z" fill="url(#paint8_radial_154_268)"/>
<path d="M123.534 338.186L340.27 463.312C342.633 464.678 346.234 464.826 348.284 463.644L477.62 388.968C478.1 388.691 478.469 388.358 478.691 387.989C479.319 389.097 478.986 390.297 477.62 391.091L348.284 465.768C346.234 466.949 342.633 466.802 340.27 465.435L123.534 340.31C121.724 339.257 121.152 337.817 121.891 336.653C122.205 337.207 122.759 337.724 123.534 338.186Z" fill="#6EE8FC"/>
<g opacity="0.11">
<path d="M260.626 261.202L501.903 400.509C504.544 402.042 508.532 402.208 510.822 400.878L654.801 317.744C657.091 316.415 656.796 314.125 654.155 312.592L412.878 173.285C410.238 171.752 406.249 171.586 403.959 172.916L259.98 256.05C257.69 257.379 257.986 259.669 260.626 261.202Z" fill="url(#paint9_linear_154_268)"/>
<path d="M313.476 257.692L488.145 358.535L481.221 362.542L306.551 261.681L313.476 257.692Z" fill="url(#paint10_radial_154_268)"/>
<path d="M331.886 247.075L497.896 342.932L490.99 346.921L324.962 251.064L331.886 247.075Z" fill="url(#paint11_radial_154_268)"/>
<path d="M510.304 350.078L525.816 359.034L518.891 363.023L503.38 354.085L510.304 350.078Z" fill="#6EE1F8"/>
<path d="M496.603 363.429L507.405 369.652L500.481 373.659L489.678 367.417L496.603 363.429Z" fill="#6EE1F8"/>
<path d="M343.409 240.408L537.339 352.368L530.414 356.375L336.484 244.397L343.409 240.408Z" fill="url(#paint12_radial_154_268)"/>
<path d="M354.95 233.761L548.88 345.72L541.955 349.709L348.025 237.749L354.95 233.761Z" fill="url(#paint13_radial_154_268)"/>
<path d="M366.473 227.095L560.403 339.054L553.479 343.061L359.549 231.083L366.473 227.095Z" fill="url(#paint14_radial_154_268)"/>
</g>
<path d="M255.086 289.51L411.53 379.846L418.492 375.82L262.029 285.503L255.086 289.51Z" fill="#6EE1F8"/>
<path d="M238.024 299.353L384.773 384.075L391.716 380.068L244.986 295.346L238.024 299.353Z" fill="#6EE1F8"/>
<path d="M226.925 305.779L399.693 405.532L406.655 401.506L233.868 301.753L226.925 305.779Z" fill="#6EE1F8"/>
<path d="M215.809 312.187L388.577 411.94L395.538 407.915L222.771 308.18L215.809 312.187Z" fill="#6EE1F8"/>
<path d="M204.711 318.594L377.479 418.347L384.441 414.34L211.654 314.587L204.711 318.594Z" fill="#6EE1F8"/>
<path d="M420.985 385.293L427.929 389.319L434.89 385.293L427.929 381.286L420.985 385.293Z" fill="#6EE1F8"/>
<path d="M396.444 390.815L410.884 399.161L417.846 395.136L403.406 386.808L396.444 390.815Z" fill="#6EE1F8"/>
<g opacity="0.5">
<path d="M305.793 145.161L320.086 153.415L320.511 150.941L306.218 142.668L305.793 145.161Z" fill="white"/>
<path d="M322.395 154.745L330.188 159.232L330.594 156.758L322.801 152.252L322.395 154.745Z" fill="white"/>
<path d="M342.301 166.23L347.933 169.48L348.358 167.006L342.725 163.756L342.301 166.23Z" fill="white"/>
<path d="M338.183 163.848L340.122 164.975L340.528 162.482L338.608 161.374L338.183 163.848Z" fill="white"/>
<path d="M332.514 160.58L336.004 162.593L336.429 160.118L332.92 158.087L332.514 160.58Z" fill="white"/>
<path d="M317.113 164.144L322.745 167.394L323.17 164.92L317.519 161.67L317.113 164.144Z" fill="white"/>
<path d="M303.873 156.499L314.916 162.888L315.34 160.395L304.298 154.024L303.873 156.499Z" fill="white"/>
<path d="M319.717 196.737L330.759 203.108L331.184 200.633L320.142 194.244L319.717 196.737Z" fill="white"/>
<path d="M314.029 193.45L317.538 195.463L317.944 192.988L314.454 190.957L314.029 193.45Z" fill="white"/>
<path d="M321.563 185.38L332.606 191.75L333.012 189.276L321.97 182.887L321.563 185.38Z" fill="white"/>
<path d="M315.876 182.093L319.366 184.105L319.791 181.631L316.301 179.6L315.876 182.093Z" fill="white"/>
<path d="M311.574 245.745L290.762 233.724L290.356 236.198L311.149 248.219L311.574 245.745Z" fill="white"/>
<path d="M318.905 249.974L313.753 247.001L313.347 249.494L318.48 252.467L318.905 249.974Z" fill="white"/>
<path d="M355.467 252.375L334.656 240.372L334.231 242.847L355.042 254.868L355.467 252.375Z" fill="white"/>
<path d="M362.798 256.621L357.646 253.648L357.221 256.123L362.373 259.096L362.798 256.621Z" fill="white"/>
<path d="M297.354 231.305L291.722 228.055L291.298 230.529L296.948 233.798L297.354 231.305Z" fill="white"/>
<path d="M331.646 238.654L326.014 235.404L325.59 237.879L331.24 241.147L331.646 238.654Z" fill="white"/>
<path d="M310.595 238.95L299.552 232.561L299.127 235.053L310.17 241.424L310.595 238.95Z" fill="white"/>
<path d="M316.264 242.236L312.774 240.205L312.35 242.698L315.858 244.711L316.264 242.236Z" fill="white"/>
<path d="M329.597 249.919L318.554 243.548L318.129 246.022L329.19 252.412L329.597 249.919Z" fill="white"/>
<path d="M335.284 253.205L331.775 251.174L331.369 253.667L334.859 255.68L335.284 253.205Z" fill="white"/>
<path d="M330.686 244.323L325.053 241.073L324.647 243.548L330.279 246.816L330.686 244.323Z" fill="white"/>
<path d="M343.926 251.968L332.883 245.598L332.458 248.072L343.501 254.461L343.926 251.968Z" fill="white"/>
<path d="M349.595 255.255L346.105 253.242L345.68 255.717L349.189 257.729L349.595 255.255Z" fill="white"/>
<path d="M304.205 229.052L292.682 222.386L292.258 224.86L303.799 231.526L304.205 229.052Z" fill="white"/>
<path d="M314.731 235.127L306.403 230.308L305.978 232.782L314.325 237.602L314.731 235.127Z" fill="white"/>
<path d="M322.561 239.633L316.929 236.383L316.504 238.876L322.137 242.126L322.561 239.633Z" fill="white"/>
<path d="M377.22 264.931L365.697 258.265L365.272 260.758L376.795 267.405L377.22 264.931Z" fill="white"/>
<path d="M387.746 271.007L379.399 266.188L378.993 268.68L387.321 273.5L387.746 271.007Z" fill="white"/>
<path d="M395.557 275.53L389.925 272.28L389.519 274.755L395.151 278.005L395.557 275.53Z" fill="white"/>
<path d="M372.715 189.996L384.238 196.662L384.662 194.188L373.121 187.521L372.715 189.996Z" fill="white"/>
<path d="M362.189 183.921L370.517 188.74L370.942 186.266L362.595 181.446L362.189 183.921Z" fill="white"/>
<path d="M354.36 179.397L359.992 182.666L360.416 180.173L354.784 176.923L354.36 179.397Z" fill="white"/>
<path d="M368.874 181.539L380.415 188.205L380.821 185.731L369.299 179.064L368.874 181.539Z" fill="white"/>
<path d="M358.348 175.464L366.694 180.283L367.119 177.809L358.772 172.989L358.348 175.464Z" fill="white"/>
<path d="M350.537 170.939L356.169 174.208L356.593 171.715L350.943 168.465L350.537 170.939Z" fill="white"/>
<path d="M322.321 192.046L326.217 194.299L326.624 191.806L322.746 189.553L322.321 192.046Z" fill="white"/>
<path d="M314.99 187.799L320.142 190.772L320.548 188.297L315.396 185.324L314.99 187.799Z" fill="white"/>
<path d="M305.239 223.402L293.717 216.735L293.292 219.228L304.833 225.895L305.239 223.402Z" fill="white"/>
<path d="M315.766 229.495L307.437 224.676L307.013 227.15L315.359 231.97L315.766 229.495Z" fill="white"/>
<path d="M323.595 234.001L317.963 230.751L317.539 233.225L323.171 236.494L323.595 234.001Z" fill="white"/>
<path d="M298.573 213.319L294.677 211.066L294.252 213.559L298.149 215.812L298.573 213.319Z" fill="white"/>
<path d="M305.904 217.566L300.752 214.593L300.328 217.067L305.48 220.04L305.904 217.566Z" fill="white"/>
<path d="M316.375 223.605L308.084 218.822L307.659 221.297L315.95 226.098L316.375 223.605Z" fill="white"/>
<path d="M327.621 176.405L331.517 178.658L331.923 176.165L328.027 173.931L327.621 176.405Z" fill="white"/>
<path d="M320.29 172.176L325.423 175.15L325.848 172.657L320.696 169.684L320.29 172.176Z" fill="white"/>
<path d="M309.801 166.12L318.092 170.903L318.516 168.428L310.225 163.627L309.801 166.12Z" fill="white"/>
<path d="M333.548 185.601L341.84 190.403L342.264 187.91L333.973 183.127L333.548 185.601Z" fill="white"/>
<path d="M319.976 178.215L331.166 184.678L331.572 182.185L320.401 175.74L319.976 178.215Z" fill="white"/>
<path d="M314.307 174.929L317.797 176.96L318.222 174.467L314.713 172.454L314.307 174.929Z" fill="white"/>
<path d="M308.84 171.789L312.349 173.802L312.755 171.327L309.265 169.296L308.84 171.789Z" fill="white"/>
<path d="M309.598 203.827L320.64 210.198L321.065 207.723L310.022 201.334L309.598 203.827Z" fill="white"/>
<path d="M303.91 200.54L307.419 202.571L307.843 200.078L304.335 198.065L303.91 200.54Z" fill="white"/>
<path d="M310.355 210.493L314.252 212.746L314.676 210.253L310.78 208.019L310.355 210.493Z" fill="white"/>
<path d="M324.112 205.95L328.008 208.203L328.433 205.71L324.536 203.457L324.112 205.95Z" fill="white"/>
<path d="M329.67 209.145L339.014 214.556L339.439 212.063L330.077 206.671L329.67 209.145Z" fill="white"/>
<path d="M340.676 215.498L346.234 218.711L346.641 216.237L341.083 213.023L340.676 215.498Z" fill="white"/>
<path d="M303.024 206.264L308.176 209.237L308.6 206.745L303.448 203.771L303.024 206.264Z" fill="white"/>
<path d="M302.544 212.081L306.44 214.334L306.865 211.859L302.969 209.606L302.544 212.081Z" fill="white"/>
<path d="M295.213 207.852L300.365 210.825L300.789 208.332L295.637 205.359L295.213 207.852Z" fill="white"/>
<path d="M318.461 202.681L321.951 204.713L322.376 202.22L318.886 200.207L318.461 202.681Z" fill="white"/>
<path d="M313.014 199.543L316.504 201.556L316.929 199.081L313.42 197.05L313.014 199.543Z" fill="white"/>
<path d="M339.864 171.032L351.793 177.92L352.218 175.445L340.288 168.558L339.864 171.032Z" fill="white"/>
<path d="M326.513 163.313L337.685 169.776L338.109 167.284L326.919 160.839L326.513 163.313Z" fill="white"/>
<path d="M320.825 160.026L324.315 162.057L324.74 159.565L321.25 157.552L320.825 160.026Z" fill="white"/>
<path d="M315.377 156.886L318.867 158.899L319.292 156.425L315.783 154.394L315.377 156.886Z" fill="white"/>
<path d="M312.386 155.151L304.833 150.793L305.258 148.318L312.811 152.676L312.386 155.151Z" fill="white"/>
</g>
<defs>
<linearGradient id="paint0_linear_154_268" x1="74.0899" y1="381.705" x2="12.6939" y2="443.101" gradientUnits="userSpaceOnUse">
<stop stop-color="#D4088C"/>
<stop offset="0.04" stop-color="#CB078B"/>
<stop offset="0.46" stop-color="#85068A"/>
<stop offset="0.76" stop-color="#580689"/>
<stop offset="0.91" stop-color="#480689"/>
</linearGradient>
<linearGradient id="paint1_linear_154_268" x1="186.953" y1="114.967" x2="151" y2="114.967" gradientUnits="userSpaceOnUse">
<stop stop-color="#6EE8FC"/>
<stop offset="0.16" stop-color="#69E1FA"/>
<stop offset="0.37" stop-color="#5ED0F6"/>
<stop offset="0.61" stop-color="#4AB4F0"/>
<stop offset="0.87" stop-color="#308EE8"/>
<stop offset="0.96" stop-color="#267FE5"/>
</linearGradient>
<linearGradient id="paint2_linear_154_268" x1="581.004" y1="250.405" x2="653.404" y2="286.377" gradientUnits="userSpaceOnUse">
<stop stop-color="#6EE8FC"/>
<stop offset="0.16" stop-color="#69E1FA"/>
<stop offset="0.37" stop-color="#5ED0F6"/>
<stop offset="0.61" stop-color="#4AB4F0"/>
<stop offset="0.87" stop-color="#308EE8"/>
<stop offset="0.96" stop-color="#267FE5"/>
</linearGradient>
<linearGradient id="paint3_linear_154_268" x1="512.835" y1="237.51" x2="259.888" y2="237.51" gradientUnits="userSpaceOnUse">
<stop stop-color="#7BDAFF"/>
<stop offset="1" stop-color="#59BDEF"/>
</linearGradient>
<linearGradient id="paint4_linear_154_268" x1="509.4" y1="238.617" x2="256.453" y2="238.617" gradientUnits="userSpaceOnUse">
<stop stop-color="#2573BA"/>
<stop offset="1" stop-color="#0063AD"/>
</linearGradient>
<linearGradient id="paint5_linear_154_268" x1="509.4" y1="238.617" x2="256.453" y2="238.617" gradientUnits="userSpaceOnUse">
<stop stop-color="#2C75E4"/>
<stop offset="0.04" stop-color="#3361D4"/>
<stop offset="0.13" stop-color="#4040BB"/>
<stop offset="0.22" stop-color="#4B26A7"/>
<stop offset="0.32" stop-color="#521499"/>
<stop offset="0.41" stop-color="#560990"/>
<stop offset="0.52" stop-color="#58068E"/>
<stop offset="0.66" stop-color="#5A068F"/>
<stop offset="0.76" stop-color="#640A92"/>
<stop offset="0.85" stop-color="#740F98"/>
<stop offset="0.93" stop-color="#8A16A0"/>
<stop offset="1" stop-color="#A31FA9"/>
</linearGradient>
<linearGradient id="paint6_linear_154_268" x1="504.192" y1="238.636" x2="261.9" y2="238.636" gradientUnits="userSpaceOnUse">
<stop stop-color="#7BDAFF"/>
<stop offset="1" stop-color="#59BDEF"/>
</linearGradient>
<linearGradient id="paint7_linear_154_268" x1="478.931" y1="375.302" x2="121.706" y2="375.302" gradientUnits="userSpaceOnUse">
<stop stop-color="#2C75E4"/>
<stop offset="0.04" stop-color="#3361D4"/>
<stop offset="0.13" stop-color="#4040BB"/>
<stop offset="0.22" stop-color="#4B26A7"/>
<stop offset="0.32" stop-color="#521499"/>
<stop offset="0.41" stop-color="#560990"/>
<stop offset="0.52" stop-color="#58068E"/>
<stop offset="0.66" stop-color="#5A068F"/>
<stop offset="0.76" stop-color="#640A92"/>
<stop offset="0.85" stop-color="#740F98"/>
<stop offset="0.93" stop-color="#8A16A0"/>
<stop offset="1" stop-color="#A31FA9"/>
</linearGradient>
<radialGradient id="paint8_radial_154_268" cx="0" cy="0" r="1" gradientUnits="userSpaceOnUse" gradientTransform="translate(489.882 392.31) rotate(-180) scale(379.273 379.273)">
<stop stop-color="#2979E4"/>
<stop offset="0.24" stop-color="#4958CC"/>
<stop offset="0.57" stop-color="#6D32B1"/>
<stop offset="0.83" stop-color="#841BA1"/>
<stop offset="1" stop-color="#8D139B"/>
</radialGradient>
<linearGradient id="paint9_linear_154_268" x1="522.64" y1="286.906" x2="124.735" y2="286.906" gradientUnits="userSpaceOnUse">
<stop stop-color="#C0BFF6"/>
<stop offset="0.29" stop-color="#C4C3F6"/>
<stop offset="0.64" stop-color="#D2D2F9"/>
<stop offset="1" stop-color="#E9E9FD"/>
</linearGradient>
<radialGradient id="paint10_radial_154_268" cx="0" cy="0" r="1" gradientUnits="userSpaceOnUse" gradientTransform="translate(397.348 310.117) scale(74.141 74.141)">
<stop stop-color="#22215B"/>
<stop offset="0.33" stop-color="#1E1E55"/>
<stop offset="0.75" stop-color="#141544"/>
<stop offset="1" stop-color="#0C0F38"/>
</radialGradient>
<radialGradient id="paint11_radial_154_268" cx="0" cy="0" r="1" gradientUnits="userSpaceOnUse" gradientTransform="translate(411.438 296.989) scale(70.614 70.614)">
<stop stop-color="#22215B"/>
<stop offset="0.33" stop-color="#1E1E55"/>
<stop offset="0.75" stop-color="#141544"/>
<stop offset="1" stop-color="#0C0F38"/>
</radialGradient>
<radialGradient id="paint12_radial_154_268" cx="0" cy="0" r="1" gradientUnits="userSpaceOnUse" gradientTransform="translate(436.921 298.391) scale(81.9891 81.9891)">
<stop stop-color="#22215B"/>
<stop offset="0.33" stop-color="#1E1E55"/>
<stop offset="0.75" stop-color="#141544"/>
<stop offset="1" stop-color="#0C0F38"/>
</radialGradient>
<radialGradient id="paint13_radial_154_268" cx="0" cy="0" r="1" gradientUnits="userSpaceOnUse" gradientTransform="translate(448.444 291.726) scale(81.9891 81.989)">
<stop stop-color="#22215B"/>
<stop offset="0.33" stop-color="#1E1E55"/>
<stop offset="0.75" stop-color="#141544"/>
<stop offset="1" stop-color="#0C0F38"/>
</radialGradient>
<radialGradient id="paint14_radial_154_268" cx="0" cy="0" r="1" gradientUnits="userSpaceOnUse" gradientTransform="translate(459.985 285.078) scale(81.9891 81.9891)">
<stop stop-color="#22215B"/>
<stop offset="0.33" stop-color="#1E1E55"/>
<stop offset="0.75" stop-color="#141544"/>
<stop offset="1" stop-color="#0C0F38"/>
</radialGradient>
</defs>
</svg>
