<svg width="536" height="418" viewBox="0 0 536 418" fill="none" xmlns="http://www.w3.org/2000/svg">
<path opacity="0.8" d="M2.53474 291.516L219.27 416.642C221.634 418.008 225.235 418.156 227.284 416.974L356.62 342.298C358.67 341.116 358.412 339.048 356.048 337.663L139.312 212.537C136.949 211.171 133.348 211.023 131.298 212.205L1.9623 286.881C-0.0874276 288.063 0.171092 290.131 2.53474 291.516Z" fill="#0C0F38"/>
<path d="M138.925 166.243L166.328 3.70485L164.131 2.78155L167.436 0.879554C168.082 0.473302 168.987 0.491769 169.984 1.08268L388.936 127.501C390.727 128.535 392.093 131.194 391.78 133.059L364.173 296.89C364.025 297.739 363.6 298.311 363.028 298.552L359.796 300.417L359.242 297.388L359.427 297.444L141.787 171.801C139.996 170.767 138.629 168.108 138.943 166.243H138.925Z" fill="url(#paint0_linear_2_7679)"/>
<path d="M387.717 131.914L391.318 130.326C391.724 131.249 391.927 132.21 391.78 133.041L364.173 296.871C364.025 297.72 363.6 298.293 363.028 298.533L359.796 300.398L359.242 297.37L359.427 297.425L348.421 291.073L387.754 131.914H387.717Z" fill="#3A9BD5"/>
<path d="M138.333 173.777L357.285 300.195C358.984 301.174 360.424 300.601 360.72 298.865L388.326 135.035C388.64 133.17 387.274 130.511 385.482 129.477L166.531 3.05837C164.832 2.07967 163.392 2.65212 163.096 4.38792L135.49 168.218C135.176 170.083 136.542 172.742 138.333 173.777V173.777Z" fill="url(#paint1_linear_2_7679)"/>
<path d="M138.333 173.777L357.285 300.195C358.984 301.174 360.424 300.601 360.72 298.865L388.326 135.035C388.64 133.17 387.274 130.511 385.482 129.477L166.531 3.05837C164.832 2.07967 163.392 2.65212 163.096 4.38792L135.49 168.218C135.176 170.083 136.542 172.742 138.333 173.777V173.777Z" fill="url(#paint2_linear_2_7679)"/>
<path d="M166.919 12.0513L383.192 136.918L357.026 291.22L140.882 166.427L166.919 12.0513Z" fill="url(#paint3_linear_2_7679)"/>
<path d="M0.687744 251.334L12.6353 257.575L132.461 188.402C134.474 187.238 137.964 187.386 140.291 188.734L346.944 308.043C348.92 306.935 357.931 302.595 357.931 302.595L353.555 313.989C353.37 314.488 352.982 314.949 352.336 315.337L226.139 388.204C224.126 389.367 220.636 389.219 218.31 387.871L6.83693 265.774C5.89516 265.22 5.30426 264.555 5.06421 263.891L0.724684 251.334H0.687744Z" fill="url(#paint4_linear_2_7679)"/>
<path d="M2.53474 253.291L219.27 378.417C221.634 379.783 225.235 379.931 227.284 378.749L356.62 304.073C358.67 302.891 358.412 300.823 356.048 299.438L139.312 174.312C136.949 172.946 133.348 172.798 131.298 173.98L1.9623 248.656C-0.0874276 249.838 0.171092 251.906 2.53474 253.291V253.291Z" fill="url(#paint5_radial_2_7679)"/>
<path d="M2.53415 251.186L219.27 376.312C221.633 377.678 225.234 377.826 227.284 376.644L356.62 301.968C357.1 301.691 357.469 301.358 357.691 300.989C358.319 302.097 357.986 303.297 356.62 304.091L227.284 378.768C225.234 379.95 221.633 379.802 219.27 378.435L2.53415 253.31C0.724482 252.257 0.152037 250.817 0.890677 249.654C1.2046 250.208 1.75858 250.725 2.53415 251.186V251.186Z" fill="#6EE8FC"/>
<g opacity="0.11">
<path d="M139.626 174.202L380.903 313.509C383.544 315.042 387.532 315.208 389.822 313.878L533.801 230.744C536.091 229.415 535.796 227.125 533.155 225.592L291.878 86.285C289.238 84.7523 285.249 84.5861 282.959 85.9156L138.98 169.05C136.69 170.379 136.986 172.669 139.626 174.202V174.202Z" fill="url(#paint6_linear_2_7679)"/>
<path d="M192.476 170.693L367.145 271.536L360.221 275.543L185.551 174.682L192.476 170.693Z" fill="url(#paint7_radial_2_7679)"/>
<path d="M210.886 160.075L376.896 255.932L369.99 259.921L203.962 164.064L210.886 160.075Z" fill="url(#paint8_radial_2_7679)"/>
<path d="M389.304 263.079L404.816 272.035L397.891 276.023L382.38 267.086L389.304 263.079Z" fill="#6EE1F8"/>
<path d="M375.603 276.429L386.405 282.653L379.481 286.66L368.678 280.418L375.603 276.429Z" fill="#6EE1F8"/>
<path d="M222.409 153.409L416.339 265.368L409.414 269.375L215.484 157.398L222.409 153.409Z" fill="url(#paint9_radial_2_7679)"/>
<path d="M233.95 146.761L427.88 258.721L420.955 262.709L227.025 150.75L233.95 146.761Z" fill="url(#paint10_radial_2_7679)"/>
<path d="M245.473 140.095L439.403 252.054L432.479 256.061L238.549 144.084L245.473 140.095Z" fill="url(#paint11_radial_2_7679)"/>
</g>
<path d="M134.086 202.51L290.53 292.846L297.492 288.82L141.029 198.503L134.086 202.51Z" fill="#6EE1F8"/>
<path d="M117.024 212.352L263.773 297.074L270.716 293.067L123.986 208.345L117.024 212.352Z" fill="#6EE1F8"/>
<path d="M105.925 218.779L278.693 318.532L285.655 314.506L112.868 214.753L105.925 218.779Z" fill="#6EE1F8"/>
<path d="M94.8088 225.186L267.577 324.94L274.538 320.914L101.771 221.179L94.8088 225.186Z" fill="#6EE1F8"/>
<path d="M83.7112 231.594L256.479 331.347L263.441 327.34L90.6544 227.587L83.7112 231.594Z" fill="#6EE1F8"/>
<path d="M299.985 298.293L306.929 302.319L313.89 298.293L306.929 294.286L299.985 298.293Z" fill="#6EE1F8"/>
<path d="M275.444 303.815L289.884 312.161L296.846 308.136L282.406 299.807L275.444 303.815Z" fill="#6EE1F8"/>
<g opacity="0.5">
<path d="M184.793 58.1614L199.086 66.4157L199.511 63.9412L185.218 55.6685L184.793 58.1614Z" fill="white"/>
<path d="M201.395 67.7451L209.188 72.2323L209.594 69.7579L201.801 65.2522L201.395 67.7451Z" fill="white"/>
<path d="M221.301 79.2313L226.933 82.4813L227.358 80.0068L221.725 76.7568L221.301 79.2313Z" fill="white"/>
<path d="M217.183 76.8489L219.122 77.9754L219.528 75.4825L217.608 74.3745L217.183 76.8489Z" fill="white"/>
<path d="M211.514 73.5803L215.004 75.5931L215.429 73.1186L211.92 71.0874L211.514 73.5803Z" fill="white"/>
<path d="M196.113 77.1446L201.745 80.3946L202.17 77.9202L196.519 74.6702L196.113 77.1446Z" fill="white"/>
<path d="M182.873 69.4996L193.916 75.8888L194.34 73.3959L183.298 67.0251L182.873 69.4996Z" fill="white"/>
<path d="M198.717 109.737L209.759 116.108L210.184 113.633L199.142 107.244L198.717 109.737Z" fill="white"/>
<path d="M193.029 106.45L196.538 108.463L196.944 105.988L193.454 103.957L193.029 106.45Z" fill="white"/>
<path d="M200.563 98.3804L211.606 104.751L212.012 102.277L200.97 95.8875L200.563 98.3804Z" fill="white"/>
<path d="M194.876 95.0933L198.366 97.1061L198.791 94.6316L195.301 92.6003L194.876 95.0933Z" fill="white"/>
<path d="M190.574 158.746L169.762 146.724L169.356 149.199L190.149 161.22L190.574 158.746Z" fill="white"/>
<path d="M197.905 162.974L192.753 160.001L192.347 162.494L197.48 165.467L197.905 162.974Z" fill="white"/>
<path d="M234.467 165.375L213.656 153.372L213.231 155.847L234.042 167.868L234.467 165.375Z" fill="white"/>
<path d="M241.798 169.622L236.646 166.649L236.221 169.124L241.373 172.097L241.798 169.622Z" fill="white"/>
<path d="M176.354 144.305L170.722 141.055L170.298 143.53L175.948 146.798L176.354 144.305Z" fill="white"/>
<path d="M210.646 151.655L205.014 148.405L204.59 150.879L210.24 154.148L210.646 151.655Z" fill="white"/>
<path d="M189.595 151.95L178.552 145.561L178.127 148.054L189.17 154.424L189.595 151.95Z" fill="white"/>
<path d="M195.264 155.237L191.774 153.206L191.35 155.699L194.858 157.712L195.264 155.237Z" fill="white"/>
<path d="M208.597 162.919L197.554 156.548L197.129 159.023L208.19 165.412L208.597 162.919Z" fill="white"/>
<path d="M214.284 166.206L210.775 164.175L210.369 166.668L213.859 168.681L214.284 166.206Z" fill="white"/>
<path d="M209.686 157.324L204.053 154.074L203.647 156.548L209.279 159.817L209.686 157.324Z" fill="white"/>
<path d="M222.926 164.969L211.883 158.598L211.458 161.072L222.501 167.462L222.926 164.969Z" fill="white"/>
<path d="M228.595 168.256L225.105 166.243L224.68 168.717L228.189 170.73L228.595 168.256Z" fill="white"/>
<path d="M183.205 142.052L171.682 135.386L171.258 137.861L182.799 144.527L183.205 142.052Z" fill="white"/>
<path d="M193.731 148.128L185.403 143.308L184.978 145.783L193.325 150.602L193.731 148.128Z" fill="white"/>
<path d="M201.561 152.634L195.929 149.384L195.504 151.876L201.137 155.126L201.561 152.634Z" fill="white"/>
<path d="M256.22 177.932L244.697 171.266L244.272 173.759L255.795 180.406L256.22 177.932Z" fill="white"/>
<path d="M266.746 184.007L258.399 179.188L257.993 181.68L266.321 186.5L266.746 184.007Z" fill="white"/>
<path d="M274.557 188.531L268.925 185.281L268.519 187.756L274.151 191.006L274.557 188.531Z" fill="white"/>
<path d="M251.715 102.997L263.238 109.663L263.662 107.189L252.121 100.522L251.715 102.997Z" fill="white"/>
<path d="M241.189 96.9215L249.517 101.741L249.942 99.2666L241.595 94.447L241.189 96.9215Z" fill="white"/>
<path d="M233.36 92.3975L238.992 95.666L239.416 93.1731L233.784 89.9231L233.36 92.3975Z" fill="white"/>
<path d="M247.874 94.5394L259.415 101.206L259.821 98.7312L248.299 92.0649L247.874 94.5394Z" fill="white"/>
<path d="M237.348 88.4642L245.694 93.2838L246.119 90.8094L237.772 85.9897L237.348 88.4642Z" fill="white"/>
<path d="M229.537 83.9398L235.169 87.2083L235.593 84.7153L229.943 81.4653L229.537 83.9398Z" fill="white"/>
<path d="M201.321 105.047L205.217 107.299L205.624 104.807L201.746 102.554L201.321 105.047Z" fill="white"/>
<path d="M193.99 100.799L199.142 103.772L199.548 101.298L194.396 98.325L193.99 100.799Z" fill="white"/>
<path d="M184.239 136.402L172.717 129.736L172.292 132.229L183.833 138.895L184.239 136.402Z" fill="white"/>
<path d="M194.766 142.496L186.437 137.676L186.013 140.15L194.359 144.97L194.766 142.496Z" fill="white"/>
<path d="M202.595 147.001L196.963 143.751L196.539 146.226L202.171 149.494L202.595 147.001Z" fill="white"/>
<path d="M177.573 126.32L173.677 124.067L173.252 126.56L177.149 128.812L177.573 126.32Z" fill="white"/>
<path d="M184.904 130.567L179.752 127.594L179.328 130.068L184.48 133.041L184.904 130.567Z" fill="white"/>
<path d="M195.375 136.605L187.084 131.822L186.659 134.297L194.95 139.098L195.375 136.605Z" fill="white"/>
<path d="M206.621 89.4056L210.517 91.6585L210.923 89.1656L207.027 86.9312L206.621 89.4056Z" fill="white"/>
<path d="M199.29 85.1772L204.423 88.1502L204.848 85.6574L199.696 82.6843L199.29 85.1772Z" fill="white"/>
<path d="M188.801 79.1203L197.092 83.903L197.516 81.4286L189.225 76.6274L188.801 79.1203Z" fill="white"/>
<path d="M212.548 98.6019L220.84 103.403L221.264 100.91L212.973 96.1274L212.548 98.6019Z" fill="white"/>
<path d="M198.976 91.2156L210.166 97.6788L210.572 95.1858L199.401 88.7412L198.976 91.2156Z" fill="white"/>
<path d="M193.307 87.9285L196.797 89.9598L197.222 87.4669L193.713 85.4541L193.307 87.9285Z" fill="white"/>
<path d="M187.84 84.7896L191.349 86.8023L191.755 84.3279L188.265 82.2966L187.84 84.7896Z" fill="white"/>
<path d="M188.598 116.828L199.64 123.199L200.065 120.724L189.022 114.335L188.598 116.828Z" fill="white"/>
<path d="M182.91 113.541L186.419 115.572L186.843 113.079L183.335 111.066L182.91 113.541Z" fill="white"/>
<path d="M189.355 123.494L193.252 125.747L193.676 123.254L189.78 121.02L189.355 123.494Z" fill="white"/>
<path d="M203.112 118.951L207.008 121.204L207.433 118.711L203.536 116.458L203.112 118.951Z" fill="white"/>
<path d="M208.67 122.146L218.014 127.556L218.439 125.063L209.077 119.671L208.67 122.146Z" fill="white"/>
<path d="M219.676 128.498L225.234 131.711L225.641 129.237L220.083 126.024L219.676 128.498Z" fill="white"/>
<path d="M182.024 119.265L187.176 122.238L187.6 119.745L182.448 116.772L182.024 119.265Z" fill="white"/>
<path d="M181.544 125.082L185.44 127.335L185.865 124.861L181.969 122.608L181.544 125.082Z" fill="white"/>
<path d="M174.213 120.854L179.365 123.827L179.789 121.334L174.637 118.361L174.213 120.854Z" fill="white"/>
<path d="M197.461 115.683L200.951 117.714L201.376 115.221L197.886 113.208L197.461 115.683Z" fill="white"/>
<path d="M192.014 112.544L195.504 114.556L195.929 112.082L192.42 110.051L192.014 112.544Z" fill="white"/>
<path d="M218.864 84.0323L230.793 90.9201L231.218 88.4457L219.288 81.5579L218.864 84.0323Z" fill="white"/>
<path d="M205.513 76.3133L216.685 82.7764L217.109 80.2835L205.919 73.8389L205.513 76.3133Z" fill="white"/>
<path d="M199.825 73.0267L203.315 75.058L203.74 72.565L200.25 70.5522L199.825 73.0267Z" fill="white"/>
<path d="M194.377 69.8872L197.867 71.9L198.292 69.4255L194.783 67.3943L194.377 69.8872Z" fill="white"/>
<path d="M191.386 68.1515L183.833 63.7935L184.258 61.3191L191.811 65.6771L191.386 68.1515Z" fill="white"/>
</g>
<defs>
<linearGradient id="paint0_linear_2_7679" x1="391.835" y1="150.51" x2="138.888" y2="150.51" gradientUnits="userSpaceOnUse">
<stop stop-color="#7BDAFF"/>
<stop offset="1" stop-color="#59BDEF"/>
</linearGradient>
<linearGradient id="paint1_linear_2_7679" x1="388.4" y1="151.617" x2="135.453" y2="151.617" gradientUnits="userSpaceOnUse">
<stop stop-color="#2573BA"/>
<stop offset="1" stop-color="#0063AD"/>
</linearGradient>
<linearGradient id="paint2_linear_2_7679" x1="388.4" y1="151.617" x2="135.453" y2="151.617" gradientUnits="userSpaceOnUse">
<stop stop-color="#2C75E4"/>
<stop offset="0.04" stop-color="#3361D4"/>
<stop offset="0.13" stop-color="#4040BB"/>
<stop offset="0.22" stop-color="#4B26A7"/>
<stop offset="0.32" stop-color="#521499"/>
<stop offset="0.41" stop-color="#560990"/>
<stop offset="0.52" stop-color="#58068E"/>
<stop offset="0.66" stop-color="#5A068F"/>
<stop offset="0.76" stop-color="#640A92"/>
<stop offset="0.85" stop-color="#740F98"/>
<stop offset="0.93" stop-color="#8A16A0"/>
<stop offset="1" stop-color="#A31FA9"/>
</linearGradient>
<linearGradient id="paint3_linear_2_7679" x1="383.192" y1="151.636" x2="140.9" y2="151.636" gradientUnits="userSpaceOnUse">
<stop stop-color="#7BDAFF"/>
<stop offset="1" stop-color="#59BDEF"/>
</linearGradient>
<linearGradient id="paint4_linear_2_7679" x1="357.931" y1="288.303" x2="0.706226" y2="288.303" gradientUnits="userSpaceOnUse">
<stop stop-color="#2C75E4"/>
<stop offset="0.04" stop-color="#3361D4"/>
<stop offset="0.13" stop-color="#4040BB"/>
<stop offset="0.22" stop-color="#4B26A7"/>
<stop offset="0.32" stop-color="#521499"/>
<stop offset="0.41" stop-color="#560990"/>
<stop offset="0.52" stop-color="#58068E"/>
<stop offset="0.66" stop-color="#5A068F"/>
<stop offset="0.76" stop-color="#640A92"/>
<stop offset="0.85" stop-color="#740F98"/>
<stop offset="0.93" stop-color="#8A16A0"/>
<stop offset="1" stop-color="#A31FA9"/>
</linearGradient>
<radialGradient id="paint5_radial_2_7679" cx="0" cy="0" r="1" gradientUnits="userSpaceOnUse" gradientTransform="translate(368.882 305.31) rotate(-180) scale(379.273 379.273)">
<stop stop-color="#2979E4"/>
<stop offset="0.24" stop-color="#4958CC"/>
<stop offset="0.57" stop-color="#6D32B1"/>
<stop offset="0.83" stop-color="#841BA1"/>
<stop offset="1" stop-color="#8D139B"/>
</radialGradient>
<linearGradient id="paint6_linear_2_7679" x1="401.64" y1="199.906" x2="3.73483" y2="199.906" gradientUnits="userSpaceOnUse">
<stop stop-color="#C0BFF6"/>
<stop offset="0.29" stop-color="#C4C3F6"/>
<stop offset="0.64" stop-color="#D2D2F9"/>
<stop offset="1" stop-color="#E9E9FD"/>
</linearGradient>
<radialGradient id="paint7_radial_2_7679" cx="0" cy="0" r="1" gradientUnits="userSpaceOnUse" gradientTransform="translate(276.348 223.118) scale(74.141 74.141)">
<stop stop-color="#22215B"/>
<stop offset="0.33" stop-color="#1E1E55"/>
<stop offset="0.75" stop-color="#141544"/>
<stop offset="1" stop-color="#0C0F38"/>
</radialGradient>
<radialGradient id="paint8_radial_2_7679" cx="0" cy="0" r="1" gradientUnits="userSpaceOnUse" gradientTransform="translate(290.438 209.989) scale(70.614 70.614)">
<stop stop-color="#22215B"/>
<stop offset="0.33" stop-color="#1E1E55"/>
<stop offset="0.75" stop-color="#141544"/>
<stop offset="1" stop-color="#0C0F38"/>
</radialGradient>
<radialGradient id="paint9_radial_2_7679" cx="0" cy="0" r="1" gradientUnits="userSpaceOnUse" gradientTransform="translate(315.921 211.392) scale(81.9891 81.9891)">
<stop stop-color="#22215B"/>
<stop offset="0.33" stop-color="#1E1E55"/>
<stop offset="0.75" stop-color="#141544"/>
<stop offset="1" stop-color="#0C0F38"/>
</radialGradient>
<radialGradient id="paint10_radial_2_7679" cx="0" cy="0" r="1" gradientUnits="userSpaceOnUse" gradientTransform="translate(327.444 204.726) scale(81.9891 81.989)">
<stop stop-color="#22215B"/>
<stop offset="0.33" stop-color="#1E1E55"/>
<stop offset="0.75" stop-color="#141544"/>
<stop offset="1" stop-color="#0C0F38"/>
</radialGradient>
<radialGradient id="paint11_radial_2_7679" cx="0" cy="0" r="1" gradientUnits="userSpaceOnUse" gradientTransform="translate(338.985 198.078) scale(81.9891 81.9891)">
<stop stop-color="#22215B"/>
<stop offset="0.33" stop-color="#1E1E55"/>
<stop offset="0.75" stop-color="#141544"/>
<stop offset="1" stop-color="#0C0F38"/>
</radialGradient>
</defs>
</svg>
