<svg width="18" height="21" viewBox="0 0 18 21" fill="none" xmlns="http://www.w3.org/2000/svg">
<path fill-rule="evenodd" clip-rule="evenodd" d="M0.5 9.20057C0.5 4.6007 4.34388 0.882812 8.99345 0.882812C13.6561 0.882812 17.5 4.6007 17.5 9.20057C17.5 11.5185 16.657 13.6704 15.2695 15.4944C13.7388 17.5063 11.8522 19.2593 9.72854 20.6352C9.24251 20.9532 8.80387 20.9772 8.27045 20.6352C6.13474 19.2593 4.24809 17.5063 2.7305 15.4944C1.34198 13.6704 0.5 11.5185 0.5 9.20057ZM6.19423 9.45956C6.19423 11.0005 7.45166 12.2125 8.99345 12.2125C10.5362 12.2125 11.8058 11.0005 11.8058 9.45956C11.8058 7.93061 10.5362 6.65964 8.99345 6.65964C7.45166 6.65964 6.19423 7.93061 6.19423 9.45956Z" fill="white"/>
</svg>
