<svg width="71" height="15" viewBox="0 0 71 15" fill="none" xmlns="http://www.w3.org/2000/svg">
<path d="M2.95151 3.02236V6.19061C2.95151 6.76578 3.08269 7.20977 3.34505 7.52258C3.6175 7.83539 4.02617 7.99179 4.57106 7.99179C5.11596 7.99179 5.52463 7.83539 5.79707 7.52258C6.07961 7.19967 6.22088 6.75569 6.22088 6.19061V0H9.18753V6.19061C9.18753 7.1694 8.98067 8.00693 8.56696 8.70318C8.15324 9.38934 7.58816 9.90901 6.87173 10.2622C6.16538 10.6053 5.37831 10.7768 4.51052 10.7768C3.64272 10.7768 2.86574 10.6053 2.17958 10.2622C1.50351 9.90901 0.968702 9.38934 0.575167 8.70318C0.191722 8.01702 0 7.17949 0 6.19061V3.02236H2.95151Z" fill="white"/>
<path d="M16.3758 2.1039C17.3546 2.1039 18.1316 2.43184 18.7068 3.08774C19.2819 3.73354 19.5695 4.61142 19.5695 5.72139V10.6709H16.6029V6.11493C16.6029 5.63058 16.4767 5.25218 16.2245 4.97973C15.9722 4.69719 15.6342 4.55593 15.2103 4.55593C14.7664 4.55593 14.4182 4.69719 14.166 4.97973C13.9137 5.25218 13.7876 5.63058 13.7876 6.11493V10.6709H10.8209V2.17958H13.7876V3.39046C14.0499 3.00701 14.4031 2.69925 14.8471 2.46716C15.2911 2.22499 15.8006 2.1039 16.3758 2.1039Z" fill="white"/>
<path d="M24.3305 2.07363C24.9056 2.07363 25.4051 2.18967 25.8289 2.42175C26.2628 2.65384 26.5958 2.96665 26.8279 3.36018V2.17958H29.7946V10.58C29.7946 11.3772 29.6432 12.0936 29.3405 12.7293C29.0378 13.3751 28.5635 13.8898 27.9177 14.2732C27.282 14.6567 26.4747 14.8484 25.4959 14.8484C24.1842 14.8484 23.1347 14.5406 22.3477 13.9251C21.5606 13.3096 21.1116 12.472 21.0006 11.4125H23.9218C23.9823 11.685 24.1337 11.8969 24.3759 12.0482C24.6181 12.1996 24.9309 12.2753 25.3143 12.2753C26.3234 12.2753 26.8279 11.7102 26.8279 10.58V9.49025C26.5958 9.88379 26.2628 10.1966 25.8289 10.4287C25.4051 10.6608 24.9056 10.7768 24.3305 10.7768C23.6544 10.7768 23.0389 10.6002 22.4839 10.247C21.939 9.89388 21.5051 9.38934 21.1822 8.73345C20.8694 8.06747 20.713 7.29554 20.713 6.41765C20.713 5.53976 20.8694 4.77287 21.1822 4.11698C21.5051 3.46109 21.939 2.95656 22.4839 2.60339C23.0389 2.25021 23.6544 2.07363 24.3305 2.07363ZM26.8279 6.41765C26.8279 5.87275 26.6765 5.4439 26.3738 5.13109C26.0812 4.81828 25.7179 4.66188 25.284 4.66188C24.8401 4.66188 24.4717 4.81828 24.1791 5.13109C23.8865 5.43381 23.7402 5.86266 23.7402 6.41765C23.7402 6.96254 23.8865 7.39644 24.1791 7.71934C24.4717 8.03215 24.8401 8.18856 25.284 8.18856C25.7179 8.18856 26.0812 8.03215 26.3738 7.71934C26.6765 7.40653 26.8279 6.97263 26.8279 6.41765Z" fill="white"/>
<path d="M39.5979 6.32683C39.5979 6.55892 39.5828 6.791 39.5525 7.02309H33.9371C33.9674 7.48726 34.0935 7.83538 34.3155 8.06747C34.5476 8.28946 34.8402 8.40046 35.1934 8.40046C35.6878 8.40046 36.041 8.17847 36.2529 7.73448H39.4163C39.2851 8.31974 39.0278 8.84445 38.6444 9.30862C38.271 9.7627 37.7967 10.1209 37.2216 10.3833C36.6464 10.6456 36.0107 10.7768 35.3145 10.7768C34.4769 10.7768 33.7302 10.6002 33.0743 10.247C32.4285 9.89388 31.9189 9.38934 31.5456 8.73345C31.1823 8.07756 31.0007 7.30563 31.0007 6.41765C31.0007 5.52967 31.1823 4.76278 31.5456 4.11698C31.9089 3.46109 32.4134 2.95656 33.0592 2.60339C33.7151 2.25021 34.4668 2.07363 35.3145 2.07363C36.152 2.07363 36.8936 2.24517 37.5394 2.58825C38.1852 2.93133 38.6898 3.42577 39.053 4.07157C39.4163 4.70729 39.5979 5.45904 39.5979 6.32683ZM36.5707 5.58517C36.5707 5.22191 36.4496 4.93937 36.2075 4.73756C35.9653 4.52565 35.6626 4.4197 35.2993 4.4197C34.9361 4.4197 34.6384 4.52061 34.4063 4.72242C34.1742 4.91414 34.0229 5.20173 33.9522 5.58517H36.5707Z" fill="white"/>
<path d="M46.3669 2.1039C47.3457 2.1039 48.1227 2.43184 48.6978 3.08774C49.273 3.73354 49.5606 4.61142 49.5606 5.72139V10.6709H46.5939V6.11493C46.5939 5.63058 46.4678 5.25218 46.2155 4.97973C45.9633 4.69719 45.6252 4.55593 45.2014 4.55593C44.7574 4.55593 44.4093 4.69719 44.157 4.97973C43.9048 5.25218 43.7786 5.63058 43.7786 6.11493V10.6709H40.812V2.17958H43.7786V3.39046C44.041 3.00701 44.3942 2.69925 44.8382 2.46716C45.2822 2.22499 45.7917 2.1039 46.3669 2.1039Z" fill="white"/>
<path d="M50.7041 6.41765C50.7041 5.53976 50.8857 4.77287 51.249 4.11698C51.6122 3.46109 52.1168 2.95656 52.7626 2.60339C53.4184 2.25021 54.1652 2.07363 55.0027 2.07363C56.0824 2.07363 56.9905 2.3713 57.7272 2.96665C58.4638 3.55191 58.938 4.37429 59.1499 5.43381H56.0017C55.82 4.87883 55.4668 4.60133 54.9421 4.60133C54.5688 4.60133 54.2711 4.75774 54.0491 5.07055C53.8372 5.37327 53.7313 5.8223 53.7313 6.41765C53.7313 7.013 53.8372 7.46708 54.0491 7.77989C54.2711 8.0927 54.5688 8.2491 54.9421 8.2491C55.4769 8.2491 55.8301 7.97161 56.0017 7.41662H59.1499C58.938 8.46605 58.4638 9.28844 57.7272 9.88379C56.9905 10.4791 56.0824 10.7768 55.0027 10.7768C54.1652 10.7768 53.4184 10.6002 52.7626 10.247C52.1168 9.89388 51.6122 9.38934 51.249 8.73345C50.8857 8.07756 50.7041 7.30563 50.7041 6.41765Z" fill="white"/>
<path d="M69.5245 2.17958L64.136 14.7122H60.9121L62.9403 10.3076L59.459 2.17958H62.7587L64.5447 6.99282L66.2702 2.17958H69.5245Z" fill="white"/>
<path d="M69.8713 10.7712C69.5619 10.7712 69.2964 10.6604 69.0749 10.4388C68.8533 10.2173 68.7425 9.9518 68.7425 9.64244C68.7425 9.33308 68.8533 9.06762 69.0749 8.84605C69.2964 8.62448 69.5619 8.51369 69.8713 8.51369C70.1806 8.51369 70.4461 8.62448 70.6676 8.84605C70.8892 9.06762 71 9.33308 71 9.64244C71 9.84729 70.9477 10.0354 70.8432 10.2068C70.7429 10.3782 70.607 10.5162 70.4356 10.6207C70.2684 10.721 70.0803 10.7712 69.8713 10.7712Z" fill="white"/>
<path d="M0 0H2.96413V1.892H0V0Z" fill="white"/>
</svg>
