<svg width="113" height="24" viewBox="0 0 113 24" fill="none" xmlns="http://www.w3.org/2000/svg">
<path d="M4.68 5.01988V10.0435C4.68 10.9555 4.888 11.6595 5.304 12.1555C5.736 12.6515 6.384 12.8995 7.248 12.8995C8.112 12.8995 8.76 12.6515 9.192 12.1555C9.64 11.6435 9.864 10.9395 9.864 10.0435V0.227539H14.568V10.0435C14.568 11.5955 14.24 12.9235 13.584 14.0275C12.928 15.1155 12.032 15.9395 10.896 16.4995C9.776 17.0435 8.528 17.3155 7.152 17.3155C5.776 17.3155 4.544 17.0435 3.456 16.4995C2.384 15.9395 1.536 15.1155 0.912 14.0275C0.304 12.9395 0 11.6115 0 10.0435V5.01988H4.68Z" fill="white"/>
<path d="M25.9659 3.56354C27.5179 3.56354 28.7499 4.08354 29.6619 5.12354C30.5739 6.14754 31.0299 7.53954 31.0299 9.29954V17.1475H26.3259V9.92354C26.3259 9.15554 26.1259 8.55554 25.7259 8.12354C25.3259 7.67554 24.7899 7.45154 24.1179 7.45154C23.4139 7.45154 22.8619 7.67554 22.4619 8.12354C22.0619 8.55554 21.8619 9.15554 21.8619 9.92354V17.1475H17.1579V3.68354H21.8619V5.60354C22.2779 4.99554 22.8379 4.50754 23.5419 4.13954C24.2459 3.75554 25.0539 3.56354 25.9659 3.56354Z" fill="white"/>
<path d="M38.5791 3.51554C39.4911 3.51554 40.2831 3.69954 40.9551 4.06754C41.6431 4.43554 42.1711 4.93154 42.5391 5.55554V3.68354H47.2431V17.0035C47.2431 18.2675 47.0031 19.4035 46.5231 20.4115C46.0431 21.4355 45.2911 22.2515 44.2671 22.8595C43.2591 23.4675 41.9791 23.7715 40.4271 23.7715C38.3471 23.7715 36.6831 23.2835 35.4351 22.3075C34.1871 21.3315 33.4751 20.0035 33.2991 18.3235H37.9311C38.0271 18.7555 38.2671 19.0915 38.6511 19.3315C39.0351 19.5715 39.5311 19.6915 40.1391 19.6915C41.7391 19.6915 42.5391 18.7955 42.5391 17.0035V15.2755C42.1711 15.8995 41.6431 16.3955 40.9551 16.7635C40.2831 17.1315 39.4911 17.3155 38.5791 17.3155C37.5071 17.3155 36.5311 17.0355 35.6511 16.4755C34.7871 15.9155 34.0991 15.1155 33.5871 14.0755C33.0911 13.0195 32.8431 11.7955 32.8431 10.4035C32.8431 9.01154 33.0911 7.79554 33.5871 6.75554C34.0991 5.71554 34.7871 4.91554 35.6511 4.35554C36.5311 3.79554 37.5071 3.51554 38.5791 3.51554ZM42.5391 10.4035C42.5391 9.53954 42.2991 8.85954 41.8191 8.36354C41.3551 7.86754 40.7791 7.61954 40.0911 7.61954C39.3871 7.61954 38.8031 7.86754 38.3391 8.36354C37.8751 8.84354 37.6431 9.52354 37.6431 10.4035C37.6431 11.2675 37.8751 11.9555 38.3391 12.4675C38.8031 12.9635 39.3871 13.2115 40.0911 13.2115C40.7791 13.2115 41.3551 12.9635 41.8191 12.4675C42.2991 11.9715 42.5391 11.2835 42.5391 10.4035Z" fill="white"/>
<path d="M62.7876 10.2595C62.7876 10.6275 62.7636 10.9955 62.7156 11.3635H53.8116C53.8596 12.0995 54.0596 12.6515 54.4116 13.0195C54.7796 13.3715 55.2436 13.5475 55.8036 13.5475C56.5876 13.5475 57.1476 13.1955 57.4836 12.4915H62.4996C62.2916 13.4195 61.8836 14.2515 61.2756 14.9875C60.6836 15.7075 59.9316 16.2755 59.0196 16.6915C58.1076 17.1075 57.0996 17.3155 55.9956 17.3155C54.6676 17.3155 53.4836 17.0355 52.4436 16.4755C51.4196 15.9155 50.6116 15.1155 50.0196 14.0755C49.4436 13.0355 49.1556 11.8115 49.1556 10.4035C49.1556 8.99554 49.4436 7.77954 50.0196 6.75554C50.5956 5.71554 51.3956 4.91554 52.4196 4.35554C53.4596 3.79554 54.6516 3.51554 55.9956 3.51554C57.3236 3.51554 58.4996 3.78754 59.5236 4.33154C60.5476 4.87554 61.3476 5.65954 61.9236 6.68354C62.4996 7.69154 62.7876 8.88354 62.7876 10.2595ZM57.9876 9.08354C57.9876 8.50754 57.7956 8.05954 57.4116 7.73954C57.0276 7.40354 56.5476 7.23554 55.9716 7.23554C55.3956 7.23554 54.9236 7.39554 54.5556 7.71554C54.1876 8.01954 53.9476 8.47554 53.8356 9.08354H57.9876Z" fill="white"/>
<path d="M73.5206 3.56354C75.0726 3.56354 76.3046 4.08354 77.2166 5.12354C78.1286 6.14754 78.5846 7.53954 78.5846 9.29954V17.1475H73.8806V9.92354C73.8806 9.15554 73.6806 8.55554 73.2806 8.12354C72.8806 7.67554 72.3446 7.45154 71.6726 7.45154C70.9686 7.45154 70.4166 7.67554 70.0166 8.12354C69.6166 8.55554 69.4166 9.15554 69.4166 9.92354V17.1475H64.7126V3.68354H69.4166V5.60354C69.8326 4.99554 70.3926 4.50754 71.0966 4.13954C71.8006 3.75554 72.6086 3.56354 73.5206 3.56354Z" fill="white"/>
<path d="M80.3978 10.4035C80.3978 9.01154 80.6858 7.79554 81.2617 6.75554C81.8377 5.71554 82.6377 4.91554 83.6618 4.35554C84.7018 3.79554 85.8857 3.51554 87.2138 3.51554C88.9258 3.51554 90.3658 3.98754 91.5338 4.93154C92.7018 5.85954 93.4538 7.16354 93.7897 8.84354H88.7978C88.5098 7.96354 87.9498 7.52354 87.1178 7.52354C86.5257 7.52354 86.0537 7.77154 85.7018 8.26754C85.3658 8.74754 85.1978 9.45954 85.1978 10.4035C85.1978 11.3475 85.3658 12.0675 85.7018 12.5635C86.0537 13.0595 86.5257 13.3075 87.1178 13.3075C87.9658 13.3075 88.5257 12.8675 88.7978 11.9875H93.7897C93.4538 13.6515 92.7018 14.9555 91.5338 15.8995C90.3658 16.8435 88.9258 17.3155 87.2138 17.3155C85.8857 17.3155 84.7018 17.0355 83.6618 16.4755C82.6377 15.9155 81.8377 15.1155 81.2617 14.0755C80.6858 13.0355 80.3978 11.8115 80.3978 10.4035Z" fill="white"/>
<path d="M110.24 3.68354L101.696 23.5555H96.5839L99.7999 16.5715L94.2799 3.68354H99.5119L102.344 11.3155L105.08 3.68354H110.24Z" fill="white"/>
<path d="M110.79 17.3066C110.299 17.3066 109.878 17.131 109.527 16.7796C109.176 16.4283 109 16.0074 109 15.5169C109 15.0263 109.176 14.6054 109.527 14.2541C109.878 13.9027 110.299 13.7271 110.79 13.7271C111.28 13.7271 111.701 13.9027 112.053 14.2541C112.404 14.6054 112.58 15.0263 112.58 15.5169C112.58 15.8417 112.497 16.14 112.331 16.4117C112.172 16.6835 111.956 16.9023 111.685 17.068C111.42 17.2271 111.121 17.3066 110.79 17.3066Z" fill="white"/>
<path d="M0 0.227539H4.7V3.22754H0V0.227539Z" fill="white"/>
</svg>
