<svg width="117" height="83" viewBox="0 0 117 83" fill="none" xmlns="http://www.w3.org/2000/svg">
<g style="mix-blend-mode:multiply" opacity="0.5">
<path d="M35.6938 53.0146C9.96653 53.0146 -12.9299 82.0609 9.3483 82.0609H57.8744L59.8484 53.0146H35.6938Z" fill="#003893"/>
</g>
<path d="M36.1708 75.7051L37.5482 76.768C38.2099 77.2778 38.9366 77.7659 39.7392 78.2323C48.785 83.4493 63.3949 83.4493 72.3755 78.2323C73.1131 77.7984 73.7964 77.3429 74.4146 76.8765L75.803 75.8244L36.1599 75.7159L36.1708 75.7051Z" fill="#A2ACBD"/>
<path d="M72.3108 48.7409C63.2651 43.5239 48.6551 43.5239 39.6744 48.7409C30.6937 53.958 30.7371 62.4289 39.7829 67.6459C48.8287 72.863 63.4386 72.863 72.4193 67.6459C81.4 62.4289 81.3566 53.958 72.3108 48.7409Z" fill="url(#paint0_linear_179_3099)"/>
<path d="M31.2251 59.793L31.2034 67.0491C31.2034 70.7477 33.6329 74.4571 38.5246 77.2771C48.2428 82.8846 63.9591 82.8846 73.6122 77.2771C78.4063 74.4896 80.8141 70.8453 80.825 67.1901L80.8467 59.9339L31.2251 59.793Z" fill="url(#paint1_linear_179_3099)"/>
<path d="M75.8795 51.2681L74.502 50.2051C80.7928 55.0534 80.6627 61.8215 74.0899 66.5613C73.5693 66.9409 73.0161 67.2988 72.4195 67.6459C67.4628 70.531 60.7924 71.8217 54.2846 71.518C49.0025 71.2794 43.8288 69.9887 39.7832 67.6459C31.4858 62.8627 30.7591 55.3354 37.6356 50.0967L36.2473 51.1488C28.861 56.778 29.6419 64.8693 38.5575 70.0104C42.9177 72.5267 48.471 73.915 54.1545 74.1753C61.1503 74.5007 68.3197 73.1124 73.6452 70.0104C74.2851 69.6416 74.8925 69.2511 75.4457 68.8498C82.5066 63.7412 82.6476 56.4743 75.8903 51.2572L75.8795 51.2681Z" fill="url(#paint2_linear_179_3099)"/>
<path opacity="0.7" d="M74.0894 66.5615C73.5688 66.9411 73.0157 67.2991 72.4191 67.6461C67.4624 70.5313 60.7919 71.822 54.2842 71.5183L54.1432 74.1864C61.139 74.5118 68.3084 73.1235 73.6339 70.0215C74.2738 69.6527 74.8812 69.2622 75.4344 68.8609L74.0894 66.5724V66.5615Z" fill="#F5F9FF"/>
<path d="M32.9393 51.3652L32.9176 58.1225C32.9176 61.5716 35.1845 65.0207 39.7399 67.6455C48.7857 72.8734 63.4064 72.8734 72.398 67.6455C76.8666 65.0532 79.1009 61.6583 79.1118 58.2526L79.1335 51.4954L32.9501 51.3652H32.9393Z" fill="url(#paint3_linear_179_3099)"/>
<path d="M36.1708 61.2354L37.5482 62.2983C38.2099 62.8081 38.9366 63.2962 39.7392 63.7625C48.785 68.9796 63.3949 68.9796 72.3755 63.7625C73.1131 63.3287 73.7964 62.8732 74.4146 62.4068L75.803 61.3547L36.1599 61.2462L36.1708 61.2354Z" fill="#A2ACBD"/>
<path d="M72.3108 34.2722C63.2651 29.0551 48.6551 29.0551 39.6744 34.2722C30.6937 39.4892 30.7371 47.9601 39.7829 53.1772C48.8287 58.3942 63.4386 58.3942 72.4193 53.1772C81.4 47.9601 81.3566 39.4892 72.3108 34.2722Z" fill="url(#paint4_linear_179_3099)"/>
<path d="M31.2251 45.3242L31.2034 52.5803C31.2034 56.2789 33.6329 59.9883 38.5246 62.8084C48.2428 68.4159 63.9591 68.4159 73.6122 62.8084C78.4063 60.0209 80.8141 56.3765 80.825 52.7213L80.8467 45.4652L31.2251 45.3242Z" fill="url(#paint5_linear_179_3099)"/>
<path d="M75.8795 36.7993L74.502 35.7364C80.7928 40.5846 80.6627 47.3527 74.0899 52.0925C73.5693 52.4722 73.0161 52.8301 72.4195 53.1772C67.4628 56.0623 60.7924 57.353 54.2846 57.0493C49.0025 56.8107 43.8288 55.5199 39.7832 53.1772C31.4858 48.394 30.7591 40.8667 37.6356 35.6279L36.2473 36.68C28.861 42.3092 29.6419 50.4005 38.5575 55.5416C42.9177 58.058 48.471 59.4463 54.1545 59.7066C61.1503 60.032 68.3197 58.6437 73.6452 55.5416C74.2851 55.1729 74.8925 54.7824 75.4457 54.3811C82.5066 49.2725 82.6476 42.0055 75.8903 36.7885L75.8795 36.7993Z" fill="url(#paint6_linear_179_3099)"/>
<path opacity="0.7" d="M74.0894 52.0928C73.5688 52.4724 73.0157 52.8303 72.4191 53.1774C67.4624 56.0625 60.7919 57.3532 54.2842 57.0495L54.1432 59.7177C61.139 60.0431 68.3084 58.6548 73.6339 55.5527C74.2738 55.184 74.8812 54.7935 75.4344 54.3922L74.0894 52.1036V52.0928Z" fill="#F5F9FF"/>
<path d="M32.9393 36.8965L32.9176 43.6537C32.9176 47.1028 35.1845 50.5519 39.7399 53.1767C48.7857 58.4046 63.4064 58.4046 72.398 53.1767C76.8666 50.5845 79.1009 47.1896 79.1118 43.7839L79.1335 37.0266L32.9501 36.8965H32.9393Z" fill="url(#paint7_linear_179_3099)"/>
<path d="M36.1706 46.2256L37.5481 47.2885C38.2097 47.7983 38.9364 48.2864 39.7391 48.7527C48.7848 53.9698 63.3947 53.9698 72.3754 48.7527C73.113 48.3189 73.7963 47.8634 74.4145 47.397L75.8028 46.3449L36.1598 46.2364L36.1706 46.2256Z" fill="#A2ACBD"/>
<path d="M31.2251 30.3027L31.2034 37.5589C31.2034 41.2575 33.6329 44.9669 38.5246 47.7869C48.2428 53.3944 63.9591 53.3944 73.6122 47.7869C78.4063 44.9994 80.8141 41.355 80.825 37.6999L80.8467 30.4437L31.2251 30.3027Z" fill="url(#paint8_linear_179_3099)"/>
<path d="M75.879 21.7886L74.5015 20.7257L37.6243 20.6172L36.2359 21.6693C28.8496 27.2985 29.6306 35.3898 38.5462 40.5309C42.9064 43.0473 48.4597 44.4356 54.1431 44.6959C61.1389 45.0213 68.3083 43.633 73.6338 40.5309C74.2738 40.1622 74.8811 39.7717 75.4343 39.3704C82.4952 34.2618 82.6362 26.9948 75.879 21.7777V21.7886Z" fill="url(#paint9_linear_179_3099)"/>
<path d="M72.311 19.2614C63.2652 14.0444 48.6553 14.0444 39.6746 19.2614C30.6939 24.4785 30.7373 32.9494 39.783 38.1665C48.8288 43.3835 63.4387 43.3835 72.4194 38.1665C81.4001 32.9494 81.3567 24.4785 72.311 19.2614Z" fill="#F5F9FF"/>
<path opacity="0.7" d="M74.0896 37.0811C73.5689 37.4607 73.0158 37.8186 72.4192 38.1657C67.4625 41.0508 60.7921 42.3415 54.2843 42.0378L54.1433 44.706C61.1391 45.0314 68.3085 43.643 73.634 40.541C74.274 40.1722 74.8813 39.7818 75.4345 39.3805L74.0896 37.0919V37.0811Z" fill="#F5F9FF"/>
<g style="mix-blend-mode:multiply">
<path d="M80.8254 37.6992L80.8471 30.443C80.8471 27.3952 79.1985 24.3366 75.8796 21.7769L74.5021 20.714C73.8079 20.2042 73.1029 19.7161 72.3111 19.2497C63.2654 14.0327 48.6555 14.0327 39.6748 19.2497C38.9372 19.6835 38.2756 20.1391 37.6682 20.6055C37.6357 20.6055 36.2474 21.6576 36.2474 21.6576C34.1974 23.2194 32.7874 24.9657 32.0065 26.7987C33.0369 29.4886 35.3363 32.0591 38.9589 34.1524C48.0806 39.4237 62.3434 39.901 72.3762 35.6167L74.4045 36.7881L75.8253 39.0875L76.7798 45.5519C79.4805 43.1765 80.8363 40.4433 80.8363 37.6992H80.8254Z" fill="#A6B0C0"/>
</g>
<path d="M88.6777 14.9757V20.2903C88.6777 16.6135 86.2481 12.9257 81.3998 10.1274C71.7575 4.56327 56.1172 4.56327 46.5291 10.1274C41.7676 12.8932 39.3923 16.5158 39.3815 20.1493V14.8347C39.4032 11.2012 41.7893 7.57854 46.5508 4.81274C56.1389 -0.751383 71.7684 -0.751383 81.4215 4.81274C86.2698 7.61108 88.6994 11.2988 88.6885 14.9757H88.6777Z" fill="url(#paint10_linear_179_3099)"/>
<path d="M46.54 8.00256C56.1281 2.43844 71.7576 2.43844 81.4107 8.00256C85.8577 10.5731 88.2656 13.8812 88.6235 17.2544C89.0356 13.2955 86.6386 9.24988 81.4107 6.23462C71.7684 0.670492 56.1281 0.670492 46.54 6.23462C41.3881 9.22818 39.0236 13.2413 39.4466 17.1676C39.7937 13.827 42.1581 10.5406 46.54 7.99171V8.00256Z" fill="#1A9A90"/>
<path opacity="0.8" d="M81.4106 7.66528C71.7683 2.10116 56.128 2.10116 46.5399 7.66528C36.9627 13.2294 37.0169 22.286 46.6592 27.861C56.3015 33.4251 71.9418 33.4251 81.5191 27.861C91.1072 22.2969 91.053 13.2294 81.4106 7.66528Z" fill="#3DC4BD"/>
<path d="M89.7624 14.9868V20.3015C89.7407 24.0977 87.246 27.883 82.2785 30.7681C72.2782 36.5817 55.9438 36.5817 45.8784 30.7681C40.8132 27.8396 38.2861 23.9892 38.2969 20.1496V14.835C38.2969 18.6745 40.8349 22.525 45.9001 25.4535C55.9654 31.267 72.2999 31.267 82.3001 25.4535C87.2677 22.5683 89.7624 18.7722 89.7732 14.9868H89.7624Z" fill="url(#paint11_linear_179_3099)"/>
<path d="M82.1703 4.36801C92.2356 10.1816 92.2898 19.6395 82.2896 25.4531C72.2893 31.2667 55.9549 31.2667 45.8896 25.4531C35.8242 19.6395 35.77 10.1816 45.7702 4.36801C55.7705 -1.44559 72.1049 -1.44559 82.1703 4.36801ZM46.6596 25.0084C56.302 30.5726 71.9422 30.5726 81.5195 25.0084C91.0967 19.4443 91.0534 10.3768 81.411 4.81271C71.7687 -0.751421 56.1284 -0.751421 46.5403 4.81271C36.9631 10.3768 37.0173 19.4335 46.6596 25.0084Z" fill="#F5F9FF"/>
<path d="M86.9208 33.2191C86.9208 34.5424 87.8427 35.0738 88.9924 34.4122C90.1313 33.7506 91.064 32.1454 91.064 30.833C91.064 29.5206 90.1421 28.9782 88.9924 29.6399C87.8535 30.3015 86.9208 31.9067 86.9208 33.2191Z" fill="#6C00AC"/>
<path d="M90.4563 29.5102L83.7641 25.649C83.3845 25.4212 82.8639 25.4537 82.289 25.79C81.1502 26.4516 80.2174 28.0568 80.2174 29.3692C80.2174 30.02 80.4452 30.4755 80.814 30.7033L87.5061 34.5646C87.1373 34.3476 86.9095 33.8812 86.9095 33.2305C86.9095 31.9072 87.8315 30.3128 88.9812 29.6512C89.556 29.315 90.0767 29.2933 90.4563 29.5102Z" fill="#F5F9FF"/>
<path d="M92.0836 28.0676C91.4437 27.688 90.5543 27.7314 89.5673 28.2954C87.6258 29.4126 86.0422 32.1458 86.0422 34.391C86.0422 35.4973 86.4219 36.2782 87.0509 36.6578L110.62 50.2699L115.642 41.6797L92.0728 28.0676H92.0836Z" fill="#0656D7"/>
<path d="M109.622 48.002C109.622 50.2472 111.195 51.1583 113.147 50.0303C115.088 48.9131 116.672 46.1799 116.672 43.9347C116.672 42.4596 115.989 41.5594 114.969 41.4401C114.438 41.375 113.819 41.516 113.147 41.9064C111.206 43.0236 109.622 45.7568 109.622 48.002Z" fill="#0147B8"/>
<defs>
<linearGradient id="paint0_linear_179_3099" x1="32.9606" y1="58.1988" x2="79.1223" y2="58.1988" gradientUnits="userSpaceOnUse">
<stop stop-color="#C6D2E7"/>
<stop offset="0.44" stop-color="#D3DDEE"/>
<stop offset="1" stop-color="#E1E9F6"/>
</linearGradient>
<linearGradient id="paint1_linear_179_3099" x1="31.2034" y1="70.6392" x2="80.8467" y2="70.6392" gradientUnits="userSpaceOnUse">
<stop stop-color="#A2ACBD"/>
<stop offset="0.65" stop-color="#C4CDDA"/>
<stop offset="1" stop-color="#D2DAE6"/>
</linearGradient>
<linearGradient id="paint2_linear_179_3099" x1="31.2255" y1="62.1685" x2="80.8471" y2="62.1685" gradientUnits="userSpaceOnUse">
<stop stop-color="#C6D2E7"/>
<stop offset="0.44" stop-color="#D3DDEE"/>
<stop offset="1" stop-color="#E1E9F6"/>
</linearGradient>
<linearGradient id="paint3_linear_179_3099" x1="32.9284" y1="61.4631" x2="79.1335" y2="61.4631" gradientUnits="userSpaceOnUse">
<stop stop-color="#17968C"/>
<stop offset="0.53" stop-color="#2DB0A8"/>
<stop offset="1" stop-color="#3DC4BD"/>
</linearGradient>
<linearGradient id="paint4_linear_179_3099" x1="-118.453" y1="43.7301" x2="-117.368" y2="43.7301" gradientUnits="userSpaceOnUse">
<stop stop-color="#C6D2E7"/>
<stop offset="0.44" stop-color="#D3DDEE"/>
<stop offset="1" stop-color="#E1E9F6"/>
</linearGradient>
<linearGradient id="paint5_linear_179_3099" x1="31.2034" y1="56.1705" x2="80.8467" y2="56.1705" gradientUnits="userSpaceOnUse">
<stop stop-color="#A2ACBD"/>
<stop offset="0.65" stop-color="#C4CDDA"/>
<stop offset="1" stop-color="#D2DAE6"/>
</linearGradient>
<linearGradient id="paint6_linear_179_3099" x1="31.2255" y1="47.6998" x2="80.8471" y2="47.6998" gradientUnits="userSpaceOnUse">
<stop stop-color="#C6D2E7"/>
<stop offset="0.44" stop-color="#D3DDEE"/>
<stop offset="1" stop-color="#E1E9F6"/>
</linearGradient>
<linearGradient id="paint7_linear_179_3099" x1="-118.453" y1="46.9944" x2="-117.368" y2="46.9944" gradientUnits="userSpaceOnUse">
<stop stop-color="#17968C"/>
<stop offset="0.53" stop-color="#2DB0A8"/>
<stop offset="1" stop-color="#3DC4BD"/>
</linearGradient>
<linearGradient id="paint8_linear_179_3099" x1="31.2034" y1="41.149" x2="80.8467" y2="41.149" gradientUnits="userSpaceOnUse">
<stop stop-color="#A2ACBD"/>
<stop offset="0.65" stop-color="#C4CDDA"/>
<stop offset="1" stop-color="#D2DAE6"/>
</linearGradient>
<linearGradient id="paint9_linear_179_3099" x1="31.225" y1="32.6782" x2="80.8466" y2="32.6782" gradientUnits="userSpaceOnUse">
<stop stop-color="#C6D2E7"/>
<stop offset="0.44" stop-color="#D3DDEE"/>
<stop offset="1" stop-color="#E1E9F6"/>
</linearGradient>
<linearGradient id="paint10_linear_179_3099" x1="39.3815" y1="10.4636" x2="88.6777" y2="10.4636" gradientUnits="userSpaceOnUse">
<stop stop-color="#D2DAE6"/>
<stop offset="0.35" stop-color="#C4CDDA"/>
<stop offset="1" stop-color="#A2ACBD"/>
</linearGradient>
<linearGradient id="paint11_linear_179_3099" x1="38.2969" y1="24.9762" x2="89.7624" y2="24.9762" gradientUnits="userSpaceOnUse">
<stop stop-color="#A2ACBD"/>
<stop offset="0.65" stop-color="#C4CDDA"/>
<stop offset="1" stop-color="#D2DAE6"/>
</linearGradient>
</defs>
</svg>
