<svg width="150" height="106" viewBox="0 0 150 106" fill="none" xmlns="http://www.w3.org/2000/svg">
<g style="mix-blend-mode:multiply" opacity="0.5">
<path d="M45.5963 68.3906C12.4265 68.3906 -17.0935 105.839 11.6294 105.839H74.1933L76.7384 68.3906H45.5963Z" fill="#003893"/>
</g>
<path d="M46.2114 97.6455L47.9873 99.0159C48.8403 99.6732 49.7773 100.302 50.8121 100.904C62.4746 107.63 81.3109 107.63 92.8896 100.904C93.8405 100.344 94.7215 99.7571 95.5185 99.1558L97.3085 97.7994L46.1974 97.6595L46.2114 97.6455Z" fill="#A2ACBD"/>
<path d="M92.8063 62.8816C81.1438 56.1554 62.3075 56.1554 50.7288 62.8816C39.1502 69.6078 39.2061 80.5292 50.8687 87.2555C62.5312 93.9817 81.3675 93.9817 92.9461 87.2555C104.525 80.5292 104.469 69.6078 92.8063 62.8816Z" fill="url(#paint0_linear_198_1358)"/>
<path d="M39.835 77.1309L39.807 86.4861C39.807 91.2546 42.9394 96.0371 49.2461 99.6729C61.7757 106.903 82.0383 106.903 94.484 99.6729C100.665 96.079 103.769 91.3804 103.783 86.6678L103.811 77.3126L39.835 77.1309Z" fill="url(#paint1_linear_198_1358)"/>
<path d="M97.4072 66.1401L95.6313 64.7697C103.742 71.0205 103.574 79.7464 95.0999 85.8574C94.4287 86.3468 93.7155 86.8083 92.9464 87.2558C86.5557 90.9755 77.9557 92.6396 69.5653 92.248C62.7552 91.9404 56.0849 90.2763 50.8689 87.2558C40.1712 81.0889 39.2343 71.3841 48.1001 64.6299L46.3102 65.9863C36.7871 73.244 37.794 83.6759 49.2887 90.3043C54.9102 93.5485 62.07 95.3385 69.3975 95.6741C78.4171 96.0936 87.6605 94.3037 94.5266 90.3043C95.3516 89.8288 96.1347 89.3254 96.8479 88.808C105.951 82.2216 106.133 72.8524 97.4212 66.1261L97.4072 66.1401Z" fill="url(#paint2_linear_198_1358)"/>
<path opacity="0.7" d="M95.0994 85.8574C94.4282 86.3469 93.715 86.8083 92.9459 87.2558C86.5552 90.9755 77.9552 92.6396 69.5648 92.2481L69.3831 95.6881C78.4027 96.1076 87.646 94.3177 94.5121 90.3183C95.3371 89.8428 96.1202 89.3394 96.8334 88.822L95.0994 85.8714V85.8574Z" fill="#F5F9FF"/>
<path d="M42.0449 66.2656L42.017 74.9776C42.017 79.4245 44.9396 83.8713 50.8128 87.2554C62.4754 93.9957 81.3257 93.9957 92.9183 87.2554C98.6797 83.9133 101.56 79.5363 101.574 75.1454L101.602 66.4334L42.0589 66.2656H42.0449Z" fill="url(#paint3_linear_198_1358)"/>
<path d="M46.2114 78.9912L47.9873 80.3616C48.8403 81.0189 49.7773 81.6482 50.8121 82.2495C62.4746 88.9757 81.3109 88.9757 92.8896 82.2495C93.8405 81.6901 94.7215 81.1028 95.5185 80.5015L97.3085 79.1451L46.1974 79.0052L46.2114 78.9912Z" fill="#A2ACBD"/>
<path d="M92.8063 44.2273C81.1438 37.5011 62.3075 37.5011 50.7288 44.2273C39.1502 50.9535 39.2061 61.8749 50.8687 68.6012C62.5312 75.3274 81.3675 75.3274 92.9461 68.6012C104.525 61.8749 104.469 50.9535 92.8063 44.2273Z" fill="url(#paint4_linear_198_1358)"/>
<path d="M39.835 58.4766L39.807 67.8317C39.807 72.6002 42.9394 77.3828 49.2461 81.0186C61.7757 88.2482 82.0383 88.2482 94.484 81.0186C100.665 77.4247 103.769 72.7261 103.783 68.0135L103.811 58.6583L39.835 58.4766Z" fill="url(#paint5_linear_198_1358)"/>
<path d="M97.4072 47.4858L95.6313 46.1154C103.742 52.3662 103.574 61.0922 95.0999 67.2031C94.4287 67.6925 93.7155 68.154 92.9464 68.6015C86.5557 72.3212 77.9557 73.9853 69.5653 73.5937C62.7552 73.2861 56.0849 71.622 50.8689 68.6015C40.1712 62.4346 39.2343 52.7298 48.1001 45.9756L46.3102 47.332C36.7871 54.5897 37.794 65.0216 49.2887 71.65C54.9102 74.8942 62.07 76.6842 69.3975 77.0198C78.4171 77.4393 87.6605 75.6494 94.5266 71.65C95.3516 71.1745 96.1347 70.6711 96.8479 70.1537C105.951 63.5673 106.133 54.1981 97.4212 47.4718L97.4072 47.4858Z" fill="url(#paint6_linear_198_1358)"/>
<path opacity="0.7" d="M95.0994 67.2031C94.4282 67.6926 93.715 68.154 92.9459 68.6015C86.5552 72.3212 77.9552 73.9853 69.5648 73.5938L69.3831 77.0338C78.4027 77.4533 87.646 75.6634 94.5121 71.664C95.3371 71.1885 96.1202 70.6851 96.8334 70.1677L95.0994 67.2171V67.2031Z" fill="#F5F9FF"/>
<path d="M42.0449 47.6113L42.017 56.3233C42.017 60.7702 44.9396 65.217 50.8128 68.6011C62.4754 75.3414 81.3257 75.3414 92.9183 68.6011C98.6797 65.259 101.56 60.882 101.574 56.4911L101.602 47.7791L42.0589 47.6113H42.0449Z" fill="url(#paint7_linear_198_1358)"/>
<path d="M46.2114 59.6367L47.9873 61.0072C48.8403 61.6644 49.7773 62.2936 50.8121 62.8949C62.4746 69.6212 81.3109 69.6212 92.8896 62.8949C93.8405 62.3356 94.7215 61.7483 95.5185 61.147L97.3085 59.7905L46.1974 59.6507L46.2114 59.6367Z" fill="#A2ACBD"/>
<path d="M39.835 39.1084L39.807 48.4636C39.807 53.2321 42.9394 58.0146 49.2461 61.6504C61.7757 68.8801 82.0383 68.8801 94.484 61.6504C100.665 58.0565 103.769 53.3579 103.783 48.6454L103.811 39.2902L39.835 39.1084Z" fill="url(#paint8_linear_198_1358)"/>
<path d="M97.4066 28.1314L95.6306 26.7609L48.0854 26.6211L46.2955 27.9775C36.7725 35.2352 37.7793 45.6672 49.2741 52.2955C54.8956 55.5398 62.0553 57.3297 69.3829 57.6653C78.4025 58.0848 87.6458 56.2949 94.5119 52.2955C95.337 51.8201 96.1201 51.3166 96.8332 50.7992C105.937 44.2128 106.119 34.8436 97.4066 28.1174V28.1314Z" fill="url(#paint9_linear_198_1358)"/>
<path d="M92.8063 24.8728C81.1438 18.1466 62.3075 18.1466 50.7288 24.8728C39.1502 31.5991 39.2061 42.5205 50.8687 49.2467C62.5312 55.973 81.3675 55.973 92.9461 49.2467C104.525 42.5205 104.469 31.5991 92.8063 24.8728Z" fill="#F5F9FF"/>
<path opacity="0.7" d="M95.0994 47.8486C94.4282 48.3381 93.715 48.7995 92.9459 49.247C86.5552 52.9667 77.9552 54.6308 69.5648 54.2392L69.3831 57.6793C78.4027 58.0988 87.646 56.3089 94.5121 52.3095C95.3371 51.834 96.1202 51.3306 96.8334 50.8132L95.0994 47.8626V47.8486Z" fill="#F5F9FF"/>
<g style="mix-blend-mode:multiply">
<path d="M103.784 48.6457L103.812 39.2905C103.812 35.361 101.686 31.4176 97.4069 28.1174L95.631 26.747C94.736 26.0897 93.8271 25.4604 92.8063 24.8591C81.1437 18.1329 62.3074 18.1329 50.7288 24.8591C49.7779 25.4185 48.9248 26.0058 48.1417 26.6071C48.0998 26.6071 46.3099 27.9636 46.3099 27.9636C43.6669 29.9772 41.849 32.2286 40.8422 34.5919C42.1706 38.0599 45.1352 41.3741 49.8058 44.073C61.5663 50.8691 79.9551 51.4844 92.8902 45.9608L95.5051 47.471L97.337 50.4357L98.5676 58.77C102.05 55.7076 103.798 52.1836 103.798 48.6457H103.784Z" fill="#A6B0C0"/>
</g>
<path d="M113.907 19.3494V26.2015C113.907 21.461 110.775 16.7064 104.524 13.0986C92.0926 5.92487 71.9278 5.92487 59.5661 13.0986C53.4272 16.6645 50.3647 21.3351 50.3507 26.0197V19.1676C50.3787 14.483 53.4551 9.8124 59.5941 6.24651C71.9558 -0.927222 92.1066 -0.927222 104.552 6.24651C110.803 9.85435 113.935 14.6089 113.921 19.3494H113.907Z" fill="url(#paint10_linear_198_1358)"/>
<path d="M59.5802 10.3579C71.9419 3.18419 92.0927 3.18419 104.538 10.3579C110.272 13.6721 113.376 17.9372 113.838 22.2862C114.369 17.1821 111.279 11.9661 104.538 8.07854C92.1067 0.90481 71.9419 0.90481 59.5802 8.07854C52.9379 11.9381 49.8894 17.1121 50.4348 22.1743C50.8822 17.8672 53.9307 13.6301 59.5802 10.3439V10.3579Z" fill="#1A9A90"/>
<path opacity="0.8" d="M104.538 9.92424C92.1065 2.75051 71.9417 2.75051 59.5799 9.92424C47.2322 17.098 47.3021 28.7745 59.7338 35.9622C72.1654 43.136 92.3302 43.136 104.678 35.9622C117.04 28.7885 116.97 17.098 104.538 9.92424Z" fill="#3DC4BD"/>
<path d="M115.306 19.3638V26.2159C115.278 31.1102 112.062 35.9906 105.657 39.7103C92.7639 47.2056 71.7042 47.2056 58.7272 39.7103C52.1967 35.9346 48.9385 30.9704 48.9524 26.0201V19.168C48.9524 24.1183 52.2247 29.0826 58.7551 32.8582C71.7322 40.3536 92.7919 40.3536 105.685 32.8582C112.09 29.1385 115.306 24.2441 115.32 19.3638H115.306Z" fill="url(#paint11_linear_198_1358)"/>
<path d="M105.517 5.67328C118.494 13.1686 118.564 25.3626 105.671 32.8579C92.7779 40.3533 71.7182 40.3533 58.7412 32.8579C45.7641 25.3626 45.6942 13.1686 58.5874 5.67328C71.4805 -1.82208 92.5402 -1.82208 105.517 5.67328ZM59.734 32.2846C72.1657 39.4583 92.3304 39.4583 104.678 32.2846C117.026 25.1109 116.97 13.4204 104.538 6.24662C92.1067 -0.927109 71.9419 -0.927109 59.5802 6.24662C47.2324 13.4204 47.3024 25.0969 59.734 32.2846V32.2846Z" fill="#F5F9FF"/>
<path d="M111.642 42.8695C111.642 44.5755 112.831 45.2607 114.313 44.4077C115.782 43.5546 116.984 41.4851 116.984 39.793C116.984 38.101 115.796 37.4018 114.313 38.2548C112.845 39.1078 111.642 41.1774 111.642 42.8695Z" fill="#6C00AC"/>
<path d="M116.201 38.0874L107.572 33.1092C107.083 32.8155 106.412 32.8575 105.671 33.291C104.202 34.144 103 36.2136 103 37.9056C103 38.7447 103.293 39.332 103.769 39.6257L112.397 44.6039C111.921 44.3242 111.628 43.7229 111.628 42.8839C111.628 41.1779 112.816 39.1222 114.299 38.2692C115.04 37.8357 115.711 37.8077 116.201 38.0874Z" fill="#F5F9FF"/>
<path d="M118.299 36.228C117.474 35.7386 116.327 35.7945 115.054 36.5217C112.551 37.962 110.51 41.486 110.51 44.3806C110.51 45.807 110.999 46.8138 111.81 47.3033L142.197 64.853L148.672 53.7778L118.285 36.228H118.299Z" fill="#0656D7"/>
<path d="M140.911 61.9301C140.911 64.8247 142.938 65.9994 145.455 64.5451C147.958 63.1048 150 59.5808 150 56.6861C150 54.7843 149.119 53.6237 147.805 53.4699C147.119 53.3859 146.322 53.5677 145.455 54.0711C142.952 55.5115 140.911 59.0354 140.911 61.9301Z" fill="#0147B8"/>
<defs>
<linearGradient id="paint0_linear_198_1358" x1="42.0728" y1="75.0755" x2="101.588" y2="75.0755" gradientUnits="userSpaceOnUse">
<stop stop-color="#C6D2E7"/>
<stop offset="0.44" stop-color="#D3DDEE"/>
<stop offset="1" stop-color="#E1E9F6"/>
</linearGradient>
<linearGradient id="paint1_linear_198_1358" x1="39.807" y1="91.1147" x2="103.811" y2="91.1147" gradientUnits="userSpaceOnUse">
<stop stop-color="#A2ACBD"/>
<stop offset="0.65" stop-color="#C4CDDA"/>
<stop offset="1" stop-color="#D2DAE6"/>
</linearGradient>
<linearGradient id="paint2_linear_198_1358" x1="39.8356" y1="80.1939" x2="103.812" y2="80.1939" gradientUnits="userSpaceOnUse">
<stop stop-color="#C6D2E7"/>
<stop offset="0.44" stop-color="#D3DDEE"/>
<stop offset="1" stop-color="#E1E9F6"/>
</linearGradient>
<linearGradient id="paint3_linear_198_1358" x1="42.031" y1="79.2846" x2="101.602" y2="79.2846" gradientUnits="userSpaceOnUse">
<stop stop-color="#17968C"/>
<stop offset="0.53" stop-color="#2DB0A8"/>
<stop offset="1" stop-color="#3DC4BD"/>
</linearGradient>
<linearGradient id="paint4_linear_198_1358" x1="-153.142" y1="56.4212" x2="-151.744" y2="56.4212" gradientUnits="userSpaceOnUse">
<stop stop-color="#C6D2E7"/>
<stop offset="0.44" stop-color="#D3DDEE"/>
<stop offset="1" stop-color="#E1E9F6"/>
</linearGradient>
<linearGradient id="paint5_linear_198_1358" x1="39.807" y1="72.4604" x2="103.811" y2="72.4604" gradientUnits="userSpaceOnUse">
<stop stop-color="#A2ACBD"/>
<stop offset="0.65" stop-color="#C4CDDA"/>
<stop offset="1" stop-color="#D2DAE6"/>
</linearGradient>
<linearGradient id="paint6_linear_198_1358" x1="39.8356" y1="61.5396" x2="103.812" y2="61.5396" gradientUnits="userSpaceOnUse">
<stop stop-color="#C6D2E7"/>
<stop offset="0.44" stop-color="#D3DDEE"/>
<stop offset="1" stop-color="#E1E9F6"/>
</linearGradient>
<linearGradient id="paint7_linear_198_1358" x1="-153.142" y1="60.6303" x2="-151.744" y2="60.6303" gradientUnits="userSpaceOnUse">
<stop stop-color="#17968C"/>
<stop offset="0.53" stop-color="#2DB0A8"/>
<stop offset="1" stop-color="#3DC4BD"/>
</linearGradient>
<linearGradient id="paint8_linear_198_1358" x1="39.807" y1="53.0923" x2="103.811" y2="53.0923" gradientUnits="userSpaceOnUse">
<stop stop-color="#A2ACBD"/>
<stop offset="0.65" stop-color="#C4CDDA"/>
<stop offset="1" stop-color="#D2DAE6"/>
</linearGradient>
<linearGradient id="paint9_linear_198_1358" x1="39.8349" y1="42.1712" x2="103.811" y2="42.1712" gradientUnits="userSpaceOnUse">
<stop stop-color="#C6D2E7"/>
<stop offset="0.44" stop-color="#D3DDEE"/>
<stop offset="1" stop-color="#E1E9F6"/>
</linearGradient>
<linearGradient id="paint10_linear_198_1358" x1="50.3507" y1="13.5321" x2="113.907" y2="13.5321" gradientUnits="userSpaceOnUse">
<stop stop-color="#D2DAE6"/>
<stop offset="0.35" stop-color="#C4CDDA"/>
<stop offset="1" stop-color="#A2ACBD"/>
</linearGradient>
<linearGradient id="paint11_linear_198_1358" x1="48.9524" y1="32.2429" x2="115.306" y2="32.2429" gradientUnits="userSpaceOnUse">
<stop stop-color="#A2ACBD"/>
<stop offset="0.65" stop-color="#C4CDDA"/>
<stop offset="1" stop-color="#D2DAE6"/>
</linearGradient>
</defs>
</svg>
