<svg width="150" height="106" viewBox="0 0 150 106" fill="none" xmlns="http://www.w3.org/2000/svg">
<g style="mix-blend-mode:multiply" opacity="0.5">
<path d="M45.5963 68.391C12.4265 68.391 -17.0935 105.84 11.6294 105.84H74.1933L76.7384 68.391H45.5963Z" fill="#003893"/>
</g>
<path d="M46.2114 97.6453L47.9873 99.0157C48.8403 99.6729 49.7773 100.302 50.8121 100.904C62.4746 107.63 81.3109 107.63 92.8896 100.904C93.8405 100.344 94.7215 99.7569 95.5185 99.1555L97.3085 97.7991L46.1974 97.6593L46.2114 97.6453Z" fill="#A2ACBD"/>
<path d="M92.8063 62.8814C81.1438 56.1551 62.3075 56.1551 50.7288 62.8814C39.1502 69.6076 39.2061 80.529 50.8687 87.2552C62.5312 93.9815 81.3675 93.9815 92.9461 87.2552C104.525 80.529 104.469 69.6076 92.8063 62.8814Z" fill="url(#paint0_linear_2_7798)"/>
<path d="M39.835 77.131L39.807 86.4862C39.807 91.2547 42.9394 96.0372 49.2461 99.673C61.7757 106.903 82.0383 106.903 94.484 99.673C100.665 96.0791 103.769 91.3805 103.783 86.668L103.811 77.3127L39.835 77.131Z" fill="url(#paint1_linear_2_7798)"/>
<path d="M97.4072 66.1396L95.6313 64.7692C103.742 71.02 103.574 79.746 95.0999 85.8569C94.4287 86.3464 93.7155 86.8078 92.9464 87.2553C86.5557 90.975 77.9557 92.6391 69.5653 92.2476C62.7552 91.9399 56.0849 90.2758 50.8689 87.2553C40.1712 81.0884 39.2343 71.3836 48.1001 64.6294L46.3102 65.9858C36.7871 73.2435 37.794 83.6754 49.2887 90.3038C54.9102 93.548 62.07 95.338 69.3975 95.6736C78.4171 96.0931 87.6605 94.3032 94.5266 90.3038C95.3516 89.8283 96.1347 89.3249 96.8479 88.8075C105.951 82.2211 106.133 72.8519 97.4212 66.1256L97.4072 66.1396Z" fill="url(#paint2_linear_2_7798)"/>
<path opacity="0.7" d="M95.0994 85.8569C94.4282 86.3464 93.715 86.8078 92.9459 87.2553C86.5552 90.975 77.9552 92.6391 69.5648 92.2476L69.3831 95.6876C78.4027 96.1071 87.646 94.3172 94.5121 90.3178C95.3371 89.8423 96.1202 89.3389 96.8334 88.8215L95.0994 85.8709V85.8569Z" fill="#F5F9FF"/>
<path d="M42.0449 66.2654L42.017 74.9774C42.017 79.4242 44.9396 83.8711 50.8128 87.2552C62.4754 93.9954 81.3257 93.9954 92.9183 87.2552C98.6797 83.913 101.56 79.5361 101.574 75.1452L101.602 66.4332L42.0589 66.2654H42.0449Z" fill="url(#paint3_linear_2_7798)"/>
<path d="M46.2114 78.9907L47.9873 80.3612C48.8403 81.0184 49.7773 81.6477 50.8121 82.249C62.4746 88.9752 81.3109 88.9752 92.8896 82.249C93.8405 81.6896 94.7215 81.1023 95.5185 80.501L97.3085 79.1446L46.1974 79.0047L46.2114 78.9907Z" fill="#A2ACBD"/>
<path d="M92.8063 44.2268C81.1438 37.5006 62.3075 37.5006 50.7288 44.2268C39.1502 50.9531 39.2061 61.8745 50.8687 68.6007C62.5312 75.327 81.3675 75.327 92.9461 68.6007C104.525 61.8745 104.469 50.9531 92.8063 44.2268Z" fill="url(#paint4_linear_2_7798)"/>
<path d="M39.835 58.4764L39.807 67.8316C39.807 72.6001 42.9394 77.3826 49.2461 81.0184C61.7757 88.2481 82.0383 88.2481 94.484 81.0184C100.665 77.4246 103.769 72.726 103.783 68.0134L103.811 58.6582L39.835 58.4764Z" fill="url(#paint5_linear_2_7798)"/>
<path d="M97.4072 47.4851L95.6313 46.1147C103.742 52.3655 103.574 61.0914 95.0999 67.2024C94.4287 67.6918 93.7155 68.1533 92.9464 68.6008C86.5557 72.3205 77.9557 73.9846 69.5653 73.593C62.7552 73.2854 56.0849 71.6213 50.8689 68.6008C40.1712 62.4339 39.2343 52.7291 48.1001 45.9749L46.3102 47.3313C36.7871 54.5889 37.794 65.0209 49.2887 71.6492C54.9102 74.8935 62.07 76.6834 69.3975 77.019C78.4171 77.4386 87.6605 75.6486 94.5266 71.6492C95.3516 71.1738 96.1347 70.6704 96.8479 70.153C105.951 63.5665 106.133 54.1973 97.4212 47.4711L97.4072 47.4851Z" fill="url(#paint6_linear_2_7798)"/>
<path opacity="0.7" d="M95.0994 67.2024C94.4282 67.6918 93.715 68.1533 92.9459 68.6008C86.5552 72.3205 77.9552 73.9846 69.5648 73.593L69.3831 77.0331C78.4027 77.4526 87.646 75.6626 94.5121 71.6633C95.3371 71.1878 96.1202 70.6844 96.8334 70.167L95.0994 67.2164V67.2024Z" fill="#F5F9FF"/>
<path d="M42.0449 47.6108L42.017 56.3228C42.017 60.7697 44.9396 65.2166 50.8128 68.6007C62.4754 75.3409 81.3257 75.3409 92.9183 68.6007C98.6797 65.2585 101.56 60.8815 101.574 56.4906L101.602 47.7786L42.0589 47.6108H42.0449Z" fill="url(#paint7_linear_2_7798)"/>
<path d="M46.2114 59.637L47.9873 61.0074C48.8403 61.6646 49.7773 62.2939 50.8121 62.8952C62.4746 69.6214 81.3109 69.6214 92.8896 62.8952C93.8405 62.3358 94.7215 61.7485 95.5185 61.1472L97.3085 59.7908L46.1974 59.651L46.2114 59.637Z" fill="#A2ACBD"/>
<path d="M39.835 39.1086L39.807 48.4639C39.807 53.2324 42.9394 58.0148 49.2461 61.6506C61.7757 68.8803 82.0383 68.8803 94.484 61.6506C100.665 58.0568 103.769 53.3582 103.783 48.6456L103.811 39.2904L39.835 39.1086Z" fill="url(#paint8_linear_2_7798)"/>
<path d="M97.4066 28.1314L95.6306 26.7609L48.0854 26.6211L46.2955 27.9775C36.7725 35.2352 37.7793 45.6672 49.2741 52.2955C54.8956 55.5398 62.0553 57.3297 69.3829 57.6653C78.4025 58.0848 87.6458 56.2949 94.5119 52.2955C95.337 51.8201 96.1201 51.3166 96.8332 50.7992C105.937 44.2128 106.119 34.8436 97.4066 28.1174V28.1314Z" fill="url(#paint9_linear_2_7798)"/>
<path d="M92.8063 24.8731C81.1438 18.1468 62.3075 18.1468 50.7288 24.8731C39.1502 31.5993 39.2061 42.5207 50.8687 49.247C62.5312 55.9732 81.3675 55.9732 92.9461 49.247C104.525 42.5207 104.469 31.5993 92.8063 24.8731Z" fill="#F5F9FF"/>
<path opacity="0.7" d="M95.0994 47.8486C94.4282 48.3381 93.715 48.7995 92.9459 49.247C86.5552 52.9667 77.9552 54.6308 69.5648 54.2392L69.3831 57.6793C78.4027 58.0988 87.646 56.3089 94.5121 52.3095C95.3371 51.834 96.1202 51.3306 96.8334 50.8132L95.0994 47.8626V47.8486Z" fill="#F5F9FF"/>
<g style="mix-blend-mode:multiply">
<path d="M103.784 48.6457L103.812 39.2905C103.812 35.361 101.686 31.4176 97.4069 28.1174L95.631 26.747C94.736 26.0897 93.8271 25.4604 92.8063 24.8591C81.1437 18.1329 62.3074 18.1329 50.7288 24.8591C49.7779 25.4185 48.9248 26.0058 48.1417 26.6071C48.0998 26.6071 46.3099 27.9636 46.3099 27.9636C43.6669 29.9772 41.849 32.2286 40.8422 34.5919C42.1706 38.0599 45.1352 41.3741 49.8058 44.073C61.5663 50.8691 79.9551 51.4844 92.8902 45.9608L95.5051 47.471L97.337 50.4357L98.5676 58.77C102.05 55.7076 103.798 52.1836 103.798 48.6457H103.784Z" fill="#A6B0C0"/>
</g>
<path d="M113.907 19.3495V26.2016C113.907 21.4611 110.775 16.7066 104.524 13.0987C92.0926 5.92499 71.9278 5.92499 59.5661 13.0987C53.4272 16.6646 50.3647 21.3352 50.3507 26.0198V19.1677C50.3787 14.4831 53.4551 9.81252 59.5941 6.24663C71.9558 -0.9271 92.1066 -0.9271 104.552 6.24663C110.803 9.85447 113.935 14.609 113.921 19.3495H113.907Z" fill="url(#paint10_linear_2_7798)"/>
<path d="M59.5802 10.3579C71.9419 3.18419 92.0927 3.18419 104.538 10.3579C110.272 13.6721 113.376 17.9372 113.838 22.2862C114.369 17.1821 111.279 11.9661 104.538 8.07854C92.1067 0.90481 71.9419 0.90481 59.5802 8.07854C52.9379 11.9381 49.8894 17.1121 50.4348 22.1743C50.8822 17.8672 53.9307 13.6301 59.5802 10.3439V10.3579Z" fill="#1A9A90"/>
<path opacity="0.8" d="M104.538 9.92437C92.1065 2.75063 71.9417 2.75063 59.5799 9.92437C47.2322 17.0981 47.3021 28.7746 59.7338 35.9623C72.1654 43.1361 92.3302 43.1361 104.678 35.9623C117.04 28.7886 116.97 17.0981 104.538 9.92437Z" fill="#3DC4BD"/>
<path d="M115.306 19.3635V26.2156C115.278 31.11 112.062 35.9903 105.657 39.71C92.7639 47.2054 71.7042 47.2054 58.7272 39.71C52.1967 35.9344 48.9385 30.9701 48.9524 26.0198V19.1677C48.9524 24.118 52.2247 29.0823 58.7551 32.858C71.7322 40.3533 92.7919 40.3533 105.685 32.858C112.09 29.1382 115.306 24.2439 115.32 19.3635H115.306Z" fill="url(#paint11_linear_2_7798)"/>
<path d="M105.517 5.67328C118.494 13.1686 118.564 25.3626 105.671 32.8579C92.7779 40.3533 71.7182 40.3533 58.7412 32.8579C45.7641 25.3626 45.6942 13.1686 58.5874 5.67328C71.4805 -1.82208 92.5402 -1.82208 105.517 5.67328ZM59.734 32.2846C72.1657 39.4583 92.3304 39.4583 104.678 32.2846C117.026 25.1109 116.97 13.4204 104.538 6.24662C92.1067 -0.927109 71.9419 -0.927109 59.5802 6.24662C47.2324 13.4204 47.3024 25.0969 59.734 32.2846V32.2846Z" fill="#F5F9FF"/>
<path d="M111.642 42.8704C111.642 44.5765 112.831 45.2617 114.313 44.4086C115.782 43.5556 116.984 41.486 116.984 39.794C116.984 38.1019 115.796 37.4027 114.313 38.2557C112.845 39.1088 111.642 41.1784 111.642 42.8704Z" fill="#6C00AC"/>
<path d="M116.201 38.0879L107.572 33.1097C107.083 32.816 106.412 32.858 105.671 33.2915C104.202 34.1445 103 36.2141 103 37.9061C103 38.7451 103.293 39.3325 103.769 39.6261L112.397 44.6044C111.921 44.3247 111.628 43.7234 111.628 42.8844C111.628 41.1783 112.816 39.1227 114.299 38.2697C115.04 37.8362 115.711 37.8082 116.201 38.0879Z" fill="#F5F9FF"/>
<path d="M118.299 36.228C117.474 35.7386 116.327 35.7945 115.054 36.5217C112.551 37.962 110.51 41.486 110.51 44.3806C110.51 45.807 110.999 46.8138 111.81 47.3033L142.197 64.853L148.672 53.7778L118.285 36.228H118.299Z" fill="#0656D7"/>
<path d="M140.911 61.9303C140.911 64.825 142.938 65.9997 145.455 64.5453C147.958 63.105 150 59.581 150 56.6864C150 54.7846 149.119 53.6239 147.805 53.4701C147.119 53.3862 146.322 53.568 145.455 54.0714C142.952 55.5117 140.911 59.0357 140.911 61.9303Z" fill="#0147B8"/>
<defs>
<linearGradient id="paint0_linear_2_7798" x1="42.0728" y1="75.0753" x2="101.588" y2="75.0753" gradientUnits="userSpaceOnUse">
<stop stop-color="#C6D2E7"/>
<stop offset="0.44" stop-color="#D3DDEE"/>
<stop offset="1" stop-color="#E1E9F6"/>
</linearGradient>
<linearGradient id="paint1_linear_2_7798" x1="39.807" y1="91.1149" x2="103.811" y2="91.1149" gradientUnits="userSpaceOnUse">
<stop stop-color="#A2ACBD"/>
<stop offset="0.65" stop-color="#C4CDDA"/>
<stop offset="1" stop-color="#D2DAE6"/>
</linearGradient>
<linearGradient id="paint2_linear_2_7798" x1="39.8356" y1="80.1934" x2="103.812" y2="80.1934" gradientUnits="userSpaceOnUse">
<stop stop-color="#C6D2E7"/>
<stop offset="0.44" stop-color="#D3DDEE"/>
<stop offset="1" stop-color="#E1E9F6"/>
</linearGradient>
<linearGradient id="paint3_linear_2_7798" x1="42.031" y1="79.2844" x2="101.602" y2="79.2844" gradientUnits="userSpaceOnUse">
<stop stop-color="#17968C"/>
<stop offset="0.53" stop-color="#2DB0A8"/>
<stop offset="1" stop-color="#3DC4BD"/>
</linearGradient>
<linearGradient id="paint4_linear_2_7798" x1="-153.142" y1="56.4208" x2="-151.744" y2="56.4208" gradientUnits="userSpaceOnUse">
<stop stop-color="#C6D2E7"/>
<stop offset="0.44" stop-color="#D3DDEE"/>
<stop offset="1" stop-color="#E1E9F6"/>
</linearGradient>
<linearGradient id="paint5_linear_2_7798" x1="39.807" y1="72.4603" x2="103.811" y2="72.4603" gradientUnits="userSpaceOnUse">
<stop stop-color="#A2ACBD"/>
<stop offset="0.65" stop-color="#C4CDDA"/>
<stop offset="1" stop-color="#D2DAE6"/>
</linearGradient>
<linearGradient id="paint6_linear_2_7798" x1="39.8356" y1="61.5389" x2="103.812" y2="61.5389" gradientUnits="userSpaceOnUse">
<stop stop-color="#C6D2E7"/>
<stop offset="0.44" stop-color="#D3DDEE"/>
<stop offset="1" stop-color="#E1E9F6"/>
</linearGradient>
<linearGradient id="paint7_linear_2_7798" x1="-153.142" y1="60.6298" x2="-151.744" y2="60.6298" gradientUnits="userSpaceOnUse">
<stop stop-color="#17968C"/>
<stop offset="0.53" stop-color="#2DB0A8"/>
<stop offset="1" stop-color="#3DC4BD"/>
</linearGradient>
<linearGradient id="paint8_linear_2_7798" x1="39.807" y1="53.0925" x2="103.811" y2="53.0925" gradientUnits="userSpaceOnUse">
<stop stop-color="#A2ACBD"/>
<stop offset="0.65" stop-color="#C4CDDA"/>
<stop offset="1" stop-color="#D2DAE6"/>
</linearGradient>
<linearGradient id="paint9_linear_2_7798" x1="39.8349" y1="42.1712" x2="103.811" y2="42.1712" gradientUnits="userSpaceOnUse">
<stop stop-color="#C6D2E7"/>
<stop offset="0.44" stop-color="#D3DDEE"/>
<stop offset="1" stop-color="#E1E9F6"/>
</linearGradient>
<linearGradient id="paint10_linear_2_7798" x1="50.3507" y1="13.5322" x2="113.907" y2="13.5322" gradientUnits="userSpaceOnUse">
<stop stop-color="#D2DAE6"/>
<stop offset="0.35" stop-color="#C4CDDA"/>
<stop offset="1" stop-color="#A2ACBD"/>
</linearGradient>
<linearGradient id="paint11_linear_2_7798" x1="48.9524" y1="32.2427" x2="115.306" y2="32.2427" gradientUnits="userSpaceOnUse">
<stop stop-color="#A2ACBD"/>
<stop offset="0.65" stop-color="#C4CDDA"/>
<stop offset="1" stop-color="#D2DAE6"/>
</linearGradient>
</defs>
</svg>
