<svg width="20" height="19" viewBox="0 0 20 19" fill="none" xmlns="http://www.w3.org/2000/svg">
<path fill-rule="evenodd" clip-rule="evenodd" d="M14.939 0.882812C16.28 0.882812 17.57 1.41281 18.519 2.36381C19.469 3.31281 20 4.59281 20 5.93281V13.8328C20 16.6228 17.73 18.8828 14.939 18.8828H5.06C2.269 18.8828 0 16.6228 0 13.8328V5.93281C0 3.14281 2.259 0.882812 5.06 0.882812H14.939ZM16.53 7.42281L16.61 7.34281C16.849 7.05281 16.849 6.63281 16.599 6.34281C16.46 6.19381 16.269 6.10281 16.07 6.08281C15.86 6.07181 15.66 6.14281 15.509 6.28281L11 9.88281C10.42 10.3638 9.589 10.3638 9 9.88281L4.5 6.28281C4.189 6.05281 3.759 6.08281 3.5 6.35281C3.23 6.62281 3.2 7.05281 3.429 7.35281L3.56 7.48281L8.11 11.0328C8.67 11.4728 9.349 11.7128 10.06 11.7128C10.769 11.7128 11.46 11.4728 12.019 11.0328L16.53 7.42281Z" fill="white"/>
</svg>
