<svg width="151" height="133" viewBox="0 0 151 133" fill="none" xmlns="http://www.w3.org/2000/svg">
<g style="mix-blend-mode:multiply" opacity="0.5">
<path d="M148.675 104.02L55.1778 49.7098C53.2595 48.5923 50.3726 48.3688 48.0445 49.0393C45.7164 48.3874 42.8482 48.5923 40.9112 49.7098L2.3391 71.9665C-0.100752 73.382 -0.119367 75.6728 2.32049 77.0697L95.8172 131.38C97.1582 132.162 98.9835 132.497 100.734 132.404C102.206 132.33 103.677 132.33 105.148 132.404C106.918 132.497 108.724 132.162 110.084 131.38L148.656 109.123C151.096 107.708 151.114 105.417 148.693 104.02H148.675Z" fill="#003893"/>
</g>
<path d="M150.481 101.468V106.627C150.481 107.559 149.866 108.49 148.637 109.198L110.065 131.473C107.625 132.888 103.676 132.888 101.255 131.473L7.75827 77.1628C6.54766 76.455 5.95166 75.5424 5.95166 74.6298V69.4707L150.499 101.468H150.481Z" fill="url(#paint0_linear_198_1593)"/>
<path d="M94.6805 127.655L93.4513 126.947V117.84L94.6805 118.548V127.655Z" fill="#C9C6C1"/>
<path d="M15.749 81.8006L14.5011 81.0928V72.2646L15.749 72.9724V81.8006Z" fill="#C9C6C1"/>
<path d="M7.77746 66.9004C5.3376 68.3158 5.31899 70.6067 7.75884 72.0036L101.256 126.314C103.677 127.729 107.625 127.729 110.065 126.314L148.637 104.057C151.077 102.641 151.096 100.351 148.675 98.9537L55.1777 44.6436C52.7565 43.2282 48.808 43.2282 46.3496 44.6436L7.77746 66.9004Z" fill="#E5ECF8"/>
<path d="M105.669 126.928C107.252 126.928 108.761 126.574 109.86 125.922L148.432 103.647C149.475 103.051 150.052 102.269 150.052 101.449C150.052 100.648 149.493 99.8846 148.45 99.2699L54.9536 44.9598C53.8361 44.308 52.3648 43.9541 50.763 43.9541C49.1613 43.9541 47.6899 44.308 46.5725 44.9598L8.00036 67.2352C6.95737 67.8312 6.38 68.6134 6.38 69.4329C6.38 70.2338 6.93875 70.9974 7.98174 71.612L101.479 125.922C102.596 126.574 104.067 126.928 105.669 126.928V126.928Z" fill="#003893"/>
<path d="M70.8968 112.606L82.2393 119.162C83.0216 119.628 83.6734 119.348 83.6734 118.548C83.6734 117.747 83.0402 116.741 82.2393 116.294L70.8968 109.738C70.1146 109.272 69.4626 109.552 69.4626 110.334C69.4626 111.116 70.0959 112.141 70.8968 112.588V112.606Z" fill="#BAC1CC"/>
<path d="M115.559 125.345C115.783 125.345 115.857 125.587 115.727 125.885C115.596 126.183 115.317 126.425 115.093 126.425C114.87 126.425 114.795 126.183 114.926 125.885C115.056 125.587 115.336 125.345 115.559 125.345ZM116.993 124.674C116.863 124.972 116.937 125.214 117.161 125.214C117.384 125.214 117.664 124.972 117.794 124.674C117.924 124.376 117.85 124.134 117.626 124.134C117.403 124.134 117.124 124.376 116.993 124.674ZM119.079 123.464C118.949 123.762 119.023 124.004 119.247 124.004C119.47 124.004 119.75 123.762 119.88 123.464C120.01 123.166 119.936 122.923 119.712 122.923C119.489 122.923 119.21 123.166 119.079 123.464ZM121.165 122.253C121.035 122.551 121.109 122.793 121.333 122.793C121.556 122.793 121.836 122.551 121.966 122.253C122.096 121.955 122.022 121.713 121.798 121.713C121.575 121.713 121.296 121.955 121.165 122.253Z" fill="#838D9F"/>
<path d="M136.457 113.295C136.68 113.295 136.755 113.537 136.624 113.835C136.494 114.133 136.214 114.375 135.991 114.375C135.767 114.375 135.693 114.133 135.823 113.835C135.954 113.537 136.233 113.295 136.457 113.295ZM137.891 112.624C137.76 112.922 137.835 113.165 138.058 113.165C138.282 113.165 138.561 112.922 138.692 112.624C138.822 112.326 138.747 112.084 138.524 112.084C138.3 112.084 138.021 112.326 137.891 112.624ZM139.977 111.414C139.846 111.712 139.921 111.954 140.144 111.954C140.368 111.954 140.647 111.712 140.778 111.414C140.908 111.116 140.833 110.874 140.61 110.874C140.386 110.874 140.107 111.116 139.977 111.414ZM142.063 110.203C141.932 110.501 142.007 110.743 142.23 110.743C142.454 110.743 142.733 110.501 142.864 110.203C142.994 109.905 142.919 109.663 142.696 109.663C142.472 109.663 142.193 109.905 142.063 110.203Z" fill="#838D9F"/>
<path d="M126.772 120.055L130.627 117.839C131.111 117.56 131.503 116.945 131.503 116.461C131.503 115.977 131.111 115.809 130.627 116.088L126.772 118.305C126.288 118.584 125.897 119.199 125.897 119.683C125.897 120.167 126.288 120.335 126.772 120.055Z" fill="#838D9F"/>
<path d="M28.5813 85.5998L28.9537 85.3763C28.6371 85.1901 28.3578 85.1715 28.1529 85.3018L27.7804 85.5253C27.9853 85.4136 28.2646 85.4322 28.5813 85.5998Z" fill="#D6DBE4"/>
<path d="M40.9484 92.7328L41.3209 92.5093L28.954 85.376L28.5815 85.5995L40.9484 92.7328Z" fill="#CED3DB"/>
<path d="M41.7304 95.378L42.1029 95.1545C42.3078 95.0427 42.4196 94.782 42.4196 94.4468C42.4196 93.739 41.9167 92.8636 41.3021 92.5098L40.9296 92.7333C41.5442 93.0871 42.047 93.9625 42.047 94.6702C42.047 95.0241 41.9167 95.2662 41.7118 95.378H41.7304Z" fill="#D6DBE4"/>
<path d="M28.5813 85.5994C27.9667 85.2455 27.4639 85.5249 27.4639 86.2326C27.4639 86.9404 27.9667 87.8158 28.5813 88.1696L40.9482 95.303C41.5629 95.6568 42.0657 95.3774 42.0657 94.6697C42.0657 93.962 41.5629 93.0866 40.9482 92.7327L28.5813 85.5994Z" fill="#A2ACBD"/>
<path d="M24.1486 63.5289L42.047 53.1921C43.7978 52.1864 43.7978 50.5474 42.047 49.5417L40.3894 48.5918L16.1399 62.5977L17.7975 63.5476C19.5482 64.5533 22.3792 64.5533 24.1299 63.5476L24.1486 63.5289Z" fill="#1B161E"/>
<path d="M26.4398 59.0775C26.7378 59.2451 27.2034 59.2451 27.5014 59.0775L34.3367 55.129C34.6347 54.9614 34.6347 54.682 34.3367 54.5144C34.0387 54.3468 33.5731 54.3468 33.2751 54.5144L26.4398 58.4629C26.1418 58.6305 26.1418 58.9099 26.4398 59.0775Z" fill="#0D0B0F"/>
<path d="M21.8768 60.9402C21.7091 61.2941 22.0816 61.6666 22.6962 61.7597C23.3108 61.8528 23.9627 61.6479 24.1303 61.2754C24.298 60.9216 23.9255 60.5491 23.3109 60.4559C22.6962 60.3628 22.0444 60.5677 21.8768 60.9402Z" fill="#0D0B0F"/>
<path d="M105.67 120.708C104.049 120.708 102.522 120.335 101.386 119.683L7.88901 65.3731C6.79014 64.7399 6.17551 63.9017 6.19414 63.0264C6.19414 62.151 6.80877 61.2943 7.92626 60.661L46.4984 38.3857C47.6531 37.7152 49.1803 37.3613 50.8007 37.3613C52.4211 37.3613 53.9483 37.7338 55.0844 38.3857L148.581 92.6958C149.68 93.329 150.276 94.1671 150.276 95.0425C150.276 95.9365 149.661 96.7746 148.544 97.4079L109.972 119.665C108.817 120.335 107.29 120.689 105.67 120.689V120.708ZM50.7634 37.7711C49.2176 37.7711 47.7462 38.1249 46.666 38.7396L8.09388 61.0149C7.10676 61.5736 6.56666 62.3 6.56666 63.0264C6.56666 63.7528 7.08813 64.4605 8.05662 65.0192L101.553 119.329C102.634 119.963 104.086 120.298 105.632 120.298C107.178 120.298 108.649 119.944 109.73 119.329L148.302 97.054C149.289 96.4952 149.829 95.7689 149.829 95.0425C149.829 94.3161 149.289 93.6084 148.339 93.0497L54.8423 38.7396C53.762 38.1063 52.3093 37.7711 50.7634 37.7711V37.7711Z" fill="#9FFFFA"/>
<path d="M105.67 113.724C107.253 113.724 108.762 113.37 109.861 112.718L148.433 90.4612C149.476 89.8652 150.053 89.083 150.053 88.2635C150.053 87.4626 149.495 86.699 148.452 86.0844L54.9547 31.7743C53.8372 31.1224 52.3659 30.7686 50.7641 30.7686C49.1624 30.7686 47.691 31.1224 46.5736 31.7743L8.00146 54.031C6.95847 54.627 6.3811 55.4092 6.3811 56.2287C6.3811 57.0296 6.93985 57.7932 7.98284 58.4078L101.48 112.718C102.597 113.37 104.068 113.724 105.67 113.724Z" fill="#2774F1"/>
<g style="mix-blend-mode:color-dodge">
<path d="M65.6084 38.2182L74.1014 33.3199C75.3306 32.6121 77.3048 32.6121 78.5341 33.3199L86.9711 38.2182C88.1817 38.926 88.1817 40.0807 86.9711 40.7884L78.4782 45.6868C77.2489 46.3945 75.2747 46.3945 74.0455 45.6868L65.6084 40.7884C64.3978 40.0807 64.3978 38.926 65.6084 38.2182Z" fill="#2673F0"/>
</g>
<g style="mix-blend-mode:screen">
<path d="M47.1135 27.5278L55.6065 22.6294C56.8357 21.9217 58.8099 21.9217 60.0392 22.6294L68.4762 27.5278C69.6869 28.2355 69.6869 29.3903 68.4762 30.098L59.9833 34.9963C58.7541 35.7041 56.7798 35.7041 55.5506 34.9963L47.1135 30.098C45.9029 29.3903 45.9029 28.2355 47.1135 27.5278V27.5278Z" fill="#3DC4BD"/>
</g>
<g style="mix-blend-mode:color-dodge">
<path d="M47.2999 48.7973L55.7929 43.899C57.0221 43.1912 58.9963 43.1912 60.2256 43.899L68.6626 48.7973C69.8733 49.5051 69.8733 50.6598 68.6626 51.3675L60.1697 56.2659C58.9405 56.9736 56.9662 56.9736 55.737 56.2659L47.2999 51.3675C46.0893 50.6598 46.0893 49.5051 47.2999 48.7973V48.7973Z" fill="#2673F0"/>
</g>
<g style="mix-blend-mode:screen">
<path d="M28.8052 38.1069L37.2981 33.2085C38.5274 32.5008 40.5016 32.5008 41.7308 33.2085L50.1679 38.1069C51.3785 38.8146 51.3785 39.9694 50.1679 40.6771L41.6749 45.5755C40.4457 46.2832 38.4715 46.2832 37.2422 45.5755L28.8052 40.6771C27.5946 39.9694 27.5946 38.8146 28.8052 38.1069Z" fill="#3DC4BD"/>
</g>
<g style="mix-blend-mode:color-dodge">
<path d="M28.9916 59.3579L37.4845 54.4595C38.7138 53.7518 40.688 53.7518 41.9172 54.4595L50.3543 59.3579C51.5649 60.0656 51.5649 61.2203 50.3543 61.9281L41.8614 66.8264C40.6321 67.5342 38.6579 67.5342 37.4286 66.8264L28.9916 61.9281C27.781 61.2203 27.781 60.0656 28.9916 59.3579Z" fill="#2673F0"/>
</g>
<g style="mix-blend-mode:screen">
<path d="M10.4967 48.6674L18.9896 43.7691C20.2189 43.0613 22.1931 43.0613 23.4223 43.7691L31.8594 48.6674C33.07 49.3752 33.07 50.5299 31.8594 51.2377L23.3665 56.136C22.1372 56.8437 20.163 56.8437 18.9338 56.136L10.4967 51.2377C9.28609 50.5299 9.28609 49.3752 10.4967 48.6674Z" fill="#3DC4BD"/>
</g>
<path d="M65.6078 38.2744L74.0449 43.1727C75.2555 43.8805 77.2484 43.8805 78.4776 43.1727L86.9705 38.2744C87.5852 37.9205 87.9018 37.4549 87.9018 36.9893V38.7586C87.9018 39.2242 87.6038 39.6899 86.9892 40.0437L78.4963 44.9421C77.267 45.6498 75.2928 45.6498 74.0635 44.9421L65.6265 40.0437C65.0118 39.6899 64.7139 39.2242 64.7139 38.7772V37.0079C64.7139 37.4735 65.0118 37.9205 65.6265 38.2744H65.6078Z" fill="#9FFFFA"/>
<path d="M76.3362 30.6754C77.0998 30.6754 77.8076 30.843 78.3291 31.1596L86.7661 36.058C87.2131 36.3187 87.4739 36.6539 87.4739 36.9706C87.4739 37.3058 87.2131 37.6411 86.7661 37.9018L78.2732 42.8002C77.7517 43.0982 77.0253 43.2658 76.2617 43.2658C75.498 43.2658 74.7903 43.0982 74.2502 42.7815L65.8131 37.8832C65.3661 37.6224 65.1054 37.2872 65.1054 36.9706C65.1054 36.6353 65.3661 36.3001 65.8131 36.0393L74.3061 31.141C74.8462 30.843 75.5539 30.6567 76.3175 30.6567L76.3362 30.6754ZM76.3362 30.2656C75.5353 30.2656 74.7344 30.4519 74.1198 30.8057L65.6269 35.7041C64.3976 36.4118 64.3976 37.5666 65.6269 38.2743L74.0639 43.1727C74.6786 43.5265 75.4794 43.7128 76.2803 43.7128C77.0812 43.7128 77.8821 43.5265 78.4967 43.1913L86.9896 38.2929C88.2188 37.5852 88.2188 36.4305 86.9896 35.7227L78.5525 30.8244C77.9379 30.4705 77.137 30.2842 76.3362 30.2842V30.2656Z" fill="#9FFFFA"/>
<path d="M47.0948 13.3349L55.5319 18.2333C56.7425 18.941 58.7353 18.941 59.9645 18.2333L68.4575 13.3349C69.0721 12.981 69.3887 12.5154 69.3887 12.0498V13.8192C69.3887 14.2848 69.0907 14.7504 68.4761 15.1043L59.9832 20.0026C58.7539 20.7104 56.7797 20.7104 55.5505 20.0026L47.1134 15.1043C46.4988 14.7504 46.2008 14.2848 46.2008 13.8378V12.0684C46.2008 12.534 46.4988 12.981 47.1134 13.3349H47.0948Z" fill="#9FFFFA"/>
<path d="M47.1133 10.7836L55.6062 5.8853C56.8355 5.17756 58.8097 5.17756 60.0389 5.8853L68.476 10.7836C69.6866 11.4914 69.6866 12.6461 68.476 13.3539L59.9831 18.2522C58.7538 18.96 56.7796 18.96 55.5503 18.2522L47.1133 13.3539C45.9027 12.6461 45.9027 11.4914 47.1133 10.7836V10.7836Z" fill="#2673F0"/>
<path d="M47.2995 48.8349L55.7366 53.7333C56.9472 54.441 58.94 54.441 60.1693 53.7333L68.6622 48.8349C69.2768 48.4811 69.5935 48.0154 69.5935 47.5498V49.3192C69.5935 49.7848 69.2955 50.2504 68.6809 50.6043L60.1879 55.5026C58.9587 56.2104 56.9844 56.2104 55.7552 55.5026L47.3181 50.6043C46.7035 50.2504 46.4055 49.7848 46.4055 49.3378V47.5684C46.4055 48.0341 46.7035 48.4811 47.3181 48.8349H47.2995Z" fill="#9FFFFA"/>
<path d="M58.0277 41.2545C58.7914 41.2545 59.4991 41.4221 60.0206 41.7387L68.4576 46.6371C68.9046 46.8978 69.1654 47.2331 69.1654 47.5497C69.1654 47.8849 68.9046 48.2202 68.4576 48.4809L59.9647 53.3793C59.4432 53.6773 58.7168 53.8635 57.9532 53.8635C57.1896 53.8635 56.4819 53.6959 55.9418 53.3793L47.5047 48.4809C47.0577 48.2202 46.7969 47.8849 46.7969 47.5683C46.7969 47.2331 47.0577 46.8978 47.5047 46.6371L55.9976 41.7387C56.5378 41.4407 57.2455 41.2545 58.0091 41.2545H58.0277ZM58.0277 40.8447C57.2269 40.8447 56.426 41.031 55.8114 41.3848L47.3184 46.2832C46.0892 46.9909 46.0892 48.1457 47.3184 48.8534L55.7555 53.7518C56.3701 54.1056 57.171 54.2919 57.9719 54.2919C58.7727 54.2919 59.5736 54.1056 60.1882 53.7704L68.6812 48.872C69.9104 48.1643 69.9104 47.0096 68.6812 46.3018L60.2441 41.4035C59.6295 41.0496 58.8286 40.8633 58.0277 40.8633V40.8447Z" fill="#9FFFFA"/>
<path d="M28.7866 30.3584L37.2236 35.2567C38.4342 35.9644 40.4271 35.9644 41.6563 35.2567L50.1493 30.3584C50.7639 30.0045 51.0805 29.5389 51.0805 29.0732V30.8426C51.0805 31.3082 50.7825 31.7738 50.1679 32.1277L41.675 37.0261C40.4457 37.7338 38.4715 37.7338 37.2423 37.0261L28.8052 32.1277C28.1906 31.7738 27.8926 31.3082 27.8926 30.8612V29.0919C27.8926 29.5575 28.1906 30.0045 28.8052 30.3584H28.7866Z" fill="#9FFFFA"/>
<path d="M28.8051 27.8071L37.298 22.9087C38.5272 22.201 40.5014 22.201 41.7307 22.9087L50.1677 27.8071C51.3784 28.5148 51.3784 29.6696 50.1677 30.3773L41.6748 35.2756C40.4456 35.9834 38.4714 35.9834 37.2421 35.2756L28.8051 30.3773C27.5944 29.6696 27.5944 28.5148 28.8051 27.8071Z" fill="#2673F0"/>
<path d="M28.9914 59.414L37.4285 64.3124C38.6391 65.0201 40.6319 65.0201 41.8612 64.3124L50.3541 59.414C50.9687 59.0602 51.2854 58.5945 51.2854 58.1289V59.8983C51.2854 60.3639 50.9873 60.8295 50.3727 61.1834L41.8798 66.0817C40.6506 66.7895 38.6763 66.7895 37.4471 66.0817L29.01 61.1834C28.3954 60.8295 28.0974 60.3639 28.0974 59.9169V58.1475C28.0974 58.6132 28.3954 59.0602 29.01 59.414H28.9914Z" fill="#9FFFFA"/>
<path d="M39.7194 51.815C40.483 51.815 41.1907 51.9826 41.7122 52.2993L50.1493 57.1976C50.5963 57.4584 50.857 57.7936 50.857 58.1102C50.857 58.4455 50.5963 58.7807 50.1493 59.0415L41.6564 63.9398C41.1349 64.2378 40.4085 64.4054 39.6449 64.4054C38.8813 64.4054 38.1735 64.2378 37.6334 63.9212L29.1963 59.0228C28.7493 58.7621 28.4886 58.4268 28.4886 58.1102C28.4886 57.775 28.7493 57.4397 29.1963 57.179L37.6893 52.2806C38.2294 51.9826 38.9371 51.7964 39.7007 51.7964L39.7194 51.815ZM39.7194 51.4053C38.9185 51.4053 38.1176 51.5915 37.503 51.9454L29.0101 56.8437C27.7808 57.5515 27.7808 58.7062 29.0101 59.414L37.4472 64.3123C38.0618 64.6662 38.8626 64.8524 39.6635 64.8524C40.4644 64.8524 41.2652 64.6662 41.8799 64.3309L50.3728 59.4326C51.602 58.7248 51.602 57.5701 50.3728 56.8624L41.9357 51.964C41.3211 51.6102 40.5202 51.4239 39.7194 51.4239V51.4053Z" fill="#9FFFFA"/>
<path d="M10.4785 47.456L18.9155 52.3544C20.1261 53.0621 22.119 53.0621 23.3482 52.3544L31.8412 47.456C32.4558 47.1021 32.7724 46.6365 32.7724 46.1709V47.9403C32.7724 48.4059 32.4744 48.8715 31.8598 49.2254L23.3669 54.1237C22.1376 54.8315 20.1634 54.8315 18.9342 54.1237L10.4971 49.2254C9.88248 48.8715 9.58447 48.4059 9.58447 47.9589V46.1895C9.58447 46.6551 9.88248 47.1021 10.4971 47.456H10.4785Z" fill="#9FFFFA"/>
<path d="M10.497 44.9047L18.9899 40.0064C20.2191 39.2986 22.1933 39.2986 23.4226 40.0064L31.8597 44.9047C33.0703 45.6125 33.0703 46.7672 31.8597 47.475L23.3667 52.3733C22.1375 53.081 20.1633 53.081 18.934 52.3733L10.497 47.475C9.28634 46.7672 9.28634 45.6125 10.497 44.9047Z" fill="#2673F0"/>
<g style="mix-blend-mode:color-dodge">
<path d="M85.0526 49.4497L93.5455 44.5513C94.7748 43.8436 96.749 43.8436 97.9783 44.5513L106.415 49.4497C107.626 50.1574 107.626 51.3121 106.415 52.0199L97.9224 56.9182C96.6932 57.626 94.7189 57.626 93.4897 56.9182L85.0526 52.0199C83.842 51.3121 83.842 50.1574 85.0526 49.4497Z" fill="#2673F0"/>
</g>
<g style="mix-blend-mode:color-dodge">
<path d="M66.7441 60.0092L75.2371 55.1109C76.4663 54.4031 78.4406 54.4031 79.6698 55.1109L88.1069 60.0092C89.3175 60.717 89.3175 61.8717 88.1069 62.5795L79.6139 67.4778C78.3847 68.1855 76.4104 68.1855 75.1812 67.4778L66.7441 62.5795C65.5335 61.8717 65.5335 60.717 66.7441 60.0092Z" fill="#2673F0"/>
</g>
<g style="mix-blend-mode:color-dodge">
<path d="M48.4358 70.5883L56.9288 65.69C58.158 64.9822 60.1322 64.9822 61.3614 65.69L69.7985 70.5883C71.0091 71.2961 71.0091 72.4508 69.7985 73.1586L61.3056 78.0569C60.0763 78.7646 58.1021 78.7646 56.8729 78.0569L48.4358 73.1586C47.2252 72.4508 47.2252 71.2961 48.4358 70.5883V70.5883Z" fill="#2673F0"/>
</g>
<g style="mix-blend-mode:color-dodge">
<path d="M104.106 60.4379L112.599 55.5396C113.828 54.8319 115.802 54.8319 117.031 55.5396L125.469 60.4379C126.679 61.1457 126.679 62.3004 125.469 63.0082L116.976 67.9065C115.746 68.6143 113.772 68.6143 112.543 67.9065L104.106 63.0082C102.895 62.3004 102.895 61.1457 104.106 60.4379V60.4379Z" fill="#2673F0"/>
</g>
<g style="mix-blend-mode:color-dodge">
<path d="M85.7974 71.017L94.2903 66.1187C95.5195 65.411 97.4937 65.411 98.723 66.1187L107.16 71.017C108.371 71.7248 108.371 72.8795 107.16 73.5873L98.6671 78.4856C97.4379 79.1934 95.4637 79.1934 94.2344 78.4856L85.7974 73.5873C84.5868 72.8795 84.5868 71.7248 85.7974 71.017Z" fill="#2673F0"/>
</g>
<g style="mix-blend-mode:color-dodge">
<path d="M67.489 81.5766L75.9819 76.6783C77.2112 75.9705 79.1854 75.9705 80.4147 76.6783L88.8517 81.5766C90.0623 82.2843 90.0623 83.4391 88.8517 84.1468L80.3588 89.0452C79.1296 89.7529 77.1553 89.7529 75.9261 89.0452L67.489 84.1468C66.2784 83.4391 66.2784 82.2843 67.489 81.5766Z" fill="#2673F0"/>
</g>
<g style="mix-blend-mode:color-dodge">
<path d="M123.625 71.7055L132.118 66.8072C133.347 66.0994 135.321 66.0994 136.55 66.8072L144.987 71.7055C146.198 72.4133 146.198 73.568 144.987 74.2757L136.494 79.1741C135.265 79.8818 133.291 79.8818 132.062 79.1741L123.625 74.2757C122.414 73.568 122.414 72.4133 123.625 71.7055Z" fill="#2673F0"/>
</g>
<g style="mix-blend-mode:color-dodge">
<path d="M105.316 82.2846L113.809 77.3863C115.038 76.6785 117.013 76.6785 118.242 77.3863L126.679 82.2846C127.89 82.9924 127.89 84.1471 126.679 84.8548L118.186 89.7532C116.957 90.4609 114.983 90.4609 113.753 89.7532L105.316 84.8548C104.106 84.1471 104.106 82.9924 105.316 82.2846Z" fill="#2673F0"/>
</g>
<g style="mix-blend-mode:color-dodge">
<path d="M87.0078 92.8452L95.5007 87.9468C96.73 87.2391 98.7042 87.2391 99.9335 87.9468L108.371 92.8452C109.581 93.5529 109.581 94.7077 108.371 95.4154L99.8776 100.314C98.6484 101.021 96.6741 101.021 95.4449 100.314L87.0078 95.4154C85.7972 94.7077 85.7972 93.5529 87.0078 92.8452Z" fill="#2673F0"/>
</g>
<path d="M85.0333 49.4863L93.4704 54.3846C94.681 55.0924 96.6738 55.0924 97.9031 54.3846L106.396 49.4863C107.011 49.1324 107.327 48.6668 107.327 48.2012V49.9705C107.327 50.4361 107.029 50.9018 106.415 51.2556L97.9217 56.154C96.6924 56.8617 94.7182 56.8617 93.4889 56.154L85.0519 51.2556C84.4373 50.9018 84.1393 50.4362 84.1393 49.9892V48.2198C84.1393 48.6854 84.4373 49.1324 85.0519 49.4863H85.0333Z" fill="#9FFFFA"/>
<path d="M95.7614 41.9058C96.525 41.9058 97.2327 42.0735 97.7542 42.3901L106.191 47.2884C106.638 47.5492 106.899 47.8844 106.899 48.201C106.899 48.5363 106.638 48.8715 106.191 49.1323L97.6984 54.0306C97.1769 54.3286 96.4505 54.5149 95.6869 54.5149C94.9233 54.5149 94.2155 54.3472 93.6754 54.0306L85.2383 49.1323C84.7913 48.8715 84.5306 48.5363 84.5306 48.2197C84.5306 47.8844 84.7913 47.5492 85.2383 47.2884L93.7312 42.3901C94.2714 42.0921 94.9791 41.9058 95.7428 41.9058H95.7614ZM95.7614 41.4961C94.9605 41.4961 94.1596 41.6823 93.545 42.0362L85.0521 46.9346C83.8228 47.6423 83.8228 48.797 85.0521 49.5048L93.4891 54.4031C94.1037 54.757 94.9046 54.9432 95.7055 54.9432C96.5063 54.9432 97.3072 54.757 97.9218 54.4218L106.415 49.5234C107.644 48.8157 107.644 47.6609 106.415 46.9532L97.9777 42.0548C97.3631 41.701 96.5622 41.5147 95.7614 41.5147V41.4961Z" fill="#9FFFFA"/>
<path d="M66.7259 60.0654L75.1629 64.9637C76.3735 65.6715 78.3664 65.6715 79.5957 64.9637L88.0886 60.0654C88.7032 59.7115 89.0198 59.2459 89.0198 58.7803V60.5496C89.0198 61.0153 88.7218 61.4809 88.1072 61.8347L79.6143 66.7331C78.3851 67.4408 76.4108 67.4408 75.1816 66.7331L66.7445 61.8347C66.1299 61.4809 65.8319 61.0153 65.8319 60.5683V58.7989C65.8319 59.2645 66.1299 59.7115 66.7445 60.0654H66.7259Z" fill="#9FFFFA"/>
<path d="M77.4541 52.4849C78.2177 52.4849 78.9255 52.6526 79.447 52.9692L87.884 57.8675C88.331 58.1283 88.5918 58.4635 88.5918 58.7801C88.5918 59.1154 88.331 59.4506 87.884 59.7114L79.3911 64.6097C78.8696 64.9077 78.1432 65.094 77.3796 65.094C76.616 65.094 75.9082 64.9263 75.3681 64.6097L66.9311 59.7114C66.4841 59.4506 66.2233 59.1154 66.2233 58.7988C66.2233 58.4635 66.4841 58.1283 66.9311 57.8675L75.424 52.9692C75.9641 52.6712 76.6718 52.4849 77.4355 52.4849H77.4541ZM77.4541 52.0752C76.6532 52.0752 75.8524 52.2614 75.2377 52.6153L66.7448 57.5137C65.5156 58.2214 65.5156 59.3761 66.7448 60.0839L75.1819 64.9822C75.7965 65.3361 76.5974 65.5223 77.3982 65.5223C78.1991 65.5223 79 65.3361 79.6146 65.0009L88.1075 60.1025C89.3368 59.3948 89.3368 58.24 88.1075 57.5323L79.6705 52.6339C79.0558 52.2801 78.255 52.0938 77.4541 52.0938V52.0752Z" fill="#9FFFFA"/>
<path d="M48.4172 70.6259L56.8543 75.5243C58.0649 76.232 60.0578 76.232 61.287 75.5243L69.7799 70.6259C70.3945 70.2721 70.7112 69.8064 70.7112 69.3408V71.1102C70.7112 71.5758 70.4131 72.0414 69.7985 72.3953L61.3056 77.2936C60.0763 78.0014 58.1022 78.0014 56.8729 77.2936L48.4358 72.3953C47.8212 72.0414 47.5232 71.5758 47.5232 71.1288V69.3594C47.5232 69.8251 47.8212 70.2721 48.4358 70.6259H48.4172Z" fill="#9FFFFA"/>
<path d="M59.1454 63.0455C59.909 63.0455 60.6167 63.2131 61.1382 63.5297L69.5753 68.4281C70.0223 68.6888 70.283 69.0241 70.283 69.3407C70.283 69.6759 70.0223 70.0112 69.5753 70.2719L61.0824 75.1703C60.5609 75.4683 59.8345 75.6545 59.0709 75.6545C58.3073 75.6545 57.5995 75.4869 57.0594 75.1703L48.6224 70.2719C48.1754 70.0112 47.9146 69.6759 47.9146 69.3593C47.9146 69.0241 48.1754 68.6888 48.6224 68.4281L57.1153 63.5297C57.6554 63.2317 58.3632 63.0455 59.1268 63.0455H59.1454ZM59.1454 62.6357C58.3445 62.6357 57.5437 62.822 56.9291 63.1759L48.4361 68.0742C47.2068 68.7819 47.2068 69.9367 48.4361 70.6444L56.8732 75.5428C57.4878 75.8966 58.2886 76.0829 59.0895 76.0829C59.8904 76.0829 60.6912 75.9153 61.3058 75.5614L69.7988 70.6631C71.028 69.9553 71.028 68.8006 69.7988 68.0928L61.3617 63.1945C60.7471 62.8406 59.9462 62.6544 59.1454 62.6544V62.6357Z" fill="#9FFFFA"/>
<path d="M57.7487 14.3041C56.9106 14.3041 56.0725 14.1178 55.4392 13.7453L47.0022 8.84701C46.3503 8.47451 45.9965 7.95302 45.9965 7.39427C45.9965 6.83553 46.369 6.31403 47.0208 5.92291L47.1326 6.10916L47.0208 5.92291L55.5138 1.02457C56.7989 0.279572 58.8848 0.279572 60.1513 1.02457L68.5884 5.92291C69.2403 6.2954 69.5942 6.8169 69.5942 7.37564C69.5942 7.93439 69.2217 8.45589 68.5698 8.84701L60.0768 13.7453C59.4436 14.1178 58.6055 14.3041 57.7487 14.3041ZM57.8232 0.875567C57.0596 0.875567 56.296 1.04319 55.7186 1.37844L47.2257 6.27678C46.7042 6.57477 46.4062 6.9659 46.4062 7.37564C46.4062 7.78539 46.6856 8.17651 47.2071 8.47451L55.6442 13.3729C56.7989 14.0433 58.6986 14.0433 59.872 13.3729L68.3649 8.47451C68.8864 8.17651 69.1844 7.78539 69.1844 7.37564C69.1844 6.9659 68.905 6.57477 68.3835 6.27678L59.9465 1.37844C59.3691 1.04319 58.6055 0.875567 57.8419 0.875567H57.8232Z" fill="#9FFFFA"/>
<path d="M39.4403 31.3275C38.6022 31.3275 37.764 31.1413 37.1308 30.7688L28.6937 25.8704C28.0418 25.4979 27.688 24.9765 27.688 24.4177C27.688 23.859 28.0605 23.3375 28.7124 22.9463L37.2053 18.048C38.4904 17.303 40.5764 17.303 41.8429 18.048L50.28 22.9463C50.9318 23.3188 51.2857 23.8403 51.2857 24.3991C51.2857 24.9578 50.9132 25.4793 50.2613 25.8704L41.7684 30.7688C41.1351 31.1413 40.297 31.3275 39.4403 31.3275ZM28.8986 23.3002C28.3771 23.5982 28.0791 23.9893 28.0791 24.3991C28.0791 24.8088 28.3585 25.2 28.88 25.4979L37.317 30.3963C38.4718 31.0668 40.3715 31.0668 41.5449 30.3963L50.0378 25.4979C50.5593 25.2 50.8573 24.8088 50.8573 24.3991C50.8573 23.9893 50.5779 23.5982 50.0564 23.3002L41.6194 18.4019C40.4646 17.7314 38.5649 17.7314 37.3915 18.4019L28.8986 23.3002Z" fill="#9FFFFA"/>
<path d="M21.1319 48.4252C20.2938 48.4252 19.4557 48.2389 18.8225 47.8664L10.3854 42.9681C9.7335 42.5956 9.37964 42.0741 9.37964 41.5154C9.37964 40.9566 9.75214 40.4351 10.404 40.044L18.8969 35.1457C20.1821 34.4007 22.2681 34.4007 23.5345 35.1457L31.9716 40.044C32.6235 40.4165 32.9773 40.938 32.9773 41.4967C32.9773 42.0555 32.6048 42.577 31.953 42.9681L23.46 47.8664C22.8268 48.2389 21.9887 48.4252 21.1506 48.4252H21.1319ZM21.2064 34.9967C20.4428 34.9967 19.6792 35.1643 19.1018 35.4995L10.6089 40.3979C10.0874 40.6959 9.78939 41.087 9.78939 41.4967C9.78939 41.9065 10.0687 42.2976 10.5902 42.5956L19.0273 47.4939C20.1821 48.1644 22.0818 48.1644 23.2365 47.4939L31.7295 42.5956C32.251 42.2976 32.549 41.9065 32.549 41.4967C32.549 41.087 32.2696 40.6959 31.7481 40.3979L23.311 35.4995C22.7337 35.1643 21.9701 34.9967 21.2064 34.9967Z" fill="#9FFFFA"/>
<defs>
<linearGradient id="paint0_linear_198_1593" x1="63.2417" y1="101.003" x2="152.138" y2="101.003" gradientUnits="userSpaceOnUse">
<stop offset="0.4" stop-color="#A2ACBD"/>
<stop offset="0.58" stop-color="#BBC2CD"/>
</linearGradient>
</defs>
</svg>
