<svg width="105" height="118" viewBox="0 0 105 118" fill="none" xmlns="http://www.w3.org/2000/svg">
<g style="mix-blend-mode:multiply" opacity="0.5">
<path d="M29.2391 99.2321L22.9287 103.044H24.2294C25.1051 103.044 24.9377 103.585 23.843 104.242L13.0895 110.745C11.9949 111.402 10.3979 111.943 9.52221 111.943H8.2215L1.91106 115.755C0.687611 116.489 0.50731 117.095 1.48607 117.095H54.0301C55.0089 117.095 56.799 116.502 58.0095 115.755L85.3376 99.2193C86.561 98.4852 86.7413 97.8799 85.7626 97.8799H33.2185C32.2398 97.8799 30.4497 98.4723 29.2391 99.2193V99.2321Z" fill="#003893"/>
</g>
<path d="M80.7138 1.07294C81.3578 1.07294 81.7313 1.5237 81.7313 2.2964V81.2799C81.7313 82.645 80.6108 84.4093 79.22 85.2078L46.1353 104.307C45.7103 104.551 45.311 104.68 44.9633 104.68C44.3194 104.68 43.9459 104.229 43.9459 103.457V24.4731C43.9459 23.1079 45.0664 21.3436 46.4572 20.5451L53.6176 16.4112V17.8149C53.6176 18.8452 54.21 19.5149 55.1373 19.5149C55.5494 19.5149 56.0259 19.3732 56.4895 19.1027L69.5096 11.5817C70.9391 10.7575 72.0724 8.96743 72.0724 7.52505V5.74782L79.5548 1.43353C79.9798 1.18884 80.379 1.06007 80.7267 1.06007L80.7138 1.07294ZM80.7138 0.750977C80.3275 0.750977 79.8639 0.87977 79.3874 1.1631L71.7505 5.56752V7.52505C71.7505 8.85153 70.6816 10.5386 69.3551 11.2984L56.335 18.8194C55.8971 19.077 55.485 19.1929 55.1373 19.1929C54.4161 19.1929 53.9396 18.6906 53.9396 17.8149V15.8574L46.3027 20.2618C44.8345 21.1118 43.6368 22.992 43.6368 24.4731V103.457C43.6368 104.448 44.1777 105.002 44.9762 105.002C45.3625 105.002 45.8262 104.873 46.3027 104.59L79.3874 85.4911C80.8555 84.6411 82.0532 82.7609 82.0532 81.2799V2.2964C82.0532 1.30477 81.5123 0.750977 80.7138 0.750977Z" fill="#0656D7"/>
<path d="M86.5608 4.45966C87.2047 4.45966 87.5782 4.9104 87.5782 5.6831V84.6666C87.5782 86.0317 86.4578 87.796 85.0669 88.5945L51.9822 107.693C51.5572 107.938 51.158 108.067 50.8102 108.067C50.1663 108.067 49.7929 107.616 49.7929 106.843V27.8598C49.7929 26.4947 50.9133 24.7303 52.3041 23.9318L59.4646 19.7979V21.2016C59.4646 22.2319 60.057 22.9016 60.9842 22.9016C61.3963 22.9016 61.8728 22.7599 62.3365 22.4895L75.3566 14.9685C76.7861 14.1442 77.9194 12.3541 77.9194 10.9117V9.13453L85.4017 4.82025C85.8267 4.57556 86.2259 4.44678 86.5737 4.44678L86.5608 4.45966ZM86.5608 4.1377C86.1744 4.1377 85.7108 4.26649 85.2343 4.54981L77.5974 8.95424V10.9117C77.5974 12.2382 76.5285 13.9253 75.202 14.6851L62.1819 22.2061C61.744 22.4637 61.3319 22.5796 60.9842 22.5796C60.263 22.5796 59.7865 22.0774 59.7865 21.2016V19.2441L52.1496 23.6485C50.6815 24.4985 49.4838 26.3788 49.4838 27.8598V106.843C49.4838 107.835 50.0247 108.389 50.8231 108.389C51.2095 108.389 51.6731 108.26 52.1496 107.977L85.2343 88.8778C86.7025 88.0278 87.9001 86.1476 87.9001 84.6666V5.6831C87.9001 4.69146 87.3593 4.1377 86.5608 4.1377Z" fill="#3DC4BD"/>
<path d="M91.2226 8.0023L83.5857 12.4067V14.3643C83.5857 15.6907 82.5168 17.3778 81.1903 18.1376L68.1702 25.6586C66.8437 26.4185 65.7748 25.9677 65.7748 24.6412V22.6837L58.1379 27.0881C56.6697 27.9381 55.472 29.8184 55.472 31.2994V110.283C55.472 111.751 56.6697 112.266 58.1379 111.416L91.2226 92.3174C92.6907 91.4674 93.8884 89.5872 93.8884 88.1062V9.12272C93.8884 7.65458 92.6907 7.13946 91.2226 7.98943V8.0023Z" fill="#F5F9FF"/>
<path opacity="0.5" d="M80.4179 82.117L55.4595 96.528V77.7254L80.4179 63.3145C82.0921 62.3486 83.4572 62.9152 83.4572 64.6023V77.3262C83.4572 79.0004 82.0921 81.1511 80.4179 82.117ZM93.8887 77.7254L74.9574 88.6592C73.2832 89.6251 71.9181 91.7758 71.9181 93.45V97.4294C71.9181 99.1036 73.2832 99.6832 74.9574 98.7173L93.8887 87.7835V77.7254ZM55.4724 36.9137V46.9717L80.4308 32.5608C82.105 31.5949 83.4701 29.4442 83.4701 27.77V23.7905C83.4701 22.1164 82.105 21.5368 80.4308 22.5027L55.4724 36.9137ZM68.6856 46.4309V50.4103C68.6856 52.0845 70.0507 52.664 71.7249 51.6981L93.8887 38.897V28.8389L71.7249 41.6401C70.0507 42.606 68.6856 44.7567 68.6856 46.4309ZM80.6626 53.4882V57.4677C80.6626 59.1419 82.0277 59.7214 83.7019 58.7555L93.9016 52.8701V42.7991L83.7019 48.6846C82.0277 49.6505 80.6626 51.8012 80.6626 53.4754V53.4882Z" fill="#BBC2CD"/>
<path d="M101.525 41.9884L78.2151 55.4464C76.5409 56.4122 75.1758 55.8456 75.1758 54.1585V50.1791C75.1758 48.5049 76.5409 46.3542 78.2151 45.3883L101.525 31.9303C103.199 30.9644 104.564 31.5311 104.564 33.2182V37.1976C104.564 38.8718 103.199 41.0225 101.525 41.9884Z" fill="#0656D7"/>
<path d="M86.9078 36.3214L60.829 51.3763C59.1548 52.3422 57.7897 51.7755 57.7897 50.0884V46.109C57.7897 44.4348 59.1548 42.2841 60.829 41.3182L86.9078 26.2633C88.582 25.2974 89.9471 25.8641 89.9471 27.5512V31.5306C89.9471 33.2048 88.582 35.3555 86.9078 36.3214Z" fill="#3DC4BD"/>
<path d="M86.9078 85.8647L60.829 100.92C59.1548 101.885 57.7897 101.319 57.7897 99.6317V86.9078C57.7897 85.2336 59.1548 83.0829 60.829 82.117L86.9078 67.0622C88.582 66.0963 89.9471 66.6629 89.9471 68.35V81.0739C89.9471 82.7481 88.582 84.8988 86.9078 85.8647Z" fill="#3DC4BD"/>
<path d="M101.525 55.961L90.1924 62.5033C88.5182 63.4691 87.1531 62.9025 87.1531 61.2154V57.236C87.1531 55.5618 88.5182 53.4111 90.1924 52.4452L101.525 45.903C103.2 44.9371 104.565 45.5037 104.565 47.1908V51.1702C104.565 52.8444 103.2 54.9951 101.525 55.961Z" fill="#0656D7"/>
<path d="M101.525 90.8741L81.4478 102.465C79.7736 103.431 78.4084 102.864 78.4084 101.177V97.1974C78.4084 95.5232 79.7736 93.3725 81.4478 92.4067L101.525 80.8161C103.199 79.8502 104.565 80.4168 104.565 82.1039V86.0833C104.565 87.7575 103.199 89.9082 101.525 90.8741Z" fill="#0656D7"/>
<path d="M99.6583 37.7893C100.418 37.3515 101.036 36.3856 101.036 35.6258C101.036 34.8659 100.418 34.6084 99.6583 35.0462C98.8984 35.4841 98.2803 36.45 98.2803 37.2098C98.2803 37.9696 98.8984 38.2272 99.6583 37.7893Z" fill="#F5F9FF"/>
<path d="M99.6579 38.3574C98.1769 39.2203 96.9663 40.9202 96.9663 42.1566L102.349 39.0529C102.349 37.8165 101.139 37.5074 99.6579 38.3703V38.3574Z" fill="#F5F9FF"/>
<path d="M99.6583 86.8049C100.418 86.3671 101.036 85.4012 101.036 84.6414C101.036 83.8815 100.418 83.624 99.6583 84.0619C98.8984 84.4997 98.2803 85.4656 98.2803 86.2254C98.2803 86.9853 98.8984 87.2428 99.6583 86.8049Z" fill="#F5F9FF"/>
<path d="M99.6579 87.3584C98.1769 88.2213 96.9663 89.9212 96.9663 91.1575L102.349 88.0538C102.349 86.8175 101.139 86.5084 99.6579 87.3713V87.3584Z" fill="#F5F9FF"/>
<path d="M64.1649 44.0335V43.3896L63.5982 43.6343C63.5467 43.4411 63.4565 43.2737 63.3406 43.1578L63.6755 42.4881L63.2118 42.2949L62.7482 42.9131C62.555 42.9131 62.349 42.926 62.1172 43.0161L62.027 42.501L61.3831 42.8745L61.293 43.4926C61.0611 43.6729 60.8551 43.8919 60.6619 44.1237L60.1983 44.0593L59.7475 44.7805L60.0824 45.0509C59.9665 45.3085 59.8634 45.5789 59.8248 45.8365L59.2582 46.2615V46.9054L59.8248 46.6607C59.8763 46.8539 59.9665 47.0213 60.0824 47.1372L59.7475 47.8069L60.1983 48.0001L60.6619 47.3819C60.8551 47.3819 61.0611 47.3691 61.293 47.2789L61.3831 47.794L62.027 47.4206L62.1172 46.8024C62.349 46.6221 62.555 46.4032 62.7482 46.1713L63.2118 46.2357L63.6755 45.5145L63.3406 45.2441C63.4565 44.9865 63.5596 44.7161 63.5982 44.4585L64.1649 44.0335ZM61.7051 45.9267C61.2672 46.1842 60.9066 46.0297 60.9066 45.5918C60.9066 45.1539 61.2672 44.5873 61.7051 44.3297C62.1429 44.0722 62.5035 44.2267 62.5035 44.6645C62.5035 45.1024 62.1429 45.6691 61.7051 45.9267Z" fill="#F5F9FF"/>
<path d="M67.0366 44.6776V44.1754L66.5988 44.3557C66.5601 44.2011 66.4957 44.0723 66.3927 43.9822L66.6632 43.467L66.3154 43.3125L65.9419 43.789C65.8003 43.789 65.6329 43.789 65.4526 43.8663L65.3882 43.4542L64.8859 43.7375L64.8087 44.2269C64.6284 44.3685 64.4609 44.5359 64.3193 44.7162L63.9587 44.6519L63.5981 45.2185L63.8556 45.4374C63.7526 45.6435 63.6882 45.8495 63.6496 46.0427L63.1989 46.3647V46.867L63.6367 46.6866C63.6753 46.8412 63.7397 46.97 63.8428 47.0601L63.5723 47.5753L63.92 47.7298L64.2935 47.2533C64.4352 47.2533 64.6026 47.2533 64.7829 47.176L64.8473 47.5882L65.3495 47.3048L65.4268 46.8154C65.6071 46.6738 65.7745 46.5063 65.9162 46.326L66.2768 46.3905L66.6374 45.8238L66.3798 45.6049C66.4829 45.3988 66.5472 45.1927 66.5859 44.9996L67.0366 44.6776ZM65.1049 46.6094C64.5124 46.9442 64.0231 46.7382 64.0359 46.1329C64.0359 45.5276 64.5253 44.7678 65.1306 44.4329C65.7359 44.0981 66.2124 44.3041 66.1995 44.9094C66.1995 45.5147 65.7101 46.2745 65.1049 46.6094Z" fill="#F5F9FF"/>
<path d="M68.2474 41.3425V40.9948L67.9383 41.1235C67.9125 41.0205 67.861 40.9304 67.7966 40.866L67.9898 40.5054L67.7451 40.4023L67.4876 40.7372C67.3845 40.7372 67.2686 40.7372 67.1527 40.7887L67.1012 40.5054L66.7535 40.6986L66.702 41.0334C66.5732 41.1364 66.4573 41.2394 66.3543 41.3682L66.0967 41.3296L65.852 41.716L66.0323 41.8705C65.9679 42.0122 65.9164 42.1538 65.8906 42.2955L65.5815 42.5273V42.875L65.8906 42.7462C65.9164 42.8493 65.9679 42.9394 66.0323 43.0038L65.8391 43.3644L66.0838 43.4674L66.3414 43.1326C66.4444 43.1326 66.5603 43.1326 66.6762 43.0811L66.7277 43.3644L67.0754 43.1712L67.127 42.8364C67.2557 42.7334 67.3716 42.6303 67.4747 42.5015L67.7322 42.5402L67.9769 42.1538L67.7966 41.9993C67.861 41.8576 67.9125 41.7159 67.9383 41.5743L68.2474 41.3425ZM66.908 42.244C66.7277 42.347 66.5861 42.2826 66.5861 42.1023C66.5861 41.922 66.7277 41.7031 66.908 41.6001C67.0883 41.497 67.23 41.5614 67.23 41.7417C67.23 41.922 67.0883 42.141 66.908 42.244Z" fill="#F5F9FF"/>
<path d="M64.1649 85.2855V84.6416L63.5982 84.8862C63.5467 84.6931 63.4565 84.5257 63.3406 84.4097L63.6755 83.7401L63.2118 83.5469L62.7482 84.1651C62.555 84.1651 62.349 84.1779 62.1172 84.2681L62.027 83.7529L61.3831 84.1264L61.293 84.7446C61.0611 84.9249 60.8551 85.1438 60.6619 85.3756L60.1983 85.3113L59.7475 86.0324L60.0824 86.3029C59.9665 86.5604 59.8634 86.8309 59.8248 87.0884L59.2582 87.5135V88.1574L59.8248 87.9127C59.8763 88.1059 59.9665 88.2733 60.0824 88.3892L59.7475 89.0588L60.1983 89.2521L60.6619 88.6339C60.8551 88.6339 61.0611 88.621 61.293 88.5309L61.3831 89.046L62.027 88.6725L62.1172 88.0543C62.349 87.874 62.555 87.6551 62.7482 87.4233L63.2118 87.4877L63.6755 86.7665L63.3406 86.496C63.4565 86.2385 63.5596 85.9681 63.5982 85.7105L64.1649 85.2855ZM61.7051 87.1786C61.2672 87.4362 60.9066 87.2816 60.9066 86.8438C60.9066 86.4059 61.2672 85.8393 61.7051 85.5817C62.1429 85.3241 62.5035 85.4787 62.5035 85.9165C62.5035 86.3544 62.1429 86.921 61.7051 87.1786Z" fill="#F5F9FF"/>
<path d="M67.0366 85.9296V85.4273L66.5988 85.6076C66.5601 85.4531 66.4957 85.3243 66.3927 85.2341L66.6632 84.719L66.3154 84.5645L65.9419 85.0409C65.8003 85.0409 65.6329 85.0409 65.4526 85.1182L65.3882 84.7061L64.8859 84.9895L64.8087 85.4788C64.6284 85.6205 64.4609 85.7879 64.3193 85.9682L63.9587 85.9038L63.5981 86.4705L63.8556 86.6894C63.7526 86.8954 63.6882 87.1015 63.6496 87.2947L63.1989 87.6166V88.1189L63.6367 87.9386C63.6753 88.0931 63.7397 88.2219 63.8428 88.3121L63.5723 88.8272L63.92 88.9817L64.2935 88.5053C64.4352 88.5053 64.6026 88.5053 64.7829 88.428L64.8473 88.8401L65.3495 88.5568L65.4268 88.0674C65.6071 87.9257 65.7745 87.7583 65.9162 87.578L66.2768 87.6424L66.6374 87.0758L66.3798 86.8568C66.4829 86.6508 66.5472 86.4447 66.5859 86.2515L67.0366 85.9296ZM65.1049 87.8613C64.5124 88.1962 64.0231 87.9901 64.0359 87.3848C64.0359 86.7795 64.5253 86.0197 65.1306 85.6849C65.7359 85.35 66.2124 85.5561 66.1995 86.1614C66.1995 86.7667 65.7101 87.5265 65.1049 87.8613Z" fill="#F5F9FF"/>
<path d="M68.2474 82.5935V82.2458L67.9383 82.3745C67.9125 82.2715 67.861 82.1814 67.7966 82.117L67.9898 81.7564L67.7451 81.6533L67.4876 81.9882C67.3845 81.9882 67.2686 81.9882 67.1527 82.0397L67.1012 81.7564L66.7535 81.9495L66.702 82.2844C66.5732 82.3874 66.4573 82.4904 66.3543 82.6192L66.0967 82.5806L65.852 82.9669L66.0323 83.1215C65.9679 83.2631 65.9164 83.4048 65.8906 83.5465L65.5815 83.7783V84.126L65.8906 83.9972C65.9164 84.1002 65.9679 84.1904 66.0323 84.2548L65.8391 84.6154L66.0838 84.7184L66.3414 84.3836C66.4444 84.3836 66.5603 84.3836 66.6762 84.3321L66.7277 84.6154L67.0754 84.4222L67.127 84.0874C67.2557 83.9843 67.3716 83.8813 67.4747 83.7525L67.7322 83.7911L67.9769 83.4048L67.7966 83.2503C67.861 83.1086 67.9125 82.9669 67.9383 82.8253L68.2474 82.5935ZM66.908 83.495C66.7277 83.598 66.5861 83.5336 66.5861 83.3533C66.5861 83.173 66.7277 82.9541 66.908 82.851C67.0883 82.748 67.23 82.8124 67.23 82.9927C67.23 83.173 67.0883 83.3919 66.908 83.495Z" fill="#F5F9FF"/>
<path d="M69.6381 38.7801V39.3081L72.4842 37.6726V37.1445L69.6381 38.7801Z" fill="#F5F9FF"/>
<path d="M74.7891 36.3464L73.1921 37.2607V36.7328L74.7891 35.8184V36.3464Z" fill="#F5F9FF"/>
<path d="M76.8498 35.1491L75.4976 35.9347V35.4067L76.8498 34.6211V35.1491Z" fill="#F5F9FF"/>
<path d="M69.7281 40.1719V40.7128L71.5311 39.6696V39.1416L69.7281 40.1719Z" fill="#F5F9FF"/>
<path d="M73.6304 38.446L72.2395 39.2573V38.7293L73.6304 37.918V38.446Z" fill="#F5F9FF"/>
<path d="M78.4343 35.6774L74.3518 38.0342V37.5062L78.4343 35.1494V35.6774Z" fill="#F5F9FF"/>
<path d="M69.6381 41.6648V42.1929L72.4842 40.5573V40.0293L69.6381 41.6648Z" fill="#F5F9FF"/>
<path d="M74.7891 39.2321L73.1921 40.1465V39.6185L74.7891 38.7041V39.2321Z" fill="#F5F9FF"/>
<path d="M76.8498 38.0349L75.4976 38.8205V38.2924L76.8498 37.5068V38.0349Z" fill="#F5F9FF"/>
<path d="M69.7281 43.0558V43.5839L71.5311 42.5536V42.0127L69.7281 43.0558Z" fill="#F5F9FF"/>
<path d="M73.6304 41.3308L72.2395 42.1421V41.6141L73.6304 40.8027V41.3308Z" fill="#F5F9FF"/>
<path d="M78.7949 38.3571L74.3518 40.92V40.3919L78.7949 37.8291V38.3571Z" fill="#F5F9FF"/>
<path d="M80.0183 33.321L77.5585 34.7505V34.2225L80.0183 32.793V33.321Z" fill="#F5F9FF"/>
<path d="M82.3367 31.9821L80.7397 32.9094V32.3814L82.3367 31.4541V31.9821Z" fill="#F5F9FF"/>
<path d="M87.0498 29.2643L83.0575 31.5696V31.0416L87.0498 28.7363V29.2643Z" fill="#F5F9FF"/>
<path d="M81.3961 33.9782L79.1423 35.2661V34.738L81.3961 33.4502V33.9782Z" fill="#F5F9FF"/>
<path d="M83.7143 32.6384L82.1045 33.5656V33.0376L83.7143 32.1104V32.6384Z" fill="#F5F9FF"/>
<path d="M86.9984 30.745L84.4227 32.226V31.698L86.9984 30.2041V30.745Z" fill="#F5F9FF"/>
<path d="M80.0183 36.2058L77.5585 37.6352V37.0944L80.0183 35.6777V36.2058Z" fill="#F5F9FF"/>
<path d="M82.3367 34.8669L80.7397 35.7941V35.2661L82.3367 34.3389V34.8669Z" fill="#F5F9FF"/>
<path d="M86.3801 32.5358L83.0575 34.4547V33.9267L86.3801 32.0078V32.5358Z" fill="#F5F9FF"/>
<path d="M81.3962 36.8622L79.4902 37.944V37.416L81.3962 36.3213V36.8622Z" fill="#F5F9FF"/>
<path d="M83.7143 35.5224L82.1045 36.4496V35.9087L83.7143 34.9814V35.5224Z" fill="#F5F9FF"/>
<path d="M85.5174 34.4665L84.4227 35.1104V34.5695L85.5174 33.9385V34.4665Z" fill="#F5F9FF"/>
<path d="M69.6383 79.077V79.6179L72.4844 77.9694V77.4414L69.6383 79.077Z" fill="#F5F9FF"/>
<path d="M74.7893 76.6442L73.1924 77.5586V77.0306L74.7893 76.1162V76.6442Z" fill="#F5F9FF"/>
<path d="M76.85 75.4588L75.4978 76.2316V75.7035L76.85 74.918V75.4588Z" fill="#F5F9FF"/>
<path d="M69.7283 80.4826V81.0106L71.5313 79.9675V79.4395L69.7283 80.4826Z" fill="#F5F9FF"/>
<path d="M73.6304 78.7567L72.2395 79.5552V79.0272L73.6304 78.2158V78.7567Z" fill="#F5F9FF"/>
<path d="M78.0867 76.1803L74.3519 78.3439V77.803L78.0867 75.6523V76.1803Z" fill="#F5F9FF"/>
<path d="M69.6383 81.9637V82.4917L72.4844 80.8561V80.3281L69.6383 81.9637Z" fill="#F5F9FF"/>
<path d="M74.7893 79.528L73.1924 80.4424V79.9144L74.7893 79V79.528Z" fill="#F5F9FF"/>
<path d="M76.85 78.3308L75.4978 79.1163V78.5883L76.85 77.8027V78.3308Z" fill="#F5F9FF"/>
<path d="M69.7283 83.3525V83.8934L71.5313 82.8503V82.3223L69.7283 83.3525Z" fill="#F5F9FF"/>
<path d="M73.6304 81.6276L72.2395 82.439V81.911L73.6304 81.0996V81.6276Z" fill="#F5F9FF"/>
<path d="M78.4344 78.8591L74.3519 81.2158V80.6878L78.4344 78.3311V78.8591Z" fill="#F5F9FF"/>
<path d="M69.6383 84.8475V85.3755L72.4844 83.7399V83.2119L69.6383 84.8475Z" fill="#F5F9FF"/>
<path d="M74.7893 82.4138L73.1924 83.3281V82.8001L74.7893 81.8857V82.4138Z" fill="#F5F9FF"/>
<path d="M76.85 81.2155L75.4978 82.0011V81.4731L76.85 80.6875V81.2155Z" fill="#F5F9FF"/>
<path d="M69.7283 86.2395V86.7675L71.5313 85.7372V85.1963L69.7283 86.2395Z" fill="#F5F9FF"/>
<path d="M73.6304 84.5133L72.2395 85.3247V84.7967L73.6304 83.9854V84.5133Z" fill="#F5F9FF"/>
<path d="M78.795 81.5368L74.3519 84.0996V83.5716L78.795 81.0088V81.5368Z" fill="#F5F9FF"/>
<path d="M80.0185 73.6179L77.5587 75.0474V74.5194L80.0185 73.0898V73.6179Z" fill="#F5F9FF"/>
<path d="M82.3369 72.277L80.74 73.2043V72.6762L82.3369 71.749V72.277Z" fill="#F5F9FF"/>
<path d="M87.5523 69.277L83.0577 71.8656V71.3376L87.5523 68.749V69.277Z" fill="#F5F9FF"/>
<path d="M81.3964 74.2741L78.7949 75.7809V75.24L81.3964 73.7461V74.2741Z" fill="#F5F9FF"/>
<path d="M83.7144 72.9343L82.1046 73.8615V73.3335L83.7144 72.4062V72.9343Z" fill="#F5F9FF"/>
<path d="M86.3805 71.3893L84.423 72.5226V71.9946L86.3805 70.8613V71.3893Z" fill="#F5F9FF"/>
<path d="M80.0185 76.5016L77.5587 77.9311V77.4031L80.0185 75.9736V76.5016Z" fill="#F5F9FF"/>
<path d="M82.3369 75.1628L80.74 76.09V75.562L82.3369 74.6348V75.1628Z" fill="#F5F9FF"/>
<path d="M85.6205 73.2692L83.0577 74.7502V74.2222L85.6205 72.7412V73.2692Z" fill="#F5F9FF"/>
<path d="M81.3963 77.1589L79.1426 78.4596V77.9187L81.3963 76.6309V77.1589Z" fill="#F5F9FF"/>
<path d="M83.7144 75.819L82.1046 76.7462V76.2182L83.7144 75.291V75.819Z" fill="#F5F9FF"/>
<path d="M86.9987 73.9266L84.423 75.4077V74.8796L86.9987 73.3857V73.9266Z" fill="#F5F9FF"/>
<path d="M80.0185 79.3864L77.5587 80.8159V80.275L80.0185 78.8584V79.3864Z" fill="#F5F9FF"/>
<path d="M82.3369 78.0466L80.74 78.9738V78.4458L82.3369 77.5186V78.0466Z" fill="#F5F9FF"/>
<path d="M86.3804 75.7155L83.0577 77.6344V77.1064L86.3804 75.1875V75.7155Z" fill="#F5F9FF"/>
<path d="M81.3965 80.0438L79.4905 81.1256V80.5976L81.3965 79.5029V80.0438Z" fill="#F5F9FF"/>
<path d="M83.7144 78.704L82.1046 79.6312V79.0903L83.7144 78.1631V78.704Z" fill="#F5F9FF"/>
<path d="M85.5176 77.6481L84.423 78.2921V77.7511L85.5176 77.1201V77.6481Z" fill="#F5F9FF"/>
<path d="M95.2274 38.7676V39.2956L92.3812 40.9311V40.4031L95.2274 38.7676Z" fill="#F5F9FF"/>
<path d="M90.0894 42.2578L91.6734 41.3435V40.8154L90.0894 41.7298V42.2578Z" fill="#F5F9FF"/>
<path d="M88.0286 43.4562L89.3808 42.6706V42.1426L88.0286 42.9282V43.4562Z" fill="#F5F9FF"/>
<path d="M95.1374 40.249V40.7899L93.3473 41.8202V41.2922L95.1374 40.249Z" fill="#F5F9FF"/>
<path d="M91.2356 43.0435L92.6265 42.2321V41.7041L91.2356 42.5154V43.0435Z" fill="#F5F9FF"/>
<path d="M86.7924 45.6064L90.5271 43.4558V42.9277L86.7924 45.0784V45.6064Z" fill="#F5F9FF"/>
<path d="M95.2274 41.6533V42.1813L92.3812 43.8169V43.2889L95.2274 41.6533Z" fill="#F5F9FF"/>
<path d="M90.0894 45.1426L91.6734 44.2282V43.7002L90.0894 44.6146V45.1426Z" fill="#F5F9FF"/>
<path d="M88.0286 46.34L89.3808 45.5543V45.0264L88.0286 45.8119V46.34Z" fill="#F5F9FF"/>
<path d="M84.8472 45.2837L87.3198 43.867V43.3262L84.8472 44.7557V45.2837Z" fill="#F5F9FF"/>
<path d="M82.5293 46.6232L84.1391 45.696V45.168L82.5293 46.0952V46.6232Z" fill="#F5F9FF"/>
<path d="M78.0736 49.1994L81.8212 47.0358V46.5078L78.0736 48.6714V49.1994Z" fill="#F5F9FF"/>
<path d="M83.4828 47.5112L86.0842 46.0173V45.4893L83.4828 46.9832V47.5112Z" fill="#F5F9FF"/>
<path d="M81.1642 48.8517L82.774 47.9245V47.3965L81.1642 48.3237V48.8517Z" fill="#F5F9FF"/>
<path d="M79.2455 49.9588L80.4561 49.2634V48.7354L79.2455 49.4308V49.9588Z" fill="#F5F9FF"/>
<path d="M84.8472 48.1684L87.3198 46.739V46.2109L84.8472 47.6405V48.1684Z" fill="#F5F9FF"/>
<path d="M82.5293 49.508L84.1391 48.5808V48.0527L82.5293 48.98V49.508Z" fill="#F5F9FF"/>
<path d="M80.0052 50.9628L81.8211 49.9196V49.3916L80.0052 50.4348V50.9628Z" fill="#F5F9FF"/>
<path d="M59.7346 95.0457V95.5866L62.5807 93.9382V93.4102L59.7346 95.0457Z" fill="#F5F9FF"/>
<path d="M64.873 92.612L63.2889 93.5264V92.9984L64.873 92.084V92.612Z" fill="#F5F9FF"/>
<path d="M66.9462 91.4276L65.594 92.2003V91.6723L66.9462 90.8867V91.4276Z" fill="#F5F9FF"/>
<path d="M59.8245 96.4504V96.9784L61.6146 95.9352V95.4072L59.8245 96.4504Z" fill="#F5F9FF"/>
<path d="M63.7272 94.7253L62.3363 95.5237V94.9957L63.7272 94.1973V94.7253Z" fill="#F5F9FF"/>
<path d="M68.1828 92.1481L64.4352 94.3117V93.7837L68.1828 91.6201V92.1481Z" fill="#F5F9FF"/>
<path d="M59.7346 97.9305V98.4585L62.5807 96.8229V96.2949L59.7346 97.9305Z" fill="#F5F9FF"/>
<path d="M64.873 95.4977L63.2889 96.4121V95.8841L64.873 94.9697V95.4977Z" fill="#F5F9FF"/>
<path d="M66.9462 94.2985L65.594 95.0841V94.5561L66.9462 93.7705V94.2985Z" fill="#F5F9FF"/>
<path d="M70.1148 89.5866L67.655 91.0161V90.4881L70.1148 89.0586V89.5866Z" fill="#F5F9FF"/>
<path d="M72.4332 88.2468L70.8363 89.174V88.646L72.4332 87.7188V88.2468Z" fill="#F5F9FF"/>
<path d="M71.4802 90.2429L68.8788 91.7497V91.2087L71.4802 89.7148V90.2429Z" fill="#F5F9FF"/>
<path d="M73.7979 88.903L72.2009 89.8303V89.3022L73.7979 88.375V88.903Z" fill="#F5F9FF"/>
<path d="M76.4768 87.3581L74.5193 88.4914V87.9634L76.4768 86.8301V87.3581Z" fill="#F5F9FF"/>
<path d="M70.1148 92.4704L67.655 93.8999V93.3719L70.1148 91.9424V92.4704Z" fill="#F5F9FF"/>
<path d="M72.4332 91.1315L70.8363 92.0588V91.5308L72.4332 90.6035V91.1315Z" fill="#F5F9FF"/>
<path d="M75.7169 89.239L73.1541 90.72V90.1919L75.7169 88.7109V89.239Z" fill="#F5F9FF"/>
<path d="M73.1926 87.2792V87.8071L79.5932 84.1239V83.583L73.1926 87.2792Z" fill="#F5F9FF"/>
<path d="M81.8856 82.7977L80.3015 83.7121V83.1712L81.8856 82.2568V82.7977Z" fill="#F5F9FF"/>
<path d="M83.9589 81.6003L82.6067 82.3859V81.845L83.9589 81.0723V81.6003Z" fill="#F5F9FF"/>
<path d="M77.1202 86.4558V86.9838L78.6399 86.1081V85.5801L77.1202 86.4558Z" fill="#F5F9FF"/>
<path d="M80.739 84.8972L79.3481 85.6956V85.1676L80.739 84.3691V84.8972Z" fill="#F5F9FF"/>
<path d="M85.195 82.3348L81.4602 84.4855V83.9575L85.195 81.7939V82.3348Z" fill="#F5F9FF"/>
<path d="M76.7466 88.1162V88.6442L79.5927 86.9958V86.4678L76.7466 88.1162Z" fill="#F5F9FF"/>
<path d="M81.8856 85.6696L80.3015 86.584V86.056L81.8856 85.1416V85.6696Z" fill="#F5F9FF"/>
<path d="M83.9589 84.4851L82.6067 85.2578V84.7297L83.9589 83.957V84.4851Z" fill="#F5F9FF"/>
<path d="M87.1274 79.7723L84.6676 81.189V80.6609L87.1274 79.2314V79.7723Z" fill="#F5F9FF"/>
<path d="M102.195 48.0664V48.5944L99.3484 50.23V49.702L102.195 48.0664Z" fill="#F5F9FF"/>
<path d="M97.0433 51.5695L98.6402 50.6423V50.1143L97.0433 51.0286V51.5695Z" fill="#F5F9FF"/>
<path d="M94.9825 52.7541L96.3348 51.9813V51.4404L94.9825 52.226V52.7541Z" fill="#F5F9FF"/>
<path d="M102.104 49.5605V50.0886L100.301 51.1188V50.5908L102.104 49.5605Z" fill="#F5F9FF"/>
<path d="M98.2024 52.3433L99.5933 51.5319V51.0039L98.2024 51.8153V52.3433Z" fill="#F5F9FF"/>
<path d="M93.7463 54.9053L97.4811 52.7546V52.2266L93.7463 54.3772V54.9053Z" fill="#F5F9FF"/>
<path d="M102.195 50.9521V51.4802L99.3484 53.1158V52.5877L102.195 50.9521Z" fill="#F5F9FF"/>
<path d="M97.0433 54.4405L98.6402 53.5261V52.998L97.0433 53.9124V54.4405Z" fill="#F5F9FF"/>
<path d="M94.9825 55.6388L96.3348 54.8532V54.3252L94.9825 55.1108V55.6388Z" fill="#F5F9FF"/>
<path d="M102.104 52.4326V52.9735L100.301 54.0037V53.4758L102.104 52.4326Z" fill="#F5F9FF"/>
<path d="M98.2024 55.2261L99.5933 54.4147V53.8867L98.2024 54.6981V55.2261Z" fill="#F5F9FF"/>
<path d="M93.3984 57.9953L97.4809 55.6386V55.0977L93.3984 57.4673V57.9953Z" fill="#F5F9FF"/>
<path d="M91.8146 54.5833L94.2743 53.1667V52.6387L91.8146 54.0553V54.5833Z" fill="#F5F9FF"/>
<path d="M89.4966 55.9221L91.0935 54.9948V54.4668L89.4966 55.394V55.9221Z" fill="#F5F9FF"/>
<path d="M90.4366 56.8248L93.0381 55.3181V54.79L90.4366 56.2839V56.8248Z" fill="#F5F9FF"/>
<path d="M91.8146 57.4683L94.2743 56.0517V55.5107L91.8146 56.9403V57.4683Z" fill="#F5F9FF"/>
<path d="M95.2795 86.9463V87.4743L92.4463 89.1099V88.5818L95.2795 86.9463Z" fill="#F5F9FF"/>
<path d="M90.1411 90.4365L91.7252 89.5222V88.9941L90.1411 89.9085V90.4365Z" fill="#F5F9FF"/>
<path d="M88.0804 91.6339L89.4327 90.8483V90.3203L88.0804 91.1059V91.6339Z" fill="#F5F9FF"/>
<path d="M95.2019 88.4404V88.9685L93.3989 89.9987V89.4707L95.2019 88.4404Z" fill="#F5F9FF"/>
<path d="M91.3002 91.2222L92.691 90.4108V89.8828L91.3002 90.6942V91.2222Z" fill="#F5F9FF"/>
<path d="M86.8441 93.7842L90.5789 91.6335V91.1055L86.8441 93.2561V93.7842Z" fill="#F5F9FF"/>
<path d="M95.2795 89.8311V90.3591L92.4463 91.9946V91.4666L95.2795 89.8311Z" fill="#F5F9FF"/>
<path d="M90.1411 93.3203L91.7252 92.406V91.8779L90.1411 92.7923V93.3203Z" fill="#F5F9FF"/>
<path d="M88.0804 94.5187L89.4327 93.7331V93.2051L88.0804 93.9907V94.5187Z" fill="#F5F9FF"/>
<path d="M95.2019 91.3125V91.8534L93.3989 92.8837V92.3557L95.2019 91.3125Z" fill="#F5F9FF"/>
<path d="M91.3002 94.106L92.691 93.2946V92.7666L91.3002 93.5651V94.106Z" fill="#F5F9FF"/>
<path d="M86.4962 96.8752L90.5787 94.5185V93.9775L86.4962 96.3472V96.8752Z" fill="#F5F9FF"/>
<path d="M84.8994 93.4632L87.3721 92.0466V91.5186L84.8994 92.9352V93.4632Z" fill="#F5F9FF"/>
<path d="M81.1647 95.6271L84.1911 93.8757V93.3477L81.1647 95.0991V95.6271Z" fill="#F5F9FF"/>
<path d="M83.5341 95.7047L86.1355 94.1979V93.6699L83.5341 95.1638V95.7047Z" fill="#F5F9FF"/>
<path d="M81.2164 97.0433L82.8262 96.1161V95.5752L81.2164 96.5024V97.0433Z" fill="#F5F9FF"/>
<path d="M84.8994 96.3481L87.3721 94.9315V94.3906L84.8994 95.8201V96.3481Z" fill="#F5F9FF"/>
<path d="M82.5813 97.6877L84.1911 96.7604V96.2324L82.5813 97.1597V97.6877Z" fill="#F5F9FF"/>
<path d="M83.5341 98.5758L85.7878 97.288V96.7471L83.5341 98.0478V98.5758Z" fill="#F5F9FF"/>
</svg>
