<svg width="118" height="104" viewBox="0 0 118 104" fill="none" xmlns="http://www.w3.org/2000/svg">
<g style="mix-blend-mode:multiply" opacity="0.5">
<path d="M115.644 81.264L43.1256 39.1397C41.6376 38.273 39.3985 38.0996 37.5928 38.6197C35.787 38.1141 33.5624 38.273 32.06 39.1397L2.14249 56.4026C0.250078 57.5005 0.23564 59.2773 2.12806 60.3608L74.6465 102.485C75.6866 103.092 77.1023 103.352 78.4603 103.28C79.6015 103.222 80.7427 103.222 81.8839 103.28C83.2563 103.352 84.6575 103.092 85.7121 102.485L115.63 85.2222C117.522 84.1243 117.536 82.3475 115.658 81.264H115.644Z" fill="#003893"/>
</g>
<path d="M117.045 79.2849V83.2864C117.045 84.0087 116.568 84.731 115.615 85.2799L85.6973 102.557C83.8048 103.655 80.7423 103.655 78.8643 102.557L6.34584 60.433C5.40685 59.884 4.94458 59.1762 4.94458 58.4683V54.4668L117.059 79.2849H117.045Z" fill="url(#paint0_linear_179_3334)"/>
<path d="M73.765 99.5964L72.8115 99.0474V91.9834L73.765 92.5323V99.5964Z" fill="#C9C6C1"/>
<path d="M12.5437 64.0301L11.5758 63.4811V56.6338L12.5437 57.1827V64.0301Z" fill="#C9C6C1"/>
<path d="M6.36075 52.473C4.46834 53.5709 4.4539 55.3477 6.34632 56.4312L78.8648 98.5555C80.7428 99.6534 83.8053 99.6534 85.6977 98.5555L115.615 81.2926C117.508 80.1947 117.522 78.4179 115.644 77.3344L43.1256 35.2101C41.2477 34.1122 38.1851 34.1122 36.2783 35.2101L6.36075 52.473Z" fill="#E5ECF8"/>
<path d="M82.288 99.0323C83.5159 99.0323 84.686 98.7579 85.5384 98.2522L115.456 80.9749C116.265 80.5127 116.713 79.9059 116.713 79.2703C116.713 78.6491 116.279 78.0569 115.47 77.5801L42.9518 35.4559C42.085 34.9503 40.9438 34.6758 39.7015 34.6758C38.4591 34.6758 37.3179 34.9503 36.4511 35.4559L6.53364 52.7332C5.72467 53.1954 5.27686 53.8022 5.27686 54.4378C5.27686 55.059 5.71023 55.6513 6.5192 56.128L79.0377 98.2522C79.9044 98.7579 81.0457 99.0323 82.288 99.0323Z" fill="#003893"/>
<path d="M55.3177 87.9246L64.1152 93.0095C64.722 93.3707 65.2276 93.154 65.2276 92.5328C65.2276 91.9117 64.7364 91.1316 64.1152 90.7849L55.3177 85.6999C54.711 85.3388 54.2053 85.5555 54.2053 86.1622C54.2053 86.7689 54.6965 87.5634 55.3177 87.9101V87.9246Z" fill="#BAC1CC"/>
<path d="M89.9589 97.8052C90.1322 97.8052 90.19 97.993 90.0889 98.2242C89.9878 98.4553 89.7711 98.6431 89.5977 98.6431C89.4244 98.6431 89.3666 98.4553 89.4677 98.2242C89.5688 97.993 89.7855 97.8052 89.9589 97.8052ZM91.0712 97.2852C90.9701 97.5163 91.0279 97.7041 91.2013 97.7041C91.3746 97.7041 91.5913 97.5163 91.6924 97.2852C91.7935 97.054 91.7358 96.8662 91.5624 96.8662C91.3891 96.8662 91.1724 97.054 91.0712 97.2852ZM92.6892 96.3462C92.5881 96.5773 92.6458 96.7651 92.8192 96.7651C92.9925 96.7651 93.2092 96.5773 93.3103 96.3462C93.4115 96.1151 93.3537 95.9273 93.1803 95.9273C93.007 95.9273 92.7903 96.1151 92.6892 96.3462ZM94.3071 95.4072C94.206 95.6383 94.2638 95.8261 94.4371 95.8261C94.6105 95.8261 94.8272 95.6383 94.9283 95.4072C95.0294 95.1761 94.9716 94.9883 94.7983 94.9883C94.6249 94.9883 94.4082 95.1761 94.3071 95.4072Z" fill="#838D9F"/>
<path d="M106.168 88.4595C106.341 88.4595 106.399 88.6473 106.298 88.8785C106.196 89.1096 105.98 89.2974 105.806 89.2974C105.633 89.2974 105.575 89.1096 105.676 88.8785C105.777 88.6473 105.994 88.4595 106.168 88.4595ZM107.28 87.9395C107.179 88.1706 107.237 88.3584 107.41 88.3584C107.583 88.3584 107.8 88.1706 107.901 87.9395C108.002 87.7083 107.944 87.5205 107.771 87.5205C107.598 87.5205 107.381 87.7083 107.28 87.9395ZM108.898 87.0005C108.797 87.2316 108.854 87.4194 109.028 87.4194C109.201 87.4194 109.418 87.2316 109.519 87.0005C109.62 86.7694 109.562 86.5816 109.389 86.5816C109.216 86.5816 108.999 86.7694 108.898 87.0005ZM110.516 86.0615C110.415 86.2926 110.472 86.4804 110.646 86.4804C110.819 86.4804 111.036 86.2926 111.137 86.0615C111.238 85.8304 111.18 85.6426 111.007 85.6426C110.834 85.6426 110.617 85.8304 110.516 86.0615Z" fill="#838D9F"/>
<path d="M98.6556 93.7024L101.646 91.9833C102.022 91.7666 102.325 91.2899 102.325 90.9143C102.325 90.5387 102.022 90.4087 101.646 90.6254L98.6556 92.3445C98.2801 92.5612 97.9767 93.0379 97.9767 93.4135C97.9767 93.7891 98.2801 93.9191 98.6556 93.7024Z" fill="#838D9F"/>
<path d="M22.4967 66.978L22.7856 66.8046C22.54 66.6602 22.3233 66.6457 22.1644 66.7468L21.8755 66.9202C22.0344 66.8335 22.2511 66.848 22.4967 66.978Z" fill="#D6DBE4"/>
<path d="M32.089 72.5098L32.3779 72.3365L22.7859 66.8037L22.4969 66.9771L32.089 72.5098Z" fill="#CED3DB"/>
<path d="M32.6954 74.5635L32.9843 74.3902C33.1432 74.3035 33.2299 74.1013 33.2299 73.8412C33.2299 73.2923 32.8398 72.6133 32.3631 72.3389L32.0742 72.5122C32.5509 72.7867 32.941 73.4656 32.941 74.0146C32.941 74.2891 32.8398 74.4769 32.6809 74.5635H32.6954Z" fill="#D6DBE4"/>
<path d="M22.4967 66.9772C22.02 66.7027 21.63 66.9194 21.63 67.4683C21.63 68.0173 22.02 68.6962 22.4967 68.9707L32.0888 74.5035C32.5655 74.778 32.9556 74.5613 32.9556 74.0123C32.9556 73.4634 32.5655 72.7844 32.0888 72.5099L22.4967 66.9772Z" fill="#A2ACBD"/>
<path d="M19.0584 49.8581L32.9409 41.8406C34.2988 41.0605 34.2988 39.7893 32.9409 39.0092L31.6552 38.2725L12.8467 49.1358L14.1324 49.8725C15.4903 50.6526 17.6861 50.6526 19.044 49.8725L19.0584 49.8581Z" fill="#1B161E"/>
<path d="M20.8356 46.4063C21.0667 46.5363 21.4279 46.5363 21.659 46.4063L26.9606 43.3438C27.1918 43.2137 27.1918 42.9971 26.9606 42.867C26.7295 42.737 26.3684 42.737 26.1372 42.867L20.8356 45.9296C20.6044 46.0596 20.6044 46.2763 20.8356 46.4063Z" fill="#0D0B0F"/>
<path d="M17.2964 47.8509C17.1664 48.1254 17.4553 48.4143 17.932 48.4866C18.4088 48.5588 18.9144 48.3999 19.0444 48.111C19.1744 47.8365 18.8855 47.5476 18.4088 47.4753C17.9321 47.4031 17.4265 47.562 17.2964 47.8509Z" fill="#0D0B0F"/>
<path d="M82.2882 94.208C81.0314 94.208 79.8468 93.919 78.9656 93.4134L6.4471 51.2892C5.5948 50.798 5.11808 50.1479 5.13252 49.469C5.13252 48.79 5.60925 48.1255 6.476 47.6343L36.3935 30.357C37.2891 29.837 38.4737 29.5625 39.7305 29.5625C40.9873 29.5625 42.1718 29.8514 43.053 30.357L115.572 72.4813C116.424 72.9725 116.886 73.6225 116.886 74.3015C116.886 74.9949 116.409 75.645 115.543 76.1361L85.6252 93.399C84.7295 93.919 83.5449 94.1935 82.2882 94.1935V94.208ZM39.7016 29.8803C38.5026 29.8803 37.3614 30.1548 36.5235 30.6315L6.60601 47.9088C5.84038 48.3422 5.42146 48.9056 5.42146 49.469C5.42146 50.0324 5.82593 50.5813 6.57711 51.0147L79.0956 93.139C79.9335 93.6301 81.0603 93.8902 82.2593 93.8902C83.4583 93.8902 84.5995 93.6157 85.4374 93.139L115.355 75.8617C116.121 75.4283 116.539 74.8649 116.539 74.3015C116.539 73.7381 116.12 73.1892 115.384 72.7558L42.8652 30.6315C42.0274 30.1403 40.9006 29.8803 39.7016 29.8803Z" fill="#9FFFFA"/>
<path d="M82.2886 88.7913C83.5165 88.7913 84.6867 88.5169 85.539 88.0112L115.456 70.7484C116.265 70.2861 116.713 69.6794 116.713 69.0438C116.713 68.4226 116.28 67.8303 115.471 67.3536L42.9524 25.2293C42.0856 24.7237 40.9444 24.4492 39.7021 24.4492C38.4597 24.4492 37.3185 24.7237 36.4518 25.2293L6.53425 42.4922C5.72528 42.9544 5.27747 43.5612 5.27747 44.1968C5.27747 44.818 5.71084 45.4102 6.51982 45.887L79.0383 88.0112C79.9051 88.5169 81.0463 88.7913 82.2886 88.7913Z" fill="#2774F1"/>
<g style="mix-blend-mode:color-dodge">
<path d="M51.2157 30.2276L57.8031 26.4283C58.7565 25.8794 60.2878 25.8794 61.2412 26.4283L67.7852 30.2276C68.7242 30.7765 68.7242 31.6722 67.7852 32.2211L61.1978 36.0204C60.2444 36.5693 58.7131 36.5693 57.7597 36.0204L51.2157 32.2211C50.2767 31.6722 50.2767 30.7765 51.2157 30.2276Z" fill="#2673F0"/>
</g>
<g style="mix-blend-mode:screen">
<path d="M36.8705 21.9356L43.4578 18.1363C44.4113 17.5874 45.9425 17.5874 46.896 18.1363L53.44 21.9356C54.3789 22.4845 54.3789 23.3802 53.44 23.9291L46.8526 27.7284C45.8992 28.2773 44.3679 28.2773 43.4145 27.7284L36.8705 23.9291C35.9315 23.3802 35.9315 22.4845 36.8705 21.9356Z" fill="#3DC4BD"/>
</g>
<g style="mix-blend-mode:color-dodge">
<path d="M37.015 38.4327L43.6024 34.6334C44.5558 34.0844 46.0871 34.0844 47.0405 34.6334L53.5845 38.4327C54.5235 38.9816 54.5235 39.8773 53.5845 40.4262L46.9972 44.2255C46.0437 44.7744 44.5125 44.7744 43.559 44.2255L37.015 40.4262C36.076 39.8773 36.076 38.9816 37.015 38.4327Z" fill="#2673F0"/>
</g>
<g style="mix-blend-mode:screen">
<path d="M22.6701 30.1416L29.2574 26.3424C30.2108 25.7934 31.7421 25.7934 32.6955 26.3424L39.2395 30.1416C40.1785 30.6906 40.1785 31.5862 39.2395 32.1352L32.6522 35.9345C31.6987 36.4834 30.1675 36.4834 29.2141 35.9345L22.6701 32.1352C21.7311 31.5862 21.7311 30.6906 22.6701 30.1416Z" fill="#3DC4BD"/>
</g>
<g style="mix-blend-mode:color-dodge">
<path d="M22.8147 46.6241L29.402 42.8248C30.3555 42.2758 31.8867 42.2758 32.8402 42.8248L39.3842 46.6241C40.3232 47.173 40.3232 48.0687 39.3842 48.6176L32.7968 52.4169C31.8434 52.9658 30.3121 52.9658 29.3587 52.4169L22.8147 48.6176C21.8757 48.0687 21.8757 47.173 22.8147 46.6241Z" fill="#2673F0"/>
</g>
<g style="mix-blend-mode:screen">
<path d="M8.46962 38.3321L15.057 34.5328C16.0104 33.9839 17.5416 33.9839 18.4951 34.5328L25.0391 38.3321C25.9781 38.881 25.9781 39.7767 25.0391 40.3256L18.4517 44.1249C17.4983 44.6738 15.967 44.6738 15.0136 44.1249L8.46962 40.3256C7.53063 39.7767 7.53063 38.881 8.46962 38.3321Z" fill="#3DC4BD"/>
</g>
<path d="M51.2151 30.2702L57.7591 34.0695C58.6981 34.6184 60.2438 34.6184 61.1972 34.0695L67.7846 30.2702C68.2613 29.9957 68.5069 29.6346 68.5069 29.2734V30.6458C68.5069 31.0069 68.2757 31.3681 67.799 31.6426L61.2117 35.4418C60.2583 35.9908 58.727 35.9908 57.7736 35.4418L51.2296 31.6426C50.7528 31.3681 50.5217 31.0069 50.5217 30.6602V29.2879C50.5217 29.649 50.7528 29.9957 51.2296 30.2702H51.2151Z" fill="#9FFFFA"/>
<path d="M59.5364 24.3764C60.1286 24.3764 60.6776 24.5064 61.0821 24.752L67.6261 28.5513C67.9728 28.7535 68.175 29.0135 68.175 29.2591C68.175 29.5191 67.9728 29.7792 67.6261 29.9814L61.0388 33.7807C60.6343 34.0118 60.0709 34.1418 59.4786 34.1418C58.8863 34.1418 58.3374 34.0118 57.9184 33.7662L51.3744 29.967C51.0277 29.7647 50.8255 29.5047 50.8255 29.2591C50.8255 28.9991 51.0277 28.7391 51.3744 28.5368L57.9618 24.7376C58.3807 24.5064 58.9296 24.362 59.5219 24.362L59.5364 24.3764ZM59.5364 24.0586C58.9152 24.0586 58.294 24.2031 57.8173 24.4775L51.23 28.2768C50.2765 28.8257 50.2765 29.7214 51.23 30.2703L57.774 34.0696C58.2507 34.3441 58.8719 34.4885 59.493 34.4885C60.1142 34.4885 60.7354 34.3441 61.2121 34.0841L67.7994 30.2848C68.7529 29.7358 68.7529 28.8402 67.7994 28.2912L61.2554 24.492C60.7787 24.2175 60.1575 24.073 59.5364 24.073V24.0586Z" fill="#9FFFFA"/>
<path d="M36.856 10.9255L43.4 14.7248C44.339 15.2737 45.8847 15.2737 46.8381 14.7248L53.4254 10.9255C53.9022 10.651 54.1477 10.2899 54.1477 9.92871V11.3011C54.1477 11.6622 53.9166 12.0234 53.4399 12.2978L46.8526 16.0971C45.8991 16.6461 44.3679 16.6461 43.4144 16.0971L36.8704 12.2978C36.3937 12.0234 36.1626 11.6622 36.1626 11.3155V9.94315C36.1626 10.3043 36.3937 10.651 36.8704 10.9255H36.856Z" fill="#9FFFFA"/>
<path d="M36.8704 8.94731L43.4577 5.14804C44.4111 4.59909 45.9424 4.59909 46.8958 5.14804L53.4398 8.94731C54.3788 9.49626 54.3788 10.3919 53.4398 10.9408L46.8525 14.7401C45.8991 15.2891 44.3678 15.2891 43.4144 14.7401L36.8704 10.9408C35.9314 10.3919 35.9314 9.49626 36.8704 8.94731Z" fill="#2673F0"/>
<path d="M37.0147 38.4626L43.5587 42.2619C44.4977 42.8108 46.0434 42.8108 46.9968 42.2619L53.5842 38.4626C54.0609 38.1881 54.3064 37.827 54.3064 37.4658V38.8382C54.3064 39.1993 54.0753 39.5605 53.5986 39.8349L47.0113 43.6342C46.0578 44.1832 44.5266 44.1832 43.5731 43.6342L37.0291 39.8349C36.5524 39.5605 36.3213 39.1993 36.3213 38.8526V37.4803C36.3213 37.8414 36.5524 38.1881 37.0291 38.4626H37.0147Z" fill="#9FFFFA"/>
<path d="M45.3358 32.5834C45.9281 32.5834 46.477 32.7134 46.8815 32.959L53.4255 36.7583C53.7722 36.9605 53.9745 37.2206 53.9745 37.4662C53.9745 37.7262 53.7722 37.9862 53.4255 38.1884L46.8382 41.9877C46.4337 42.2189 45.8703 42.3633 45.278 42.3633C44.6857 42.3633 44.1368 42.2333 43.7179 41.9877L37.1739 38.1884C36.8272 37.9862 36.6249 37.7262 36.6249 37.4806C36.6249 37.2206 36.8272 36.9605 37.1739 36.7583L43.7612 32.959C44.1802 32.7279 44.7291 32.5834 45.3214 32.5834H45.3358ZM45.3358 32.2656C44.7147 32.2656 44.0935 32.4101 43.6168 32.6846L37.0294 36.4838C36.076 37.0328 36.076 37.9284 37.0294 38.4774L43.5734 42.2766C44.0501 42.5511 44.6713 42.6956 45.2925 42.6956C45.9137 42.6956 46.5348 42.5511 47.0116 42.2911L53.5989 38.4918C54.5523 37.9429 54.5523 37.0472 53.5989 36.4983L47.0549 32.699C46.5782 32.4245 45.957 32.2801 45.3358 32.2801V32.2656Z" fill="#9FFFFA"/>
<path d="M22.6556 24.1296L29.1996 27.9289C30.1385 28.4778 31.6843 28.4778 32.6377 27.9289L39.225 24.1296C39.7017 23.8551 39.9473 23.494 39.9473 23.1328V24.5052C39.9473 24.8663 39.7162 25.2275 39.2395 25.5019L32.6521 29.3012C31.6987 29.8502 30.1674 29.8502 29.214 29.3012L22.67 25.5019C22.1933 25.2275 21.9622 24.8663 21.9622 24.5196V23.1473C21.9622 23.5084 22.1933 23.8551 22.67 24.1296H22.6556Z" fill="#9FFFFA"/>
<path d="M22.6701 22.1514L29.2574 18.3521C30.2108 17.8032 31.7421 17.8032 32.6955 18.3521L39.2395 22.1514C40.1785 22.7004 40.1785 23.596 39.2395 24.145L32.6522 27.9442C31.6987 28.4932 30.1675 28.4932 29.2141 27.9442L22.6701 24.145C21.7311 23.596 21.7311 22.7004 22.6701 22.1514Z" fill="#2673F0"/>
<path d="M22.8146 46.6677L29.3586 50.4669C30.2976 51.0159 31.8433 51.0159 32.7967 50.4669L39.3841 46.6677C39.8608 46.3932 40.1064 46.032 40.1064 45.6709V47.0433C40.1064 47.4044 39.8752 47.7656 39.3985 48.04L32.8112 51.8393C31.8578 52.3882 30.3265 52.3882 29.3731 51.8393L22.8291 48.04C22.3523 47.7656 22.1212 47.4044 22.1212 47.0577V45.6853C22.1212 46.0465 22.3523 46.3932 22.8291 46.6677H22.8146Z" fill="#9FFFFA"/>
<path d="M31.1355 40.7729C31.7278 40.7729 32.2767 40.9029 32.6812 41.1485L39.2252 44.9478C39.5719 45.15 39.7742 45.41 39.7742 45.6556C39.7742 45.9156 39.5719 46.1757 39.2252 46.3779L32.6379 50.1772C32.2334 50.4083 31.67 50.5383 31.0777 50.5383C30.4854 50.5383 29.9365 50.4083 29.5176 50.1627L22.9736 46.3635C22.6269 46.1612 22.4246 45.9012 22.4246 45.6556C22.4246 45.3956 22.6269 45.1356 22.9736 44.9333L29.5609 41.134C29.9798 40.9029 30.5288 40.7584 31.121 40.7584L31.1355 40.7729ZM31.1355 40.4551C30.5143 40.4551 29.8932 40.5995 29.4164 40.874L22.8291 44.6733C21.8757 45.2222 21.8757 46.1179 22.8291 46.6668L29.3731 50.4661C29.8498 50.7406 30.471 50.885 31.0922 50.885C31.7133 50.885 32.3345 50.7406 32.8112 50.4805L39.3986 46.6813C40.352 46.1323 40.352 45.2367 39.3986 44.6877L32.8546 40.8885C32.3778 40.614 31.7567 40.4695 31.1355 40.4695V40.4551Z" fill="#9FFFFA"/>
<path d="M8.45536 37.3913L14.9994 41.1906C15.9383 41.7395 17.4841 41.7395 18.4375 41.1906L25.0248 37.3913C25.5015 37.1168 25.7471 36.7557 25.7471 36.3945V37.7669C25.7471 38.128 25.516 38.4892 25.0393 38.7637L18.4519 42.5629C17.4985 43.1119 15.9672 43.1119 15.0138 42.5629L8.46982 38.7637C7.99311 38.4892 7.76196 38.128 7.76196 37.7813V36.409C7.76196 36.7701 7.99311 37.1168 8.46982 37.3913H8.45536Z" fill="#9FFFFA"/>
<path d="M8.46974 35.4131L15.0571 31.6139C16.0105 31.0649 17.5418 31.0649 18.4952 31.6139L25.0392 35.4131C25.9782 35.9621 25.9782 36.8577 25.0392 37.4067L18.4519 41.2059C17.4984 41.7549 15.9672 41.7549 15.0137 41.2059L8.46974 37.4067C7.53076 36.8577 7.53076 35.9621 8.46974 35.4131Z" fill="#2673F0"/>
<g style="mix-blend-mode:color-dodge">
<path d="M66.297 38.9375L72.8843 35.1383C73.8378 34.5893 75.369 34.5893 76.3225 35.1383L82.8665 38.9375C83.8055 39.4865 83.8055 40.3821 82.8665 40.9311L76.2791 44.7304C75.3257 45.2793 73.7944 45.2793 72.841 44.7304L66.297 40.9311C65.358 40.3821 65.358 39.4865 66.297 38.9375Z" fill="#2673F0"/>
</g>
<g style="mix-blend-mode:color-dodge">
<path d="M52.0966 47.129L58.6839 43.3297C59.6373 42.7807 61.1686 42.7807 62.122 43.3297L68.666 47.129C69.605 47.6779 69.605 48.5735 68.666 49.1225L62.0787 52.9218C61.1253 53.4707 59.594 53.4707 58.6406 52.9218L52.0966 49.1225C51.1576 48.5735 51.1576 47.6779 52.0966 47.129Z" fill="#2673F0"/>
</g>
<g style="mix-blend-mode:color-dodge">
<path d="M37.8961 55.335L44.4835 51.5357C45.4369 50.9868 46.9681 50.9868 47.9216 51.5357L54.4656 55.335C55.4046 55.8839 55.4046 56.7796 54.4656 57.3285L47.8782 61.1278C46.9248 61.6768 45.3936 61.6768 44.4402 61.1278L37.8961 57.3285C36.9571 56.7796 36.9571 55.8839 37.8961 55.335Z" fill="#2673F0"/>
</g>
<g style="mix-blend-mode:color-dodge">
<path d="M81.0752 47.461L87.6625 43.6617C88.616 43.1128 90.1472 43.1128 91.1007 43.6617L97.6447 47.461C98.5837 48.0099 98.5837 48.9056 97.6447 49.4545L91.0573 53.2538C90.1039 53.8027 88.5726 53.8027 87.6192 53.2538L81.0752 49.4545C80.1362 48.9056 80.1362 48.0099 81.0752 47.461Z" fill="#2673F0"/>
</g>
<g style="mix-blend-mode:color-dodge">
<path d="M66.8746 55.667L73.462 51.8678C74.4154 51.3188 75.9466 51.3188 76.9001 51.8678L83.4441 55.667C84.3831 56.216 84.3831 57.1116 83.4441 57.6606L76.8567 61.4599C75.9033 62.0088 74.3721 62.0088 73.4186 61.4599L66.8746 57.6606C65.9357 57.1116 65.9357 56.216 66.8746 55.667Z" fill="#2673F0"/>
</g>
<g style="mix-blend-mode:color-dodge">
<path d="M52.6743 63.8575L59.2617 60.0582C60.2151 59.5092 61.7464 59.5092 62.6998 60.0582L69.2438 63.8575C70.1828 64.4064 70.1828 65.3021 69.2438 65.851L62.6565 69.6503C61.703 70.1992 60.1718 70.1992 59.2183 69.6503L52.6743 65.851C51.7353 65.3021 51.7353 64.4064 52.6743 63.8575Z" fill="#2673F0"/>
</g>
<g style="mix-blend-mode:color-dodge">
<path d="M96.2146 56.2012L102.802 52.4019C103.755 51.853 105.287 51.853 106.24 52.4019L112.784 56.2012C113.723 56.7502 113.723 57.6458 112.784 58.1948L106.197 61.994C105.243 62.543 103.712 62.543 102.759 61.994L96.2146 58.1948C95.2756 57.6458 95.2756 56.7502 96.2146 56.2012Z" fill="#2673F0"/>
</g>
<g style="mix-blend-mode:color-dodge">
<path d="M82.0139 64.4053L88.6013 60.606C89.5547 60.0571 91.086 60.0571 92.0394 60.606L98.5834 64.4053C99.5224 64.9543 99.5224 65.8499 98.5834 66.3989L91.9961 70.1981C91.0426 70.7471 89.5114 70.7471 88.5579 70.1981L82.0139 66.3989C81.0749 65.8499 81.0749 64.9543 82.0139 64.4053Z" fill="#2673F0"/>
</g>
<g style="mix-blend-mode:color-dodge">
<path d="M67.8135 72.5967L74.4008 68.7975C75.3543 68.2485 76.8855 68.2485 77.839 68.7975L84.383 72.5967C85.3219 73.1457 85.3219 74.0413 84.383 74.5903L77.7956 78.3895C76.8422 78.9385 75.3109 78.9385 74.3575 78.3895L67.8135 74.5903C66.8745 74.0413 66.8745 73.1457 67.8135 72.5967Z" fill="#2673F0"/>
</g>
<path d="M66.2819 38.9655L72.8259 42.7648C73.7649 43.3137 75.3106 43.3137 76.2641 42.7648L82.8514 38.9655C83.3281 38.691 83.5737 38.3299 83.5737 37.9688V39.3411C83.5737 39.7023 83.3425 40.0634 82.8658 40.3379L76.2785 44.1372C75.325 44.6861 73.7938 44.6861 72.8403 44.1372L66.2963 40.3379C65.8196 40.0634 65.5885 39.7023 65.5885 39.3556V37.9832C65.5885 38.3443 65.8196 38.691 66.2963 38.9655H66.2819Z" fill="#9FFFFA"/>
<path d="M74.6029 33.0864C75.1952 33.0864 75.7441 33.2164 76.1486 33.462L82.6926 37.2612C83.0393 37.4635 83.2416 37.7235 83.2416 37.9691C83.2416 38.2291 83.0393 38.4891 82.6926 38.6914L76.1053 42.4907C75.7008 42.7218 75.1374 42.8663 74.5451 42.8663C73.9529 42.8663 73.4039 42.7362 72.985 42.4907L66.441 38.6914C66.0943 38.4891 65.892 38.2291 65.892 37.9835C65.892 37.7235 66.0943 37.4635 66.441 37.2612L73.0283 33.462C73.4472 33.2308 73.9962 33.0864 74.5885 33.0864H74.6029ZM74.6029 32.7686C73.9817 32.7686 73.3605 32.913 72.8838 33.1875L66.2965 36.9868C65.3431 37.5357 65.3431 38.4314 66.2965 38.9803L72.8405 42.7796C73.3172 43.054 73.9384 43.1985 74.5596 43.1985C75.1807 43.1985 75.8019 43.054 76.2786 42.794L82.866 38.9947C83.8194 38.4458 83.8194 37.5502 82.866 37.0012L76.322 33.2019C75.8452 32.9275 75.2241 32.783 74.6029 32.783V32.7686Z" fill="#9FFFFA"/>
<path d="M52.0823 47.1716L58.6263 50.9708C59.5653 51.5198 61.111 51.5198 62.0644 50.9708L68.6518 47.1716C69.1285 46.8971 69.3741 46.536 69.3741 46.1748V47.5472C69.3741 47.9083 69.1429 48.2695 68.6662 48.5439L62.0789 52.3432C61.1255 52.8922 59.5942 52.8922 58.6407 52.3432L52.0968 48.5439C51.62 48.2695 51.3889 47.9083 51.3889 47.5616V46.1892C51.3889 46.5504 51.62 46.8971 52.0968 47.1716H52.0823Z" fill="#9FFFFA"/>
<path d="M60.4034 41.2924C60.9957 41.2924 61.5447 41.4224 61.9492 41.668L68.4932 45.4673C68.8399 45.6695 69.0421 45.9296 69.0421 46.1751C69.0421 46.4352 68.8399 46.6952 68.4932 46.8974L61.9058 50.6967C61.5013 50.9278 60.9379 51.0723 60.3456 51.0723C59.7534 51.0723 59.2044 50.9423 58.7855 50.6967L52.2415 46.8974C51.8948 46.6952 51.6925 46.4352 51.6925 46.1896C51.6925 45.9296 51.8948 45.6695 52.2415 45.4673L58.8288 41.668C59.2478 41.4369 59.7967 41.2924 60.389 41.2924H60.4034ZM60.4034 40.9746C59.7823 40.9746 59.1611 41.1191 58.6844 41.3935L52.097 45.1928C51.1436 45.7418 51.1436 46.6374 52.097 47.1864L58.641 50.9856C59.1177 51.2601 59.7389 51.4046 60.3601 51.4046C60.9813 51.4046 61.6024 51.2601 62.0792 51.0001L68.6665 47.2008C69.6199 46.6519 69.6199 45.7562 68.6665 45.2073L62.1225 41.408C61.6458 41.1335 61.0246 40.9891 60.4034 40.9891V40.9746Z" fill="#9FFFFA"/>
<path d="M37.8818 55.363L44.4258 59.1623C45.3648 59.7112 46.9105 59.7112 47.8639 59.1623L54.4512 55.363C54.928 55.0885 55.1735 54.7274 55.1735 54.3662V55.7386C55.1735 56.0997 54.9424 56.4609 54.4657 56.7353L47.8783 60.5346C46.9249 61.0836 45.3937 61.0836 44.4402 60.5346L37.8962 56.7353C37.4195 56.4609 37.1884 56.0997 37.1884 55.753V54.3807C37.1884 54.7418 37.4195 55.0885 37.8962 55.363H37.8818Z" fill="#9FFFFA"/>
<path d="M46.2028 49.4838C46.7951 49.4838 47.3441 49.6138 47.7486 49.8594L54.2926 53.6587C54.6393 53.8609 54.8415 54.121 54.8415 54.3665C54.8415 54.6266 54.6393 54.8866 54.2926 55.0888L47.7052 58.8881C47.3007 59.1192 46.7374 59.2637 46.1451 59.2637C45.5528 59.2637 45.0038 59.1337 44.5849 58.8881L38.0409 55.0888C37.6942 54.8866 37.492 54.6266 37.492 54.381C37.492 54.121 37.6942 53.8609 38.0409 53.6587L44.6282 49.8594C45.0472 49.6283 45.5961 49.4838 46.1884 49.4838H46.2028ZM46.2028 49.166C45.5817 49.166 44.9605 49.3105 44.4838 49.5849L37.8965 53.3842C36.943 53.9332 36.943 54.8288 37.8965 55.3778L44.4405 59.177C44.9172 59.4515 45.5383 59.596 46.1595 59.596C46.7807 59.596 47.4019 59.466 47.8786 59.1915L54.4659 55.3922C55.4193 54.8433 55.4193 53.9476 54.4659 53.3987L47.9219 49.5994C47.4452 49.3249 46.824 49.1805 46.2028 49.1805V49.166Z" fill="#9FFFFA"/>
<path d="M45.1195 11.6786C44.4694 11.6786 43.8194 11.5342 43.3282 11.2453L36.7842 7.44598C36.2786 7.15706 36.0042 6.75257 36.0042 6.3192C36.0042 5.88582 36.2931 5.48133 36.7987 5.17797L36.8854 5.32243L36.7987 5.17797L43.386 1.37869C44.3828 0.800853 46.0007 0.800853 46.983 1.37869L53.527 5.17797C54.0326 5.46689 54.3071 5.87137 54.3071 6.30475C54.3071 6.73812 54.0182 7.14261 53.5126 7.44598L46.9252 11.2453C46.4341 11.5342 45.784 11.6786 45.1195 11.6786ZM45.1773 1.26312C44.585 1.26312 43.9927 1.39314 43.5449 1.65316L36.9576 5.45244C36.5531 5.68357 36.322 5.98694 36.322 6.30475C36.322 6.62256 36.5386 6.92592 36.9431 7.15706L43.4871 10.9563C44.3828 11.4764 45.8563 11.4764 46.7664 10.9563L53.3537 7.15706C53.7582 6.92592 53.9893 6.62256 53.9893 6.30475C53.9893 5.98694 53.7726 5.68357 53.3681 5.45244L46.8241 1.65316C46.3763 1.39314 45.784 1.26312 45.1918 1.26312H45.1773Z" fill="#9FFFFA"/>
<path d="M30.919 24.8827C30.2689 24.8827 29.6188 24.7383 29.1277 24.4494L22.5837 20.6501C22.0781 20.3612 21.8036 19.9567 21.8036 19.5233C21.8036 19.0899 22.0925 18.6854 22.5981 18.3821L29.1855 14.5828C30.1822 14.005 31.8002 14.005 32.7825 14.5828L39.3265 18.3821C39.8321 18.671 40.1066 19.0755 40.1066 19.5088C40.1066 19.9422 39.8176 20.3467 39.312 20.6501L32.7247 24.4494C32.2335 24.7383 31.5835 24.8827 30.919 24.8827ZM22.7426 18.6565C22.3381 18.8877 22.1069 19.191 22.1069 19.5088C22.1069 19.8267 22.3236 20.13 22.7281 20.3612L29.2721 24.1604C30.1678 24.6805 31.6413 24.6805 32.5514 24.1604L39.1387 20.3612C39.5432 20.13 39.7743 19.8267 39.7743 19.5088C39.7743 19.191 39.5576 18.8877 39.1531 18.6565L32.6091 14.8573C31.7135 14.3372 30.24 14.3372 29.3299 14.8573L22.7426 18.6565Z" fill="#9FFFFA"/>
<path d="M16.7185 38.1435C16.0685 38.1435 15.4184 37.999 14.9272 37.7101L8.38322 33.9108C7.87761 33.6219 7.60315 33.2174 7.60315 32.784C7.60315 32.3507 7.89207 31.9462 8.39768 31.6428L14.985 27.8435C15.9818 27.2657 17.5997 27.2657 18.5821 27.8435L25.1261 31.6428C25.6317 31.9317 25.9061 32.3362 25.9061 32.7696C25.9061 33.203 25.6172 33.6075 25.1116 33.9108L18.5243 37.7101C18.0331 37.999 17.383 38.1435 16.733 38.1435H16.7185ZM16.7763 27.728C16.184 27.728 15.5917 27.858 15.1439 28.118L8.55659 31.9173C8.1521 32.1484 7.92096 32.4518 7.92096 32.7696C7.92096 33.0874 8.13764 33.3908 8.54212 33.6219L15.0861 37.4212C15.9818 37.9412 17.4553 37.9412 18.3509 37.4212L24.9382 33.6219C25.3427 33.3908 25.5739 33.0874 25.5739 32.7696C25.5739 32.4518 25.3572 32.1484 24.9527 31.9173L18.4087 28.118C17.9609 27.858 17.3686 27.728 16.7763 27.728Z" fill="#9FFFFA"/>
<defs>
<linearGradient id="paint0_linear_179_3334" x1="49.3802" y1="78.9237" x2="118.331" y2="78.9237" gradientUnits="userSpaceOnUse">
<stop offset="0.4" stop-color="#A2ACBD"/>
<stop offset="0.58" stop-color="#BBC2CD"/>
</linearGradient>
</defs>
</svg>
