<svg width="134" height="151" viewBox="0 0 134 151" fill="none" xmlns="http://www.w3.org/2000/svg">
<g style="mix-blend-mode:multiply" opacity="0.5">
<path d="M36.5923 127.47L28.4564 132.385H30.1334C31.2624 132.385 31.0466 133.082 29.6353 133.929L15.771 142.314C14.3596 143.161 12.3007 143.858 11.1717 143.858H9.49469L1.35875 148.773C-0.218619 149.72 -0.451078 150.5 0.810822 150.5H68.5549C69.8168 150.5 72.1247 149.736 73.6855 148.773L108.919 127.454C110.496 126.507 110.729 125.727 109.467 125.727H41.7229C40.461 125.727 38.1531 126.491 36.5923 127.454V127.47Z" fill="#003893"/>
</g>
<path d="M102.958 0.915098C103.788 0.915098 104.27 1.49626 104.27 2.49249V104.324C104.27 106.084 102.825 108.359 101.032 109.389L58.3764 134.012C57.8285 134.328 57.3138 134.494 56.8655 134.494C56.0353 134.494 55.5538 133.913 55.5538 132.916V31.0845C55.5538 29.3244 56.9983 27.0497 58.7915 26.0203L68.0233 20.6904V22.5002C68.0233 23.8285 68.7871 24.6919 69.9826 24.6919C70.5139 24.6919 71.1283 24.5093 71.726 24.1606L88.5126 14.4639C90.3556 13.4013 91.8168 11.0933 91.8168 9.23369V6.94234L101.464 1.38001C102.012 1.06453 102.526 0.898504 102.975 0.898504L102.958 0.915098ZM102.958 0.5C102.46 0.5 101.862 0.666052 101.248 1.03134L91.4017 6.70988V9.23369C91.4017 10.9439 90.0235 13.119 88.3133 14.0986L71.5268 23.7953C70.9622 24.1274 70.4309 24.2769 69.9826 24.2769C69.0528 24.2769 68.4384 23.6293 68.4384 22.5002V19.9764L58.5923 25.655C56.6994 26.7508 55.1553 29.175 55.1553 31.0845V132.916C55.1553 134.195 55.8526 134.909 56.8821 134.909C57.3802 134.909 57.9779 134.743 58.5923 134.378L101.248 109.754C103.141 108.658 104.685 106.234 104.685 104.324V2.49249C104.685 1.21399 103.987 0.5 102.958 0.5Z" fill="#0656D7"/>
<path d="M110.496 5.28192C111.326 5.28192 111.808 5.86305 111.808 6.85929V108.691C111.808 110.451 110.363 112.726 108.57 113.755L65.9145 138.379C65.3666 138.695 64.8519 138.861 64.4036 138.861C63.5734 138.861 63.0919 138.279 63.0919 137.283V35.4513C63.0919 33.6913 64.5364 31.4165 66.3296 30.3871L75.5614 25.0572V26.867C75.5614 28.1954 76.3252 29.0588 77.5207 29.0588C78.052 29.0588 78.6664 28.8761 79.2641 28.5274L96.0507 18.8307C97.8937 17.7681 99.3549 15.4601 99.3549 13.6005V11.3092L109.002 5.74683C109.55 5.43135 110.064 5.26532 110.513 5.26532L110.496 5.28192ZM110.496 4.86682C109.998 4.86682 109.4 5.03287 108.786 5.39816L98.9398 11.0767V13.6005C98.9398 15.3107 97.5616 17.4858 95.8514 18.4655L79.0648 28.1621C78.5003 28.4942 77.969 28.6437 77.5207 28.6437C76.5909 28.6437 75.9765 27.9961 75.9765 26.867V24.3432L66.1304 30.0218C64.2375 31.1176 62.6934 33.5418 62.6934 35.4513V137.283C62.6934 138.562 63.3907 139.276 64.4202 139.276C64.9183 139.276 65.516 139.11 66.1304 138.744L108.786 114.121C110.679 113.025 112.223 110.601 112.223 108.691V6.85929C112.223 5.58079 111.526 4.86682 110.496 4.86682Z" fill="#3DC4BD"/>
<path d="M116.507 9.84799L106.661 15.5265V18.0503C106.661 19.7606 105.283 21.9357 103.572 22.9153L86.7858 32.612C85.0756 33.5916 83.6975 33.0105 83.6975 31.3003V28.7765L73.8513 34.455C71.9585 35.5509 70.4143 37.9751 70.4143 39.8845V141.716C70.4143 143.609 71.9585 144.273 73.8513 143.178L116.507 118.554C118.4 117.458 119.944 115.034 119.944 113.124V11.2925C119.944 9.39968 118.4 8.73554 116.507 9.8314V9.84799Z" fill="#F5F9FF"/>
<path opacity="0.5" d="M102.576 105.404L70.3979 123.983V99.7417L102.576 81.1618C104.735 79.9166 106.495 80.6471 106.495 82.8222V99.2269C106.495 101.385 104.735 104.158 102.576 105.404ZM119.944 99.7417L95.5363 113.838C93.3778 115.084 91.6178 117.857 91.6178 120.015V125.146C91.6178 127.304 93.3778 128.051 95.5363 126.806L119.944 112.709V99.7417ZM70.4146 47.1238V60.0914L102.593 41.5116C104.751 40.2663 106.512 37.4935 106.512 35.335V30.2044C106.512 28.0458 104.751 27.2987 102.593 28.544L70.4146 47.1238ZM87.4502 59.3941V64.5247C87.4502 66.6832 89.2102 67.4304 91.3687 66.1851L119.944 49.6808V36.7131L91.3687 53.2174C89.2102 54.4627 87.4502 57.2356 87.4502 59.3941ZM102.892 68.493V73.6236C102.892 75.7822 104.652 76.5293 106.81 75.284L119.961 67.6961V54.7118L106.81 62.2998C104.652 63.5451 102.892 66.318 102.892 68.4765V68.493Z" fill="#BBC2CD"/>
<path d="M129.79 53.6659L99.7364 71.017C97.5779 72.2623 95.8179 71.5317 95.8179 69.3566V64.226C95.8179 62.0675 97.5779 59.2946 99.7364 58.0494L129.79 40.6982C131.948 39.4529 133.708 40.1835 133.708 42.3586V47.4892C133.708 49.6477 131.948 52.4206 129.79 53.6659Z" fill="#0656D7"/>
<path d="M110.944 46.36L77.3209 65.77C75.1624 67.0153 73.4023 66.2847 73.4023 64.1096V58.979C73.4023 56.8205 75.1624 54.0476 77.3209 52.8023L110.944 33.3923C113.102 32.147 114.862 32.8776 114.862 35.0527V40.1833C114.862 42.3418 113.102 45.1147 110.944 46.36Z" fill="#3DC4BD"/>
<path d="M110.944 110.235L77.3209 129.645C75.1624 130.891 73.4023 130.16 73.4023 127.985V111.58C73.4023 109.422 75.1624 106.649 77.3209 105.404L110.944 85.9936C113.102 84.7483 114.862 85.4789 114.862 87.654V104.059C114.862 106.217 113.102 108.99 110.944 110.235Z" fill="#3DC4BD"/>
<path d="M129.79 71.681L115.178 80.1158C113.02 81.3611 111.26 80.6305 111.26 78.4554V73.3248C111.26 71.1663 113.02 68.3934 115.178 67.1481L129.79 58.7134C131.948 57.4681 133.708 58.1986 133.708 60.3737V65.5044C133.708 67.6629 131.948 70.4357 129.79 71.681Z" fill="#0656D7"/>
<path d="M129.79 116.694L103.904 131.638C101.746 132.883 99.9856 132.153 99.9856 129.977V124.847C99.9856 122.688 101.746 119.915 103.904 118.67L129.79 103.727C131.948 102.481 133.708 103.212 133.708 105.387V110.518C133.708 112.676 131.948 115.449 129.79 116.694Z" fill="#0656D7"/>
<path d="M127.383 48.2529C128.362 47.6884 129.159 46.4431 129.159 45.4635C129.159 44.4838 128.362 44.1518 127.383 44.7163C126.403 45.2809 125.606 46.5261 125.606 47.5058C125.606 48.4854 126.403 48.8175 127.383 48.2529Z" fill="#F5F9FF"/>
<path d="M127.382 48.9835C125.473 50.096 123.912 52.2877 123.912 53.8817L130.853 49.8802C130.853 48.2862 129.292 47.8877 127.382 49.0002V48.9835Z" fill="#F5F9FF"/>
<path d="M127.383 111.448C128.362 110.883 129.159 109.638 129.159 108.658C129.159 107.678 128.362 107.346 127.383 107.911C126.403 108.475 125.606 109.721 125.606 110.7C125.606 111.68 126.403 112.012 127.383 111.448Z" fill="#F5F9FF"/>
<path d="M127.382 112.162C125.473 113.274 123.912 115.466 123.912 117.06L130.853 113.058C130.853 111.464 129.292 111.066 127.382 112.178V112.162Z" fill="#F5F9FF"/>
<path d="M81.622 56.3059V55.4757L80.8914 55.7912C80.825 55.5421 80.7088 55.3263 80.5593 55.1768L80.991 54.3134L80.3933 54.0643L79.7956 54.8613C79.5465 54.8613 79.2808 54.8779 78.9819 54.9941L78.8657 54.33L78.0355 54.8115L77.9193 55.6085C77.6204 55.841 77.3548 56.1232 77.1057 56.4221L76.508 56.3391L75.9268 57.2689L76.3585 57.6176C76.2091 57.9497 76.0763 58.2983 76.0265 58.6304L75.2959 59.1784V60.0086L76.0265 59.6931C76.0929 59.9421 76.2091 60.158 76.3585 60.3074L75.9268 61.1708L76.508 61.4199L77.1057 60.6229C77.3548 60.6229 77.6204 60.6063 77.9193 60.4901L78.0355 61.1542L78.8657 60.6727L78.9819 59.8757C79.2808 59.6433 79.5465 59.361 79.7956 59.0621L80.3933 59.1451L80.991 58.2153L80.5593 57.8666C80.7088 57.5346 80.8416 57.1859 80.8914 56.8538L81.622 56.3059ZM78.4506 58.7467C77.8861 59.0787 77.4212 58.8795 77.4212 58.3149C77.4212 57.7504 77.8861 57.0199 78.4506 56.6878C79.0152 56.3557 79.4801 56.5549 79.4801 57.1194C79.4801 57.684 79.0152 58.4146 78.4506 58.7467Z" fill="#F5F9FF"/>
<path d="M85.3244 57.136V56.4885L84.7599 56.7209C84.7101 56.5216 84.6271 56.3556 84.4942 56.2394L84.8429 55.5752L84.3946 55.376L83.9131 55.9903C83.7304 55.9903 83.5146 55.9903 83.2822 56.0899L83.1991 55.5586L82.5516 55.9239L82.452 56.5548C82.2195 56.7375 82.0036 56.9533 81.821 57.1858L81.3561 57.1028L80.8912 57.8334L81.2233 58.1156C81.0904 58.3813 81.0074 58.6469 80.9576 58.896L80.3765 59.3111V59.9587L80.941 59.7262C80.9908 59.9254 81.0738 60.0915 81.2067 60.2077L80.858 60.8719L81.3063 61.0711L81.7878 60.4568C81.9704 60.4568 82.1863 60.4568 82.4187 60.3572L82.5018 60.8885L83.1493 60.5232L83.2489 59.8923C83.4814 59.7096 83.6973 59.4937 83.8799 59.2613L84.3448 59.3443L84.8097 58.6138L84.4776 58.3315C84.6105 58.0658 84.6935 57.8001 84.7433 57.5511L85.3244 57.136ZM82.8338 59.6266C82.0701 60.0583 81.4391 59.7926 81.4557 59.0122C81.4557 58.2319 82.0867 57.2522 82.8671 56.8205C83.6474 56.3888 84.2618 56.6545 84.2452 57.4348C84.2452 58.2152 83.6142 59.1949 82.8338 59.6266Z" fill="#F5F9FF"/>
<path d="M86.8855 52.8356V52.3874L86.487 52.5534C86.4538 52.4205 86.3874 52.3043 86.3044 52.2213L86.5534 51.7564L86.238 51.6235L85.9059 52.0553C85.7731 52.0553 85.6236 52.0553 85.4742 52.1217L85.4078 51.7564L84.9595 52.0054L84.893 52.4372C84.727 52.57 84.5776 52.7028 84.4447 52.8688L84.1127 52.819L83.7972 53.3172L84.0296 53.5164C83.9466 53.6991 83.8802 53.8817 83.847 54.0643L83.4485 54.3632V54.8115L83.847 54.6455C83.8802 54.7783 83.9466 54.8945 84.0296 54.9776L83.7806 55.4425L84.096 55.5753L84.4281 55.1436C84.561 55.1436 84.7104 55.1436 84.8598 55.0772L84.9262 55.4425L85.3745 55.1934L85.441 54.7617C85.607 54.6289 85.7564 54.496 85.8893 54.33L86.2213 54.3798L86.5368 53.8817L86.3044 53.6825C86.3874 53.4998 86.4538 53.3171 86.487 53.1345L86.8855 52.8356ZM85.1587 53.9979C84.9262 54.1308 84.7436 54.0477 84.7436 53.8153C84.7436 53.5828 84.9262 53.3006 85.1587 53.1677C85.3911 53.0349 85.5738 53.1179 85.5738 53.3504C85.5738 53.5828 85.3911 53.8651 85.1587 53.9979Z" fill="#F5F9FF"/>
<path d="M81.622 109.488V108.658L80.8914 108.974C80.825 108.724 80.7088 108.509 80.5593 108.359L80.991 107.496L80.3933 107.247L79.7956 108.044C79.5465 108.044 79.2808 108.06 78.9819 108.177L78.8657 107.512L78.0355 107.994L77.9193 108.791C77.6204 109.023 77.3548 109.306 77.1057 109.604L76.508 109.521L75.9268 110.451L76.3585 110.8C76.2091 111.132 76.0763 111.481 76.0265 111.813L75.2959 112.361V113.191L76.0265 112.875C76.0929 113.125 76.2091 113.34 76.3585 113.49L75.9268 114.353L76.508 114.602L77.1057 113.805C77.3548 113.805 77.6204 113.789 77.9193 113.672L78.0355 114.337L78.8657 113.855L78.9819 113.058C79.2808 112.826 79.5465 112.543 79.7956 112.245L80.3933 112.328L80.991 111.398L80.5593 111.049C80.7088 110.717 80.8416 110.368 80.8914 110.036L81.622 109.488ZM78.4506 111.929C77.8861 112.261 77.4212 112.062 77.4212 111.497C77.4212 110.933 77.8861 110.202 78.4506 109.87C79.0152 109.538 79.4801 109.737 79.4801 110.302C79.4801 110.866 79.0152 111.597 78.4506 111.929Z" fill="#F5F9FF"/>
<path d="M85.3244 110.318V109.671L84.7599 109.903C84.7101 109.704 84.6271 109.538 84.4942 109.422L84.8429 108.758L84.3946 108.558L83.9131 109.173C83.7304 109.173 83.5146 109.173 83.2822 109.272L83.1991 108.741L82.5516 109.106L82.452 109.737C82.2195 109.92 82.0036 110.136 81.821 110.368L81.3561 110.285L80.8912 111.016L81.2233 111.298C81.0904 111.564 81.0074 111.829 80.9576 112.078L80.3765 112.493V113.141L80.941 112.909C80.9908 113.108 81.0738 113.274 81.2067 113.39L80.858 114.054L81.3063 114.253L81.7878 113.639C81.9704 113.639 82.1863 113.639 82.4187 113.54L82.5018 114.071L83.1493 113.706L83.2489 113.075C83.4814 112.892 83.6973 112.676 83.8799 112.444L84.3448 112.527L84.8097 111.796L84.4776 111.514C84.6105 111.248 84.6935 110.983 84.7433 110.733L85.3244 110.318ZM82.8338 112.809C82.0701 113.241 81.4391 112.975 81.4557 112.195C81.4557 111.414 82.0867 110.435 82.8671 110.003C83.6474 109.571 84.2618 109.837 84.2452 110.617C84.2452 111.398 83.6142 112.377 82.8338 112.809Z" fill="#F5F9FF"/>
<path d="M86.8855 106.018V105.57L86.487 105.736C86.4538 105.603 86.3874 105.487 86.3044 105.404L86.5534 104.939L86.238 104.806L85.9059 105.238C85.7731 105.238 85.6236 105.238 85.4742 105.304L85.4078 104.939L84.9595 105.188L84.893 105.62C84.727 105.752 84.5776 105.885 84.4447 106.051L84.1127 106.001L83.7972 106.5L84.0296 106.699C83.9466 106.881 83.8802 107.064 83.847 107.247L83.4485 107.546V107.994L83.847 107.828C83.8802 107.961 83.9466 108.077 84.0296 108.16L83.7806 108.625L84.096 108.758L84.4281 108.326C84.561 108.326 84.7104 108.326 84.8598 108.26L84.9262 108.625L85.3745 108.376L85.441 107.944C85.607 107.811 85.7564 107.678 85.8893 107.512L86.2213 107.562L86.5368 107.064L86.3044 106.865C86.3874 106.682 86.4538 106.5 86.487 106.317L86.8855 106.018ZM85.1587 107.18C84.9262 107.313 84.7436 107.23 84.7436 106.998C84.7436 106.765 84.9262 106.483 85.1587 106.35C85.3911 106.217 85.5738 106.3 85.5738 106.533C85.5738 106.765 85.3911 107.047 85.1587 107.18Z" fill="#F5F9FF"/>
<path d="M88.6782 49.5315V50.2122L92.3477 48.1035V47.4227L88.6782 49.5315Z" fill="#F5F9FF"/>
<path d="M95.3192 46.3933L93.2603 47.5722V46.8914L95.3192 45.7125V46.3933Z" fill="#F5F9FF"/>
<path d="M97.9761 44.8491L96.2327 45.8619V45.1812L97.9761 44.1683V44.8491Z" fill="#F5F9FF"/>
<path d="M88.7939 51.3246V52.022L91.1185 50.6771V49.9963L88.7939 51.3246Z" fill="#F5F9FF"/>
<path d="M93.8252 49.0997L92.032 50.1458V49.465L93.8252 48.4189V49.0997Z" fill="#F5F9FF"/>
<path d="M100.019 45.5299L94.7556 48.5684V47.8876L100.019 44.8491V45.5299Z" fill="#F5F9FF"/>
<path d="M88.6782 53.2508V53.9315L92.3477 51.8229V51.1421L88.6782 53.2508Z" fill="#F5F9FF"/>
<path d="M95.3192 50.1127L93.2603 51.2915V50.6108L95.3192 49.4319V50.1127Z" fill="#F5F9FF"/>
<path d="M97.9761 48.5685L96.2327 49.5813V48.9006L97.9761 47.8877V48.5685Z" fill="#F5F9FF"/>
<path d="M88.7939 55.0439V55.7247L91.1185 54.3964V53.699L88.7939 55.0439Z" fill="#F5F9FF"/>
<path d="M93.8252 52.819L92.032 53.865V53.1842L93.8252 52.1382V52.819Z" fill="#F5F9FF"/>
<path d="M100.484 48.9835L94.7556 52.2877V51.607L100.484 48.3027V48.9835Z" fill="#F5F9FF"/>
<path d="M102.061 42.4914L98.8899 44.3344V43.6537L102.061 41.8107V42.4914Z" fill="#F5F9FF"/>
<path d="M105.05 40.7646L102.991 41.9601V41.2793L105.05 40.0839V40.7646Z" fill="#F5F9FF"/>
<path d="M111.127 37.2611L105.979 40.2332V39.5524L111.127 36.5803V37.2611Z" fill="#F5F9FF"/>
<path d="M103.838 43.3381L100.932 44.9985V44.3177L103.838 42.6573V43.3381Z" fill="#F5F9FF"/>
<path d="M106.826 41.6113L104.751 42.8068V42.126L106.826 40.9305V41.6113Z" fill="#F5F9FF"/>
<path d="M111.061 39.1706L107.74 41.0801V40.3993L111.061 38.4733V39.1706Z" fill="#F5F9FF"/>
<path d="M102.061 46.2107L98.8899 48.0537V47.3564L102.061 45.5299V46.2107Z" fill="#F5F9FF"/>
<path d="M105.05 44.4839L102.991 45.6794V44.9986L105.05 43.8031V44.4839Z" fill="#F5F9FF"/>
<path d="M110.263 41.4785L105.979 43.9525V43.2717L110.263 40.7977V41.4785Z" fill="#F5F9FF"/>
<path d="M103.838 47.0574L101.38 48.4522V47.7715L103.838 46.3601V47.0574Z" fill="#F5F9FF"/>
<path d="M106.826 45.3307L104.751 46.5262V45.8288L106.826 44.6333V45.3307Z" fill="#F5F9FF"/>
<path d="M109.151 43.9691L107.74 44.7993V44.1019L109.151 43.2883V43.9691Z" fill="#F5F9FF"/>
<path d="M88.6782 101.485V102.183L92.3477 100.057V99.3765L88.6782 101.485Z" fill="#F5F9FF"/>
<path d="M95.3192 98.347L93.2603 99.5259V98.8451L95.3192 97.6663V98.347Z" fill="#F5F9FF"/>
<path d="M97.9761 96.8195L96.2327 97.8158V97.135L97.9761 96.1222V96.8195Z" fill="#F5F9FF"/>
<path d="M88.7939 103.295V103.976L91.1185 102.631V101.95L88.7939 103.295Z" fill="#F5F9FF"/>
<path d="M93.8252 101.07L92.032 102.1V101.419L93.8252 100.373V101.07Z" fill="#F5F9FF"/>
<path d="M99.5708 97.7493L94.7556 100.539V99.8414L99.5708 97.0686V97.7493Z" fill="#F5F9FF"/>
<path d="M88.6782 105.205V105.885L92.3477 103.777V103.096L88.6782 105.205Z" fill="#F5F9FF"/>
<path d="M95.3192 102.066L93.2603 103.245V102.565L95.3192 101.386V102.066Z" fill="#F5F9FF"/>
<path d="M97.9761 100.522L96.2327 101.535V100.854L97.9761 99.8414V100.522Z" fill="#F5F9FF"/>
<path d="M88.7939 106.998V107.695L91.1185 106.35V105.669L88.7939 106.998Z" fill="#F5F9FF"/>
<path d="M93.8252 104.773L92.032 105.819V105.138L93.8252 104.092V104.773Z" fill="#F5F9FF"/>
<path d="M100.019 101.203L94.7556 104.241V103.561L100.019 100.522V101.203Z" fill="#F5F9FF"/>
<path d="M88.6782 108.924V109.605L92.3477 107.496V106.815L88.6782 108.924Z" fill="#F5F9FF"/>
<path d="M95.3192 105.786L93.2603 106.965V106.284L95.3192 105.105V105.786Z" fill="#F5F9FF"/>
<path d="M97.9761 104.241L96.2327 105.254V104.574L97.9761 103.561V104.241Z" fill="#F5F9FF"/>
<path d="M88.7939 110.717V111.398L91.1185 110.069V109.372L88.7939 110.717Z" fill="#F5F9FF"/>
<path d="M93.8252 108.492L92.032 109.538V108.857L93.8252 107.811V108.492Z" fill="#F5F9FF"/>
<path d="M100.484 104.657L94.7556 107.961V107.28L100.484 103.976V104.657Z" fill="#F5F9FF"/>
<path d="M102.061 94.4452L98.8899 96.2882V95.6075L102.061 93.7644V94.4452Z" fill="#F5F9FF"/>
<path d="M105.05 92.7183L102.991 93.9138V93.233L105.05 92.0376V92.7183Z" fill="#F5F9FF"/>
<path d="M111.774 88.8496L105.979 92.187V91.5062L111.774 88.1688V88.8496Z" fill="#F5F9FF"/>
<path d="M103.838 95.2919L100.484 97.2345V96.5371L103.838 94.6111V95.2919Z" fill="#F5F9FF"/>
<path d="M106.826 93.565L104.751 94.7605V94.0798L106.826 92.8843V93.565Z" fill="#F5F9FF"/>
<path d="M110.264 91.5726L107.74 93.0337V92.3529L110.264 90.8918V91.5726Z" fill="#F5F9FF"/>
<path d="M102.061 98.1644L98.8899 100.007V99.3267L102.061 97.4836V98.1644Z" fill="#F5F9FF"/>
<path d="M105.05 96.4376L102.991 97.6331V96.9523L105.05 95.7568V96.4376Z" fill="#F5F9FF"/>
<path d="M109.284 93.9968L105.979 95.9063V95.2255L109.284 93.316V93.9968Z" fill="#F5F9FF"/>
<path d="M103.838 99.0112L100.932 100.688V99.9908L103.838 98.3304V99.0112Z" fill="#F5F9FF"/>
<path d="M106.826 97.2844L104.751 98.4798V97.7991L106.826 96.6036V97.2844Z" fill="#F5F9FF"/>
<path d="M111.061 94.8436L107.74 96.7531V96.0723L111.061 94.1462V94.8436Z" fill="#F5F9FF"/>
<path d="M102.061 101.884L98.8899 103.727V103.029L102.061 101.203V101.884Z" fill="#F5F9FF"/>
<path d="M105.05 100.157L102.991 101.352V100.672L105.05 99.4761V100.157Z" fill="#F5F9FF"/>
<path d="M110.263 97.1516L105.979 99.6256V98.9448L110.263 96.4708V97.1516Z" fill="#F5F9FF"/>
<path d="M103.838 102.73L101.38 104.125V103.444L103.838 102.033V102.73Z" fill="#F5F9FF"/>
<path d="M106.826 101.004L104.751 102.199V101.502L106.826 100.306V101.004Z" fill="#F5F9FF"/>
<path d="M109.151 99.6422L107.74 100.472V99.775L109.151 98.9614V99.6422Z" fill="#F5F9FF"/>
<path d="M121.67 49.5149V50.1957L118 52.3043V51.6236L121.67 49.5149Z" fill="#F5F9FF"/>
<path d="M115.046 54.0145L117.088 52.8357V52.1549L115.046 53.3338V54.0145Z" fill="#F5F9FF"/>
<path d="M112.389 55.5587L114.132 54.5459V53.8651L112.389 54.878V55.5587Z" fill="#F5F9FF"/>
<path d="M121.554 51.4243V52.1217L119.246 53.45V52.7692L121.554 51.4243Z" fill="#F5F9FF"/>
<path d="M116.523 55.0274L118.316 53.9813V53.3005L116.523 54.3466V55.0274Z" fill="#F5F9FF"/>
<path d="M110.795 58.3315L115.61 55.5587V54.8779L110.795 57.6508V58.3315Z" fill="#F5F9FF"/>
<path d="M121.67 53.2341V53.9149L118 56.0236V55.3429L121.67 53.2341Z" fill="#F5F9FF"/>
<path d="M115.046 57.7338L117.088 56.5549V55.8741L115.046 57.0531V57.7338Z" fill="#F5F9FF"/>
<path d="M112.389 59.2781L114.132 58.2652V57.5845L112.389 58.5973V59.2781Z" fill="#F5F9FF"/>
<path d="M108.287 57.9165L111.475 56.09V55.3927L108.287 57.2357V57.9165Z" fill="#F5F9FF"/>
<path d="M105.299 59.6433L107.374 58.4479V57.7671L105.299 58.9626V59.6433Z" fill="#F5F9FF"/>
<path d="M99.554 62.9641L104.386 60.1747V59.4939L99.554 62.2833V62.9641Z" fill="#F5F9FF"/>
<path d="M106.528 60.789L109.882 58.8629V58.1821L106.528 60.1082V60.789Z" fill="#F5F9FF"/>
<path d="M103.539 62.5157L105.614 61.3203V60.6395L103.539 61.835V62.5157Z" fill="#F5F9FF"/>
<path d="M101.065 63.9437L102.626 63.0471V62.3663L101.065 63.263V63.9437Z" fill="#F5F9FF"/>
<path d="M108.287 61.6357L111.475 59.7927V59.1119L108.287 60.955V61.6357Z" fill="#F5F9FF"/>
<path d="M105.299 63.3626L107.374 62.1671V61.4863L105.299 62.6818V63.3626Z" fill="#F5F9FF"/>
<path d="M102.044 65.2388L104.386 63.8939V63.2131L102.044 64.558V65.2388Z" fill="#F5F9FF"/>
<path d="M75.9097 122.074V122.771L79.5791 120.646V119.965L75.9097 122.074Z" fill="#F5F9FF"/>
<path d="M82.5345 118.936L80.4922 120.115V119.434L82.5345 118.255V118.936Z" fill="#F5F9FF"/>
<path d="M85.2075 117.408L83.4641 118.405V117.724L85.2075 116.711V117.408Z" fill="#F5F9FF"/>
<path d="M76.0254 123.884V124.565L78.3333 123.22V122.539L76.0254 123.884Z" fill="#F5F9FF"/>
<path d="M81.0571 121.659L79.2639 122.688V122.008L81.0571 120.978V121.659Z" fill="#F5F9FF"/>
<path d="M86.8015 118.338L81.9697 121.128V120.447L86.8015 117.657V118.338Z" fill="#F5F9FF"/>
<path d="M75.9097 125.793V126.474L79.5791 124.365V123.685L75.9097 125.793Z" fill="#F5F9FF"/>
<path d="M82.5345 122.655L80.4922 123.834V123.153L82.5345 121.974V122.655Z" fill="#F5F9FF"/>
<path d="M85.2075 121.111L83.4641 122.124V121.443L85.2075 120.43V121.111Z" fill="#F5F9FF"/>
<path d="M89.2927 115.034L86.1213 116.877V116.196L89.2927 114.353V115.034Z" fill="#F5F9FF"/>
<path d="M92.2818 113.307L90.2229 114.503V113.822L92.2818 112.626V113.307Z" fill="#F5F9FF"/>
<path d="M91.053 115.881L87.699 117.823V117.126L91.053 115.2V115.881Z" fill="#F5F9FF"/>
<path d="M94.0411 114.154L91.9822 115.349V114.669L94.0411 113.473V114.154Z" fill="#F5F9FF"/>
<path d="M97.4952 112.161L94.9714 113.623V112.942L97.4952 111.481V112.161Z" fill="#F5F9FF"/>
<path d="M89.2927 118.753L86.1213 120.596V119.916L89.2927 118.073V118.753Z" fill="#F5F9FF"/>
<path d="M92.2818 117.026L90.2229 118.222V117.541L92.2818 116.346V117.026Z" fill="#F5F9FF"/>
<path d="M96.5151 114.586L93.2109 116.495V115.814L96.5151 113.905V114.586Z" fill="#F5F9FF"/>
<path d="M93.2612 112.062V112.743L101.513 107.994V107.297L93.2612 112.062Z" fill="#F5F9FF"/>
<path d="M104.469 106.284L102.427 107.463V106.765L104.469 105.586V106.284Z" fill="#F5F9FF"/>
<path d="M107.142 104.74L105.399 105.752V105.055L107.142 104.059V104.74Z" fill="#F5F9FF"/>
<path d="M98.3252 110.999V111.68L100.284 110.551V109.87L98.3252 110.999Z" fill="#F5F9FF"/>
<path d="M102.991 108.99L101.198 110.02V109.339L102.991 108.309V108.99Z" fill="#F5F9FF"/>
<path d="M108.736 105.686L103.921 108.459V107.778L108.736 104.989V105.686Z" fill="#F5F9FF"/>
<path d="M97.8433 113.141V113.822L101.513 111.697V111.016L97.8433 113.141Z" fill="#F5F9FF"/>
<path d="M104.469 109.986L102.427 111.165V110.485L104.469 109.306V109.986Z" fill="#F5F9FF"/>
<path d="M107.142 108.459L105.399 109.455V108.774L107.142 107.778V108.459Z" fill="#F5F9FF"/>
<path d="M111.227 102.382L108.056 104.208V103.527L111.227 101.684V102.382Z" fill="#F5F9FF"/>
<path d="M130.652 61.5029V62.1837L126.983 64.2924V63.6116L130.652 61.5029Z" fill="#F5F9FF"/>
<path d="M124.011 66.0192L126.07 64.8237V64.1429L124.011 65.3218V66.0192Z" fill="#F5F9FF"/>
<path d="M121.354 67.5468L123.098 66.5505V65.8531L121.354 66.866V67.5468Z" fill="#F5F9FF"/>
<path d="M130.536 63.429V64.1097L128.211 65.438V64.7572L130.536 63.429Z" fill="#F5F9FF"/>
<path d="M125.505 67.0154L127.299 65.9693V65.2886L125.505 66.3346V67.0154Z" fill="#F5F9FF"/>
<path d="M119.76 70.3196L124.575 67.5467V66.866L119.76 69.6388V70.3196Z" fill="#F5F9FF"/>
<path d="M130.652 65.2222V65.9029L126.983 68.0117V67.3309L130.652 65.2222Z" fill="#F5F9FF"/>
<path d="M124.011 69.7219L126.07 68.543V67.8622L124.011 69.0411V69.7219Z" fill="#F5F9FF"/>
<path d="M121.354 71.2661L123.098 70.2533V69.5725L121.354 70.5854V71.2661Z" fill="#F5F9FF"/>
<path d="M130.536 67.1317V67.8291L128.211 69.1573V68.4766L130.536 67.1317Z" fill="#F5F9FF"/>
<path d="M125.505 70.7348L127.299 69.6887V69.0079L125.505 70.054V70.7348Z" fill="#F5F9FF"/>
<path d="M119.312 74.3046L124.575 71.2661V70.5687L119.312 73.6238V74.3046Z" fill="#F5F9FF"/>
<path d="M117.27 69.9045L120.441 68.0781V67.3973L117.27 69.2238V69.9045Z" fill="#F5F9FF"/>
<path d="M114.281 71.6314L116.34 70.4359V69.7551L114.281 70.9506V71.6314Z" fill="#F5F9FF"/>
<path d="M115.494 72.7936L118.848 70.8509V70.1702L115.494 72.0962V72.7936Z" fill="#F5F9FF"/>
<path d="M117.27 73.6239L120.441 71.7975V71.1001L117.27 72.9432V73.6239Z" fill="#F5F9FF"/>
<path d="M121.737 111.63V112.311L118.084 114.42V113.739L121.737 111.63Z" fill="#F5F9FF"/>
<path d="M115.112 116.13L117.155 114.951V114.27L115.112 115.449V116.13Z" fill="#F5F9FF"/>
<path d="M112.456 117.674L114.199 116.661V115.98L112.456 116.993V117.674Z" fill="#F5F9FF"/>
<path d="M121.637 113.556V114.237L119.313 115.565V114.884L121.637 113.556Z" fill="#F5F9FF"/>
<path d="M116.607 117.143L118.4 116.097V115.416L116.607 116.462V117.143Z" fill="#F5F9FF"/>
<path d="M110.862 120.447L115.677 117.674V116.993L110.862 119.766V120.447Z" fill="#F5F9FF"/>
<path d="M121.737 115.349V116.03L118.084 118.139V117.458L121.737 115.349Z" fill="#F5F9FF"/>
<path d="M115.112 119.849L117.155 118.67V117.99L115.112 119.168V119.849Z" fill="#F5F9FF"/>
<path d="M112.456 121.393L114.199 120.38V119.7L112.456 120.713V121.393Z" fill="#F5F9FF"/>
<path d="M121.637 117.259V117.956L119.313 119.284V118.604L121.637 117.259Z" fill="#F5F9FF"/>
<path d="M116.607 120.862L118.4 119.816V119.135L116.607 120.165V120.862Z" fill="#F5F9FF"/>
<path d="M110.413 124.432L115.677 121.393V120.696L110.413 123.751V124.432Z" fill="#F5F9FF"/>
<path d="M108.354 120.032L111.542 118.205V117.525L108.354 119.351V120.032Z" fill="#F5F9FF"/>
<path d="M103.539 122.821L107.441 120.563V119.882L103.539 122.14V122.821Z" fill="#F5F9FF"/>
<path d="M106.594 122.921L109.948 120.978V120.297L106.594 122.223V122.921Z" fill="#F5F9FF"/>
<path d="M103.606 124.648L105.681 123.452V122.755L103.606 123.95V124.648Z" fill="#F5F9FF"/>
<path d="M108.354 123.751L111.542 121.925V121.227L108.354 123.07V123.751Z" fill="#F5F9FF"/>
<path d="M105.365 125.478L107.441 124.282V123.602L105.365 124.797V125.478Z" fill="#F5F9FF"/>
<path d="M106.594 126.623L109.5 124.963V124.266L106.594 125.943V126.623Z" fill="#F5F9FF"/>
</svg>
