<svg width="150" height="133" viewBox="0 0 150 133" fill="none" xmlns="http://www.w3.org/2000/svg">
<g style="mix-blend-mode:multiply" opacity="0.5">
<path d="M148.174 104.02L54.6777 49.7096C52.7594 48.5921 49.8725 48.3686 47.5444 49.0391C45.2163 48.3873 42.3481 48.5921 40.4111 49.7096L1.83898 71.9664C-0.600874 73.3818 -0.619489 75.6727 1.82037 77.0696L95.3171 131.38C96.6581 132.162 98.4834 132.497 100.234 132.404C101.705 132.33 103.177 132.33 104.648 132.404C106.418 132.497 108.224 132.162 109.584 131.38L148.156 109.123C150.596 107.707 150.614 105.417 148.193 104.02H148.174Z" fill="#003893"/>
</g>
<path d="M149.98 101.468V106.627C149.98 107.558 149.366 108.49 148.136 109.197L109.564 131.473C107.125 132.888 103.176 132.888 100.755 131.473L7.25803 77.1626C6.04741 76.4549 5.45142 75.5423 5.45142 74.6297V69.4706L149.999 101.468H149.98Z" fill="url(#paint0_linear_2_8033)"/>
<path d="M94.1802 127.655L92.9509 126.947V117.839L94.1802 118.547V127.655Z" fill="#C9C6C1"/>
<path d="M15.2488 81.8002L14.001 81.0925V72.2643L15.2488 72.972V81.8002Z" fill="#C9C6C1"/>
<path d="M7.27721 66.9004C4.83736 68.3158 4.81874 70.6067 7.2586 72.0036L100.755 126.314C103.177 127.729 107.125 127.729 109.565 126.314L148.137 104.057C150.577 102.641 150.595 100.351 148.174 98.9537L54.6775 44.6436C52.2563 43.2282 48.3078 43.2282 45.8493 44.6436L7.27721 66.9004Z" fill="#E5ECF8"/>
<path d="M105.169 126.928C106.752 126.928 108.261 126.574 109.36 125.922L147.932 103.647C148.975 103.051 149.552 102.269 149.552 101.449C149.552 100.649 148.993 99.8849 147.95 99.2703L54.4535 44.9602C53.336 44.3083 51.8647 43.9545 50.2629 43.9545C48.6612 43.9545 47.1898 44.3083 46.0723 44.9602L7.50024 67.2355C6.45724 67.8315 5.87988 68.6138 5.87988 69.4333C5.87988 70.2342 6.43863 70.9978 7.48162 71.6124L100.978 125.922C102.096 126.574 103.567 126.928 105.169 126.928V126.928Z" fill="#003893"/>
<path d="M70.3966 112.606L81.7391 119.162C82.5213 119.627 83.1732 119.348 83.1732 118.547C83.1732 117.746 82.54 116.74 81.7391 116.293L70.3966 109.738C69.6143 109.272 68.9624 109.551 68.9624 110.334C68.9624 111.116 69.5957 112.14 70.3966 112.587V112.606Z" fill="#BAC1CC"/>
<path d="M115.059 125.345C115.282 125.345 115.357 125.587 115.226 125.885C115.096 126.183 114.817 126.425 114.593 126.425C114.37 126.425 114.295 126.183 114.425 125.885C114.556 125.587 114.835 125.345 115.059 125.345ZM116.493 124.675C116.362 124.973 116.437 125.215 116.66 125.215C116.884 125.215 117.163 124.973 117.294 124.675C117.424 124.377 117.35 124.135 117.126 124.135C116.903 124.135 116.623 124.377 116.493 124.675ZM118.579 123.464C118.448 123.762 118.523 124.004 118.746 124.004C118.97 124.004 119.249 123.762 119.38 123.464C119.51 123.166 119.436 122.924 119.212 122.924C118.989 122.924 118.709 123.166 118.579 123.464ZM120.665 122.254C120.534 122.551 120.609 122.794 120.832 122.794C121.056 122.794 121.335 122.551 121.466 122.254C121.596 121.956 121.522 121.713 121.298 121.713C121.075 121.713 120.795 121.956 120.665 122.254Z" fill="#838D9F"/>
<path d="M135.956 113.295C136.18 113.295 136.254 113.537 136.124 113.835C135.993 114.133 135.714 114.375 135.491 114.375C135.267 114.375 135.193 114.133 135.323 113.835C135.453 113.537 135.733 113.295 135.956 113.295ZM137.39 112.624C137.26 112.922 137.334 113.165 137.558 113.165C137.781 113.165 138.061 112.922 138.191 112.624C138.322 112.326 138.247 112.084 138.024 112.084C137.8 112.084 137.521 112.326 137.39 112.624ZM139.476 111.414C139.346 111.712 139.42 111.954 139.644 111.954C139.867 111.954 140.147 111.712 140.277 111.414C140.408 111.116 140.333 110.874 140.11 110.874C139.886 110.874 139.607 111.116 139.476 111.414ZM141.562 110.203C141.432 110.501 141.506 110.743 141.73 110.743C141.953 110.743 142.233 110.501 142.363 110.203C142.494 109.905 142.419 109.663 142.196 109.663C141.972 109.663 141.693 109.905 141.562 110.203Z" fill="#838D9F"/>
<path d="M126.272 120.056L130.127 117.839C130.611 117.56 131.002 116.945 131.002 116.461C131.002 115.977 130.611 115.809 130.127 116.089L126.272 118.305C125.787 118.584 125.396 119.199 125.396 119.683C125.396 120.167 125.787 120.335 126.272 120.056Z" fill="#838D9F"/>
<path d="M28.0809 85.5997L28.4534 85.3762C28.1368 85.19 27.8574 85.1713 27.6525 85.3017L27.28 85.5252C27.4849 85.4135 27.7643 85.4321 28.0809 85.5997Z" fill="#D6DBE4"/>
<path d="M40.4482 92.733L40.8207 92.5095L28.4538 85.3762L28.0813 85.5997L40.4482 92.733Z" fill="#CED3DB"/>
<path d="M41.2303 95.3778L41.6028 95.1542C41.8077 95.0425 41.9194 94.7818 41.9194 94.4465C41.9194 93.7388 41.4166 92.8634 40.8019 92.5095L40.4294 92.733C41.0441 93.0869 41.5469 93.9623 41.5469 94.67C41.5469 95.0239 41.4166 95.266 41.2117 95.3778H41.2303Z" fill="#D6DBE4"/>
<path d="M28.0811 85.5997C27.4665 85.2458 26.9636 85.5251 26.9636 86.2329C26.9636 86.9406 27.4665 87.816 28.0811 88.1699L40.448 95.3032C41.0626 95.6571 41.5655 95.3777 41.5655 94.6699C41.5655 93.9622 41.0626 93.0868 40.448 92.733L28.0811 85.5997Z" fill="#A2ACBD"/>
<path d="M23.6483 63.5293L41.5468 53.1925C43.2975 52.1868 43.2975 50.5478 41.5468 49.542L39.8892 48.5922L15.6396 62.5981L17.2973 63.5479C19.048 64.5537 21.879 64.5537 23.6297 63.5479L23.6483 63.5293Z" fill="#1B161E"/>
<path d="M25.9396 59.078C26.2376 59.2456 26.7032 59.2456 27.0012 59.078L33.8365 55.1295C34.1345 54.9619 34.1345 54.6825 33.8365 54.5149C33.5385 54.3473 33.0729 54.3473 32.7749 54.5149L25.9396 58.4633C25.6416 58.631 25.6416 58.9103 25.9396 59.078Z" fill="#0D0B0F"/>
<path d="M21.3764 60.9404C21.2088 61.2943 21.5812 61.6668 22.1959 61.7599C22.8105 61.8531 23.4624 61.6482 23.63 61.2757C23.7976 60.9218 23.4251 60.5493 22.8105 60.4562C22.1959 60.3631 21.544 60.5679 21.3764 60.9404Z" fill="#0D0B0F"/>
<path d="M105.169 120.708C103.549 120.708 102.022 120.335 100.886 119.683L7.38888 65.3732C6.29002 64.74 5.67539 63.9019 5.69401 63.0265C5.69401 62.1511 6.30865 61.2944 7.42614 60.6611L45.9982 38.3858C47.153 37.7153 48.6802 37.3615 50.3006 37.3615C51.9209 37.3615 53.4482 37.7339 54.5843 38.3858L148.081 92.6959C149.18 93.3291 149.776 94.1673 149.776 95.0426C149.776 95.9366 149.161 96.7747 148.044 97.408L109.472 119.665C108.317 120.335 106.79 120.689 105.169 120.689V120.708ZM50.2633 37.7712C48.7175 37.7712 47.2461 38.1251 46.1659 38.7397L7.59376 61.015C6.60664 61.5738 6.06653 62.3001 6.06653 63.0265C6.06653 63.7529 6.58801 64.4606 7.5565 65.0194L101.053 119.329C102.134 119.963 103.586 120.298 105.132 120.298C106.678 120.298 108.149 119.944 109.23 119.329L147.802 97.0541C148.789 96.4954 149.329 95.769 149.329 95.0426C149.329 94.3163 148.789 93.6085 147.839 93.0498L54.3421 38.7397C53.2619 38.1064 51.8092 37.7712 50.2633 37.7712V37.7712Z" fill="#9FFFFA"/>
<path d="M105.17 113.723C106.753 113.723 108.262 113.369 109.361 112.718L147.933 90.4609C148.976 89.8649 149.553 89.0826 149.553 88.2631C149.553 87.4623 148.994 86.6986 147.951 86.084L54.4545 31.7739C53.337 31.1221 51.8656 30.7682 50.2639 30.7682C48.6622 30.7682 47.1908 31.1221 46.0733 31.7739L7.50121 54.0306C6.45822 54.6266 5.88086 55.4089 5.88086 56.2284C5.88086 57.0292 6.43961 57.7929 7.4826 58.4075L100.979 112.718C102.097 113.369 103.568 113.723 105.17 113.723Z" fill="#2774F1"/>
<g style="mix-blend-mode:color-dodge">
<path d="M65.1082 38.2182L73.6011 33.3199C74.8304 32.6121 76.8046 32.6121 78.0338 33.3199L86.4709 38.2182C87.6815 38.926 87.6815 40.0807 86.4709 40.7884L77.9779 45.6868C76.7487 46.3945 74.7745 46.3945 73.5452 45.6868L65.1082 40.7884C63.8975 40.0807 63.8975 38.926 65.1082 38.2182Z" fill="#2673F0"/>
</g>
<g style="mix-blend-mode:screen">
<path d="M46.6133 27.5275L55.1062 22.6292C56.3355 21.9215 58.3097 21.9215 59.5389 22.6292L67.976 27.5275C69.1866 28.2353 69.1866 29.39 67.976 30.0978L59.4831 34.9961C58.2538 35.7038 56.2796 35.7038 55.0503 34.9961L46.6133 30.0978C45.4027 29.39 45.4027 28.2353 46.6133 27.5275V27.5275Z" fill="#3DC4BD"/>
</g>
<g style="mix-blend-mode:color-dodge">
<path d="M46.7998 48.7971L55.2927 43.8987C56.522 43.191 58.4962 43.191 59.7255 43.8987L68.1625 48.7971C69.3731 49.5048 69.3731 50.6595 68.1625 51.3673L59.6696 56.2656C58.4404 56.9734 56.4661 56.9734 55.2369 56.2656L46.7998 51.3673C45.5892 50.6595 45.5892 49.5048 46.7998 48.7971V48.7971Z" fill="#2673F0"/>
</g>
<g style="mix-blend-mode:screen">
<path d="M28.3049 38.1064L36.7979 33.2081C38.0271 32.5003 40.0013 32.5003 41.2306 33.2081L49.6676 38.1064C50.8782 38.8141 50.8782 39.9689 49.6676 40.6766L41.1747 45.575C39.9455 46.2827 37.9712 46.2827 36.742 45.575L28.3049 40.6766C27.0943 39.9689 27.0943 38.8141 28.3049 38.1064Z" fill="#3DC4BD"/>
</g>
<g style="mix-blend-mode:color-dodge">
<path d="M28.4915 59.3574L36.9844 54.459C38.2136 53.7513 40.1879 53.7513 41.4171 54.459L49.8542 59.3574C51.0648 60.0651 51.0648 61.2199 49.8542 61.9276L41.3612 66.8259C40.132 67.5337 38.1578 67.5337 36.9285 66.8259L28.4915 61.9276C27.2808 61.2199 27.2808 60.0651 28.4915 59.3574Z" fill="#2673F0"/>
</g>
<g style="mix-blend-mode:screen">
<path d="M9.99658 48.6667L18.4895 43.7684C19.7188 43.0606 21.693 43.0606 22.9222 43.7684L31.3593 48.6667C32.5699 49.3744 32.5699 50.5292 31.3593 51.2369L22.8663 56.1353C21.6371 56.843 19.6629 56.843 18.4336 56.1353L9.99658 51.2369C8.78597 50.5292 8.78597 49.3744 9.99658 48.6667Z" fill="#3DC4BD"/>
</g>
<path d="M65.1073 38.274L73.5444 43.1723C74.755 43.8801 76.7479 43.8801 77.9771 43.1723L86.4701 38.274C87.0847 37.9201 87.4013 37.4545 87.4013 36.9889V38.7583C87.4013 39.2239 87.1033 39.6895 86.4887 40.0434L77.9958 44.9417C76.7665 45.6495 74.7923 45.6495 73.563 44.9417L65.126 40.0434C64.5114 39.6895 64.2134 39.2239 64.2134 38.7769V37.0075C64.2134 37.4731 64.5114 37.9201 65.126 38.274H65.1073Z" fill="#9FFFFA"/>
<path d="M75.8358 30.6751C76.5994 30.6751 77.3072 30.8428 77.8287 31.1594L86.2657 36.0577C86.7127 36.3185 86.9735 36.6537 86.9735 36.9703C86.9735 37.3056 86.7127 37.6408 86.2657 37.9016L77.7728 42.7999C77.2513 43.0979 76.5249 43.2655 75.7613 43.2655C74.9977 43.2655 74.29 43.0979 73.7498 42.7813L65.3128 37.8829C64.8658 37.6222 64.605 37.2869 64.605 36.9703C64.605 36.6351 64.8658 36.2998 65.3128 36.0391L73.8057 31.1408C74.3458 30.8428 75.0536 30.6565 75.8172 30.6565L75.8358 30.6751ZM75.8358 30.2654C75.0349 30.2654 74.2341 30.4516 73.6195 30.8055L65.1265 35.7038C63.8973 36.4116 63.8973 37.5663 65.1265 38.2741L73.5636 43.1724C74.1782 43.5263 74.9791 43.7125 75.7799 43.7125C76.5808 43.7125 77.3817 43.5263 77.9963 43.191L86.4892 38.2927C87.7185 37.585 87.7185 36.4302 86.4892 35.7225L78.0522 30.8241C77.4376 30.4703 76.6367 30.284 75.8358 30.284V30.2654Z" fill="#9FFFFA"/>
<path d="M46.5944 13.3354L55.0315 18.2337C56.2421 18.9415 58.2349 18.9415 59.4642 18.2337L67.9571 13.3354C68.5717 12.9815 68.8884 12.5159 68.8884 12.0503V13.8196C68.8884 14.2853 68.5904 14.7509 67.9758 15.1048L59.4828 20.0031C58.2536 20.7109 56.2793 20.7109 55.0501 20.0031L46.613 15.1048C45.9984 14.7509 45.7004 14.2853 45.7004 13.8383V12.0689C45.7004 12.5345 45.9984 12.9815 46.613 13.3354H46.5944Z" fill="#9FFFFA"/>
<path d="M46.613 10.7838L55.106 5.88542C56.3352 5.17768 58.3095 5.17768 59.5387 5.88542L67.9758 10.7838C69.1864 11.4915 69.1864 12.6462 67.9758 13.354L59.4828 18.2523C58.2536 18.9601 56.2793 18.9601 55.0501 18.2523L46.613 13.354C45.4024 12.6462 45.4024 11.4915 46.613 10.7838V10.7838Z" fill="#2673F0"/>
<path d="M46.7993 48.8343L55.2363 53.7326C56.4469 54.4404 58.4398 54.4404 59.669 53.7326L68.162 48.8343C68.7766 48.4804 69.0932 48.0148 69.0932 47.5492V49.3186C69.0932 49.7842 68.7952 50.2498 68.1806 50.6037L59.6877 55.502C58.4584 56.2098 56.4842 56.2098 55.255 55.502L46.8179 50.6037C46.2033 50.2498 45.9053 49.7842 45.9053 49.3372V47.5678C45.9053 48.0334 46.2033 48.4804 46.8179 48.8343H46.7993Z" fill="#9FFFFA"/>
<path d="M57.5275 41.254C58.2911 41.254 58.9988 41.4216 59.5203 41.7382L67.9574 46.6366C68.4044 46.8973 68.6651 47.2326 68.6651 47.5492C68.6651 47.8844 68.4044 48.2197 67.9574 48.4804L59.4644 53.3788C58.9429 53.6768 58.2166 53.863 57.453 53.863C56.6894 53.863 55.9816 53.6954 55.4415 53.3788L47.0044 48.4804C46.5574 48.2197 46.2967 47.8844 46.2967 47.5678C46.2967 47.2326 46.5574 46.8973 47.0044 46.6366L55.4974 41.7382C56.0375 41.4402 56.7452 41.254 57.5088 41.254H57.5275ZM57.5275 40.8442C56.7266 40.8442 55.9258 41.0305 55.3111 41.3844L46.8182 46.2827C45.5889 46.9904 45.5889 48.1452 46.8182 48.8529L55.2553 53.7513C55.8699 54.1051 56.6708 54.2914 57.4716 54.2914C58.2725 54.2914 59.0734 54.1051 59.688 53.7699L68.1809 48.8716C69.4102 48.1638 69.4102 47.0091 68.1809 46.3013L59.7439 41.403C59.1292 41.0491 58.3284 40.8629 57.5275 40.8629V40.8442Z" fill="#9FFFFA"/>
<path d="M28.2863 30.3585L36.7234 35.2568C37.934 35.9646 39.9269 35.9646 41.1561 35.2568L49.649 30.3585C50.2637 30.0046 50.5803 29.539 50.5803 29.0734V30.8427C50.5803 31.3083 50.2823 31.774 49.6677 32.1278L41.1747 37.0262C39.9455 37.7339 37.9713 37.7339 36.742 37.0262L28.305 32.1278C27.6903 31.774 27.3923 31.3083 27.3923 30.8613V29.092C27.3923 29.5576 27.6903 30.0046 28.305 30.3585H28.2863Z" fill="#9FFFFA"/>
<path d="M28.3049 27.8068L36.7979 22.9085C38.0271 22.2007 40.0013 22.2007 41.2306 22.9085L49.6676 27.8068C50.8782 28.5146 50.8782 29.6693 49.6676 30.3771L41.1747 35.2754C39.9455 35.9831 37.9712 35.9831 36.742 35.2754L28.3049 30.3771C27.0943 29.6693 27.0943 28.5146 28.3049 27.8068Z" fill="#2673F0"/>
<path d="M28.4912 59.4133L36.9282 64.3116C38.1388 65.0194 40.1317 65.0194 41.3609 64.3116L49.8539 59.4133C50.4685 59.0594 50.7851 58.5938 50.7851 58.1282V59.8975C50.7851 60.3632 50.4871 60.8288 49.8725 61.1826L41.3796 66.081C40.1503 66.7887 38.1761 66.7887 36.9469 66.081L28.5098 61.1826C27.8951 60.8288 27.5972 60.3632 27.5972 59.9162V58.1468C27.5972 58.6124 27.8951 59.0594 28.5098 59.4133H28.4912Z" fill="#9FFFFA"/>
<path d="M39.2191 51.8143C39.9827 51.8143 40.6905 51.9819 41.212 52.2985L49.649 57.1969C50.096 57.4576 50.3568 57.7929 50.3568 58.1095C50.3568 58.4447 50.096 58.78 49.649 59.0407L41.1561 63.9391C40.6346 64.2371 39.9082 64.4047 39.1446 64.4047C38.381 64.4047 37.6733 64.2371 37.1331 63.9204L28.6961 59.0221C28.2491 58.7614 27.9883 58.4261 27.9883 58.1095C27.9883 57.7742 28.2491 57.439 28.6961 57.1783L37.189 52.2799C37.7291 51.9819 38.4369 51.7957 39.2005 51.7957L39.2191 51.8143ZM39.2191 51.4045C38.4182 51.4045 37.6174 51.5908 37.0028 51.9447L28.5098 56.843C27.2806 57.5507 27.2806 58.7055 28.5098 59.4132L36.9469 64.3116C37.5615 64.6654 38.3624 64.8517 39.1632 64.8517C39.9641 64.8517 40.765 64.6654 41.3796 64.3302L49.8725 59.4319C51.1018 58.7241 51.1018 57.5694 49.8725 56.8616L41.4355 51.9633C40.8209 51.6094 40.02 51.4232 39.2191 51.4232V51.4045Z" fill="#9FFFFA"/>
<path d="M9.97821 47.456L18.4153 52.3544C19.6259 53.0621 21.6188 53.0621 22.848 52.3544L31.3409 47.456C31.9556 47.1021 32.2722 46.6365 32.2722 46.1709V47.9403C32.2722 48.4059 31.9742 48.8715 31.3596 49.2254L22.8666 54.1237C21.6374 54.8315 19.6632 54.8315 18.4339 54.1237L9.99686 49.2254C9.38224 48.8715 9.08423 48.4059 9.08423 47.9589V46.1895C9.08423 46.6551 9.38224 47.1021 9.99686 47.456H9.97821Z" fill="#9FFFFA"/>
<path d="M9.99683 44.9045L18.4898 40.0062C19.719 39.2984 21.6932 39.2984 22.9225 40.0062L31.3595 44.9045C32.5702 45.6122 32.5702 46.767 31.3595 47.4747L22.8666 52.3731C21.6373 53.0808 19.6631 53.0808 18.4339 52.3731L9.99683 47.4747C8.78621 46.767 8.78621 45.6122 9.99683 44.9045Z" fill="#2673F0"/>
<g style="mix-blend-mode:color-dodge">
<path d="M84.5522 49.4489L93.0452 44.5506C94.2744 43.8428 96.2487 43.8428 97.4779 44.5506L105.915 49.4489C107.126 50.1567 107.126 51.3114 105.915 52.0192L97.422 56.9175C96.1928 57.6252 94.2185 57.6252 92.9893 56.9175L84.5522 52.0192C83.3416 51.3114 83.3416 50.1567 84.5522 49.4489Z" fill="#2673F0"/>
</g>
<g style="mix-blend-mode:color-dodge">
<path d="M66.2439 60.0092L74.7368 55.1109C75.9661 54.4031 77.9403 54.4031 79.1696 55.1109L87.6066 60.0092C88.8172 60.717 88.8172 61.8717 87.6066 62.5795L79.1137 67.4778C77.8844 68.1855 75.9102 68.1855 74.681 67.4778L66.2439 62.5795C65.0333 61.8717 65.0333 60.717 66.2439 60.0092Z" fill="#2673F0"/>
</g>
<g style="mix-blend-mode:color-dodge">
<path d="M47.9355 70.5882L56.4285 65.6899C57.6578 64.9821 59.6319 64.9821 60.8612 65.6899L69.2982 70.5882C70.5089 71.2959 70.5089 72.4507 69.2982 73.1584L60.8053 78.0568C59.5761 78.7645 57.6019 78.7645 56.3726 78.0568L47.9355 73.1584C46.7249 72.4507 46.7249 71.2959 47.9355 70.5882V70.5882Z" fill="#2673F0"/>
</g>
<g style="mix-blend-mode:color-dodge">
<path d="M103.605 60.4377L112.098 55.5394C113.328 54.8316 115.302 54.8316 116.531 55.5394L124.968 60.4377C126.179 61.1454 126.179 62.3002 124.968 63.0079L116.475 67.9063C115.246 68.614 113.272 68.614 112.043 67.9063L103.605 63.0079C102.395 62.3002 102.395 61.1454 103.605 60.4377V60.4377Z" fill="#2673F0"/>
</g>
<g style="mix-blend-mode:color-dodge">
<path d="M85.2971 71.0166L93.7901 66.1182C95.0193 65.4105 96.9935 65.4105 98.2227 66.1182L106.66 71.0166C107.87 71.7243 107.87 72.879 106.66 73.5868L98.1668 78.4851C96.9376 79.1929 94.9634 79.1929 93.7342 78.4851L85.2971 73.5868C84.0865 72.879 84.0865 71.7243 85.2971 71.0166Z" fill="#2673F0"/>
</g>
<g style="mix-blend-mode:color-dodge">
<path d="M66.9888 81.5768L75.4817 76.6785C76.7109 75.9708 78.6852 75.9708 79.9144 76.6785L88.3515 81.5768C89.5621 82.2846 89.5621 83.4393 88.3515 84.1471L79.8586 89.0454C78.6293 89.7532 76.6551 89.7532 75.4258 89.0454L66.9888 84.1471C65.7782 83.4393 65.7782 82.2846 66.9888 81.5768Z" fill="#2673F0"/>
</g>
<g style="mix-blend-mode:color-dodge">
<path d="M123.124 71.7056L131.617 66.8073C132.846 66.0996 134.821 66.0996 136.05 66.8073L144.487 71.7056C145.698 72.4134 145.698 73.5681 144.487 74.2759L135.994 79.1742C134.765 79.8819 132.791 79.8819 131.561 79.1742L123.124 74.2759C121.914 73.5681 121.914 72.4134 123.124 71.7056Z" fill="#2673F0"/>
</g>
<g style="mix-blend-mode:color-dodge">
<path d="M104.816 82.2846L113.309 77.3863C114.538 76.6785 116.512 76.6785 117.742 77.3863L126.179 82.2846C127.389 82.9924 127.389 84.1471 126.179 84.8548L117.686 89.7532C116.456 90.4609 114.482 90.4609 113.253 89.7532L104.816 84.8548C103.605 84.1471 103.605 82.9924 104.816 82.2846Z" fill="#2673F0"/>
</g>
<g style="mix-blend-mode:color-dodge">
<path d="M86.5076 92.8449L95.0005 87.9466C96.2297 87.2388 98.204 87.2388 99.4332 87.9466L107.87 92.8449C109.081 93.5527 109.081 94.7074 107.87 95.4152L99.3774 100.313C98.1481 101.021 96.1739 101.021 94.9446 100.313L86.5076 95.4152C85.297 94.7074 85.297 93.5527 86.5076 92.8449Z" fill="#2673F0"/>
</g>
<path d="M84.5332 49.4862L92.9702 54.3845C94.1808 55.0922 96.1737 55.0922 97.403 54.3845L105.896 49.4862C106.511 49.1323 106.827 48.6667 106.827 48.201V49.9704C106.827 50.436 106.529 50.9017 105.914 51.2555L97.4215 56.1539C96.1923 56.8616 94.2181 56.8616 92.9888 56.1539L84.5518 51.2555C83.9371 50.9017 83.6392 50.436 83.6392 49.989V48.2197C83.6392 48.6853 83.9371 49.1323 84.5518 49.4862H84.5332Z" fill="#9FFFFA"/>
<path d="M95.2611 41.9058C96.0247 41.9058 96.7325 42.0735 97.254 42.3901L105.691 47.2884C106.138 47.5492 106.399 47.8844 106.399 48.201C106.399 48.5363 106.138 48.8715 105.691 49.1323L97.1981 54.0306C96.6766 54.3286 95.9503 54.5149 95.1866 54.5149C94.423 54.5149 93.7153 54.3472 93.1751 54.0306L84.7381 49.1323C84.2911 48.8715 84.0303 48.5363 84.0303 48.2197C84.0303 47.8844 84.2911 47.5492 84.7381 47.2884L93.231 42.3901C93.7711 42.0921 94.4789 41.9058 95.2425 41.9058H95.2611ZM95.2611 41.4961C94.4602 41.4961 93.6594 41.6823 93.0447 42.0362L84.5518 46.9346C83.3226 47.6423 83.3226 48.797 84.5518 49.5048L92.9889 54.4031C93.6035 54.757 94.4044 54.9432 95.2052 54.9432C96.0061 54.9432 96.807 54.757 97.4216 54.4218L105.915 49.5234C107.144 48.8157 107.144 47.6609 105.915 46.9532L97.4775 42.0548C96.8629 41.701 96.062 41.5147 95.2611 41.5147V41.4961Z" fill="#9FFFFA"/>
<path d="M66.2255 60.0651L74.6626 64.9635C75.8732 65.6712 77.866 65.6712 79.0953 64.9635L87.5882 60.0651C88.2028 59.7113 88.5195 59.2457 88.5195 58.78V60.5494C88.5195 61.015 88.2215 61.4806 87.6069 61.8345L79.1139 66.7328C77.8847 67.4406 75.9104 67.4406 74.6812 66.7328L66.2441 61.8345C65.6295 61.4806 65.3315 61.015 65.3315 60.568V58.7987C65.3315 59.2643 65.6295 59.7113 66.2441 60.0651H66.2255Z" fill="#9FFFFA"/>
<path d="M76.9537 52.4848C77.7174 52.4848 78.4251 52.6524 78.9466 52.9691L87.3837 57.8674C87.8307 58.1282 88.0914 58.4634 88.0914 58.78C88.0914 59.1153 87.8307 59.4505 87.3837 59.7113L78.8907 64.6096C78.3692 64.9076 77.6428 65.0939 76.8792 65.0939C76.1156 65.0939 75.4079 64.9262 74.8678 64.6096L66.4307 59.7113C65.9837 59.4505 65.7229 59.1153 65.7229 58.7986C65.7229 58.4634 65.9837 58.1282 66.4307 57.8674L74.9236 52.9691C75.4638 52.6711 76.1715 52.4848 76.9351 52.4848H76.9537ZM76.9537 52.0751C76.1529 52.0751 75.352 52.2613 74.7374 52.6152L66.2444 57.5135C65.0152 58.2213 65.0152 59.376 66.2444 60.0838L74.6815 64.9821C75.2961 65.336 76.097 65.5222 76.8979 65.5222C77.6987 65.5222 78.4996 65.336 79.1142 65.0007L87.6072 60.1024C88.8364 59.3946 88.8364 58.2399 87.6072 57.5322L79.1701 52.6338C78.5555 52.2799 77.7546 52.0937 76.9537 52.0937V52.0751Z" fill="#9FFFFA"/>
<path d="M47.917 70.6255L56.354 75.5238C57.5646 76.2315 59.5575 76.2315 60.7867 75.5238L69.2797 70.6255C69.8943 70.2716 70.2109 69.806 70.2109 69.3403V71.1097C70.2109 71.5753 69.9129 72.0409 69.2983 72.3948L60.8053 77.2931C59.5761 78.0009 57.6019 78.0009 56.3727 77.2931L47.9356 72.3948C47.321 72.0409 47.0229 71.5753 47.0229 71.1283V69.359C47.0229 69.8246 47.321 70.2716 47.9356 70.6255H47.917Z" fill="#9FFFFA"/>
<path d="M58.6451 63.0451C59.4087 63.0451 60.1165 63.2127 60.638 63.5294L69.075 68.4277C69.522 68.6885 69.7828 69.0237 69.7828 69.3403C69.7828 69.6756 69.522 70.0108 69.075 70.2716L60.5821 75.1699C60.0606 75.4679 59.3343 75.6541 58.5707 75.6541C57.807 75.6541 57.0993 75.4865 56.5591 75.1699L48.1221 70.2716C47.6751 70.0108 47.4144 69.6756 47.4144 69.359C47.4144 69.0237 47.6751 68.6885 48.1221 68.4277L56.615 63.5294C57.1551 63.2314 57.8629 63.0451 58.6265 63.0451H58.6451ZM58.6451 62.6354C57.8442 62.6354 57.0434 62.8216 56.4288 63.1755L47.9358 68.0738C46.7066 68.7816 46.7066 69.9363 47.9358 70.6441L56.3729 75.5424C56.9876 75.8963 57.7884 76.0825 58.5892 76.0825C59.3901 76.0825 60.191 75.9149 60.8056 75.561L69.2985 70.6627C70.5278 69.9549 70.5278 68.8002 69.2985 68.0925L60.8615 63.1941C60.2469 62.8402 59.446 62.654 58.6451 62.654V62.6354Z" fill="#9FFFFA"/>
<path d="M57.2483 14.3038C56.4102 14.3038 55.5721 14.1176 54.9389 13.7451L46.5018 8.84676C45.85 8.47427 45.4961 7.95277 45.4961 7.39403C45.4961 6.83528 45.8686 6.31378 46.5205 5.92266L46.6322 6.10891L46.5205 5.92266L55.0134 1.02432C56.2985 0.279328 58.3845 0.279328 59.651 1.02432L68.088 5.92266C68.7399 6.29516 69.0938 6.81665 69.0938 7.3754C69.0938 7.93414 68.7213 8.45564 68.0694 8.84676L59.5765 13.7451C58.9432 14.1176 58.1051 14.3038 57.2483 14.3038ZM57.3229 0.875323C56.5592 0.875323 55.7956 1.04295 55.2182 1.3782L46.7253 6.27653C46.2038 6.57453 45.9058 6.96565 45.9058 7.3754C45.9058 7.78515 46.1852 8.17627 46.7067 8.47427L55.1438 13.3726C56.2985 14.0431 58.1982 14.0431 59.3716 13.3726L67.8645 8.47427C68.386 8.17627 68.684 7.78515 68.684 7.3754C68.684 6.96565 68.4047 6.57453 67.8832 6.27653L59.4461 1.3782C58.8688 1.04295 58.1051 0.875323 57.3415 0.875323H57.3229Z" fill="#9FFFFA"/>
<path d="M38.94 31.327C38.1019 31.327 37.2638 31.1408 36.6305 30.7683L28.1935 25.87C27.5416 25.4975 27.1877 24.976 27.1877 24.4172C27.1877 23.8585 27.5602 23.337 28.2121 22.9459L36.705 18.0475C37.9902 17.3025 40.0762 17.3025 41.3426 18.0475L49.7797 22.9459C50.4316 23.3184 50.7854 23.8398 50.7854 24.3986C50.7854 24.9573 50.4129 25.4788 49.7611 25.87L41.2681 30.7683C40.6349 31.1408 39.7968 31.327 38.94 31.327ZM28.3983 23.2997C27.8769 23.5977 27.5789 23.9888 27.5789 24.3986C27.5789 24.8083 27.8582 25.1995 28.3797 25.4975L36.8168 30.3958C37.9715 31.0663 39.8713 31.0663 41.0446 30.3958L49.5376 25.4975C50.0591 25.1995 50.3571 24.8083 50.3571 24.3986C50.3571 23.9888 50.0777 23.5977 49.5562 23.2997L41.1191 18.4014C39.9644 17.7309 38.0646 17.7309 36.8913 18.4014L28.3983 23.2997Z" fill="#9FFFFA"/>
<path d="M20.6317 48.4246C19.7936 48.4246 18.9555 48.2383 18.3222 47.8658L9.88512 42.9675C9.23325 42.595 8.87939 42.0735 8.87939 41.5148C8.87939 40.956 9.2519 40.4345 9.90377 40.0434L18.3967 35.145C19.6818 34.4001 21.7678 34.4001 23.0343 35.145L31.4714 40.0434C32.1232 40.4159 32.4771 40.9374 32.4771 41.4961C32.4771 42.0549 32.1046 42.5764 31.4527 42.9675L22.9598 47.8658C22.3265 48.2383 21.4884 48.4246 20.6503 48.4246H20.6317ZM20.7062 34.9961C19.9426 34.9961 19.1789 35.1637 18.6016 35.4989L10.1086 40.3973C9.58715 40.6953 9.28914 41.0864 9.28914 41.4961C9.28914 41.9059 9.5685 42.297 10.09 42.595L18.5271 47.4933C19.6818 48.1638 21.5816 48.1638 22.7363 47.4933L31.2292 42.595C31.7507 42.297 32.0487 41.9059 32.0487 41.4961C32.0487 41.0864 31.7693 40.6953 31.2478 40.3973L22.8108 35.4989C22.2334 35.1637 21.4698 34.9961 20.7062 34.9961Z" fill="#9FFFFA"/>
<defs>
<linearGradient id="paint0_linear_2_8033" x1="62.7415" y1="101.002" x2="151.638" y2="101.002" gradientUnits="userSpaceOnUse">
<stop offset="0.4" stop-color="#A2ACBD"/>
<stop offset="0.58" stop-color="#BBC2CD"/>
</linearGradient>
</defs>
</svg>
