<svg width="135" height="151" viewBox="0 0 135 151" fill="none" xmlns="http://www.w3.org/2000/svg">
<g style="mix-blend-mode:multiply" opacity="0.5">
<path d="M37.0923 127.47L28.9564 132.385H30.6334C31.7624 132.385 31.5466 133.082 30.1353 133.929L16.271 142.314C14.8596 143.161 12.8007 143.858 11.6717 143.858H9.99469L1.85875 148.773C0.281381 149.719 0.0489224 150.5 1.31082 150.5H69.0549C70.3168 150.5 72.6247 149.736 74.1855 148.773L109.419 127.453C110.996 126.507 111.229 125.727 109.967 125.727H42.2229C40.961 125.727 38.6531 126.49 37.0923 127.453V127.47Z" fill="#003893"/>
</g>
<path d="M103.458 0.915098C104.288 0.915098 104.77 1.49626 104.77 2.49249V104.324C104.77 106.084 103.325 108.359 101.532 109.389L58.8763 134.012C58.3284 134.328 57.8137 134.494 57.3654 134.494C56.5352 134.494 56.0536 133.913 56.0536 132.916V31.0845C56.0536 29.3244 57.4982 27.0497 59.2914 26.0203L68.5232 20.6904V22.5002C68.5232 23.8285 69.287 24.692 70.4825 24.692C71.0138 24.692 71.6281 24.5093 72.2259 24.1606L89.0125 14.4639C90.8555 13.4013 92.3166 11.0933 92.3166 9.23369V6.94234L101.964 1.38001C102.511 1.06453 103.026 0.898504 103.474 0.898504L103.458 0.915098ZM103.458 0.5C102.96 0.5 102.362 0.666052 101.748 1.03134L91.9015 6.70988V9.23369C91.9015 10.9439 90.5234 13.119 88.8132 14.0986L72.0266 23.7953C71.4621 24.1274 70.9308 24.2769 70.4825 24.2769C69.5526 24.2769 68.9383 23.6293 68.9383 22.5002V19.9764L59.0922 25.655C57.1993 26.7508 55.6552 29.175 55.6552 31.0845V132.916C55.6552 134.195 56.3525 134.909 57.3819 134.909C57.8801 134.909 58.4778 134.743 59.0922 134.378L101.748 109.754C103.641 108.658 105.185 106.234 105.185 104.324V2.49249C105.185 1.21399 104.487 0.5 103.458 0.5V0.5Z" fill="#0656D7"/>
<path d="M110.996 5.28229C111.826 5.28229 112.308 5.86342 112.308 6.85966V108.692C112.308 110.452 110.863 112.726 109.07 113.756L66.4145 138.379C65.8666 138.695 65.3519 138.861 64.9036 138.861C64.0734 138.861 63.5919 138.28 63.5919 137.284V35.4516C63.5919 33.6916 65.0364 31.4169 66.8296 30.3874L76.0614 25.0576V26.8674C76.0614 28.1957 76.8252 29.0591 78.0207 29.0591C78.552 29.0591 79.1664 28.8765 79.7641 28.5278L96.5507 18.8311C98.3937 17.7685 99.8549 15.4605 99.8549 13.6008V11.3095L109.502 5.74719C110.05 5.43172 110.564 5.26569 111.013 5.26569L110.996 5.28229ZM110.996 4.86719C110.498 4.86719 109.9 5.03324 109.286 5.39853L99.4398 11.0771V13.6008C99.4398 15.3111 98.0616 17.4862 96.3514 18.4658L79.5648 28.1625C79.0003 28.4946 78.469 28.644 78.0207 28.644C77.0909 28.644 76.4765 27.9965 76.4765 26.8674V24.3436L66.6304 30.0221C64.7375 31.118 63.1934 33.5422 63.1934 35.4516V137.284C63.1934 138.562 63.8907 139.276 64.9202 139.276C65.4183 139.276 66.016 139.11 66.6304 138.745L109.286 114.121C111.179 113.025 112.723 110.601 112.723 108.692V6.85966C112.723 5.58115 112.026 4.86719 110.996 4.86719V4.86719Z" fill="#3DC4BD"/>
<path d="M117.007 9.84836L107.16 15.5269V18.0507C107.16 19.7609 105.782 21.936 104.072 22.9157L87.2855 32.6124C85.5753 33.592 84.1972 33.0109 84.1972 31.3006V28.7768L74.3511 34.4554C72.4582 35.5512 70.9141 37.9755 70.9141 39.8849V141.717C70.9141 143.61 72.4582 144.274 74.3511 143.178L117.007 118.554C118.899 117.458 120.444 115.034 120.444 113.125V11.2929C120.444 9.40005 118.899 8.73591 117.007 9.83177V9.84836Z" fill="#F5F9FF"/>
<path opacity="0.5" d="M103.076 105.404L70.8979 123.984V99.7419L103.076 81.1621C105.235 79.9168 106.995 80.6474 106.995 82.8225V99.2272C106.995 101.386 105.235 104.159 103.076 105.404ZM120.444 99.7419L96.0363 113.839C93.8778 115.084 92.1178 117.857 92.1178 120.015V125.146C92.1178 127.304 93.8778 128.052 96.0363 126.806L120.444 112.71V99.7419ZM70.9146 47.124V60.0917L103.093 41.5119C105.251 40.2666 107.012 37.4937 107.012 35.3352V30.2046C107.012 28.0461 105.251 27.2989 103.093 28.5442L70.9146 47.124ZM87.9502 59.3944V64.525C87.9502 66.6835 89.7102 67.4307 91.8687 66.1854L120.444 49.681V36.7134L91.8687 53.2177C89.7102 54.463 87.9502 57.2358 87.9502 59.3944ZM103.392 68.4933V73.6239C103.392 75.7824 105.152 76.5296 107.31 75.2843L120.461 67.6963V54.712L107.31 62.3C105.152 63.5453 103.392 66.3182 103.392 68.4767V68.4933Z" fill="#BBC2CD"/>
<path d="M130.289 53.6659L100.236 71.017C98.0778 72.2623 96.3177 71.5317 96.3177 69.3566V64.226C96.3177 62.0675 98.0778 59.2946 100.236 58.0494L130.289 40.6982C132.448 39.4529 134.208 40.1835 134.208 42.3586V47.4892C134.208 49.6477 132.448 52.4206 130.289 53.6659Z" fill="#0656D7"/>
<path d="M111.444 46.3602L77.8208 65.7702C75.6622 67.0155 73.9022 66.285 73.9022 64.1098V58.9792C73.9022 56.8207 75.6622 54.0479 77.8208 52.8026L111.444 33.3926C113.602 32.1473 115.362 32.8778 115.362 35.0529V40.1836C115.362 42.3421 113.602 45.1149 111.444 46.3602Z" fill="#3DC4BD"/>
<path d="M111.444 110.236L77.8208 129.646C75.6622 130.891 73.9022 130.161 73.9022 127.985V111.581C73.9022 109.422 75.6622 106.649 77.8208 105.404L111.444 85.9941C113.602 84.7488 115.362 85.4794 115.362 87.6545V104.059C115.362 106.218 113.602 108.991 111.444 110.236Z" fill="#3DC4BD"/>
<path d="M130.29 71.6815L115.678 80.1163C113.52 81.3616 111.76 80.631 111.76 78.4559V73.3253C111.76 71.1668 113.52 68.3939 115.678 67.1486L130.29 58.7138C132.448 57.4685 134.208 58.1991 134.208 60.3742V65.5048C134.208 67.6634 132.448 70.4362 130.29 71.6815Z" fill="#0656D7"/>
<path d="M130.29 116.694L104.404 131.638C102.245 132.883 100.485 132.152 100.485 129.977V124.847C100.485 122.688 102.245 119.915 104.404 118.67L130.29 103.727C132.448 102.481 134.208 103.212 134.208 105.387V110.518C134.208 112.676 132.448 115.449 130.29 116.694Z" fill="#0656D7"/>
<path d="M127.883 48.2529C128.862 47.6884 129.659 46.4431 129.659 45.4635C129.659 44.4838 128.862 44.1518 127.883 44.7163C126.903 45.2809 126.106 46.5261 126.106 47.5058C126.106 48.4854 126.903 48.8175 127.883 48.2529Z" fill="#F5F9FF"/>
<path d="M127.882 48.9835C125.973 50.096 124.412 52.2877 124.412 53.8817L131.352 49.8802C131.352 48.2862 129.792 47.8877 127.882 49.0002V48.9835Z" fill="#F5F9FF"/>
<path d="M127.883 111.447C128.862 110.883 129.659 109.637 129.659 108.658C129.659 107.678 128.862 107.346 127.883 107.911C126.903 108.475 126.106 109.72 126.106 110.7C126.106 111.68 126.903 112.012 127.883 111.447Z" fill="#F5F9FF"/>
<path d="M127.882 112.161C125.973 113.274 124.412 115.465 124.412 117.059L131.352 113.058C131.352 111.464 129.792 111.065 127.882 112.178V112.161Z" fill="#F5F9FF"/>
<path d="M82.1218 56.305V55.4748L81.3912 55.7903C81.3248 55.5412 81.2085 55.3254 81.0591 55.176L81.4908 54.3126L80.8931 54.0635L80.2953 54.8605C80.0462 54.8605 79.7806 54.8771 79.4817 54.9933L79.3655 54.3291L78.5353 54.8107L78.4191 55.6077C78.1202 55.8401 77.8545 56.1224 77.6055 56.4213L77.0077 56.3383L76.4266 57.2681L76.8583 57.6167C76.7089 57.9488 76.576 58.2975 76.5262 58.6296L75.7957 59.1775V60.0077L76.5262 59.6922C76.5926 59.9413 76.7089 60.1571 76.8583 60.3066L76.4266 61.17L77.0077 61.4191L77.6055 60.6221C77.8545 60.6221 78.1202 60.6055 78.4191 60.4892L78.5353 61.1534L79.3655 60.6719L79.4817 59.8749C79.7806 59.6424 80.0462 59.3601 80.2953 59.0613L80.8931 59.1443L81.4908 58.2145L81.0591 57.8658C81.2085 57.5337 81.3414 57.1851 81.3912 56.853L82.1218 56.305ZM78.9504 58.7458C78.3859 59.0779 77.921 58.8786 77.921 58.3141C77.921 57.7495 78.3859 57.019 78.9504 56.6869C79.5149 56.3548 79.9798 56.5541 79.9798 57.1186C79.9798 57.6831 79.5149 58.4137 78.9504 58.7458Z" fill="#F5F9FF"/>
<path d="M85.8242 57.136V56.4885L85.2597 56.7209C85.2098 56.5216 85.1268 56.3556 84.994 56.2394L85.3427 55.5752L84.8944 55.376L84.4128 55.9903C84.2302 55.9903 84.0144 55.9903 83.7819 56.0899L83.6989 55.5586L83.0513 55.9239L82.9517 56.5548C82.7193 56.7375 82.5034 56.9533 82.3208 57.1858L81.8558 57.1028L81.3909 57.8334L81.723 58.1156C81.5902 58.3813 81.5072 58.6469 81.4573 58.896L80.8762 59.3111V59.9587L81.4407 59.7262C81.4906 59.9254 81.5736 60.0915 81.7064 60.2077L81.3577 60.8719L81.806 61.0711L82.2875 60.4568C82.4702 60.4568 82.686 60.4568 82.9185 60.3572L83.0015 60.8885L83.6491 60.5232L83.7487 59.8923C83.9812 59.7096 84.197 59.4937 84.3797 59.2613L84.8446 59.3443L85.3095 58.6138L84.9774 58.3315C85.1102 58.0658 85.1932 57.8001 85.243 57.5511L85.8242 57.136ZM83.3336 59.6266C82.5698 60.0583 81.9389 59.7926 81.9555 59.0122C81.9555 58.2319 82.5864 57.2522 83.3668 56.8205C84.1472 56.3888 84.7615 56.6545 84.7449 57.4348C84.7449 58.2152 84.114 59.1949 83.3336 59.6266Z" fill="#F5F9FF"/>
<path d="M87.3853 52.8352V52.3869L86.9868 52.5529C86.9536 52.42 86.8871 52.3038 86.8041 52.2208L87.0532 51.7559L86.7377 51.623L86.4056 52.0548C86.2728 52.0548 86.1234 52.0548 85.9739 52.1212L85.9075 51.7559L85.4592 52.005L85.3928 52.4367C85.2268 52.5695 85.0773 52.7023 84.9445 52.8683L84.6124 52.8185L84.2969 53.3167L84.5294 53.5159C84.4464 53.6986 84.38 53.8812 84.3467 54.0638L83.9482 54.3627V54.811L84.3467 54.645C84.38 54.7778 84.4464 54.8941 84.5294 54.9771L84.2803 55.442L84.5958 55.5748L84.9279 55.1431C85.0607 55.1431 85.2102 55.1431 85.3596 55.0767L85.426 55.442L85.8743 55.1929L85.9407 54.7612C86.1067 54.6284 86.2562 54.4955 86.389 54.3295L86.7211 54.3793L87.0366 53.8812L86.8041 53.682C86.8871 53.4993 86.9536 53.3167 86.9868 53.134L87.3853 52.8352ZM85.6584 53.9974C85.426 54.1303 85.2433 54.0472 85.2433 53.8148C85.2433 53.5823 85.426 53.3001 85.6584 53.1673C85.8909 53.0344 86.0735 53.1174 86.0735 53.3499C86.0735 53.5823 85.8909 53.8646 85.6584 53.9974Z" fill="#F5F9FF"/>
<path d="M82.1218 109.488V108.657L81.3912 108.973C81.3248 108.724 81.2085 108.508 81.0591 108.359L81.4908 107.495L80.8931 107.246L80.2953 108.043C80.0462 108.043 79.7806 108.06 79.4817 108.176L79.3655 107.512L78.5353 107.993L78.4191 108.79C78.1202 109.023 77.8545 109.305 77.6055 109.604L77.0077 109.521L76.4266 110.451L76.8583 110.799C76.7089 111.131 76.576 111.48 76.5262 111.812L75.7957 112.36V113.19L76.5262 112.875C76.5926 113.124 76.7089 113.34 76.8583 113.489L76.4266 114.353L77.0077 114.602L77.6055 113.805C77.8545 113.805 78.1202 113.788 78.4191 113.672L78.5353 114.336L79.3655 113.854L79.4817 113.057C79.7806 112.825 80.0462 112.543 80.2953 112.244L80.8931 112.327L81.4908 111.397L81.0591 111.048C81.2085 110.716 81.3414 110.368 81.3912 110.036L82.1218 109.488ZM78.9504 111.928C78.3859 112.26 77.921 112.061 77.921 111.497C77.921 110.932 78.3859 110.202 78.9504 109.87C79.5149 109.537 79.9798 109.737 79.9798 110.301C79.9798 110.866 79.5149 111.596 78.9504 111.928Z" fill="#F5F9FF"/>
<path d="M85.8242 110.319V109.671L85.2597 109.904C85.2098 109.704 85.1268 109.538 84.994 109.422L85.3427 108.758L84.8944 108.559L84.4128 109.173C84.2302 109.173 84.0144 109.173 83.7819 109.273L83.6989 108.741L83.0513 109.107L82.9517 109.737C82.7193 109.92 82.5034 110.136 82.3208 110.368L81.8558 110.285L81.3909 111.016L81.723 111.298C81.5902 111.564 81.5072 111.83 81.4573 112.079L80.8762 112.494V113.141L81.4407 112.909C81.4906 113.108 81.5736 113.274 81.7064 113.39L81.3577 114.054L81.806 114.254L82.2875 113.639C82.4702 113.639 82.686 113.639 82.9185 113.54L83.0015 114.071L83.6491 113.706L83.7487 113.075C83.9812 112.892 84.197 112.676 84.3797 112.444L84.8446 112.527L85.3095 111.796L84.9774 111.514C85.1102 111.248 85.1932 110.983 85.243 110.734L85.8242 110.319ZM83.3336 112.809C82.5698 113.241 81.9389 112.975 81.9555 112.195C81.9555 111.414 82.5864 110.435 83.3668 110.003C84.1472 109.571 84.7615 109.837 84.7449 110.617C84.7449 111.398 84.114 112.377 83.3336 112.809Z" fill="#F5F9FF"/>
<path d="M87.3853 106.018V105.569L86.9868 105.736C86.9536 105.603 86.8871 105.486 86.8041 105.403L87.0532 104.939L86.7377 104.806L86.4056 105.237C86.2728 105.237 86.1234 105.237 85.9739 105.304L85.9075 104.939L85.4592 105.188L85.3928 105.619C85.2268 105.752 85.0773 105.885 84.9445 106.051L84.6124 106.001L84.2969 106.499L84.5294 106.699C84.4464 106.881 84.38 107.064 84.3467 107.246L83.9482 107.545V107.994L84.3467 107.828C84.38 107.96 84.4464 108.077 84.5294 108.16L84.2803 108.625L84.5958 108.757L84.9279 108.326C85.0607 108.326 85.2102 108.326 85.3596 108.259L85.426 108.625L85.8743 108.376L85.9407 107.944C86.1067 107.811 86.2562 107.678 86.389 107.512L86.7211 107.562L87.0366 107.064L86.8041 106.865C86.8871 106.682 86.9536 106.499 86.9868 106.317L87.3853 106.018ZM85.6584 107.18C85.426 107.313 85.2433 107.23 85.2433 106.997C85.2433 106.765 85.426 106.483 85.6584 106.35C85.8909 106.217 86.0735 106.3 86.0735 106.532C86.0735 106.765 85.8909 107.047 85.6584 107.18Z" fill="#F5F9FF"/>
<path d="M89.1781 49.5306V50.2114L92.8476 48.1026V47.4219L89.1781 49.5306Z" fill="#F5F9FF"/>
<path d="M95.819 46.3927L93.7601 47.5715V46.8908L95.819 45.7119V46.3927Z" fill="#F5F9FF"/>
<path d="M98.476 44.8487L96.7325 45.8616V45.1808L98.476 44.168V44.8487Z" fill="#F5F9FF"/>
<path d="M89.2939 51.3244V52.0218L91.6185 50.6769V49.9961L89.2939 51.3244Z" fill="#F5F9FF"/>
<path d="M94.3251 49.0997L92.5319 50.1458V49.465L94.3251 48.4189V49.0997Z" fill="#F5F9FF"/>
<path d="M100.519 45.5294L95.2554 48.5679V47.8871L100.519 44.8486V45.5294Z" fill="#F5F9FF"/>
<path d="M89.1781 53.2503V53.9311L92.8476 51.8224V51.1416L89.1781 53.2503Z" fill="#F5F9FF"/>
<path d="M95.819 50.1124L93.7601 51.2913V50.6105L95.819 49.4316V50.1124Z" fill="#F5F9FF"/>
<path d="M98.476 48.5685L96.7325 49.5813V48.9006L98.476 47.8877V48.5685Z" fill="#F5F9FF"/>
<path d="M89.2939 55.0432V55.7239L91.6185 54.3956V53.6982L89.2939 55.0432Z" fill="#F5F9FF"/>
<path d="M94.3251 52.8185L92.5319 53.8645V53.1838L94.3251 52.1377V52.8185Z" fill="#F5F9FF"/>
<path d="M100.984 48.9835L95.2554 52.2877V51.607L100.984 48.3027V48.9835Z" fill="#F5F9FF"/>
<path d="M102.561 42.4913L99.3898 44.3343V43.6536L102.561 41.8105V42.4913Z" fill="#F5F9FF"/>
<path d="M105.55 40.7648L103.491 41.9602V41.2795L105.55 40.084V40.7648Z" fill="#F5F9FF"/>
<path d="M111.627 37.2608L106.479 40.233V39.5522L111.627 36.5801V37.2608Z" fill="#F5F9FF"/>
<path d="M104.337 43.338L101.432 44.9984V44.3176L104.337 42.6572V43.338Z" fill="#F5F9FF"/>
<path d="M107.326 41.6114L105.251 42.8069V42.1261L107.326 40.9307V41.6114Z" fill="#F5F9FF"/>
<path d="M111.561 39.17L108.24 41.0795V40.3987L111.561 38.4727V39.17Z" fill="#F5F9FF"/>
<path d="M102.561 46.2101L99.3898 48.0531V47.3557L102.561 45.5293V46.2101Z" fill="#F5F9FF"/>
<path d="M105.55 44.4835L103.491 45.679V44.9982L105.55 43.8027V44.4835Z" fill="#F5F9FF"/>
<path d="M110.763 41.4786L106.479 43.9526V43.2718L110.763 40.7979V41.4786Z" fill="#F5F9FF"/>
<path d="M104.338 47.0567L101.88 48.4515V47.7707L104.338 46.3594V47.0567Z" fill="#F5F9FF"/>
<path d="M107.326 45.3302L105.251 46.5257V45.8283L107.326 44.6328V45.3302Z" fill="#F5F9FF"/>
<path d="M109.651 43.9689L108.24 44.7991V44.1017L109.651 43.2881V43.9689Z" fill="#F5F9FF"/>
<path d="M89.1781 101.485V102.182L92.8476 100.057V99.376L89.1781 101.485Z" fill="#F5F9FF"/>
<path d="M95.819 98.3468L93.7601 99.5256V98.8449L95.819 97.666V98.3468Z" fill="#F5F9FF"/>
<path d="M98.476 96.8194L96.7325 97.8157V97.1349L98.476 96.1221V96.8194Z" fill="#F5F9FF"/>
<path d="M89.2939 103.295V103.976L91.6185 102.631V101.95L89.2939 103.295Z" fill="#F5F9FF"/>
<path d="M94.3251 101.07L92.5319 102.1V101.419L94.3251 100.373V101.07Z" fill="#F5F9FF"/>
<path d="M100.071 97.7491L95.2554 100.539V99.8412L100.071 97.0684V97.7491Z" fill="#F5F9FF"/>
<path d="M89.1781 105.204V105.885L92.8476 103.776V103.096L89.1781 105.204Z" fill="#F5F9FF"/>
<path d="M95.819 102.067L93.7601 103.245V102.565L95.819 101.386V102.067Z" fill="#F5F9FF"/>
<path d="M98.476 100.523L96.7325 101.535V100.855L98.476 99.8418V100.523Z" fill="#F5F9FF"/>
<path d="M89.2939 106.997V107.695L91.6185 106.35V105.669L89.2939 106.997Z" fill="#F5F9FF"/>
<path d="M94.3251 104.773L92.5319 105.819V105.138L94.3251 104.092V104.773Z" fill="#F5F9FF"/>
<path d="M100.519 101.203L95.2554 104.242V103.561L100.519 100.522V101.203Z" fill="#F5F9FF"/>
<path d="M89.1781 108.924V109.605L92.8476 107.496V106.815L89.1781 108.924Z" fill="#F5F9FF"/>
<path d="M95.819 105.785L93.7601 106.964V106.283L95.819 105.104V105.785Z" fill="#F5F9FF"/>
<path d="M98.476 104.241L96.7325 105.254V104.573L98.476 103.561V104.241Z" fill="#F5F9FF"/>
<path d="M89.2939 110.717V111.398L91.6185 110.069V109.372L89.2939 110.717Z" fill="#F5F9FF"/>
<path d="M94.3251 108.492L92.5319 109.538V108.858L94.3251 107.812V108.492Z" fill="#F5F9FF"/>
<path d="M100.984 104.656L95.2554 107.961V107.28L100.984 103.976V104.656Z" fill="#F5F9FF"/>
<path d="M102.561 94.4454L99.3898 96.2885V95.6077L102.561 93.7646V94.4454Z" fill="#F5F9FF"/>
<path d="M105.55 92.7188L103.491 93.9143V93.2335L105.55 92.0381V92.7188Z" fill="#F5F9FF"/>
<path d="M112.274 88.8497L106.479 92.1871V91.5064L112.274 88.1689V88.8497Z" fill="#F5F9FF"/>
<path d="M104.338 95.2921L100.984 97.2347V96.5374L104.338 94.6113V95.2921Z" fill="#F5F9FF"/>
<path d="M107.326 93.5655L105.251 94.761V94.0803L107.326 92.8848V93.5655Z" fill="#F5F9FF"/>
<path d="M110.764 91.5723L108.24 93.0335V92.3527L110.764 90.8916V91.5723Z" fill="#F5F9FF"/>
<path d="M102.561 98.1641L99.3898 100.007V99.3264L102.561 97.4834V98.1641Z" fill="#F5F9FF"/>
<path d="M105.55 96.4376L103.491 97.6331V96.9523L105.55 95.7568V96.4376Z" fill="#F5F9FF"/>
<path d="M109.784 93.9972L106.479 95.9066V95.2258L109.784 93.3164V93.9972Z" fill="#F5F9FF"/>
<path d="M104.337 99.0108L101.432 100.688V99.9905L104.337 98.3301V99.0108Z" fill="#F5F9FF"/>
<path d="M107.326 97.2842L105.251 98.4797V97.799L107.326 96.6035V97.2842Z" fill="#F5F9FF"/>
<path d="M111.561 94.8438L108.24 96.7533V96.0725L111.561 94.1465V94.8438Z" fill="#F5F9FF"/>
<path d="M102.561 101.884L99.3898 103.727V103.03L102.561 101.203V101.884Z" fill="#F5F9FF"/>
<path d="M105.55 100.157L103.491 101.353V100.672L105.55 99.4766V100.157Z" fill="#F5F9FF"/>
<path d="M110.763 97.1515L106.479 99.6254V98.9447L110.763 96.4707V97.1515Z" fill="#F5F9FF"/>
<path d="M104.338 102.731L101.88 104.125V103.445L104.338 102.033V102.731Z" fill="#F5F9FF"/>
<path d="M107.326 101.004L105.251 102.2V101.502L107.326 100.307V101.004Z" fill="#F5F9FF"/>
<path d="M109.651 99.6427L108.24 100.473V99.7755L109.651 98.9619V99.6427Z" fill="#F5F9FF"/>
<path d="M122.17 49.5146V50.1954L118.5 52.3041V51.6233L122.17 49.5146Z" fill="#F5F9FF"/>
<path d="M115.546 54.0139L117.588 52.8351V52.1543L115.546 53.3332V54.0139Z" fill="#F5F9FF"/>
<path d="M112.889 55.5589L114.632 54.546V53.8652L112.889 54.8781V55.5589Z" fill="#F5F9FF"/>
<path d="M122.054 51.4238V52.1212L119.746 53.4495V52.7687L122.054 51.4238Z" fill="#F5F9FF"/>
<path d="M117.023 55.0276L118.816 53.9815V53.3008L117.023 54.3468V55.0276Z" fill="#F5F9FF"/>
<path d="M111.295 58.3315L116.11 55.5587V54.8779L111.295 57.6508V58.3315Z" fill="#F5F9FF"/>
<path d="M122.17 53.2344V53.9151L118.5 56.0239V55.3431L122.17 53.2344Z" fill="#F5F9FF"/>
<path d="M115.546 57.7337L117.588 56.5548V55.874L115.546 57.0529V57.7337Z" fill="#F5F9FF"/>
<path d="M112.889 59.2776L114.632 58.2647V57.584L112.889 58.5968V59.2776Z" fill="#F5F9FF"/>
<path d="M108.787 57.9164L111.975 56.0899V55.3926L108.787 57.2356V57.9164Z" fill="#F5F9FF"/>
<path d="M105.798 59.6429L107.874 58.4474V57.7666L105.798 58.9621V59.6429Z" fill="#F5F9FF"/>
<path d="M100.054 62.9644L104.886 60.1749V59.4941L100.054 62.2836V62.9644Z" fill="#F5F9FF"/>
<path d="M107.028 60.7885L110.382 58.8624V58.1816L107.028 60.1077V60.7885Z" fill="#F5F9FF"/>
<path d="M104.039 62.5159L106.114 61.3204V60.6396L104.039 61.8351V62.5159Z" fill="#F5F9FF"/>
<path d="M101.565 63.9436L103.126 63.047V62.3662L101.565 63.2628V63.9436Z" fill="#F5F9FF"/>
<path d="M108.787 61.6361L111.975 59.7931V59.1123L108.787 60.9554V61.6361Z" fill="#F5F9FF"/>
<path d="M105.798 63.3626L107.874 62.1671V61.4863L105.798 62.6818V63.3626Z" fill="#F5F9FF"/>
<path d="M102.544 65.2386L104.885 63.8937V63.2129L102.544 64.5578V65.2386Z" fill="#F5F9FF"/>
<path d="M76.4095 122.074V122.771L80.079 120.646V119.965L76.4095 122.074Z" fill="#F5F9FF"/>
<path d="M83.0343 118.936L80.9921 120.115V119.434L83.0343 118.255V118.936Z" fill="#F5F9FF"/>
<path d="M85.7074 117.408L83.964 118.405V117.724L85.7074 116.711V117.408Z" fill="#F5F9FF"/>
<path d="M76.5254 123.884V124.565L78.8333 123.22V122.539L76.5254 123.884Z" fill="#F5F9FF"/>
<path d="M81.557 121.659L79.7638 122.689V122.008L81.557 120.979V121.659Z" fill="#F5F9FF"/>
<path d="M87.3015 118.338L82.4697 121.127V120.447L87.3015 117.657V118.338Z" fill="#F5F9FF"/>
<path d="M76.4095 125.793V126.474L80.079 124.365V123.685L76.4095 125.793Z" fill="#F5F9FF"/>
<path d="M83.0343 122.655L80.9921 123.834V123.153L83.0343 121.975V122.655Z" fill="#F5F9FF"/>
<path d="M85.7074 121.11L83.964 122.123V121.443L85.7074 120.43V121.11Z" fill="#F5F9FF"/>
<path d="M89.7926 115.033L86.6212 116.876V116.196L89.7926 114.353V115.033Z" fill="#F5F9FF"/>
<path d="M92.7817 113.307L90.7228 114.502V113.821L92.7817 112.626V113.307Z" fill="#F5F9FF"/>
<path d="M91.553 115.88L88.199 117.823V117.125L91.553 115.199V115.88Z" fill="#F5F9FF"/>
<path d="M94.5411 114.153L92.4822 115.349V114.668L94.5411 113.473V114.153Z" fill="#F5F9FF"/>
<path d="M97.995 112.161L95.4712 113.622V112.942L97.995 111.48V112.161Z" fill="#F5F9FF"/>
<path d="M89.7926 118.753L86.6212 120.596V119.915L89.7926 118.072V118.753Z" fill="#F5F9FF"/>
<path d="M92.7817 117.026L90.7228 118.222V117.541L92.7817 116.346V117.026Z" fill="#F5F9FF"/>
<path d="M97.0151 114.585L93.7109 116.495V115.814L97.0151 113.904V114.585Z" fill="#F5F9FF"/>
<path d="M93.761 112.061V112.742L102.013 107.993V107.296L93.761 112.061Z" fill="#F5F9FF"/>
<path d="M104.969 106.283L102.927 107.462V106.765L104.969 105.586V106.283Z" fill="#F5F9FF"/>
<path d="M107.642 104.739L105.898 105.752V105.055L107.642 104.059V104.739Z" fill="#F5F9FF"/>
<path d="M98.825 110.999V111.68L100.784 110.551V109.87L98.825 110.999Z" fill="#F5F9FF"/>
<path d="M103.49 108.99L101.697 110.02V109.339L103.49 108.31V108.99Z" fill="#F5F9FF"/>
<path d="M109.235 105.686L104.42 108.458V107.778L109.235 104.988V105.686Z" fill="#F5F9FF"/>
<path d="M98.343 113.141V113.822L102.012 111.696V111.016L98.343 113.141Z" fill="#F5F9FF"/>
<path d="M104.969 109.986L102.927 111.165V110.485L104.969 109.306V109.986Z" fill="#F5F9FF"/>
<path d="M107.642 108.459L105.898 109.455V108.775L107.642 107.778V108.459Z" fill="#F5F9FF"/>
<path d="M111.727 102.382L108.555 104.208V103.528L111.727 101.685V102.382Z" fill="#F5F9FF"/>
<path d="M131.153 61.5029V62.1837L127.483 64.2924V63.6116L131.153 61.5029Z" fill="#F5F9FF"/>
<path d="M124.511 66.0188L126.57 64.8233V64.1426L124.511 65.3214V66.0188Z" fill="#F5F9FF"/>
<path d="M121.854 67.5471L123.598 66.5509V65.8535L121.854 66.8664V67.5471Z" fill="#F5F9FF"/>
<path d="M131.036 63.4287V64.1095L128.711 65.4378V64.757L131.036 63.4287Z" fill="#F5F9FF"/>
<path d="M126.005 67.0159L127.799 65.9698V65.2891L126.005 66.3351V67.0159Z" fill="#F5F9FF"/>
<path d="M120.26 70.3198L125.076 67.547V66.8662L120.26 69.639V70.3198Z" fill="#F5F9FF"/>
<path d="M131.153 65.2227V65.9034L127.483 68.0122V67.3314L131.153 65.2227Z" fill="#F5F9FF"/>
<path d="M124.511 69.722L126.57 68.5431V67.8623L124.511 69.0412V69.722Z" fill="#F5F9FF"/>
<path d="M121.854 71.2659L123.598 70.253V69.5723L121.854 70.5851V71.2659Z" fill="#F5F9FF"/>
<path d="M131.036 67.1318V67.8292L128.711 69.1575V68.4768L131.036 67.1318Z" fill="#F5F9FF"/>
<path d="M126.005 70.7346L127.799 69.6886V69.0078L126.005 70.0539V70.7346Z" fill="#F5F9FF"/>
<path d="M119.812 74.3042L125.075 71.2657V70.5684L119.812 73.6235V74.3042Z" fill="#F5F9FF"/>
<path d="M117.77 69.9047L120.941 68.0782V67.3975L117.77 69.2239V69.9047Z" fill="#F5F9FF"/>
<path d="M114.781 71.6311L116.84 70.4357V69.7549L114.781 70.9504V71.6311Z" fill="#F5F9FF"/>
<path d="M115.994 72.7933L119.348 70.8507V70.1699L115.994 72.096V72.7933Z" fill="#F5F9FF"/>
<path d="M117.77 73.6244L120.941 71.798V71.1006L117.77 72.9436V73.6244Z" fill="#F5F9FF"/>
<path d="M122.237 111.63V112.311L118.584 114.419V113.739L122.237 111.63Z" fill="#F5F9FF"/>
<path d="M115.612 116.129L117.655 114.95V114.27L115.612 115.448V116.129Z" fill="#F5F9FF"/>
<path d="M112.956 117.674L114.699 116.661V115.98L112.956 116.993V117.674Z" fill="#F5F9FF"/>
<path d="M122.137 113.556V114.236L119.813 115.565V114.884L122.137 113.556Z" fill="#F5F9FF"/>
<path d="M117.107 117.143L118.9 116.097V115.416L117.107 116.462V117.143Z" fill="#F5F9FF"/>
<path d="M111.362 120.447L116.177 117.674V116.993L111.362 119.766V120.447Z" fill="#F5F9FF"/>
<path d="M122.237 115.35V116.03L118.584 118.139V117.458L122.237 115.35Z" fill="#F5F9FF"/>
<path d="M115.612 119.849L117.655 118.67V117.989L115.612 119.168V119.849Z" fill="#F5F9FF"/>
<path d="M112.956 121.393L114.699 120.38V119.699L112.956 120.712V121.393Z" fill="#F5F9FF"/>
<path d="M122.137 117.259V117.956L119.813 119.284V118.604L122.137 117.259Z" fill="#F5F9FF"/>
<path d="M117.107 120.862L118.9 119.816V119.135L117.107 120.164V120.862Z" fill="#F5F9FF"/>
<path d="M110.913 124.431L116.177 121.393V120.695L110.913 123.75V124.431Z" fill="#F5F9FF"/>
<path d="M108.854 120.032L112.042 118.205V117.524L108.854 119.351V120.032Z" fill="#F5F9FF"/>
<path d="M104.039 122.821L107.941 120.563V119.882L104.039 122.14V122.821Z" fill="#F5F9FF"/>
<path d="M107.094 122.92L110.448 120.978V120.297L107.094 122.223V122.92Z" fill="#F5F9FF"/>
<path d="M104.106 124.648L106.181 123.452V122.755L104.106 123.95V124.648Z" fill="#F5F9FF"/>
<path d="M108.854 123.751L112.042 121.925V121.228L108.854 123.071V123.751Z" fill="#F5F9FF"/>
<path d="M105.866 125.478L107.941 124.282V123.602L105.866 124.797V125.478Z" fill="#F5F9FF"/>
<path d="M107.094 126.623L110 124.963V124.266L107.094 125.943V126.623Z" fill="#F5F9FF"/>
</svg>
