<svg width="29" height="30" viewBox="0 0 29 30" fill="none" xmlns="http://www.w3.org/2000/svg">
<path d="M26.8719 7.9822C25.9711 8.39163 25.0002 8.66069 23.9941 8.78937C25.0236 8.16937 25.819 7.18673 26.1934 6.00522C25.2224 6.59013 24.1462 6.99956 23.0115 7.23352C22.0873 6.22748 20.7888 5.64258 19.3149 5.64258C16.5658 5.64258 14.3198 7.88862 14.3198 10.6611C14.3198 11.0588 14.3666 11.4448 14.4485 11.8075C10.2839 11.5969 6.57564 9.59654 4.10734 6.56673C3.67451 7.30371 3.42885 8.16937 3.42885 9.08182C3.42885 10.8248 4.30621 12.369 5.66319 13.2464C4.83262 13.2464 4.06055 13.0124 3.38206 12.6614V12.6965C3.38206 15.1297 5.11338 17.1652 7.40621 17.6214C6.67008 17.8229 5.89726 17.8509 5.14847 17.7033C5.4662 18.7006 6.08846 19.5732 6.92777 20.1985C7.76709 20.8237 8.78126 21.1703 9.82772 21.1894C8.05385 22.5937 5.85503 23.3527 3.59262 23.3418C3.19489 23.3418 2.79715 23.3184 2.39941 23.2716C4.62206 24.6988 7.26583 25.5294 10.0968 25.5294C19.3149 25.5294 24.3802 17.8788 24.3802 11.246C24.3802 11.0237 24.3802 10.8131 24.3685 10.5909C25.3511 9.88899 26.1934 8.99994 26.8719 7.9822Z" fill="#FFF4F4"/>
</svg>
