<svg width="30" height="31" viewBox="0 0 30 31" fill="none" xmlns="http://www.w3.org/2000/svg">
<circle r="15" transform="matrix(1 0 0 -1 15 15.8828)" fill="#3F306B"/>
<path d="M22.8824 11.4561C22.3049 11.7186 21.6824 11.8911 21.0374 11.9736C21.6974 11.5761 22.2074 10.9461 22.4474 10.1886C21.8249 10.5636 21.1349 10.8261 20.4074 10.9761C19.8149 10.3311 18.9824 9.95605 18.0374 9.95605C16.2749 9.95605 14.8349 11.3961 14.8349 13.1736C14.8349 13.4286 14.8649 13.6761 14.9174 13.9086C12.2474 13.7736 9.86988 12.4911 8.28738 10.5486C8.00988 11.0211 7.85238 11.5761 7.85238 12.1611C7.85238 13.2786 8.41488 14.2686 9.28488 14.8311C8.75238 14.8311 8.25738 14.6811 7.82238 14.4561V14.4786C7.82238 16.0386 8.93238 17.3436 10.4024 17.6361C9.93043 17.7652 9.43495 17.7832 8.95488 17.6886C9.15859 18.3279 9.55754 18.8874 10.0956 19.2883C10.6338 19.6891 11.284 19.9113 11.9549 19.9236C10.8176 20.8239 9.40788 21.3105 7.95738 21.3036C7.70238 21.3036 7.44738 21.2886 7.19238 21.2586C8.61738 22.1736 10.3124 22.7061 12.1274 22.7061C18.0374 22.7061 21.2849 17.8011 21.2849 13.5486C21.2849 13.4061 21.2849 13.2711 21.2774 13.1286C21.9074 12.6786 22.4474 12.1086 22.8824 11.4561Z" fill="#FFF4F4"/>
</svg>
